M48
;Layer_Color=9474304
;FILE_FORMAT=2:5
INCH,LZ
;TYPE=PLATED
T1F00S00C0.01500
T2F00S00C0.01575
T3F00S00C0.02953
T4F00S00C0.03200
T5F00S00C0.03500
T6F00S00C0.03543
T7F00S00C0.03937
T9F00S00C0.04500
T10F00S00C0.05000
T11F00S00C0.05200
T12F00S00C0.05512
T13F00S00C0.05906
T15F00S00C0.15748
;TYPE=NON_PLATED
T16F00S00C0.15748
%
T01
X12655Y08232
X12597Y09325
X1250292Y0936992
X12449Y09329
X12396Y09289
X1235Y09229
X12241Y09311
X12233Y09054
X12148Y09056
X12067Y08979
X11848Y0897
X11852Y09026
X11779Y08901
X1155494Y0877094
X11508Y08204
X11472Y07967
X11793Y08158
X11949Y08451
X12231Y08678
X12337Y08943
X11963Y09244
X11915Y09245
X11917Y09211
X12269Y07976
X12438Y08112
X11023Y081965
X10746Y08206
X10676Y07953
X10307Y08257
X10103Y08194
X09933Y07972
X11372Y09386
X11398Y09566
X1265Y09547
T02
X0980315Y0767716
X0992126
X1015748
X1033464Y0779527
X1045275
X1051181Y0767716
X1086614
X1098425
X1116141Y0779527
X1127952
X1139763
X1145669Y0767716
X1169291
X1181102
X1198818Y0779527
X121063
X1228346Y0767716
X1251968
X1281496Y0779527
X127559Y0791338
X1263779
X1251968Y081496
X1234252Y0803149
X121063
X1204724Y0791338
X1192913
X1187008Y0803149
X1175196
X1163385
X1151575
X1139763
X1127952
X1116141
X110433
X1110236Y0791338
X1122047
Y0838582
X1127952Y0850393
X115748Y0838582
Y081496
X1163385Y0874016
X1151575
X115748Y0885826
X1145669
X1163385Y0897637
Y092126
X1133858Y0909449
X1116141Y092126
X110433
X1110236Y0933071
X1098425
Y0909449
X110433Y0897637
X1116141
X1110236Y0885826
X1098425
Y0862204
X1092519Y0874016
X1071746
X1074803Y0862204
X103937
X1027559
X1015748
X1003937
X0992126
X0998031Y0897637
X098622
X0992126Y0909449
X1003937
X1045275Y0897637
Y0874016
X1080708Y0897637
X1092519
Y092126
Y0803149
X1080708
X1068897
X1062992Y0791338
X1051181
X103937
X1033464Y0803149
X1021653
X0998031
X1003937Y081496
X0992126
X0980315
Y0791338
X1116141Y0944882
X1163385
X1187008
X1181102Y0956693
X1246063Y0968504
X1251968Y0956693
T03
X09783Y06781
Y07081
X10578Y06895
X11347Y0677
Y0707
X12161Y07065
Y06765
X13084Y08015
Y08115
Y08215
Y08315
X1145701Y0863095
X1145701Y0873095
X11338
X11338Y0863095
X1121899
X1121899Y0873095
X1109998
X1109998Y0863095
X11102Y09024
X11202
X11302
X11402
X11502
X11406Y09144
X11306
X11206
X11106
X11108Y09254
X11208
X11308
X11408
X11418Y09621
X11518
X11456Y09722
X11356
X11256
X11156
X11118Y09621
X11218
X11318
X1201Y09684
X1211
X1221
X1231
T04
X1094Y09621
Y09721
T05
X11102Y08394
Y08512
X11402
Y08394
T06
X09786Y07157
Y07457
X1058Y07495
X11352Y07443
Y07143
X12156Y07145
Y07445
X13082Y08496
Y08596
Y08696
Y08796
Y08896
Y08996
Y09096
Y09196
X12478Y08286
X12378
X12278
X12178
X12078
T07
X09747Y08698
Y08898
X10907Y09103
Y08493
T09
X09924Y06882
X10404
X10723Y06879
X1073056Y0735931
X10404Y0736232
X1016778Y0744105
X0993156Y0736232
X1096678Y0743806
X11203Y0735931
X1151856Y0735831
X1175478Y0743706
X11991Y0735831
X1232856Y0736031
X12321Y0688
X11991Y06878
X11511
X11203Y06879
X12801Y0688
Y0736031
X1256478Y0743905
T10
X1023538Y0656338
X10438Y06566
X10638
X1085699Y06563
X1105961Y0656562
X1125961
X11473Y06563
X1167562Y0656562
X1187562
X12096Y06566
X1229862Y0656862
X1249862
T11
X10949Y0949533
X11099
X11249
X11399
X11549
X11699
X1194101
X1209101
X1224101
X1239101
T12
X10182Y09323
X10382
T13
X10578Y07195
X1058Y07195
T15
X09695Y06482
X13042Y09634
T16
X09695Y09631
M30
