G04*
G04 #@! TF.GenerationSoftware,Altium Limited,Altium Designer,20.2.6 (244)*
G04*
G04 Layer_Color=16711935*
%FSTAX25Y25*%
%MOIN*%
G70*
G04*
G04 #@! TF.SameCoordinates,D37F4820-9CCB-4A9C-A827-6EB3CEA44CBB*
G04*
G04*
G04 #@! TF.FilePolarity,Negative*
G04*
G01*
G75*
%ADD47C,0.10800*%
%ADD48O,0.10800X0.07300*%
%ADD49R,0.10800X0.07300*%
%ADD50C,0.06706*%
%ADD51R,0.06706X0.06706*%
%ADD52C,0.09800*%
%ADD53R,0.09800X0.09800*%
%ADD54R,0.08674X0.10642*%
%ADD55C,0.12800*%
%ADD56R,0.07887X0.07887*%
%ADD57C,0.11800*%
%ADD58C,0.10642*%
%ADD59C,0.09300*%
%ADD60R,0.06706X0.06706*%
%ADD61C,0.00800*%
%ADD62C,0.06784*%
%ADD63R,0.06784X0.06784*%
%ADD64C,0.07800*%
G04:AMPARAMS|DCode=65|XSize=145.8mil|YSize=86.74mil|CornerRadius=23.68mil|HoleSize=0mil|Usage=FLASHONLY|Rotation=0.000|XOffset=0mil|YOffset=0mil|HoleType=Round|Shape=RoundedRectangle|*
%AMROUNDEDRECTD65*
21,1,0.14580,0.03937,0,0,0.0*
21,1,0.09843,0.08674,0,0,0.0*
1,1,0.04737,0.04921,-0.01968*
1,1,0.04737,-0.04921,-0.01968*
1,1,0.04737,-0.04921,0.01968*
1,1,0.04737,0.04921,0.01968*
%
%ADD65ROUNDEDRECTD65*%
%ADD66R,0.14580X0.10642*%
%ADD67R,0.10642X0.14580*%
G04:AMPARAMS|DCode=68|XSize=108mil|YSize=108mil|CornerRadius=29mil|HoleSize=0mil|Usage=FLASHONLY|Rotation=90.000|XOffset=0mil|YOffset=0mil|HoleType=Round|Shape=RoundedRectangle|*
%AMROUNDEDRECTD68*
21,1,0.10800,0.05000,0,0,90.0*
21,1,0.05000,0.10800,0,0,90.0*
1,1,0.05800,0.02500,0.02500*
1,1,0.05800,0.02500,-0.02500*
1,1,0.05800,-0.02500,-0.02500*
1,1,0.05800,-0.02500,0.02500*
%
%ADD68ROUNDEDRECTD68*%
G04:AMPARAMS|DCode=69|XSize=108mil|YSize=108mil|CornerRadius=16.5mil|HoleSize=0mil|Usage=FLASHONLY|Rotation=90.000|XOffset=0mil|YOffset=0mil|HoleType=Round|Shape=RoundedRectangle|*
%AMROUNDEDRECTD69*
21,1,0.10800,0.07500,0,0,90.0*
21,1,0.07500,0.10800,0,0,90.0*
1,1,0.03300,0.03750,0.03750*
1,1,0.03300,0.03750,-0.03750*
1,1,0.03300,-0.03750,-0.03750*
1,1,0.03300,-0.03750,0.03750*
%
%ADD69ROUNDEDRECTD69*%
%ADD70R,0.06784X0.06784*%
G04:AMPARAMS|DCode=103|XSize=218mil|YSize=108mil|CornerRadius=13.5mil|HoleSize=0mil|Usage=FLASHONLY|Rotation=270.000|XOffset=0mil|YOffset=0mil|HoleType=Round|Shape=RoundedRectangle|*
%AMROUNDEDRECTD103*
21,1,0.21800,0.08100,0,0,270.0*
21,1,0.19100,0.10800,0,0,270.0*
1,1,0.02700,-0.04050,-0.09550*
1,1,0.02700,-0.04050,0.09550*
1,1,0.02700,0.04050,0.09550*
1,1,0.02700,0.04050,-0.09550*
%
%ADD103ROUNDEDRECTD103*%
G04:AMPARAMS|DCode=104|XSize=58mil|YSize=108mil|CornerRadius=10.25mil|HoleSize=0mil|Usage=FLASHONLY|Rotation=270.000|XOffset=0mil|YOffset=0mil|HoleType=Round|Shape=RoundedRectangle|*
%AMROUNDEDRECTD104*
21,1,0.05800,0.08750,0,0,270.0*
21,1,0.03750,0.10800,0,0,270.0*
1,1,0.02050,-0.04375,-0.01875*
1,1,0.02050,-0.04375,0.01875*
1,1,0.02050,0.04375,0.01875*
1,1,0.02050,0.04375,-0.01875*
%
%ADD104ROUNDEDRECTD104*%
G04:AMPARAMS|DCode=105|XSize=88mil|YSize=108mil|CornerRadius=14mil|HoleSize=0mil|Usage=FLASHONLY|Rotation=270.000|XOffset=0mil|YOffset=0mil|HoleType=Round|Shape=RoundedRectangle|*
%AMROUNDEDRECTD105*
21,1,0.08800,0.08000,0,0,270.0*
21,1,0.06000,0.10800,0,0,270.0*
1,1,0.02800,-0.04000,-0.03000*
1,1,0.02800,-0.04000,0.03000*
1,1,0.02800,0.04000,0.03000*
1,1,0.02800,0.04000,-0.03000*
%
%ADD105ROUNDEDRECTD105*%
D47*
X11399Y0949533D02*
D03*
X11249D02*
D03*
X11699D02*
D03*
X11549D02*
D03*
X11099D02*
D03*
X11399D02*
D03*
X11249D02*
D03*
X1224101D02*
D03*
X1209101D02*
D03*
X1194101D02*
D03*
D48*
X1094Y09721D02*
D03*
D49*
Y09621D02*
D03*
D50*
X12078Y08286D02*
D03*
X12178D02*
D03*
X12278D02*
D03*
X12378D02*
D03*
X13082Y09096D02*
D03*
Y08996D02*
D03*
Y08896D02*
D03*
Y08796D02*
D03*
Y08696D02*
D03*
Y08596D02*
D03*
Y08496D02*
D03*
X11518Y09621D02*
D03*
X11418D02*
D03*
X11318D02*
D03*
X11218D02*
D03*
X11202Y09024D02*
D03*
X11302D02*
D03*
X11402D02*
D03*
X11502D02*
D03*
D51*
X12478Y08286D02*
D03*
X11118Y09621D02*
D03*
X11102Y09024D02*
D03*
D52*
X10907Y09103D02*
D03*
Y08493D02*
D03*
X09747Y08698D02*
D03*
D53*
Y08898D02*
D03*
D54*
X10182Y09323D02*
D03*
X10382D02*
D03*
D55*
X12321Y0688D02*
D03*
X12801D02*
D03*
X1256478Y0743905D02*
D03*
X11511Y06878D02*
D03*
X11991D02*
D03*
X1175478Y0743706D02*
D03*
X10723Y06879D02*
D03*
X11203D02*
D03*
X1096678Y0743806D02*
D03*
X09924Y06882D02*
D03*
X10404D02*
D03*
X1016778Y0744105D02*
D03*
X1232856Y0736031D02*
D03*
X12801D02*
D03*
X1151856Y0735831D02*
D03*
X11991D02*
D03*
X1073056Y0735931D02*
D03*
X11203D02*
D03*
X0993156Y0736232D02*
D03*
X10404D02*
D03*
D56*
X12161Y06765D02*
D03*
X12156Y07445D02*
D03*
Y07145D02*
D03*
X12161Y07065D02*
D03*
X11347Y0677D02*
D03*
X11352Y07443D02*
D03*
Y07143D02*
D03*
X11347Y0707D02*
D03*
X10578Y06895D02*
D03*
X1058Y07495D02*
D03*
X09783Y06781D02*
D03*
X09786Y07457D02*
D03*
Y07157D02*
D03*
X09783Y07081D02*
D03*
D57*
X12096Y06566D02*
D03*
X1249862Y0656862D02*
D03*
X1229862D02*
D03*
X11473Y06563D02*
D03*
X1187562Y0656562D02*
D03*
X1167562D02*
D03*
X1085699Y06563D02*
D03*
X1125961Y0656562D02*
D03*
X1105961D02*
D03*
X1023538Y0656338D02*
D03*
X10638Y06566D02*
D03*
X10438D02*
D03*
D58*
X1058Y07195D02*
D03*
X10578Y07195D02*
D03*
D59*
X11402Y08512D02*
D03*
X11102D02*
D03*
X11402Y08394D02*
D03*
X11102D02*
D03*
D60*
X13082Y09196D02*
D03*
D61*
X12924Y06482D02*
D03*
X09695D02*
D03*
Y09631D02*
D03*
X13042Y09634D02*
D03*
D62*
X11406Y09144D02*
D03*
X11306D02*
D03*
X11206D02*
D03*
X11408Y09254D02*
D03*
X11308D02*
D03*
X11208D02*
D03*
X1211Y09684D02*
D03*
X1221D02*
D03*
X1231D02*
D03*
X11256Y09722D02*
D03*
X11356D02*
D03*
X11456D02*
D03*
X13084Y08315D02*
D03*
Y08215D02*
D03*
Y08115D02*
D03*
D63*
X11106Y09144D02*
D03*
X11108Y09254D02*
D03*
X1201Y09684D02*
D03*
X11156Y09722D02*
D03*
D64*
X1145701Y0873095D02*
D03*
X1145701Y0863095D02*
D03*
X1109998Y0873095D02*
D03*
X1109998Y0863095D02*
D03*
X1121899Y0873095D02*
D03*
X1121899Y0863095D02*
D03*
X11338D02*
D03*
X11338Y0873095D02*
D03*
D65*
X10281Y0945678D02*
D03*
D66*
Y09693D02*
D03*
D67*
X1009596Y0957489D02*
D03*
D68*
X10949Y0949533D02*
D03*
D69*
X1239101D02*
D03*
D70*
X13084Y08015D02*
D03*
D103*
X10635Y09613D02*
D03*
X0993Y09581D02*
D03*
D104*
X10635Y09533D02*
D03*
Y09693D02*
D03*
X0993Y09501D02*
D03*
Y09661D02*
D03*
D105*
X10635Y09613D02*
D03*
X0993Y09581D02*
D03*
M02*
