G04*
G04 #@! TF.GenerationSoftware,Altium Limited,Altium Designer,20.2.6 (244)*
G04*
G04 Layer_Color=8388736*
%FSTAX25Y25*%
%MOIN*%
G70*
G04*
G04 #@! TF.SameCoordinates,D37F4820-9CCB-4A9C-A827-6EB3CEA44CBB*
G04*
G04*
G04 #@! TF.FilePolarity,Negative*
G04*
G01*
G75*
%ADD35R,0.05524X0.04343*%
%ADD36R,0.05800X0.06300*%
%ADD37R,0.06800X0.11036*%
G04:AMPARAMS|DCode=38|XSize=74.93mil|YSize=94.61mil|CornerRadius=20.73mil|HoleSize=0mil|Usage=FLASHONLY|Rotation=180.000|XOffset=0mil|YOffset=0mil|HoleType=Round|Shape=RoundedRectangle|*
%AMROUNDEDRECTD38*
21,1,0.07493,0.05315,0,0,180.0*
21,1,0.03347,0.09461,0,0,180.0*
1,1,0.04146,-0.01673,0.02657*
1,1,0.04146,0.01673,0.02657*
1,1,0.04146,0.01673,-0.02657*
1,1,0.04146,-0.01673,-0.02657*
%
%ADD38ROUNDEDRECTD38*%
%ADD39R,0.04147X0.05524*%
%ADD40R,0.05524X0.05524*%
G04:AMPARAMS|DCode=41|XSize=94.61mil|YSize=67.06mil|CornerRadius=11.38mil|HoleSize=0mil|Usage=FLASHONLY|Rotation=0.000|XOffset=0mil|YOffset=0mil|HoleType=Round|Shape=RoundedRectangle|*
%AMROUNDEDRECTD41*
21,1,0.09461,0.04429,0,0,0.0*
21,1,0.07185,0.06706,0,0,0.0*
1,1,0.02276,0.03593,-0.02215*
1,1,0.02276,-0.03593,-0.02215*
1,1,0.02276,-0.03593,0.02215*
1,1,0.02276,0.03593,0.02215*
%
%ADD41ROUNDEDRECTD41*%
%ADD42R,0.08674X0.06706*%
%ADD43R,0.06706X0.04737*%
%ADD44R,0.04737X0.09658*%
%ADD45R,0.12611X0.10800*%
%ADD46R,0.03556X0.10800*%
%ADD47C,0.10800*%
%ADD48O,0.10800X0.07300*%
%ADD49R,0.10800X0.07300*%
%ADD50C,0.06706*%
%ADD51R,0.06706X0.06706*%
%ADD52C,0.09800*%
%ADD53R,0.09800X0.09800*%
%ADD54R,0.08674X0.10642*%
%ADD55C,0.12800*%
%ADD56R,0.07887X0.07887*%
%ADD57C,0.11800*%
%ADD58C,0.10642*%
%ADD59C,0.09300*%
%ADD60R,0.06706X0.06706*%
%ADD61C,0.00800*%
%ADD62C,0.06784*%
%ADD63R,0.06784X0.06784*%
%ADD64C,0.07800*%
G04:AMPARAMS|DCode=65|XSize=145.8mil|YSize=86.74mil|CornerRadius=23.68mil|HoleSize=0mil|Usage=FLASHONLY|Rotation=0.000|XOffset=0mil|YOffset=0mil|HoleType=Round|Shape=RoundedRectangle|*
%AMROUNDEDRECTD65*
21,1,0.14580,0.03937,0,0,0.0*
21,1,0.09843,0.08674,0,0,0.0*
1,1,0.04737,0.04921,-0.01968*
1,1,0.04737,-0.04921,-0.01968*
1,1,0.04737,-0.04921,0.01968*
1,1,0.04737,0.04921,0.01968*
%
%ADD65ROUNDEDRECTD65*%
%ADD66R,0.14580X0.10642*%
%ADD67R,0.10642X0.14580*%
G04:AMPARAMS|DCode=68|XSize=108mil|YSize=108mil|CornerRadius=29mil|HoleSize=0mil|Usage=FLASHONLY|Rotation=90.000|XOffset=0mil|YOffset=0mil|HoleType=Round|Shape=RoundedRectangle|*
%AMROUNDEDRECTD68*
21,1,0.10800,0.05000,0,0,90.0*
21,1,0.05000,0.10800,0,0,90.0*
1,1,0.05800,0.02500,0.02500*
1,1,0.05800,0.02500,-0.02500*
1,1,0.05800,-0.02500,-0.02500*
1,1,0.05800,-0.02500,0.02500*
%
%ADD68ROUNDEDRECTD68*%
G04:AMPARAMS|DCode=69|XSize=108mil|YSize=108mil|CornerRadius=16.5mil|HoleSize=0mil|Usage=FLASHONLY|Rotation=90.000|XOffset=0mil|YOffset=0mil|HoleType=Round|Shape=RoundedRectangle|*
%AMROUNDEDRECTD69*
21,1,0.10800,0.07500,0,0,90.0*
21,1,0.07500,0.10800,0,0,90.0*
1,1,0.03300,0.03750,0.03750*
1,1,0.03300,0.03750,-0.03750*
1,1,0.03300,-0.03750,-0.03750*
1,1,0.03300,-0.03750,0.03750*
%
%ADD69ROUNDEDRECTD69*%
%ADD70R,0.06784X0.06784*%
D35*
X11701Y0969D02*
D03*
Y096D02*
D03*
D36*
X1169Y08976D02*
D03*
X1178D02*
D03*
X12554Y07807D02*
D03*
X12553Y07959D02*
D03*
X11771Y078D02*
D03*
X11772Y07953D02*
D03*
X11681Y08402D02*
D03*
X11771D02*
D03*
X11681Y078D02*
D03*
X10121Y07952D02*
D03*
X10211D02*
D03*
X09919Y07581D02*
D03*
X10009D02*
D03*
X10119Y07762D02*
D03*
X10209D02*
D03*
X10684Y07592D02*
D03*
X10774D02*
D03*
X10888Y078D02*
D03*
X10978D02*
D03*
X10884Y07957D02*
D03*
X10974D02*
D03*
X11682Y07953D02*
D03*
X11483Y07587D02*
D03*
X11573D02*
D03*
X12463Y07959D02*
D03*
X12272Y07593D02*
D03*
X12362D02*
D03*
X12464Y07807D02*
D03*
D37*
X1179015Y09147D02*
D03*
X1168385D02*
D03*
D38*
X12668Y07727D02*
D03*
X12778Y08117D02*
D03*
X1189Y07709D02*
D03*
X12Y08099D02*
D03*
X1189D02*
D03*
X12Y07709D02*
D03*
X11208Y08108D02*
D03*
X11098D02*
D03*
X11208Y07718D02*
D03*
X11098D02*
D03*
X10428Y08105D02*
D03*
X10318D02*
D03*
X10428Y07715D02*
D03*
X10318D02*
D03*
X12668Y08117D02*
D03*
X12778Y07727D02*
D03*
D39*
X0997Y0777279D02*
D03*
X09933Y07871D02*
D03*
X100074Y0787121D02*
D03*
X107504Y0786621D02*
D03*
X10676Y07866D02*
D03*
X10713Y0776779D02*
D03*
X115464Y0787621D02*
D03*
X11472Y07876D02*
D03*
X11509Y0777779D02*
D03*
X123684Y0788021D02*
D03*
X12294Y0788D02*
D03*
X12331Y0778179D02*
D03*
D40*
X1076Y09613D02*
D03*
Y09523D02*
D03*
X1051351D02*
D03*
Y09613D02*
D03*
X10598Y09523D02*
D03*
Y09613D02*
D03*
X1068401Y09523D02*
D03*
Y09613D02*
D03*
D41*
X1027968Y0758086D02*
D03*
X1011432D02*
D03*
X1105568Y0758586D02*
D03*
X1089032D02*
D03*
X1185168Y0759086D02*
D03*
X1168632D02*
D03*
X1263369Y0759686D02*
D03*
X1246833D02*
D03*
D42*
X126Y0972379D02*
D03*
Y094482D02*
D03*
D43*
X1193072Y0866935D02*
D03*
Y0874809D02*
D03*
Y0882683D02*
D03*
Y0890557D02*
D03*
Y0898431D02*
D03*
Y0906305D02*
D03*
D44*
X1198978Y0916639D02*
D03*
X1206852D02*
D03*
X1214726D02*
D03*
X12226D02*
D03*
X1230474D02*
D03*
X1238348D02*
D03*
X1246222D02*
D03*
X1254096D02*
D03*
X1238348Y08566D02*
D03*
X1230474D02*
D03*
X12226D02*
D03*
X1214726D02*
D03*
X1206852D02*
D03*
X1198978D02*
D03*
X1246222D02*
D03*
X1254096D02*
D03*
D45*
X11724Y08794D02*
D03*
D46*
X1181455Y08554D02*
D03*
X1163345D02*
D03*
X11724D02*
D03*
D47*
X11399Y0949533D02*
D03*
X11249D02*
D03*
X11699D02*
D03*
X11549D02*
D03*
X11099D02*
D03*
X11399D02*
D03*
X11249D02*
D03*
X1224101D02*
D03*
X1209101D02*
D03*
X1194101D02*
D03*
D48*
X1094Y09721D02*
D03*
D49*
Y09621D02*
D03*
D50*
X12078Y08286D02*
D03*
X12178D02*
D03*
X12278D02*
D03*
X12378D02*
D03*
X13082Y09096D02*
D03*
Y08996D02*
D03*
Y08896D02*
D03*
Y08796D02*
D03*
Y08696D02*
D03*
Y08596D02*
D03*
Y08496D02*
D03*
X11518Y09621D02*
D03*
X11418D02*
D03*
X11318D02*
D03*
X11218D02*
D03*
X11202Y09024D02*
D03*
X11302D02*
D03*
X11402D02*
D03*
X11502D02*
D03*
D51*
X12478Y08286D02*
D03*
X11118Y09621D02*
D03*
X11102Y09024D02*
D03*
D52*
X10907Y09103D02*
D03*
Y08493D02*
D03*
X09747Y08698D02*
D03*
D53*
Y08898D02*
D03*
D54*
X10182Y09323D02*
D03*
X10382D02*
D03*
D55*
X12321Y0688D02*
D03*
X12801D02*
D03*
X1256478Y0743905D02*
D03*
X11511Y06878D02*
D03*
X11991D02*
D03*
X1175478Y0743706D02*
D03*
X10723Y06879D02*
D03*
X11203D02*
D03*
X1096678Y0743806D02*
D03*
X09924Y06882D02*
D03*
X10404D02*
D03*
X1016778Y0744105D02*
D03*
X1232856Y0736031D02*
D03*
X12801D02*
D03*
X1151856Y0735831D02*
D03*
X11991D02*
D03*
X1073056Y0735931D02*
D03*
X11203D02*
D03*
X0993156Y0736232D02*
D03*
X10404D02*
D03*
D56*
X12161Y06765D02*
D03*
X12156Y07445D02*
D03*
Y07145D02*
D03*
X12161Y07065D02*
D03*
X11347Y0677D02*
D03*
X11352Y07443D02*
D03*
Y07143D02*
D03*
X11347Y0707D02*
D03*
X10578Y06895D02*
D03*
X1058Y07495D02*
D03*
X09783Y06781D02*
D03*
X09786Y07457D02*
D03*
Y07157D02*
D03*
X09783Y07081D02*
D03*
D57*
X12096Y06566D02*
D03*
X1249862Y0656862D02*
D03*
X1229862D02*
D03*
X11473Y06563D02*
D03*
X1187562Y0656562D02*
D03*
X1167562D02*
D03*
X1085699Y06563D02*
D03*
X1125961Y0656562D02*
D03*
X1105961D02*
D03*
X1023538Y0656338D02*
D03*
X10638Y06566D02*
D03*
X10438D02*
D03*
D58*
X1058Y07195D02*
D03*
X10578Y07195D02*
D03*
D59*
X11402Y08512D02*
D03*
X11102D02*
D03*
X11402Y08394D02*
D03*
X11102D02*
D03*
D60*
X13082Y09196D02*
D03*
D61*
X12924Y06482D02*
D03*
X09695D02*
D03*
Y09631D02*
D03*
X13042Y09634D02*
D03*
D62*
X11406Y09144D02*
D03*
X11306D02*
D03*
X11206D02*
D03*
X11408Y09254D02*
D03*
X11308D02*
D03*
X11208D02*
D03*
X1211Y09684D02*
D03*
X1221D02*
D03*
X1231D02*
D03*
X11256Y09722D02*
D03*
X11356D02*
D03*
X11456D02*
D03*
X13084Y08315D02*
D03*
Y08215D02*
D03*
Y08115D02*
D03*
D63*
X11106Y09144D02*
D03*
X11108Y09254D02*
D03*
X1201Y09684D02*
D03*
X11156Y09722D02*
D03*
D64*
X1145701Y0873095D02*
D03*
X1145701Y0863095D02*
D03*
X1109998Y0873095D02*
D03*
X1109998Y0863095D02*
D03*
X1121899Y0873095D02*
D03*
X1121899Y0863095D02*
D03*
X11338D02*
D03*
X11338Y0873095D02*
D03*
D65*
X10281Y0945678D02*
D03*
D66*
Y09693D02*
D03*
D67*
X1009596Y0957489D02*
D03*
D68*
X10949Y0949533D02*
D03*
D69*
X1239101D02*
D03*
D70*
X13084Y08015D02*
D03*
M02*
