G04*
G04 #@! TF.GenerationSoftware,Altium Limited,Altium Designer,20.2.6 (244)*
G04*
G04 Layer_Color=65535*
%FSTAX25Y25*%
%MOIN*%
G70*
G04*
G04 #@! TF.SameCoordinates,D37F4820-9CCB-4A9C-A827-6EB3CEA44CBB*
G04*
G04*
G04 #@! TF.FilePolarity,Positive*
G04*
G01*
G75*
%ADD10C,0.00701*%
%ADD11C,0.00984*%
%ADD12C,0.01000*%
%ADD13C,0.00700*%
%ADD14C,0.01181*%
%ADD15C,0.00500*%
%ADD16C,0.00400*%
%ADD17C,0.00787*%
%ADD18C,0.01500*%
%ADD19C,0.00800*%
%ADD20C,0.00394*%
%ADD21R,0.03937X0.01968*%
%ADD22R,0.05000X0.10000*%
G36*
X10338Y06481D02*
X10363Y06506D01*
X10348D01*
Y06531D01*
X10328D01*
Y06506D01*
X10313D01*
X10338Y06481D01*
D02*
G37*
G36*
X10538Y064835D02*
X10563Y065085D01*
X10548D01*
Y065335D01*
X10528D01*
Y065085D01*
X10513D01*
X10538Y064835D01*
D02*
G37*
G36*
X1095961Y0648062D02*
X1098461Y0650562D01*
X1096961D01*
Y0653062D01*
X1094961D01*
Y0650562D01*
X1093461D01*
X1095961Y0648062D01*
D02*
G37*
G36*
X1115961Y0648312D02*
X1118461Y0650812D01*
X1116961D01*
Y0653312D01*
X1114961D01*
Y0650812D01*
X1113461D01*
X1115961Y0648312D01*
D02*
G37*
G36*
X1157562Y0648062D02*
X1160062Y0650562D01*
X1158562D01*
Y0653062D01*
X1156562D01*
Y0650562D01*
X1155062D01*
X1157562Y0648062D01*
D02*
G37*
G36*
X1177562Y0648312D02*
X1180062Y0650812D01*
X1178562D01*
Y0653312D01*
X1176562D01*
Y0650812D01*
X1175062D01*
X1177562Y0648312D01*
D02*
G37*
G36*
X1219862Y0648362D02*
X1222362Y0650862D01*
X1220862D01*
Y0653362D01*
X1218862D01*
Y0650862D01*
X1217362D01*
X1219862Y0648362D01*
D02*
G37*
G36*
X1239862Y0648612D02*
X1242362Y0651112D01*
X1240862D01*
Y0653612D01*
X1238862D01*
Y0651112D01*
X1237362D01*
X1239862Y0648612D01*
D02*
G37*
G36*
X1241601Y0939833D02*
X1236601D01*
X1239101Y0942333D01*
X1241601Y0939833D01*
D02*
G37*
G36*
X11724D02*
X11674D01*
X11699Y0942333D01*
X11724Y0939833D01*
D02*
G37*
G36*
X11424D02*
X11374D01*
X11399Y0942333D01*
X11424Y0939833D01*
D02*
G37*
G36*
X1256596Y0906147D02*
X1251596D01*
X1254096Y0911147D01*
X1256596Y0906147D01*
D02*
G37*
G36*
X126454Y0732348D02*
X1264811D01*
Y0732257D01*
X1264992D01*
Y0732167D01*
X1265083D01*
Y0732076D01*
X1265263D01*
Y0731986D01*
X1265354D01*
Y0731895D01*
X1265444D01*
Y0731805D01*
X1265535D01*
Y0731715D01*
X1265625D01*
Y0731624D01*
Y0731534D01*
X1265716D01*
Y0731443D01*
Y0731353D01*
X1265806D01*
Y0731262D01*
Y0731172D01*
X1265896D01*
Y0731082D01*
Y0730991D01*
Y0730901D01*
X1265987D01*
Y073081D01*
Y073072D01*
Y0730629D01*
Y0730539D01*
Y0730449D01*
X1266077D01*
Y0730358D01*
Y0730268D01*
Y0730177D01*
Y0730087D01*
Y0729997D01*
Y0729906D01*
Y0729816D01*
Y0729725D01*
Y0729635D01*
Y0729544D01*
Y0729454D01*
Y0729364D01*
Y0729273D01*
Y0729183D01*
Y0729092D01*
Y0729002D01*
X1265987D01*
Y0728911D01*
Y0728821D01*
Y0728731D01*
Y072864D01*
Y072855D01*
Y0728459D01*
Y0728369D01*
Y0728278D01*
X1265896D01*
Y0728188D01*
Y0728098D01*
Y0728007D01*
Y0727917D01*
Y0727826D01*
X1265806D01*
Y0727736D01*
Y0727645D01*
Y0727555D01*
Y0727465D01*
Y0727374D01*
X1265716D01*
Y0727284D01*
Y0727193D01*
Y0727103D01*
Y0727013D01*
X1265625D01*
Y0726922D01*
Y0726832D01*
Y0726741D01*
Y0726651D01*
X1265535D01*
Y072656D01*
Y072647D01*
Y072638D01*
Y0726289D01*
X1265444D01*
Y0726199D01*
Y0726108D01*
Y0726018D01*
X1265354D01*
Y0725927D01*
Y0725837D01*
Y0725747D01*
Y0725656D01*
X1265263D01*
Y0725566D01*
Y0725475D01*
Y0725385D01*
X1265173D01*
Y0725294D01*
Y0725204D01*
Y0725114D01*
X1265083D01*
Y0725023D01*
Y0724933D01*
Y0724842D01*
X1264992D01*
Y0724752D01*
Y0724661D01*
Y0724571D01*
X1264902D01*
Y0724481D01*
Y072439D01*
X1265987D01*
Y07243D01*
X1266348D01*
Y0724209D01*
X126662D01*
Y0724119D01*
X1266801D01*
Y0724029D01*
X1266982D01*
Y0723938D01*
X1267072D01*
Y0723848D01*
X1267162D01*
Y0723757D01*
X1267253D01*
Y0723667D01*
X1267343D01*
Y0723576D01*
X1267434D01*
Y0723486D01*
Y0723396D01*
X1267524D01*
Y0723305D01*
Y0723215D01*
Y0723124D01*
X1267614D01*
Y0723034D01*
Y0722943D01*
Y0722853D01*
Y0722763D01*
Y0722672D01*
Y0722582D01*
Y0722491D01*
Y0722401D01*
Y072231D01*
Y072222D01*
Y072213D01*
Y0722039D01*
X1267524D01*
Y0721949D01*
Y0721858D01*
Y0721768D01*
Y0721678D01*
Y0721587D01*
Y0721497D01*
X1267434D01*
Y0721406D01*
Y0721316D01*
Y0721225D01*
Y0721135D01*
Y0721045D01*
X1267343D01*
Y0720954D01*
Y0720864D01*
Y0720773D01*
Y0720683D01*
X1267253D01*
Y0720592D01*
Y0720502D01*
Y0720412D01*
Y0720321D01*
Y0720231D01*
X1267162D01*
Y072014D01*
Y072005D01*
Y0719959D01*
Y0719869D01*
X1267072D01*
Y0719779D01*
Y0719688D01*
Y0719598D01*
Y0719507D01*
X1266982D01*
Y0719417D01*
Y0719326D01*
Y0719236D01*
Y0719146D01*
X1266891D01*
Y0719055D01*
Y0718965D01*
Y0718874D01*
Y0718784D01*
X1266801D01*
Y0718694D01*
Y0718603D01*
Y0718513D01*
Y0718422D01*
X126671D01*
Y0718332D01*
Y0718242D01*
Y0718151D01*
Y0718061D01*
X126662D01*
Y071797D01*
Y071788D01*
Y0717789D01*
X1266529D01*
Y0717699D01*
Y0717608D01*
Y0717518D01*
Y0717428D01*
X1266439D01*
Y0717337D01*
Y0717247D01*
Y0717156D01*
X1266348D01*
Y0717066D01*
Y0716975D01*
Y0716885D01*
Y0716795D01*
X1266258D01*
Y0716704D01*
Y0716614D01*
Y0716523D01*
X1266168D01*
Y0716433D01*
Y0716342D01*
Y0716252D01*
Y0716162D01*
X1266077D01*
Y0716071D01*
X1266258D01*
Y0716162D01*
X1267524D01*
Y0716071D01*
X1267705D01*
Y0715981D01*
X1267886D01*
Y071589D01*
X1268067D01*
Y07158D01*
X1268157D01*
Y071571D01*
X1268248D01*
Y0715619D01*
X1268338D01*
Y0715529D01*
X1268428D01*
Y0715438D01*
X1268519D01*
Y0715348D01*
Y0715258D01*
X1268609D01*
Y0715167D01*
Y0715077D01*
X12687D01*
Y0714986D01*
Y0714896D01*
Y0714805D01*
X126879D01*
Y0714715D01*
Y0714625D01*
Y0714534D01*
Y0714444D01*
X126888D01*
Y0714353D01*
Y0714263D01*
Y0714172D01*
Y0714082D01*
Y0713991D01*
Y0713901D01*
Y0713811D01*
Y071372D01*
Y071363D01*
Y0713539D01*
Y0713449D01*
Y0713359D01*
Y0713268D01*
X126879D01*
Y0713178D01*
Y0713087D01*
Y0712997D01*
Y0712906D01*
Y0712816D01*
Y0712726D01*
X12687D01*
Y0712635D01*
Y0712545D01*
Y0712454D01*
X1268609D01*
Y0712364D01*
Y0712274D01*
Y0712183D01*
X1268519D01*
Y0712093D01*
Y0712002D01*
X1268428D01*
Y0711912D01*
Y0711821D01*
Y0711731D01*
X1268338D01*
Y0711641D01*
Y071155D01*
X1268248D01*
Y071146D01*
Y0711369D01*
Y0711279D01*
X1268157D01*
Y0711188D01*
Y0711098D01*
Y0711007D01*
X1268067D01*
Y0710917D01*
Y0710827D01*
X1267976D01*
Y0710736D01*
Y0710646D01*
Y0710555D01*
X1267886D01*
Y0710465D01*
Y0710375D01*
X1267795D01*
Y0710284D01*
Y0710194D01*
X1267705D01*
Y0710103D01*
Y0710013D01*
Y0709923D01*
X1267614D01*
Y0709832D01*
Y0709742D01*
X1267524D01*
Y0709651D01*
Y0709561D01*
X1267434D01*
Y070947D01*
Y070938D01*
X1267343D01*
Y070929D01*
Y0709199D01*
Y0709109D01*
X1267253D01*
Y0709018D01*
Y0708928D01*
X1267162D01*
Y0708837D01*
Y0708747D01*
X1267072D01*
Y0708657D01*
X1266982D01*
Y0708566D01*
Y0708476D01*
X1266891D01*
Y0708385D01*
Y0708295D01*
X1266801D01*
Y0708204D01*
Y0708114D01*
X126671D01*
Y0708024D01*
Y0707933D01*
X126662D01*
Y0707843D01*
Y0707752D01*
X126671D01*
Y0707843D01*
X1266982D01*
Y0707933D01*
X1267434D01*
Y0708024D01*
X126879D01*
Y0707933D01*
X1269152D01*
Y0707843D01*
X1269513D01*
Y0707752D01*
X1269694D01*
Y0707662D01*
X1269965D01*
Y0707571D01*
X1270146D01*
Y0707481D01*
X1270237D01*
Y0707391D01*
X1270418D01*
Y07073D01*
X1270508D01*
Y070721D01*
X1270689D01*
Y0707119D01*
X1270779D01*
Y0707029D01*
X127087D01*
Y0706939D01*
X127096D01*
Y0706848D01*
X1271051D01*
Y0706758D01*
X1271141D01*
Y0706667D01*
X1271231D01*
Y0706577D01*
X1271322D01*
Y0706486D01*
X1271412D01*
Y0706396D01*
Y0706306D01*
X1271503D01*
Y0706215D01*
X1271593D01*
Y0706125D01*
X1271684D01*
Y0706034D01*
Y0705944D01*
X1271774D01*
Y0705853D01*
Y0705763D01*
X1271864D01*
Y0705673D01*
Y0705582D01*
X1271955D01*
Y0705492D01*
Y0705401D01*
Y0705311D01*
X1272045D01*
Y070522D01*
Y070513D01*
X1272136D01*
Y070504D01*
Y0704949D01*
Y0704859D01*
Y0704768D01*
X1272226D01*
Y0704678D01*
Y0704587D01*
Y0704497D01*
Y0704407D01*
Y0704316D01*
Y0704226D01*
Y0704135D01*
Y0704045D01*
X1272316D01*
Y0703955D01*
Y0703864D01*
Y0703774D01*
Y0703683D01*
X1272226D01*
Y0703593D01*
Y0703502D01*
Y0703412D01*
Y0703322D01*
Y0703231D01*
Y0703141D01*
Y070305D01*
Y070296D01*
X1272136D01*
Y0702869D01*
Y0702779D01*
Y0702689D01*
Y0702598D01*
X1272045D01*
Y0702508D01*
Y0702417D01*
Y0702327D01*
X1271955D01*
Y0702236D01*
Y0702146D01*
X1271864D01*
Y0702056D01*
Y0701965D01*
X1271774D01*
Y0701875D01*
Y0701784D01*
X1271684D01*
Y0701694D01*
Y0701603D01*
X1271593D01*
Y0701513D01*
X1271503D01*
Y0701423D01*
Y0701332D01*
X1271412D01*
Y0701242D01*
X1271322D01*
Y0701151D01*
X1271231D01*
Y0701061D01*
X1271141D01*
Y0700971D01*
X1271051D01*
Y070088D01*
X127096D01*
Y070079D01*
X127087D01*
Y0700699D01*
X1270779D01*
Y0700609D01*
X1270689D01*
Y0700518D01*
X1270599D01*
Y0700428D01*
X1270418D01*
Y0700338D01*
X1270327D01*
Y0700247D01*
X1270146D01*
Y0700157D01*
X1269965D01*
Y0700066D01*
X1269785D01*
Y0699976D01*
X1269513D01*
Y0699885D01*
X1269242D01*
Y0699795D01*
X126888D01*
Y0699705D01*
X1267343D01*
Y0699795D01*
X1266982D01*
Y0699885D01*
X126671D01*
Y0699976D01*
X1266439D01*
Y0700066D01*
X1266258D01*
Y0700157D01*
X1266077D01*
Y0700247D01*
X1265896D01*
Y0700338D01*
X1265806D01*
Y0700428D01*
X1265625D01*
Y0700518D01*
X1265535D01*
Y0700609D01*
X1265444D01*
Y0700699D01*
X1265263D01*
Y070079D01*
X1265173D01*
Y070088D01*
X1265083D01*
Y0700971D01*
X1264992D01*
Y0701061D01*
Y0701151D01*
X1264902D01*
Y0701242D01*
X1264811D01*
Y0701332D01*
X1264721D01*
Y0701423D01*
X1264631D01*
Y0701513D01*
Y0701603D01*
X126454D01*
Y0701694D01*
X126445D01*
Y0701784D01*
Y0701875D01*
X1264359D01*
Y0701965D01*
Y0702056D01*
X1264269D01*
Y0702146D01*
Y0702236D01*
Y0702327D01*
X1264178D01*
Y0702417D01*
Y0702508D01*
X1264088D01*
Y0702598D01*
Y0702689D01*
Y0702779D01*
Y0702869D01*
X1263997D01*
Y070296D01*
Y070305D01*
Y0703141D01*
Y0703231D01*
Y0703322D01*
X1263907D01*
Y0703412D01*
Y0703502D01*
Y0703593D01*
Y0703683D01*
Y0703774D01*
Y0703864D01*
Y0703955D01*
Y0704045D01*
Y0704135D01*
Y0704226D01*
Y0704316D01*
X1263997D01*
Y0704407D01*
Y0704497D01*
Y0704587D01*
Y0704678D01*
Y0704768D01*
Y0704859D01*
X1264088D01*
Y0704949D01*
Y070504D01*
Y070513D01*
X1264178D01*
Y070522D01*
Y0705311D01*
X1263997D01*
Y070522D01*
X1263817D01*
Y070513D01*
X1263726D01*
Y070504D01*
X1263545D01*
Y0704949D01*
X1263365D01*
Y0704859D01*
X1263184D01*
Y0704768D01*
X1263003D01*
Y0704678D01*
X1262822D01*
Y0704587D01*
X1262641D01*
Y0704497D01*
X126246D01*
Y0704407D01*
X1262189D01*
Y0704316D01*
X1262008D01*
Y0704226D01*
X1261827D01*
Y0704135D01*
X1261556D01*
Y0704045D01*
X1261375D01*
Y0703955D01*
X1261104D01*
Y0703864D01*
X1260923D01*
Y0703774D01*
X1260652D01*
Y0703683D01*
X1260381D01*
Y0703593D01*
X12602D01*
Y0703502D01*
X1259928D01*
Y0703412D01*
X1259657D01*
Y0703322D01*
X1259386D01*
Y0703231D01*
X1259115D01*
Y0703141D01*
X1258391D01*
Y070305D01*
X1257758D01*
Y0703141D01*
X1257216D01*
Y0703231D01*
X1256944D01*
Y0703322D01*
X1256764D01*
Y0703412D01*
X1256583D01*
Y0703502D01*
X1256402D01*
Y0703593D01*
X1256312D01*
Y0703683D01*
X1256221D01*
Y0703774D01*
X1256131D01*
Y0703864D01*
Y0703955D01*
X125604D01*
Y0704045D01*
X125595D01*
Y0704135D01*
Y0704226D01*
Y0704316D01*
X1255859D01*
Y0704407D01*
Y0704497D01*
Y0704587D01*
X1255769D01*
Y0704678D01*
Y0704768D01*
Y0704859D01*
Y0704949D01*
Y070504D01*
Y070513D01*
Y070522D01*
Y0705311D01*
Y0705401D01*
Y0705492D01*
Y0705582D01*
X1255859D01*
Y0705673D01*
Y0705763D01*
Y0705853D01*
X1255678D01*
Y0705763D01*
X1255407D01*
Y0705673D01*
X1255046D01*
Y0705582D01*
X1254774D01*
Y0705492D01*
X1254413D01*
Y0705401D01*
X1254141D01*
Y0705311D01*
X125378D01*
Y070522D01*
X1253418D01*
Y070513D01*
X1253056D01*
Y070504D01*
X1252695D01*
Y0704949D01*
X1252333D01*
Y0704859D01*
X1251971D01*
Y0704768D01*
X1251609D01*
Y0704678D01*
X1251157D01*
Y0704587D01*
X1250796D01*
Y0704497D01*
X1250253D01*
Y0704407D01*
X124971D01*
Y0704316D01*
X1248897D01*
Y0704407D01*
X1248625D01*
Y0704497D01*
X1248445D01*
Y0704587D01*
X1248354D01*
Y0704678D01*
X1248173D01*
Y0704768D01*
X1248083D01*
Y0704859D01*
Y0704949D01*
X1247993D01*
Y070504D01*
X1247902D01*
Y070513D01*
Y070522D01*
X1247812D01*
Y0705311D01*
Y0705401D01*
X1247721D01*
Y0705492D01*
Y0705582D01*
Y0705673D01*
X1247631D01*
Y0705763D01*
Y0705853D01*
Y0705944D01*
Y0706034D01*
Y0706125D01*
X124754D01*
Y0706215D01*
Y0706306D01*
Y0706396D01*
Y0706486D01*
Y0706577D01*
Y0706667D01*
Y0706758D01*
Y0706848D01*
Y0706939D01*
Y0707029D01*
X1247269D01*
Y0706939D01*
X1246998D01*
Y0706848D01*
X1246727D01*
Y0706758D01*
X1246455D01*
Y0706667D01*
X1246184D01*
Y0706577D01*
X1245913D01*
Y0706486D01*
X1245551D01*
Y0706396D01*
X1245189D01*
Y0706306D01*
X1244828D01*
Y0706215D01*
X1244466D01*
Y0706125D01*
X1244014D01*
Y0706034D01*
X1243471D01*
Y0705944D01*
X1242657D01*
Y0705853D01*
X1241753D01*
Y0705944D01*
X1241211D01*
Y0706034D01*
X1240849D01*
Y0706125D01*
X1240668D01*
Y0706215D01*
X1240487D01*
Y0706306D01*
X1240306D01*
Y0706396D01*
X1240216D01*
Y0706486D01*
X1240126D01*
Y0706577D01*
X1240035D01*
Y0706667D01*
X1239945D01*
Y0706758D01*
X1239854D01*
Y0706848D01*
X1239764D01*
Y0706939D01*
Y0707029D01*
X1239674D01*
Y0707119D01*
Y070721D01*
X1239583D01*
Y07073D01*
Y0707391D01*
Y0707481D01*
Y0707571D01*
X1239493D01*
Y0707662D01*
Y0707752D01*
Y0707843D01*
Y0707933D01*
Y0708024D01*
Y0708114D01*
X1239583D01*
Y0708204D01*
Y0708295D01*
Y0708385D01*
X1239674D01*
Y0708476D01*
X1239764D01*
Y0708566D01*
Y0708657D01*
X1239854D01*
Y0708747D01*
X1239945D01*
Y0708837D01*
X1240035D01*
Y0708928D01*
X1240216D01*
Y0709018D01*
X1240306D01*
Y0709109D01*
X1240487D01*
Y0709199D01*
X1240668D01*
Y070929D01*
X1240939D01*
Y070938D01*
X1241301D01*
Y070947D01*
X1241753D01*
Y0709561D01*
X1242025D01*
Y0709651D01*
X1242205D01*
Y0709742D01*
X1242296D01*
Y0709832D01*
X1242386D01*
Y0709923D01*
X1242567D01*
Y0710013D01*
X1242657D01*
Y0710103D01*
X1242748D01*
Y0710194D01*
X1242838D01*
Y0710284D01*
Y0710375D01*
X1242929D01*
Y0710465D01*
X1243019D01*
Y0710555D01*
X124311D01*
Y0710646D01*
Y0710736D01*
X12432D01*
Y0710827D01*
Y0710917D01*
X124329D01*
Y0711007D01*
Y0711098D01*
X1243381D01*
Y0711188D01*
Y0711279D01*
Y0711369D01*
X1243471D01*
Y071146D01*
Y071155D01*
Y0711641D01*
Y0711731D01*
Y0711821D01*
X1243562D01*
Y0711912D01*
Y0712002D01*
Y0712093D01*
Y0712183D01*
Y0712274D01*
Y0712364D01*
Y0712454D01*
Y0712545D01*
Y0712635D01*
Y0712726D01*
Y0712816D01*
Y0712906D01*
Y0712997D01*
Y0713087D01*
Y0713178D01*
X1243471D01*
Y0713268D01*
Y0713359D01*
Y0713449D01*
Y0713539D01*
Y071363D01*
Y071372D01*
Y0713811D01*
Y0713901D01*
Y0713991D01*
X1243381D01*
Y0714082D01*
Y0714172D01*
Y0714263D01*
Y0714353D01*
Y0714444D01*
Y0714534D01*
Y0714625D01*
X124329D01*
Y0714715D01*
Y0714805D01*
Y0714896D01*
Y0714986D01*
Y0715077D01*
Y0715167D01*
X12432D01*
Y0715258D01*
Y0715348D01*
Y0715438D01*
Y0715529D01*
Y0715619D01*
Y071571D01*
Y07158D01*
X124311D01*
Y071589D01*
Y0715981D01*
Y0716071D01*
Y0716162D01*
Y0716252D01*
Y0716342D01*
X1243019D01*
Y0716433D01*
Y0716523D01*
Y0716614D01*
Y0716704D01*
Y0716795D01*
X1242929D01*
Y0716885D01*
Y0716975D01*
Y0717066D01*
Y0717156D01*
Y0717247D01*
Y0717337D01*
X1242838D01*
Y0717428D01*
Y0717518D01*
Y0717608D01*
Y0717699D01*
Y0717789D01*
Y071788D01*
X1242748D01*
Y071797D01*
Y0718061D01*
Y0718151D01*
Y0718242D01*
Y0718332D01*
X1242657D01*
Y0718422D01*
Y0718513D01*
Y0718603D01*
Y0718694D01*
Y0718784D01*
X1242567D01*
Y0718874D01*
Y0718965D01*
Y0719055D01*
Y0719146D01*
Y0719236D01*
Y0719326D01*
X1242477D01*
Y0719417D01*
Y0719507D01*
Y0719598D01*
Y0719688D01*
Y0719779D01*
X1242386D01*
Y0719869D01*
Y0719959D01*
Y072005D01*
Y072014D01*
Y0720231D01*
X1242296D01*
Y0720321D01*
Y0720412D01*
Y0720502D01*
Y0720592D01*
Y0720683D01*
Y0720773D01*
X1242205D01*
Y0720864D01*
Y0720954D01*
Y0721045D01*
Y0721135D01*
Y0721225D01*
X1242115D01*
Y0721316D01*
Y0721406D01*
Y0721497D01*
Y0721587D01*
Y0721678D01*
X1242025D01*
Y0721768D01*
Y0721858D01*
Y0721949D01*
Y0722039D01*
Y072213D01*
X1241934D01*
Y072222D01*
Y072231D01*
Y0722401D01*
Y0722491D01*
Y0722582D01*
X1241844D01*
Y0722672D01*
Y0722763D01*
Y0722853D01*
Y0722943D01*
Y0723034D01*
Y0723124D01*
X1241753D01*
Y0723215D01*
Y0723305D01*
Y0723396D01*
Y0723486D01*
Y0723576D01*
X1241663D01*
Y0723667D01*
Y0723757D01*
Y0723848D01*
Y0723938D01*
Y0724029D01*
X1241572D01*
Y0724119D01*
Y0724209D01*
Y07243D01*
Y072439D01*
Y0724481D01*
X1241482D01*
Y0724571D01*
Y0724661D01*
Y0724752D01*
Y0724842D01*
Y0724933D01*
Y0725023D01*
X1241391D01*
Y0725114D01*
Y0725204D01*
Y0725294D01*
Y0725385D01*
Y0725475D01*
X1241301D01*
Y0725566D01*
Y0725656D01*
Y0725747D01*
Y0725837D01*
Y0725927D01*
Y0726018D01*
Y0726108D01*
Y0726199D01*
X1241211D01*
Y0726289D01*
Y072638D01*
Y072647D01*
Y072656D01*
Y0726651D01*
Y0726741D01*
Y0726832D01*
Y0726922D01*
Y0727013D01*
Y0727103D01*
Y0727193D01*
Y0727284D01*
Y0727374D01*
Y0727465D01*
X1241301D01*
Y0727555D01*
Y0727645D01*
Y0727736D01*
Y0727826D01*
Y0727917D01*
Y0728007D01*
X1241391D01*
Y0728098D01*
Y0728188D01*
Y0728278D01*
Y0728369D01*
X1241482D01*
Y0728459D01*
Y072855D01*
Y072864D01*
X1241572D01*
Y0728731D01*
Y0728821D01*
X1241663D01*
Y0728911D01*
Y0729002D01*
X1241753D01*
Y0729092D01*
Y0729183D01*
X1241844D01*
Y0729273D01*
X1241934D01*
Y0729364D01*
Y0729454D01*
X1242025D01*
Y0729544D01*
X1242115D01*
Y0729635D01*
X1242205D01*
Y0729725D01*
X1242296D01*
Y0729816D01*
X1242386D01*
Y0729906D01*
X1242477D01*
Y0729997D01*
X1242567D01*
Y0730087D01*
X1242748D01*
Y0730177D01*
X1242929D01*
Y0730268D01*
X1243019D01*
Y0730358D01*
X124329D01*
Y0730449D01*
X1243471D01*
Y0730539D01*
X1243833D01*
Y0730629D01*
X1244285D01*
Y073072D01*
X1246003D01*
Y0730629D01*
X1246636D01*
Y0730539D01*
X1247088D01*
Y0730449D01*
X124754D01*
Y0730358D01*
X1248083D01*
Y0730268D01*
X1248535D01*
Y0730177D01*
X1248987D01*
Y0730087D01*
X1249439D01*
Y0729997D01*
X1249982D01*
Y0729906D01*
X1250434D01*
Y0729816D01*
X1250886D01*
Y0729725D01*
X1251338D01*
Y0729635D01*
X125179D01*
Y0729544D01*
X1252333D01*
Y0729454D01*
X1252785D01*
Y0729364D01*
X1253237D01*
Y0729273D01*
X125378D01*
Y0729183D01*
X1254232D01*
Y0729092D01*
X1254774D01*
Y0729002D01*
X1255317D01*
Y0728911D01*
X1255769D01*
Y0728821D01*
X1256312D01*
Y0728731D01*
X1256944D01*
Y072864D01*
X1257487D01*
Y072855D01*
X125821D01*
Y0728459D01*
X1259115D01*
Y0728369D01*
X1260019D01*
Y0728459D01*
X1260471D01*
Y072855D01*
X1260742D01*
Y072864D01*
X1261014D01*
Y0728731D01*
X1261194D01*
Y0728821D01*
X1261285D01*
Y0728911D01*
X1261466D01*
Y0729002D01*
X1261556D01*
Y0729092D01*
X1261737D01*
Y0729183D01*
X1261827D01*
Y0729273D01*
X1261918D01*
Y0729364D01*
X1262008D01*
Y0729454D01*
Y0729544D01*
X1262099D01*
Y0729635D01*
X1262189D01*
Y0729725D01*
X1262279D01*
Y0729816D01*
Y0729906D01*
X126237D01*
Y0729997D01*
Y0730087D01*
X126246D01*
Y0730177D01*
Y0730268D01*
Y0730358D01*
Y0730449D01*
Y0730539D01*
X1262551D01*
Y0730629D01*
Y073072D01*
Y073081D01*
Y0730901D01*
X1262641D01*
Y0730991D01*
Y0731082D01*
Y0731172D01*
X1262732D01*
Y0731262D01*
Y0731353D01*
Y0731443D01*
X1262822D01*
Y0731534D01*
Y0731624D01*
X1262912D01*
Y0731715D01*
X1263003D01*
Y0731805D01*
Y0731895D01*
X1263093D01*
Y0731986D01*
X1263184D01*
Y0732076D01*
X1263274D01*
Y0732167D01*
X1263365D01*
Y0732257D01*
X1263545D01*
Y0732348D01*
X1263726D01*
Y0732438D01*
X126454D01*
Y0732348D01*
D02*
G37*
G36*
X118294Y0729448D02*
X1183211D01*
Y0729357D01*
X1183392D01*
Y0729267D01*
X1183483D01*
Y0729176D01*
X1183663D01*
Y0729086D01*
X1183754D01*
Y0728996D01*
X1183844D01*
Y0728905D01*
X1183935D01*
Y0728815D01*
X1184025D01*
Y0728724D01*
Y0728634D01*
X1184116D01*
Y0728543D01*
Y0728453D01*
X1184206D01*
Y0728363D01*
Y0728272D01*
X1184296D01*
Y0728182D01*
Y0728091D01*
Y0728001D01*
X1184387D01*
Y072791D01*
Y072782D01*
Y072773D01*
Y0727639D01*
Y0727549D01*
X1184477D01*
Y0727458D01*
Y0727368D01*
Y0727277D01*
Y0727187D01*
Y0727097D01*
Y0727006D01*
Y0726916D01*
Y0726825D01*
Y0726735D01*
Y0726644D01*
Y0726554D01*
Y0726464D01*
Y0726373D01*
Y0726283D01*
Y0726192D01*
Y0726102D01*
X1184387D01*
Y0726012D01*
Y0725921D01*
Y0725831D01*
Y072574D01*
Y072565D01*
Y0725559D01*
Y0725469D01*
Y0725379D01*
X1184296D01*
Y0725288D01*
Y0725198D01*
Y0725107D01*
Y0725017D01*
Y0724926D01*
X1184206D01*
Y0724836D01*
Y0724746D01*
Y0724655D01*
Y0724565D01*
Y0724474D01*
X1184116D01*
Y0724384D01*
Y0724293D01*
Y0724203D01*
Y0724113D01*
X1184025D01*
Y0724022D01*
Y0723932D01*
Y0723841D01*
Y0723751D01*
X1183935D01*
Y0723661D01*
Y072357D01*
Y072348D01*
Y0723389D01*
X1183844D01*
Y0723299D01*
Y0723208D01*
Y0723118D01*
X1183754D01*
Y0723028D01*
Y0722937D01*
Y0722847D01*
Y0722756D01*
X1183663D01*
Y0722666D01*
Y0722575D01*
Y0722485D01*
X1183573D01*
Y0722395D01*
Y0722304D01*
Y0722214D01*
X1183483D01*
Y0722123D01*
Y0722033D01*
Y0721942D01*
X1183392D01*
Y0721852D01*
Y0721762D01*
Y0721671D01*
X1183302D01*
Y0721581D01*
Y072149D01*
X1184387D01*
Y07214D01*
X1184748D01*
Y0721309D01*
X118502D01*
Y0721219D01*
X1185201D01*
Y0721129D01*
X1185382D01*
Y0721038D01*
X1185472D01*
Y0720948D01*
X1185562D01*
Y0720857D01*
X1185653D01*
Y0720767D01*
X1185743D01*
Y0720677D01*
X1185834D01*
Y0720586D01*
Y0720496D01*
X1185924D01*
Y0720405D01*
Y0720315D01*
Y0720224D01*
X1186014D01*
Y0720134D01*
Y0720044D01*
Y0719953D01*
Y0719863D01*
Y0719772D01*
Y0719682D01*
Y0719591D01*
Y0719501D01*
Y0719411D01*
Y071932D01*
Y071923D01*
Y0719139D01*
X1185924D01*
Y0719049D01*
Y0718958D01*
Y0718868D01*
Y0718778D01*
Y0718687D01*
Y0718597D01*
X1185834D01*
Y0718506D01*
Y0718416D01*
Y0718325D01*
Y0718235D01*
Y0718145D01*
X1185743D01*
Y0718054D01*
Y0717964D01*
Y0717873D01*
Y0717783D01*
X1185653D01*
Y0717693D01*
Y0717602D01*
Y0717512D01*
Y0717421D01*
Y0717331D01*
X1185562D01*
Y071724D01*
Y071715D01*
Y071706D01*
Y0716969D01*
X1185472D01*
Y0716879D01*
Y0716788D01*
Y0716698D01*
Y0716607D01*
X1185382D01*
Y0716517D01*
Y0716427D01*
Y0716336D01*
Y0716246D01*
X1185291D01*
Y0716155D01*
Y0716065D01*
Y0715974D01*
Y0715884D01*
X1185201D01*
Y0715794D01*
Y0715703D01*
Y0715613D01*
Y0715522D01*
X118511D01*
Y0715432D01*
Y0715342D01*
Y0715251D01*
Y0715161D01*
X118502D01*
Y071507D01*
Y071498D01*
Y0714889D01*
X1184929D01*
Y0714799D01*
Y0714709D01*
Y0714618D01*
Y0714528D01*
X1184839D01*
Y0714437D01*
Y0714347D01*
Y0714256D01*
X1184748D01*
Y0714166D01*
Y0714076D01*
Y0713985D01*
Y0713895D01*
X1184658D01*
Y0713804D01*
Y0713714D01*
Y0713623D01*
X1184568D01*
Y0713533D01*
Y0713443D01*
Y0713352D01*
Y0713262D01*
X1184477D01*
Y0713171D01*
X1184658D01*
Y0713262D01*
X1185924D01*
Y0713171D01*
X1186105D01*
Y0713081D01*
X1186286D01*
Y071299D01*
X1186467D01*
Y07129D01*
X1186557D01*
Y071281D01*
X1186648D01*
Y0712719D01*
X1186738D01*
Y0712629D01*
X1186828D01*
Y0712538D01*
X1186919D01*
Y0712448D01*
Y0712358D01*
X1187009D01*
Y0712267D01*
Y0712177D01*
X11871D01*
Y0712086D01*
Y0711996D01*
Y0711905D01*
X118719D01*
Y0711815D01*
Y0711725D01*
Y0711634D01*
Y0711544D01*
X118728D01*
Y0711453D01*
Y0711363D01*
Y0711272D01*
Y0711182D01*
Y0711092D01*
Y0711001D01*
Y0710911D01*
Y071082D01*
Y071073D01*
Y0710639D01*
Y0710549D01*
Y0710459D01*
Y0710368D01*
X118719D01*
Y0710278D01*
Y0710187D01*
Y0710097D01*
Y0710006D01*
Y0709916D01*
Y0709826D01*
X11871D01*
Y0709735D01*
Y0709645D01*
Y0709554D01*
X1187009D01*
Y0709464D01*
Y0709374D01*
Y0709283D01*
X1186919D01*
Y0709193D01*
Y0709102D01*
X1186828D01*
Y0709012D01*
Y0708921D01*
Y0708831D01*
X1186738D01*
Y0708741D01*
Y070865D01*
X1186648D01*
Y070856D01*
Y0708469D01*
Y0708379D01*
X1186557D01*
Y0708288D01*
Y0708198D01*
Y0708108D01*
X1186467D01*
Y0708017D01*
Y0707927D01*
X1186376D01*
Y0707836D01*
Y0707746D01*
Y0707655D01*
X1186286D01*
Y0707565D01*
Y0707475D01*
X1186195D01*
Y0707384D01*
Y0707294D01*
X1186105D01*
Y0707203D01*
Y0707113D01*
Y0707022D01*
X1186014D01*
Y0706932D01*
Y0706842D01*
X1185924D01*
Y0706751D01*
Y0706661D01*
X1185834D01*
Y070657D01*
Y070648D01*
X1185743D01*
Y070639D01*
Y0706299D01*
Y0706209D01*
X1185653D01*
Y0706118D01*
Y0706028D01*
X1185562D01*
Y0705937D01*
Y0705847D01*
X1185472D01*
Y0705757D01*
X1185382D01*
Y0705666D01*
Y0705576D01*
X1185291D01*
Y0705485D01*
Y0705395D01*
X1185201D01*
Y0705304D01*
Y0705214D01*
X118511D01*
Y0705124D01*
Y0705033D01*
X118502D01*
Y0704943D01*
Y0704852D01*
X118511D01*
Y0704943D01*
X1185382D01*
Y0705033D01*
X1185834D01*
Y0705124D01*
X118719D01*
Y0705033D01*
X1187552D01*
Y0704943D01*
X1187913D01*
Y0704852D01*
X1188094D01*
Y0704762D01*
X1188365D01*
Y0704671D01*
X1188546D01*
Y0704581D01*
X1188637D01*
Y0704491D01*
X1188818D01*
Y07044D01*
X1188908D01*
Y070431D01*
X1189089D01*
Y0704219D01*
X1189179D01*
Y0704129D01*
X118927D01*
Y0704038D01*
X118936D01*
Y0703948D01*
X1189451D01*
Y0703858D01*
X1189541D01*
Y0703767D01*
X1189631D01*
Y0703677D01*
X1189722D01*
Y0703586D01*
X1189812D01*
Y0703496D01*
Y0703406D01*
X1189903D01*
Y0703315D01*
X1189993D01*
Y0703225D01*
X1190084D01*
Y0703134D01*
Y0703044D01*
X1190174D01*
Y0702953D01*
Y0702863D01*
X1190264D01*
Y0702773D01*
Y0702682D01*
X1190355D01*
Y0702592D01*
Y0702501D01*
Y0702411D01*
X1190445D01*
Y070232D01*
Y070223D01*
X1190536D01*
Y070214D01*
Y0702049D01*
Y0701959D01*
Y0701868D01*
X1190626D01*
Y0701778D01*
Y0701687D01*
Y0701597D01*
Y0701507D01*
Y0701416D01*
Y0701326D01*
Y0701235D01*
Y0701145D01*
X1190716D01*
Y0701054D01*
Y0700964D01*
Y0700874D01*
Y0700783D01*
X1190626D01*
Y0700693D01*
Y0700602D01*
Y0700512D01*
Y0700421D01*
Y0700331D01*
Y0700241D01*
Y070015D01*
Y070006D01*
X1190536D01*
Y0699969D01*
Y0699879D01*
Y0699789D01*
Y0699698D01*
X1190445D01*
Y0699608D01*
Y0699517D01*
Y0699427D01*
X1190355D01*
Y0699336D01*
Y0699246D01*
X1190264D01*
Y0699156D01*
Y0699065D01*
X1190174D01*
Y0698975D01*
Y0698884D01*
X1190084D01*
Y0698794D01*
Y0698703D01*
X1189993D01*
Y0698613D01*
X1189903D01*
Y0698523D01*
Y0698432D01*
X1189812D01*
Y0698342D01*
X1189722D01*
Y0698251D01*
X1189631D01*
Y0698161D01*
X1189541D01*
Y069807D01*
X1189451D01*
Y069798D01*
X118936D01*
Y069789D01*
X118927D01*
Y0697799D01*
X1189179D01*
Y0697709D01*
X1189089D01*
Y0697618D01*
X1188999D01*
Y0697528D01*
X1188818D01*
Y0697437D01*
X1188727D01*
Y0697347D01*
X1188546D01*
Y0697257D01*
X1188365D01*
Y0697166D01*
X1188185D01*
Y0697076D01*
X1187913D01*
Y0696985D01*
X1187642D01*
Y0696895D01*
X118728D01*
Y0696805D01*
X1185743D01*
Y0696895D01*
X1185382D01*
Y0696985D01*
X118511D01*
Y0697076D01*
X1184839D01*
Y0697166D01*
X1184658D01*
Y0697257D01*
X1184477D01*
Y0697347D01*
X1184296D01*
Y0697437D01*
X1184206D01*
Y0697528D01*
X1184025D01*
Y0697618D01*
X1183935D01*
Y0697709D01*
X1183844D01*
Y0697799D01*
X1183663D01*
Y069789D01*
X1183573D01*
Y069798D01*
X1183483D01*
Y069807D01*
X1183392D01*
Y0698161D01*
Y0698251D01*
X1183302D01*
Y0698342D01*
X1183211D01*
Y0698432D01*
X1183121D01*
Y0698523D01*
X1183031D01*
Y0698613D01*
Y0698703D01*
X118294D01*
Y0698794D01*
X118285D01*
Y0698884D01*
Y0698975D01*
X1182759D01*
Y0699065D01*
Y0699156D01*
X1182669D01*
Y0699246D01*
Y0699336D01*
Y0699427D01*
X1182578D01*
Y0699517D01*
Y0699608D01*
X1182488D01*
Y0699698D01*
Y0699789D01*
Y0699879D01*
Y0699969D01*
X1182397D01*
Y070006D01*
Y070015D01*
Y0700241D01*
Y0700331D01*
Y0700421D01*
X1182307D01*
Y0700512D01*
Y0700602D01*
Y0700693D01*
Y0700783D01*
Y0700874D01*
Y0700964D01*
Y0701054D01*
Y0701145D01*
Y0701235D01*
Y0701326D01*
Y0701416D01*
X1182397D01*
Y0701507D01*
Y0701597D01*
Y0701687D01*
Y0701778D01*
Y0701868D01*
Y0701959D01*
X1182488D01*
Y0702049D01*
Y070214D01*
Y070223D01*
X1182578D01*
Y070232D01*
Y0702411D01*
X1182397D01*
Y070232D01*
X1182217D01*
Y070223D01*
X1182126D01*
Y070214D01*
X1181945D01*
Y0702049D01*
X1181765D01*
Y0701959D01*
X1181584D01*
Y0701868D01*
X1181403D01*
Y0701778D01*
X1181222D01*
Y0701687D01*
X1181041D01*
Y0701597D01*
X118086D01*
Y0701507D01*
X1180589D01*
Y0701416D01*
X1180408D01*
Y0701326D01*
X1180227D01*
Y0701235D01*
X1179956D01*
Y0701145D01*
X1179775D01*
Y0701054D01*
X1179504D01*
Y0700964D01*
X1179323D01*
Y0700874D01*
X1179052D01*
Y0700783D01*
X1178781D01*
Y0700693D01*
X11786D01*
Y0700602D01*
X1178328D01*
Y0700512D01*
X1178057D01*
Y0700421D01*
X1177786D01*
Y0700331D01*
X1177515D01*
Y0700241D01*
X1176791D01*
Y070015D01*
X1176158D01*
Y0700241D01*
X1175616D01*
Y0700331D01*
X1175344D01*
Y0700421D01*
X1175164D01*
Y0700512D01*
X1174983D01*
Y0700602D01*
X1174802D01*
Y0700693D01*
X1174712D01*
Y0700783D01*
X1174621D01*
Y0700874D01*
X1174531D01*
Y0700964D01*
Y0701054D01*
X117444D01*
Y0701145D01*
X117435D01*
Y0701235D01*
Y0701326D01*
Y0701416D01*
X1174259D01*
Y0701507D01*
Y0701597D01*
Y0701687D01*
X1174169D01*
Y0701778D01*
Y0701868D01*
Y0701959D01*
Y0702049D01*
Y070214D01*
Y070223D01*
Y070232D01*
Y0702411D01*
Y0702501D01*
Y0702592D01*
Y0702682D01*
X1174259D01*
Y0702773D01*
Y0702863D01*
Y0702953D01*
X1174078D01*
Y0702863D01*
X1173807D01*
Y0702773D01*
X1173446D01*
Y0702682D01*
X1173174D01*
Y0702592D01*
X1172813D01*
Y0702501D01*
X1172541D01*
Y0702411D01*
X117218D01*
Y070232D01*
X1171818D01*
Y070223D01*
X1171456D01*
Y070214D01*
X1171095D01*
Y0702049D01*
X1170733D01*
Y0701959D01*
X1170371D01*
Y0701868D01*
X1170009D01*
Y0701778D01*
X1169557D01*
Y0701687D01*
X1169196D01*
Y0701597D01*
X1168653D01*
Y0701507D01*
X116811D01*
Y0701416D01*
X1167297D01*
Y0701507D01*
X1167025D01*
Y0701597D01*
X1166845D01*
Y0701687D01*
X1166754D01*
Y0701778D01*
X1166573D01*
Y0701868D01*
X1166483D01*
Y0701959D01*
Y0702049D01*
X1166393D01*
Y070214D01*
X1166302D01*
Y070223D01*
Y070232D01*
X1166212D01*
Y0702411D01*
Y0702501D01*
X1166121D01*
Y0702592D01*
Y0702682D01*
Y0702773D01*
X1166031D01*
Y0702863D01*
Y0702953D01*
Y0703044D01*
Y0703134D01*
Y0703225D01*
X116594D01*
Y0703315D01*
Y0703406D01*
Y0703496D01*
Y0703586D01*
Y0703677D01*
Y0703767D01*
Y0703858D01*
Y0703948D01*
Y0704038D01*
Y0704129D01*
X1165669D01*
Y0704038D01*
X1165398D01*
Y0703948D01*
X1165127D01*
Y0703858D01*
X1164855D01*
Y0703767D01*
X1164584D01*
Y0703677D01*
X1164313D01*
Y0703586D01*
X1163951D01*
Y0703496D01*
X1163589D01*
Y0703406D01*
X1163228D01*
Y0703315D01*
X1162866D01*
Y0703225D01*
X1162414D01*
Y0703134D01*
X1161871D01*
Y0703044D01*
X1161057D01*
Y0702953D01*
X1160153D01*
Y0703044D01*
X1159611D01*
Y0703134D01*
X1159249D01*
Y0703225D01*
X1159068D01*
Y0703315D01*
X1158887D01*
Y0703406D01*
X1158706D01*
Y0703496D01*
X1158616D01*
Y0703586D01*
X1158526D01*
Y0703677D01*
X1158435D01*
Y0703767D01*
X1158345D01*
Y0703858D01*
X1158254D01*
Y0703948D01*
X1158164D01*
Y0704038D01*
Y0704129D01*
X1158074D01*
Y0704219D01*
Y070431D01*
X1157983D01*
Y07044D01*
Y0704491D01*
Y0704581D01*
Y0704671D01*
X1157893D01*
Y0704762D01*
Y0704852D01*
Y0704943D01*
Y0705033D01*
Y0705124D01*
Y0705214D01*
X1157983D01*
Y0705304D01*
Y0705395D01*
Y0705485D01*
X1158074D01*
Y0705576D01*
X1158164D01*
Y0705666D01*
Y0705757D01*
X1158254D01*
Y0705847D01*
X1158345D01*
Y0705937D01*
X1158435D01*
Y0706028D01*
X1158616D01*
Y0706118D01*
X1158706D01*
Y0706209D01*
X1158887D01*
Y0706299D01*
X1159068D01*
Y070639D01*
X1159339D01*
Y070648D01*
X1159701D01*
Y070657D01*
X1160153D01*
Y0706661D01*
X1160425D01*
Y0706751D01*
X1160605D01*
Y0706842D01*
X1160696D01*
Y0706932D01*
X1160786D01*
Y0707022D01*
X1160967D01*
Y0707113D01*
X1161057D01*
Y0707203D01*
X1161148D01*
Y0707294D01*
X1161238D01*
Y0707384D01*
Y0707475D01*
X1161329D01*
Y0707565D01*
X1161419D01*
Y0707655D01*
X116151D01*
Y0707746D01*
Y0707836D01*
X11616D01*
Y0707927D01*
Y0708017D01*
X116169D01*
Y0708108D01*
Y0708198D01*
X1161781D01*
Y0708288D01*
Y0708379D01*
Y0708469D01*
X1161871D01*
Y070856D01*
Y070865D01*
Y0708741D01*
Y0708831D01*
Y0708921D01*
X1161962D01*
Y0709012D01*
Y0709102D01*
Y0709193D01*
Y0709283D01*
Y0709374D01*
Y0709464D01*
Y0709554D01*
Y0709645D01*
Y0709735D01*
Y0709826D01*
Y0709916D01*
Y0710006D01*
Y0710097D01*
Y0710187D01*
Y0710278D01*
X1161871D01*
Y0710368D01*
Y0710459D01*
Y0710549D01*
Y0710639D01*
Y071073D01*
Y071082D01*
Y0710911D01*
Y0711001D01*
Y0711092D01*
X1161781D01*
Y0711182D01*
Y0711272D01*
Y0711363D01*
Y0711453D01*
Y0711544D01*
Y0711634D01*
Y0711725D01*
X116169D01*
Y0711815D01*
Y0711905D01*
Y0711996D01*
Y0712086D01*
Y0712177D01*
Y0712267D01*
X11616D01*
Y0712358D01*
Y0712448D01*
Y0712538D01*
Y0712629D01*
Y0712719D01*
Y071281D01*
Y07129D01*
X116151D01*
Y071299D01*
Y0713081D01*
Y0713171D01*
Y0713262D01*
Y0713352D01*
Y0713443D01*
X1161419D01*
Y0713533D01*
Y0713623D01*
Y0713714D01*
Y0713804D01*
Y0713895D01*
X1161329D01*
Y0713985D01*
Y0714076D01*
Y0714166D01*
Y0714256D01*
Y0714347D01*
Y0714437D01*
X1161238D01*
Y0714528D01*
Y0714618D01*
Y0714709D01*
Y0714799D01*
Y0714889D01*
Y071498D01*
X1161148D01*
Y071507D01*
Y0715161D01*
Y0715251D01*
Y0715342D01*
Y0715432D01*
X1161057D01*
Y0715522D01*
Y0715613D01*
Y0715703D01*
Y0715794D01*
Y0715884D01*
X1160967D01*
Y0715974D01*
Y0716065D01*
Y0716155D01*
Y0716246D01*
Y0716336D01*
Y0716427D01*
X1160877D01*
Y0716517D01*
Y0716607D01*
Y0716698D01*
Y0716788D01*
Y0716879D01*
X1160786D01*
Y0716969D01*
Y071706D01*
Y071715D01*
Y071724D01*
Y0717331D01*
X1160696D01*
Y0717421D01*
Y0717512D01*
Y0717602D01*
Y0717693D01*
Y0717783D01*
Y0717873D01*
X1160605D01*
Y0717964D01*
Y0718054D01*
Y0718145D01*
Y0718235D01*
Y0718325D01*
X1160515D01*
Y0718416D01*
Y0718506D01*
Y0718597D01*
Y0718687D01*
Y0718778D01*
X1160425D01*
Y0718868D01*
Y0718958D01*
Y0719049D01*
Y0719139D01*
Y071923D01*
X1160334D01*
Y071932D01*
Y0719411D01*
Y0719501D01*
Y0719591D01*
Y0719682D01*
X1160244D01*
Y0719772D01*
Y0719863D01*
Y0719953D01*
Y0720044D01*
Y0720134D01*
Y0720224D01*
X1160153D01*
Y0720315D01*
Y0720405D01*
Y0720496D01*
Y0720586D01*
Y0720677D01*
X1160063D01*
Y0720767D01*
Y0720857D01*
Y0720948D01*
Y0721038D01*
Y0721129D01*
X1159972D01*
Y0721219D01*
Y0721309D01*
Y07214D01*
Y072149D01*
Y0721581D01*
X1159882D01*
Y0721671D01*
Y0721762D01*
Y0721852D01*
Y0721942D01*
Y0722033D01*
Y0722123D01*
X1159791D01*
Y0722214D01*
Y0722304D01*
Y0722395D01*
Y0722485D01*
Y0722575D01*
X1159701D01*
Y0722666D01*
Y0722756D01*
Y0722847D01*
Y0722937D01*
Y0723028D01*
Y0723118D01*
Y0723208D01*
Y0723299D01*
X1159611D01*
Y0723389D01*
Y072348D01*
Y072357D01*
Y0723661D01*
Y0723751D01*
Y0723841D01*
Y0723932D01*
Y0724022D01*
Y0724113D01*
Y0724203D01*
Y0724293D01*
Y0724384D01*
Y0724474D01*
Y0724565D01*
X1159701D01*
Y0724655D01*
Y0724746D01*
Y0724836D01*
Y0724926D01*
Y0725017D01*
Y0725107D01*
X1159791D01*
Y0725198D01*
Y0725288D01*
Y0725379D01*
Y0725469D01*
X1159882D01*
Y0725559D01*
Y072565D01*
Y072574D01*
X1159972D01*
Y0725831D01*
Y0725921D01*
X1160063D01*
Y0726012D01*
Y0726102D01*
X1160153D01*
Y0726192D01*
Y0726283D01*
X1160244D01*
Y0726373D01*
X1160334D01*
Y0726464D01*
Y0726554D01*
X1160425D01*
Y0726644D01*
X1160515D01*
Y0726735D01*
X1160605D01*
Y0726825D01*
X1160696D01*
Y0726916D01*
X1160786D01*
Y0727006D01*
X1160877D01*
Y0727097D01*
X1160967D01*
Y0727187D01*
X1161148D01*
Y0727277D01*
X1161329D01*
Y0727368D01*
X1161419D01*
Y0727458D01*
X116169D01*
Y0727549D01*
X1161871D01*
Y0727639D01*
X1162233D01*
Y072773D01*
X1162685D01*
Y072782D01*
X1164403D01*
Y072773D01*
X1165036D01*
Y0727639D01*
X1165488D01*
Y0727549D01*
X116594D01*
Y0727458D01*
X1166483D01*
Y0727368D01*
X1166935D01*
Y0727277D01*
X1167387D01*
Y0727187D01*
X1167839D01*
Y0727097D01*
X1168382D01*
Y0727006D01*
X1168834D01*
Y0726916D01*
X1169286D01*
Y0726825D01*
X1169738D01*
Y0726735D01*
X117019D01*
Y0726644D01*
X1170733D01*
Y0726554D01*
X1171185D01*
Y0726464D01*
X1171637D01*
Y0726373D01*
X117218D01*
Y0726283D01*
X1172632D01*
Y0726192D01*
X1173174D01*
Y0726102D01*
X1173717D01*
Y0726012D01*
X1174169D01*
Y0725921D01*
X1174712D01*
Y0725831D01*
X1175344D01*
Y072574D01*
X1175887D01*
Y072565D01*
X117661D01*
Y0725559D01*
X1177515D01*
Y0725469D01*
X1178419D01*
Y0725559D01*
X1178871D01*
Y072565D01*
X1179142D01*
Y072574D01*
X1179414D01*
Y0725831D01*
X1179594D01*
Y0725921D01*
X1179685D01*
Y0726012D01*
X1179866D01*
Y0726102D01*
X1179956D01*
Y0726192D01*
X1180137D01*
Y0726283D01*
X1180227D01*
Y0726373D01*
X1180318D01*
Y0726464D01*
X1180408D01*
Y0726554D01*
Y0726644D01*
X1180499D01*
Y0726735D01*
X1180589D01*
Y0726825D01*
X1180679D01*
Y0726916D01*
Y0727006D01*
X118077D01*
Y0727097D01*
Y0727187D01*
X118086D01*
Y0727277D01*
Y0727368D01*
Y0727458D01*
Y0727549D01*
Y0727639D01*
X1180951D01*
Y072773D01*
Y072782D01*
Y072791D01*
Y0728001D01*
X1181041D01*
Y0728091D01*
Y0728182D01*
Y0728272D01*
X1181132D01*
Y0728363D01*
Y0728453D01*
Y0728543D01*
X1181222D01*
Y0728634D01*
Y0728724D01*
X1181312D01*
Y0728815D01*
X1181403D01*
Y0728905D01*
Y0728996D01*
X1181493D01*
Y0729086D01*
X1181584D01*
Y0729176D01*
X1181674D01*
Y0729267D01*
X1181765D01*
Y0729357D01*
X1181945D01*
Y0729448D01*
X1182126D01*
Y0729538D01*
X118294D01*
Y0729448D01*
D02*
G37*
G36*
X110444D02*
X1104711D01*
Y0729357D01*
X1104892D01*
Y0729267D01*
X1104983D01*
Y0729176D01*
X1105163D01*
Y0729086D01*
X1105254D01*
Y0728996D01*
X1105344D01*
Y0728905D01*
X1105435D01*
Y0728815D01*
X1105525D01*
Y0728724D01*
Y0728634D01*
X1105616D01*
Y0728543D01*
Y0728453D01*
X1105706D01*
Y0728363D01*
Y0728272D01*
X1105796D01*
Y0728182D01*
Y0728091D01*
Y0728001D01*
X1105887D01*
Y072791D01*
Y072782D01*
Y072773D01*
Y0727639D01*
Y0727549D01*
X1105977D01*
Y0727458D01*
Y0727368D01*
Y0727277D01*
Y0727187D01*
Y0727097D01*
Y0727006D01*
Y0726916D01*
Y0726825D01*
Y0726735D01*
Y0726644D01*
Y0726554D01*
Y0726464D01*
Y0726373D01*
Y0726283D01*
Y0726192D01*
Y0726102D01*
X1105887D01*
Y0726012D01*
Y0725921D01*
Y0725831D01*
Y072574D01*
Y072565D01*
Y0725559D01*
Y0725469D01*
Y0725379D01*
X1105796D01*
Y0725288D01*
Y0725198D01*
Y0725107D01*
Y0725017D01*
Y0724926D01*
X1105706D01*
Y0724836D01*
Y0724746D01*
Y0724655D01*
Y0724565D01*
Y0724474D01*
X1105616D01*
Y0724384D01*
Y0724293D01*
Y0724203D01*
Y0724113D01*
X1105525D01*
Y0724022D01*
Y0723932D01*
Y0723841D01*
Y0723751D01*
X1105435D01*
Y0723661D01*
Y072357D01*
Y072348D01*
Y0723389D01*
X1105344D01*
Y0723299D01*
Y0723208D01*
Y0723118D01*
X1105254D01*
Y0723028D01*
Y0722937D01*
Y0722847D01*
Y0722756D01*
X1105163D01*
Y0722666D01*
Y0722575D01*
Y0722485D01*
X1105073D01*
Y0722395D01*
Y0722304D01*
Y0722214D01*
X1104983D01*
Y0722123D01*
Y0722033D01*
Y0721942D01*
X1104892D01*
Y0721852D01*
Y0721762D01*
Y0721671D01*
X1104802D01*
Y0721581D01*
Y072149D01*
X1105887D01*
Y07214D01*
X1106248D01*
Y0721309D01*
X110652D01*
Y0721219D01*
X1106701D01*
Y0721129D01*
X1106882D01*
Y0721038D01*
X1106972D01*
Y0720948D01*
X1107062D01*
Y0720857D01*
X1107153D01*
Y0720767D01*
X1107243D01*
Y0720677D01*
X1107334D01*
Y0720586D01*
Y0720496D01*
X1107424D01*
Y0720405D01*
Y0720315D01*
Y0720224D01*
X1107514D01*
Y0720134D01*
Y0720044D01*
Y0719953D01*
Y0719863D01*
Y0719772D01*
Y0719682D01*
Y0719591D01*
Y0719501D01*
Y0719411D01*
Y071932D01*
Y071923D01*
Y0719139D01*
X1107424D01*
Y0719049D01*
Y0718958D01*
Y0718868D01*
Y0718778D01*
Y0718687D01*
Y0718597D01*
X1107334D01*
Y0718506D01*
Y0718416D01*
Y0718325D01*
Y0718235D01*
Y0718145D01*
X1107243D01*
Y0718054D01*
Y0717964D01*
Y0717873D01*
Y0717783D01*
X1107153D01*
Y0717693D01*
Y0717602D01*
Y0717512D01*
Y0717421D01*
Y0717331D01*
X1107062D01*
Y071724D01*
Y071715D01*
Y071706D01*
Y0716969D01*
X1106972D01*
Y0716879D01*
Y0716788D01*
Y0716698D01*
Y0716607D01*
X1106882D01*
Y0716517D01*
Y0716427D01*
Y0716336D01*
Y0716246D01*
X1106791D01*
Y0716155D01*
Y0716065D01*
Y0715974D01*
Y0715884D01*
X1106701D01*
Y0715794D01*
Y0715703D01*
Y0715613D01*
Y0715522D01*
X110661D01*
Y0715432D01*
Y0715342D01*
Y0715251D01*
Y0715161D01*
X110652D01*
Y071507D01*
Y071498D01*
Y0714889D01*
X1106429D01*
Y0714799D01*
Y0714709D01*
Y0714618D01*
Y0714528D01*
X1106339D01*
Y0714437D01*
Y0714347D01*
Y0714256D01*
X1106248D01*
Y0714166D01*
Y0714076D01*
Y0713985D01*
Y0713895D01*
X1106158D01*
Y0713804D01*
Y0713714D01*
Y0713623D01*
X1106068D01*
Y0713533D01*
Y0713443D01*
Y0713352D01*
Y0713262D01*
X1105977D01*
Y0713171D01*
X1106158D01*
Y0713262D01*
X1107424D01*
Y0713171D01*
X1107605D01*
Y0713081D01*
X1107786D01*
Y071299D01*
X1107967D01*
Y07129D01*
X1108057D01*
Y071281D01*
X1108148D01*
Y0712719D01*
X1108238D01*
Y0712629D01*
X1108328D01*
Y0712538D01*
X1108419D01*
Y0712448D01*
Y0712358D01*
X1108509D01*
Y0712267D01*
Y0712177D01*
X11086D01*
Y0712086D01*
Y0711996D01*
Y0711905D01*
X110869D01*
Y0711815D01*
Y0711725D01*
Y0711634D01*
Y0711544D01*
X110878D01*
Y0711453D01*
Y0711363D01*
Y0711272D01*
Y0711182D01*
Y0711092D01*
Y0711001D01*
Y0710911D01*
Y071082D01*
Y071073D01*
Y0710639D01*
Y0710549D01*
Y0710459D01*
Y0710368D01*
X110869D01*
Y0710278D01*
Y0710187D01*
Y0710097D01*
Y0710006D01*
Y0709916D01*
Y0709826D01*
X11086D01*
Y0709735D01*
Y0709645D01*
Y0709554D01*
X1108509D01*
Y0709464D01*
Y0709374D01*
Y0709283D01*
X1108419D01*
Y0709193D01*
Y0709102D01*
X1108328D01*
Y0709012D01*
Y0708921D01*
Y0708831D01*
X1108238D01*
Y0708741D01*
Y070865D01*
X1108148D01*
Y070856D01*
Y0708469D01*
Y0708379D01*
X1108057D01*
Y0708288D01*
Y0708198D01*
Y0708108D01*
X1107967D01*
Y0708017D01*
Y0707927D01*
X1107876D01*
Y0707836D01*
Y0707746D01*
Y0707655D01*
X1107786D01*
Y0707565D01*
Y0707475D01*
X1107695D01*
Y0707384D01*
Y0707294D01*
X1107605D01*
Y0707203D01*
Y0707113D01*
Y0707022D01*
X1107514D01*
Y0706932D01*
Y0706842D01*
X1107424D01*
Y0706751D01*
Y0706661D01*
X1107334D01*
Y070657D01*
Y070648D01*
X1107243D01*
Y070639D01*
Y0706299D01*
Y0706209D01*
X1107153D01*
Y0706118D01*
Y0706028D01*
X1107062D01*
Y0705937D01*
Y0705847D01*
X1106972D01*
Y0705757D01*
X1106882D01*
Y0705666D01*
Y0705576D01*
X1106791D01*
Y0705485D01*
Y0705395D01*
X1106701D01*
Y0705304D01*
Y0705214D01*
X110661D01*
Y0705124D01*
Y0705033D01*
X110652D01*
Y0704943D01*
Y0704852D01*
X110661D01*
Y0704943D01*
X1106882D01*
Y0705033D01*
X1107334D01*
Y0705124D01*
X110869D01*
Y0705033D01*
X1109052D01*
Y0704943D01*
X1109413D01*
Y0704852D01*
X1109594D01*
Y0704762D01*
X1109865D01*
Y0704671D01*
X1110046D01*
Y0704581D01*
X1110137D01*
Y0704491D01*
X1110318D01*
Y07044D01*
X1110408D01*
Y070431D01*
X1110589D01*
Y0704219D01*
X1110679D01*
Y0704129D01*
X111077D01*
Y0704038D01*
X111086D01*
Y0703948D01*
X1110951D01*
Y0703858D01*
X1111041D01*
Y0703767D01*
X1111131D01*
Y0703677D01*
X1111222D01*
Y0703586D01*
X1111312D01*
Y0703496D01*
Y0703406D01*
X1111403D01*
Y0703315D01*
X1111493D01*
Y0703225D01*
X1111584D01*
Y0703134D01*
Y0703044D01*
X1111674D01*
Y0702953D01*
Y0702863D01*
X1111764D01*
Y0702773D01*
Y0702682D01*
X1111855D01*
Y0702592D01*
Y0702501D01*
Y0702411D01*
X1111945D01*
Y070232D01*
Y070223D01*
X1112036D01*
Y070214D01*
Y0702049D01*
Y0701959D01*
Y0701868D01*
X1112126D01*
Y0701778D01*
Y0701687D01*
Y0701597D01*
Y0701507D01*
Y0701416D01*
Y0701326D01*
Y0701235D01*
Y0701145D01*
X1112216D01*
Y0701054D01*
Y0700964D01*
Y0700874D01*
Y0700783D01*
X1112126D01*
Y0700693D01*
Y0700602D01*
Y0700512D01*
Y0700421D01*
Y0700331D01*
Y0700241D01*
Y070015D01*
Y070006D01*
X1112036D01*
Y0699969D01*
Y0699879D01*
Y0699789D01*
Y0699698D01*
X1111945D01*
Y0699608D01*
Y0699517D01*
Y0699427D01*
X1111855D01*
Y0699336D01*
Y0699246D01*
X1111764D01*
Y0699156D01*
Y0699065D01*
X1111674D01*
Y0698975D01*
Y0698884D01*
X1111584D01*
Y0698794D01*
Y0698703D01*
X1111493D01*
Y0698613D01*
X1111403D01*
Y0698523D01*
Y0698432D01*
X1111312D01*
Y0698342D01*
X1111222D01*
Y0698251D01*
X1111131D01*
Y0698161D01*
X1111041D01*
Y069807D01*
X1110951D01*
Y069798D01*
X111086D01*
Y069789D01*
X111077D01*
Y0697799D01*
X1110679D01*
Y0697709D01*
X1110589D01*
Y0697618D01*
X1110499D01*
Y0697528D01*
X1110318D01*
Y0697437D01*
X1110227D01*
Y0697347D01*
X1110046D01*
Y0697257D01*
X1109865D01*
Y0697166D01*
X1109685D01*
Y0697076D01*
X1109413D01*
Y0696985D01*
X1109142D01*
Y0696895D01*
X110878D01*
Y0696805D01*
X1107243D01*
Y0696895D01*
X1106882D01*
Y0696985D01*
X110661D01*
Y0697076D01*
X1106339D01*
Y0697166D01*
X1106158D01*
Y0697257D01*
X1105977D01*
Y0697347D01*
X1105796D01*
Y0697437D01*
X1105706D01*
Y0697528D01*
X1105525D01*
Y0697618D01*
X1105435D01*
Y0697709D01*
X1105344D01*
Y0697799D01*
X1105163D01*
Y069789D01*
X1105073D01*
Y069798D01*
X1104983D01*
Y069807D01*
X1104892D01*
Y0698161D01*
Y0698251D01*
X1104802D01*
Y0698342D01*
X1104711D01*
Y0698432D01*
X1104621D01*
Y0698523D01*
X1104531D01*
Y0698613D01*
Y0698703D01*
X110444D01*
Y0698794D01*
X110435D01*
Y0698884D01*
Y0698975D01*
X1104259D01*
Y0699065D01*
Y0699156D01*
X1104169D01*
Y0699246D01*
Y0699336D01*
Y0699427D01*
X1104078D01*
Y0699517D01*
Y0699608D01*
X1103988D01*
Y0699698D01*
Y0699789D01*
Y0699879D01*
Y0699969D01*
X1103897D01*
Y070006D01*
Y070015D01*
Y0700241D01*
Y0700331D01*
Y0700421D01*
X1103807D01*
Y0700512D01*
Y0700602D01*
Y0700693D01*
Y0700783D01*
Y0700874D01*
Y0700964D01*
Y0701054D01*
Y0701145D01*
Y0701235D01*
Y0701326D01*
Y0701416D01*
X1103897D01*
Y0701507D01*
Y0701597D01*
Y0701687D01*
Y0701778D01*
Y0701868D01*
Y0701959D01*
X1103988D01*
Y0702049D01*
Y070214D01*
Y070223D01*
X1104078D01*
Y070232D01*
Y0702411D01*
X1103897D01*
Y070232D01*
X1103717D01*
Y070223D01*
X1103626D01*
Y070214D01*
X1103445D01*
Y0702049D01*
X1103265D01*
Y0701959D01*
X1103084D01*
Y0701868D01*
X1102903D01*
Y0701778D01*
X1102722D01*
Y0701687D01*
X1102541D01*
Y0701597D01*
X110236D01*
Y0701507D01*
X1102089D01*
Y0701416D01*
X1101908D01*
Y0701326D01*
X1101727D01*
Y0701235D01*
X1101456D01*
Y0701145D01*
X1101275D01*
Y0701054D01*
X1101004D01*
Y0700964D01*
X1100823D01*
Y0700874D01*
X1100552D01*
Y0700783D01*
X1100281D01*
Y0700693D01*
X11001D01*
Y0700602D01*
X1099828D01*
Y0700512D01*
X1099557D01*
Y0700421D01*
X1099286D01*
Y0700331D01*
X1099015D01*
Y0700241D01*
X1098291D01*
Y070015D01*
X1097658D01*
Y0700241D01*
X1097116D01*
Y0700331D01*
X1096844D01*
Y0700421D01*
X1096664D01*
Y0700512D01*
X1096483D01*
Y0700602D01*
X1096302D01*
Y0700693D01*
X1096212D01*
Y0700783D01*
X1096121D01*
Y0700874D01*
X1096031D01*
Y0700964D01*
Y0701054D01*
X109594D01*
Y0701145D01*
X109585D01*
Y0701235D01*
Y0701326D01*
Y0701416D01*
X1095759D01*
Y0701507D01*
Y0701597D01*
Y0701687D01*
X1095669D01*
Y0701778D01*
Y0701868D01*
Y0701959D01*
Y0702049D01*
Y070214D01*
Y070223D01*
Y070232D01*
Y0702411D01*
Y0702501D01*
Y0702592D01*
Y0702682D01*
X1095759D01*
Y0702773D01*
Y0702863D01*
Y0702953D01*
X1095578D01*
Y0702863D01*
X1095307D01*
Y0702773D01*
X1094946D01*
Y0702682D01*
X1094674D01*
Y0702592D01*
X1094313D01*
Y0702501D01*
X1094041D01*
Y0702411D01*
X109368D01*
Y070232D01*
X1093318D01*
Y070223D01*
X1092956D01*
Y070214D01*
X1092595D01*
Y0702049D01*
X1092233D01*
Y0701959D01*
X1091871D01*
Y0701868D01*
X1091509D01*
Y0701778D01*
X1091057D01*
Y0701687D01*
X1090696D01*
Y0701597D01*
X1090153D01*
Y0701507D01*
X108961D01*
Y0701416D01*
X1088797D01*
Y0701507D01*
X1088525D01*
Y0701597D01*
X1088345D01*
Y0701687D01*
X1088254D01*
Y0701778D01*
X1088073D01*
Y0701868D01*
X1087983D01*
Y0701959D01*
Y0702049D01*
X1087893D01*
Y070214D01*
X1087802D01*
Y070223D01*
Y070232D01*
X1087712D01*
Y0702411D01*
Y0702501D01*
X1087621D01*
Y0702592D01*
Y0702682D01*
Y0702773D01*
X1087531D01*
Y0702863D01*
Y0702953D01*
Y0703044D01*
Y0703134D01*
Y0703225D01*
X108744D01*
Y0703315D01*
Y0703406D01*
Y0703496D01*
Y0703586D01*
Y0703677D01*
Y0703767D01*
Y0703858D01*
Y0703948D01*
Y0704038D01*
Y0704129D01*
X1087169D01*
Y0704038D01*
X1086898D01*
Y0703948D01*
X1086627D01*
Y0703858D01*
X1086355D01*
Y0703767D01*
X1086084D01*
Y0703677D01*
X1085813D01*
Y0703586D01*
X1085451D01*
Y0703496D01*
X1085089D01*
Y0703406D01*
X1084728D01*
Y0703315D01*
X1084366D01*
Y0703225D01*
X1083914D01*
Y0703134D01*
X1083371D01*
Y0703044D01*
X1082557D01*
Y0702953D01*
X1081653D01*
Y0703044D01*
X1081111D01*
Y0703134D01*
X1080749D01*
Y0703225D01*
X1080568D01*
Y0703315D01*
X1080387D01*
Y0703406D01*
X1080206D01*
Y0703496D01*
X1080116D01*
Y0703586D01*
X1080026D01*
Y0703677D01*
X1079935D01*
Y0703767D01*
X1079845D01*
Y0703858D01*
X1079754D01*
Y0703948D01*
X1079664D01*
Y0704038D01*
Y0704129D01*
X1079574D01*
Y0704219D01*
Y070431D01*
X1079483D01*
Y07044D01*
Y0704491D01*
Y0704581D01*
Y0704671D01*
X1079393D01*
Y0704762D01*
Y0704852D01*
Y0704943D01*
Y0705033D01*
Y0705124D01*
Y0705214D01*
X1079483D01*
Y0705304D01*
Y0705395D01*
Y0705485D01*
X1079574D01*
Y0705576D01*
X1079664D01*
Y0705666D01*
Y0705757D01*
X1079754D01*
Y0705847D01*
X1079845D01*
Y0705937D01*
X1079935D01*
Y0706028D01*
X1080116D01*
Y0706118D01*
X1080206D01*
Y0706209D01*
X1080387D01*
Y0706299D01*
X1080568D01*
Y070639D01*
X1080839D01*
Y070648D01*
X1081201D01*
Y070657D01*
X1081653D01*
Y0706661D01*
X1081925D01*
Y0706751D01*
X1082105D01*
Y0706842D01*
X1082196D01*
Y0706932D01*
X1082286D01*
Y0707022D01*
X1082467D01*
Y0707113D01*
X1082557D01*
Y0707203D01*
X1082648D01*
Y0707294D01*
X1082738D01*
Y0707384D01*
Y0707475D01*
X1082829D01*
Y0707565D01*
X1082919D01*
Y0707655D01*
X108301D01*
Y0707746D01*
Y0707836D01*
X10831D01*
Y0707927D01*
Y0708017D01*
X108319D01*
Y0708108D01*
Y0708198D01*
X1083281D01*
Y0708288D01*
Y0708379D01*
Y0708469D01*
X1083371D01*
Y070856D01*
Y070865D01*
Y0708741D01*
Y0708831D01*
Y0708921D01*
X1083462D01*
Y0709012D01*
Y0709102D01*
Y0709193D01*
Y0709283D01*
Y0709374D01*
Y0709464D01*
Y0709554D01*
Y0709645D01*
Y0709735D01*
Y0709826D01*
Y0709916D01*
Y0710006D01*
Y0710097D01*
Y0710187D01*
Y0710278D01*
X1083371D01*
Y0710368D01*
Y0710459D01*
Y0710549D01*
Y0710639D01*
Y071073D01*
Y071082D01*
Y0710911D01*
Y0711001D01*
Y0711092D01*
X1083281D01*
Y0711182D01*
Y0711272D01*
Y0711363D01*
Y0711453D01*
Y0711544D01*
Y0711634D01*
Y0711725D01*
X108319D01*
Y0711815D01*
Y0711905D01*
Y0711996D01*
Y0712086D01*
Y0712177D01*
Y0712267D01*
X10831D01*
Y0712358D01*
Y0712448D01*
Y0712538D01*
Y0712629D01*
Y0712719D01*
Y071281D01*
Y07129D01*
X108301D01*
Y071299D01*
Y0713081D01*
Y0713171D01*
Y0713262D01*
Y0713352D01*
Y0713443D01*
X1082919D01*
Y0713533D01*
Y0713623D01*
Y0713714D01*
Y0713804D01*
Y0713895D01*
X1082829D01*
Y0713985D01*
Y0714076D01*
Y0714166D01*
Y0714256D01*
Y0714347D01*
Y0714437D01*
X1082738D01*
Y0714528D01*
Y0714618D01*
Y0714709D01*
Y0714799D01*
Y0714889D01*
Y071498D01*
X1082648D01*
Y071507D01*
Y0715161D01*
Y0715251D01*
Y0715342D01*
Y0715432D01*
X1082557D01*
Y0715522D01*
Y0715613D01*
Y0715703D01*
Y0715794D01*
Y0715884D01*
X1082467D01*
Y0715974D01*
Y0716065D01*
Y0716155D01*
Y0716246D01*
Y0716336D01*
Y0716427D01*
X1082377D01*
Y0716517D01*
Y0716607D01*
Y0716698D01*
Y0716788D01*
Y0716879D01*
X1082286D01*
Y0716969D01*
Y071706D01*
Y071715D01*
Y071724D01*
Y0717331D01*
X1082196D01*
Y0717421D01*
Y0717512D01*
Y0717602D01*
Y0717693D01*
Y0717783D01*
Y0717873D01*
X1082105D01*
Y0717964D01*
Y0718054D01*
Y0718145D01*
Y0718235D01*
Y0718325D01*
X1082015D01*
Y0718416D01*
Y0718506D01*
Y0718597D01*
Y0718687D01*
Y0718778D01*
X1081925D01*
Y0718868D01*
Y0718958D01*
Y0719049D01*
Y0719139D01*
Y071923D01*
X1081834D01*
Y071932D01*
Y0719411D01*
Y0719501D01*
Y0719591D01*
Y0719682D01*
X1081744D01*
Y0719772D01*
Y0719863D01*
Y0719953D01*
Y0720044D01*
Y0720134D01*
Y0720224D01*
X1081653D01*
Y0720315D01*
Y0720405D01*
Y0720496D01*
Y0720586D01*
Y0720677D01*
X1081563D01*
Y0720767D01*
Y0720857D01*
Y0720948D01*
Y0721038D01*
Y0721129D01*
X1081472D01*
Y0721219D01*
Y0721309D01*
Y07214D01*
Y072149D01*
Y0721581D01*
X1081382D01*
Y0721671D01*
Y0721762D01*
Y0721852D01*
Y0721942D01*
Y0722033D01*
Y0722123D01*
X1081291D01*
Y0722214D01*
Y0722304D01*
Y0722395D01*
Y0722485D01*
Y0722575D01*
X1081201D01*
Y0722666D01*
Y0722756D01*
Y0722847D01*
Y0722937D01*
Y0723028D01*
Y0723118D01*
Y0723208D01*
Y0723299D01*
X1081111D01*
Y0723389D01*
Y072348D01*
Y072357D01*
Y0723661D01*
Y0723751D01*
Y0723841D01*
Y0723932D01*
Y0724022D01*
Y0724113D01*
Y0724203D01*
Y0724293D01*
Y0724384D01*
Y0724474D01*
Y0724565D01*
X1081201D01*
Y0724655D01*
Y0724746D01*
Y0724836D01*
Y0724926D01*
Y0725017D01*
Y0725107D01*
X1081291D01*
Y0725198D01*
Y0725288D01*
Y0725379D01*
Y0725469D01*
X1081382D01*
Y0725559D01*
Y072565D01*
Y072574D01*
X1081472D01*
Y0725831D01*
Y0725921D01*
X1081563D01*
Y0726012D01*
Y0726102D01*
X1081653D01*
Y0726192D01*
Y0726283D01*
X1081744D01*
Y0726373D01*
X1081834D01*
Y0726464D01*
Y0726554D01*
X1081925D01*
Y0726644D01*
X1082015D01*
Y0726735D01*
X1082105D01*
Y0726825D01*
X1082196D01*
Y0726916D01*
X1082286D01*
Y0727006D01*
X1082377D01*
Y0727097D01*
X1082467D01*
Y0727187D01*
X1082648D01*
Y0727277D01*
X1082829D01*
Y0727368D01*
X1082919D01*
Y0727458D01*
X108319D01*
Y0727549D01*
X1083371D01*
Y0727639D01*
X1083733D01*
Y072773D01*
X1084185D01*
Y072782D01*
X1085903D01*
Y072773D01*
X1086536D01*
Y0727639D01*
X1086988D01*
Y0727549D01*
X108744D01*
Y0727458D01*
X1087983D01*
Y0727368D01*
X1088435D01*
Y0727277D01*
X1088887D01*
Y0727187D01*
X1089339D01*
Y0727097D01*
X1089882D01*
Y0727006D01*
X1090334D01*
Y0726916D01*
X1090786D01*
Y0726825D01*
X1091238D01*
Y0726735D01*
X109169D01*
Y0726644D01*
X1092233D01*
Y0726554D01*
X1092685D01*
Y0726464D01*
X1093137D01*
Y0726373D01*
X109368D01*
Y0726283D01*
X1094132D01*
Y0726192D01*
X1094674D01*
Y0726102D01*
X1095217D01*
Y0726012D01*
X1095669D01*
Y0725921D01*
X1096212D01*
Y0725831D01*
X1096844D01*
Y072574D01*
X1097387D01*
Y072565D01*
X109811D01*
Y0725559D01*
X1099015D01*
Y0725469D01*
X1099919D01*
Y0725559D01*
X1100371D01*
Y072565D01*
X1100642D01*
Y072574D01*
X1100914D01*
Y0725831D01*
X1101094D01*
Y0725921D01*
X1101185D01*
Y0726012D01*
X1101366D01*
Y0726102D01*
X1101456D01*
Y0726192D01*
X1101637D01*
Y0726283D01*
X1101727D01*
Y0726373D01*
X1101818D01*
Y0726464D01*
X1101908D01*
Y0726554D01*
Y0726644D01*
X1101999D01*
Y0726735D01*
X1102089D01*
Y0726825D01*
X1102179D01*
Y0726916D01*
Y0727006D01*
X110227D01*
Y0727097D01*
Y0727187D01*
X110236D01*
Y0727277D01*
Y0727368D01*
Y0727458D01*
Y0727549D01*
Y0727639D01*
X1102451D01*
Y072773D01*
Y072782D01*
Y072791D01*
Y0728001D01*
X1102541D01*
Y0728091D01*
Y0728182D01*
Y0728272D01*
X1102632D01*
Y0728363D01*
Y0728453D01*
Y0728543D01*
X1102722D01*
Y0728634D01*
Y0728724D01*
X1102812D01*
Y0728815D01*
X1102903D01*
Y0728905D01*
Y0728996D01*
X1102993D01*
Y0729086D01*
X1103084D01*
Y0729176D01*
X1103174D01*
Y0729267D01*
X1103265D01*
Y0729357D01*
X1103445D01*
Y0729448D01*
X1103626D01*
Y0729538D01*
X110444D01*
Y0729448D01*
D02*
G37*
G36*
X102674D02*
X1027011D01*
Y0729357D01*
X1027192D01*
Y0729267D01*
X1027283D01*
Y0729176D01*
X1027464D01*
Y0729086D01*
X1027554D01*
Y0728996D01*
X1027644D01*
Y0728905D01*
X1027735D01*
Y0728815D01*
X1027825D01*
Y0728724D01*
Y0728634D01*
X1027916D01*
Y0728543D01*
Y0728453D01*
X1028006D01*
Y0728363D01*
Y0728272D01*
X1028096D01*
Y0728182D01*
Y0728091D01*
Y0728001D01*
X1028187D01*
Y072791D01*
Y072782D01*
Y072773D01*
Y0727639D01*
Y0727549D01*
X1028277D01*
Y0727458D01*
Y0727368D01*
Y0727277D01*
Y0727187D01*
Y0727097D01*
Y0727006D01*
Y0726916D01*
Y0726825D01*
Y0726735D01*
Y0726644D01*
Y0726554D01*
Y0726464D01*
Y0726373D01*
Y0726283D01*
Y0726192D01*
Y0726102D01*
X1028187D01*
Y0726012D01*
Y0725921D01*
Y0725831D01*
Y072574D01*
Y072565D01*
Y0725559D01*
Y0725469D01*
Y0725379D01*
X1028096D01*
Y0725288D01*
Y0725198D01*
Y0725107D01*
Y0725017D01*
Y0724926D01*
X1028006D01*
Y0724836D01*
Y0724746D01*
Y0724655D01*
Y0724565D01*
Y0724474D01*
X1027916D01*
Y0724384D01*
Y0724293D01*
Y0724203D01*
Y0724113D01*
X1027825D01*
Y0724022D01*
Y0723932D01*
Y0723841D01*
Y0723751D01*
X1027735D01*
Y0723661D01*
Y072357D01*
Y072348D01*
Y0723389D01*
X1027644D01*
Y0723299D01*
Y0723208D01*
Y0723118D01*
X1027554D01*
Y0723028D01*
Y0722937D01*
Y0722847D01*
Y0722756D01*
X1027464D01*
Y0722666D01*
Y0722575D01*
Y0722485D01*
X1027373D01*
Y0722395D01*
Y0722304D01*
Y0722214D01*
X1027283D01*
Y0722123D01*
Y0722033D01*
Y0721942D01*
X1027192D01*
Y0721852D01*
Y0721762D01*
Y0721671D01*
X1027102D01*
Y0721581D01*
Y072149D01*
X1028187D01*
Y07214D01*
X1028549D01*
Y0721309D01*
X102882D01*
Y0721219D01*
X1029001D01*
Y0721129D01*
X1029181D01*
Y0721038D01*
X1029272D01*
Y0720948D01*
X1029362D01*
Y0720857D01*
X1029453D01*
Y0720767D01*
X1029543D01*
Y0720677D01*
X1029634D01*
Y0720586D01*
Y0720496D01*
X1029724D01*
Y0720405D01*
Y0720315D01*
Y0720224D01*
X1029815D01*
Y0720134D01*
Y0720044D01*
Y0719953D01*
Y0719863D01*
Y0719772D01*
Y0719682D01*
Y0719591D01*
Y0719501D01*
Y0719411D01*
Y071932D01*
Y071923D01*
Y0719139D01*
X1029724D01*
Y0719049D01*
Y0718958D01*
Y0718868D01*
Y0718778D01*
Y0718687D01*
Y0718597D01*
X1029634D01*
Y0718506D01*
Y0718416D01*
Y0718325D01*
Y0718235D01*
Y0718145D01*
X1029543D01*
Y0718054D01*
Y0717964D01*
Y0717873D01*
Y0717783D01*
X1029453D01*
Y0717693D01*
Y0717602D01*
Y0717512D01*
Y0717421D01*
Y0717331D01*
X1029362D01*
Y071724D01*
Y071715D01*
Y071706D01*
Y0716969D01*
X1029272D01*
Y0716879D01*
Y0716788D01*
Y0716698D01*
Y0716607D01*
X1029181D01*
Y0716517D01*
Y0716427D01*
Y0716336D01*
Y0716246D01*
X1029091D01*
Y0716155D01*
Y0716065D01*
Y0715974D01*
Y0715884D01*
X1029001D01*
Y0715794D01*
Y0715703D01*
Y0715613D01*
Y0715522D01*
X102891D01*
Y0715432D01*
Y0715342D01*
Y0715251D01*
Y0715161D01*
X102882D01*
Y071507D01*
Y071498D01*
Y0714889D01*
X1028729D01*
Y0714799D01*
Y0714709D01*
Y0714618D01*
Y0714528D01*
X1028639D01*
Y0714437D01*
Y0714347D01*
Y0714256D01*
X1028549D01*
Y0714166D01*
Y0714076D01*
Y0713985D01*
Y0713895D01*
X1028458D01*
Y0713804D01*
Y0713714D01*
Y0713623D01*
X1028368D01*
Y0713533D01*
Y0713443D01*
Y0713352D01*
Y0713262D01*
X1028277D01*
Y0713171D01*
X1028458D01*
Y0713262D01*
X1029724D01*
Y0713171D01*
X1029905D01*
Y0713081D01*
X1030086D01*
Y071299D01*
X1030267D01*
Y07129D01*
X1030357D01*
Y071281D01*
X1030447D01*
Y0712719D01*
X1030538D01*
Y0712629D01*
X1030628D01*
Y0712538D01*
X1030719D01*
Y0712448D01*
Y0712358D01*
X1030809D01*
Y0712267D01*
Y0712177D01*
X10309D01*
Y0712086D01*
Y0711996D01*
Y0711905D01*
X103099D01*
Y0711815D01*
Y0711725D01*
Y0711634D01*
Y0711544D01*
X103108D01*
Y0711453D01*
Y0711363D01*
Y0711272D01*
Y0711182D01*
Y0711092D01*
Y0711001D01*
Y0710911D01*
Y071082D01*
Y071073D01*
Y0710639D01*
Y0710549D01*
Y0710459D01*
Y0710368D01*
X103099D01*
Y0710278D01*
Y0710187D01*
Y0710097D01*
Y0710006D01*
Y0709916D01*
Y0709826D01*
X10309D01*
Y0709735D01*
Y0709645D01*
Y0709554D01*
X1030809D01*
Y0709464D01*
Y0709374D01*
Y0709283D01*
X1030719D01*
Y0709193D01*
Y0709102D01*
X1030628D01*
Y0709012D01*
Y0708921D01*
Y0708831D01*
X1030538D01*
Y0708741D01*
Y070865D01*
X1030447D01*
Y070856D01*
Y0708469D01*
Y0708379D01*
X1030357D01*
Y0708288D01*
Y0708198D01*
Y0708108D01*
X1030267D01*
Y0708017D01*
Y0707927D01*
X1030176D01*
Y0707836D01*
Y0707746D01*
Y0707655D01*
X1030086D01*
Y0707565D01*
Y0707475D01*
X1029995D01*
Y0707384D01*
Y0707294D01*
X1029905D01*
Y0707203D01*
Y0707113D01*
Y0707022D01*
X1029815D01*
Y0706932D01*
Y0706842D01*
X1029724D01*
Y0706751D01*
Y0706661D01*
X1029634D01*
Y070657D01*
Y070648D01*
X1029543D01*
Y070639D01*
Y0706299D01*
Y0706209D01*
X1029453D01*
Y0706118D01*
Y0706028D01*
X1029362D01*
Y0705937D01*
Y0705847D01*
X1029272D01*
Y0705757D01*
X1029181D01*
Y0705666D01*
Y0705576D01*
X1029091D01*
Y0705485D01*
Y0705395D01*
X1029001D01*
Y0705304D01*
Y0705214D01*
X102891D01*
Y0705124D01*
Y0705033D01*
X102882D01*
Y0704943D01*
Y0704852D01*
X102891D01*
Y0704943D01*
X1029181D01*
Y0705033D01*
X1029634D01*
Y0705124D01*
X103099D01*
Y0705033D01*
X1031352D01*
Y0704943D01*
X1031713D01*
Y0704852D01*
X1031894D01*
Y0704762D01*
X1032166D01*
Y0704671D01*
X1032346D01*
Y0704581D01*
X1032437D01*
Y0704491D01*
X1032618D01*
Y07044D01*
X1032708D01*
Y070431D01*
X1032889D01*
Y0704219D01*
X1032979D01*
Y0704129D01*
X103307D01*
Y0704038D01*
X103316D01*
Y0703948D01*
X1033251D01*
Y0703858D01*
X1033341D01*
Y0703767D01*
X1033431D01*
Y0703677D01*
X1033522D01*
Y0703586D01*
X1033612D01*
Y0703496D01*
Y0703406D01*
X1033703D01*
Y0703315D01*
X1033793D01*
Y0703225D01*
X1033883D01*
Y0703134D01*
Y0703044D01*
X1033974D01*
Y0702953D01*
Y0702863D01*
X1034064D01*
Y0702773D01*
Y0702682D01*
X1034155D01*
Y0702592D01*
Y0702501D01*
Y0702411D01*
X1034245D01*
Y070232D01*
Y070223D01*
X1034336D01*
Y070214D01*
Y0702049D01*
Y0701959D01*
Y0701868D01*
X1034426D01*
Y0701778D01*
Y0701687D01*
Y0701597D01*
Y0701507D01*
Y0701416D01*
Y0701326D01*
Y0701235D01*
Y0701145D01*
X1034517D01*
Y0701054D01*
Y0700964D01*
Y0700874D01*
Y0700783D01*
X1034426D01*
Y0700693D01*
Y0700602D01*
Y0700512D01*
Y0700421D01*
Y0700331D01*
Y0700241D01*
Y070015D01*
Y070006D01*
X1034336D01*
Y0699969D01*
Y0699879D01*
Y0699789D01*
Y0699698D01*
X1034245D01*
Y0699608D01*
Y0699517D01*
Y0699427D01*
X1034155D01*
Y0699336D01*
Y0699246D01*
X1034064D01*
Y0699156D01*
Y0699065D01*
X1033974D01*
Y0698975D01*
Y0698884D01*
X1033883D01*
Y0698794D01*
Y0698703D01*
X1033793D01*
Y0698613D01*
X1033703D01*
Y0698523D01*
Y0698432D01*
X1033612D01*
Y0698342D01*
X1033522D01*
Y0698251D01*
X1033431D01*
Y0698161D01*
X1033341D01*
Y069807D01*
X1033251D01*
Y069798D01*
X103316D01*
Y069789D01*
X103307D01*
Y0697799D01*
X1032979D01*
Y0697709D01*
X1032889D01*
Y0697618D01*
X1032798D01*
Y0697528D01*
X1032618D01*
Y0697437D01*
X1032527D01*
Y0697347D01*
X1032346D01*
Y0697257D01*
X1032166D01*
Y0697166D01*
X1031985D01*
Y0697076D01*
X1031713D01*
Y0696985D01*
X1031442D01*
Y0696895D01*
X103108D01*
Y0696805D01*
X1029543D01*
Y0696895D01*
X1029181D01*
Y0696985D01*
X102891D01*
Y0697076D01*
X1028639D01*
Y0697166D01*
X1028458D01*
Y0697257D01*
X1028277D01*
Y0697347D01*
X1028096D01*
Y0697437D01*
X1028006D01*
Y0697528D01*
X1027825D01*
Y0697618D01*
X1027735D01*
Y0697709D01*
X1027644D01*
Y0697799D01*
X1027464D01*
Y069789D01*
X1027373D01*
Y069798D01*
X1027283D01*
Y069807D01*
X1027192D01*
Y0698161D01*
Y0698251D01*
X1027102D01*
Y0698342D01*
X1027011D01*
Y0698432D01*
X1026921D01*
Y0698523D01*
X102683D01*
Y0698613D01*
Y0698703D01*
X102674D01*
Y0698794D01*
X102665D01*
Y0698884D01*
Y0698975D01*
X1026559D01*
Y0699065D01*
Y0699156D01*
X1026469D01*
Y0699246D01*
Y0699336D01*
Y0699427D01*
X1026378D01*
Y0699517D01*
Y0699608D01*
X1026288D01*
Y0699698D01*
Y0699789D01*
Y0699879D01*
Y0699969D01*
X1026198D01*
Y070006D01*
Y070015D01*
Y0700241D01*
Y0700331D01*
Y0700421D01*
X1026107D01*
Y0700512D01*
Y0700602D01*
Y0700693D01*
Y0700783D01*
Y0700874D01*
Y0700964D01*
Y0701054D01*
Y0701145D01*
Y0701235D01*
Y0701326D01*
Y0701416D01*
X1026198D01*
Y0701507D01*
Y0701597D01*
Y0701687D01*
Y0701778D01*
Y0701868D01*
Y0701959D01*
X1026288D01*
Y0702049D01*
Y070214D01*
Y070223D01*
X1026378D01*
Y070232D01*
Y0702411D01*
X1026198D01*
Y070232D01*
X1026017D01*
Y070223D01*
X1025926D01*
Y070214D01*
X1025745D01*
Y0702049D01*
X1025565D01*
Y0701959D01*
X1025384D01*
Y0701868D01*
X1025203D01*
Y0701778D01*
X1025022D01*
Y0701687D01*
X1024841D01*
Y0701597D01*
X102466D01*
Y0701507D01*
X1024389D01*
Y0701416D01*
X1024208D01*
Y0701326D01*
X1024027D01*
Y0701235D01*
X1023756D01*
Y0701145D01*
X1023575D01*
Y0701054D01*
X1023304D01*
Y0700964D01*
X1023123D01*
Y0700874D01*
X1022852D01*
Y0700783D01*
X1022581D01*
Y0700693D01*
X10224D01*
Y0700602D01*
X1022128D01*
Y0700512D01*
X1021857D01*
Y0700421D01*
X1021586D01*
Y0700331D01*
X1021315D01*
Y0700241D01*
X1020591D01*
Y070015D01*
X1019958D01*
Y0700241D01*
X1019416D01*
Y0700331D01*
X1019144D01*
Y0700421D01*
X1018964D01*
Y0700512D01*
X1018783D01*
Y0700602D01*
X1018602D01*
Y0700693D01*
X1018511D01*
Y0700783D01*
X1018421D01*
Y0700874D01*
X1018331D01*
Y0700964D01*
Y0701054D01*
X101824D01*
Y0701145D01*
X101815D01*
Y0701235D01*
Y0701326D01*
Y0701416D01*
X1018059D01*
Y0701507D01*
Y0701597D01*
Y0701687D01*
X1017969D01*
Y0701778D01*
Y0701868D01*
Y0701959D01*
Y0702049D01*
Y070214D01*
Y070223D01*
Y070232D01*
Y0702411D01*
Y0702501D01*
Y0702592D01*
Y0702682D01*
X1018059D01*
Y0702773D01*
Y0702863D01*
Y0702953D01*
X1017879D01*
Y0702863D01*
X1017607D01*
Y0702773D01*
X1017245D01*
Y0702682D01*
X1016974D01*
Y0702592D01*
X1016613D01*
Y0702501D01*
X1016341D01*
Y0702411D01*
X101598D01*
Y070232D01*
X1015618D01*
Y070223D01*
X1015256D01*
Y070214D01*
X1014894D01*
Y0702049D01*
X1014533D01*
Y0701959D01*
X1014171D01*
Y0701868D01*
X1013809D01*
Y0701778D01*
X1013357D01*
Y0701687D01*
X1012996D01*
Y0701597D01*
X1012453D01*
Y0701507D01*
X1011911D01*
Y0701416D01*
X1011097D01*
Y0701507D01*
X1010825D01*
Y0701597D01*
X1010645D01*
Y0701687D01*
X1010554D01*
Y0701778D01*
X1010373D01*
Y0701868D01*
X1010283D01*
Y0701959D01*
Y0702049D01*
X1010192D01*
Y070214D01*
X1010102D01*
Y070223D01*
Y070232D01*
X1010012D01*
Y0702411D01*
Y0702501D01*
X1009921D01*
Y0702592D01*
Y0702682D01*
Y0702773D01*
X1009831D01*
Y0702863D01*
Y0702953D01*
Y0703044D01*
Y0703134D01*
Y0703225D01*
X100974D01*
Y0703315D01*
Y0703406D01*
Y0703496D01*
Y0703586D01*
Y0703677D01*
Y0703767D01*
Y0703858D01*
Y0703948D01*
Y0704038D01*
Y0704129D01*
X1009469D01*
Y0704038D01*
X1009198D01*
Y0703948D01*
X1008926D01*
Y0703858D01*
X1008655D01*
Y0703767D01*
X1008384D01*
Y0703677D01*
X1008113D01*
Y0703586D01*
X1007751D01*
Y0703496D01*
X1007389D01*
Y0703406D01*
X1007028D01*
Y0703315D01*
X1006666D01*
Y0703225D01*
X1006214D01*
Y0703134D01*
X1005671D01*
Y0703044D01*
X1004858D01*
Y0702953D01*
X1003953D01*
Y0703044D01*
X1003411D01*
Y0703134D01*
X1003049D01*
Y0703225D01*
X1002868D01*
Y0703315D01*
X1002687D01*
Y0703406D01*
X1002506D01*
Y0703496D01*
X1002416D01*
Y0703586D01*
X1002326D01*
Y0703677D01*
X1002235D01*
Y0703767D01*
X1002145D01*
Y0703858D01*
X1002054D01*
Y0703948D01*
X1001964D01*
Y0704038D01*
Y0704129D01*
X1001873D01*
Y0704219D01*
Y070431D01*
X1001783D01*
Y07044D01*
Y0704491D01*
Y0704581D01*
Y0704671D01*
X1001693D01*
Y0704762D01*
Y0704852D01*
Y0704943D01*
Y0705033D01*
Y0705124D01*
Y0705214D01*
X1001783D01*
Y0705304D01*
Y0705395D01*
Y0705485D01*
X1001873D01*
Y0705576D01*
X1001964D01*
Y0705666D01*
Y0705757D01*
X1002054D01*
Y0705847D01*
X1002145D01*
Y0705937D01*
X1002235D01*
Y0706028D01*
X1002416D01*
Y0706118D01*
X1002506D01*
Y0706209D01*
X1002687D01*
Y0706299D01*
X1002868D01*
Y070639D01*
X1003139D01*
Y070648D01*
X1003501D01*
Y070657D01*
X1003953D01*
Y0706661D01*
X1004224D01*
Y0706751D01*
X1004405D01*
Y0706842D01*
X1004496D01*
Y0706932D01*
X1004586D01*
Y0707022D01*
X1004767D01*
Y0707113D01*
X1004858D01*
Y0707203D01*
X1004948D01*
Y0707294D01*
X1005038D01*
Y0707384D01*
Y0707475D01*
X1005129D01*
Y0707565D01*
X1005219D01*
Y0707655D01*
X100531D01*
Y0707746D01*
Y0707836D01*
X10054D01*
Y0707927D01*
Y0708017D01*
X100549D01*
Y0708108D01*
Y0708198D01*
X1005581D01*
Y0708288D01*
Y0708379D01*
Y0708469D01*
X1005671D01*
Y070856D01*
Y070865D01*
Y0708741D01*
Y0708831D01*
Y0708921D01*
X1005762D01*
Y0709012D01*
Y0709102D01*
Y0709193D01*
Y0709283D01*
Y0709374D01*
Y0709464D01*
Y0709554D01*
Y0709645D01*
Y0709735D01*
Y0709826D01*
Y0709916D01*
Y0710006D01*
Y0710097D01*
Y0710187D01*
Y0710278D01*
X1005671D01*
Y0710368D01*
Y0710459D01*
Y0710549D01*
Y0710639D01*
Y071073D01*
Y071082D01*
Y0710911D01*
Y0711001D01*
Y0711092D01*
X1005581D01*
Y0711182D01*
Y0711272D01*
Y0711363D01*
Y0711453D01*
Y0711544D01*
Y0711634D01*
Y0711725D01*
X100549D01*
Y0711815D01*
Y0711905D01*
Y0711996D01*
Y0712086D01*
Y0712177D01*
Y0712267D01*
X10054D01*
Y0712358D01*
Y0712448D01*
Y0712538D01*
Y0712629D01*
Y0712719D01*
Y071281D01*
Y07129D01*
X100531D01*
Y071299D01*
Y0713081D01*
Y0713171D01*
Y0713262D01*
Y0713352D01*
Y0713443D01*
X1005219D01*
Y0713533D01*
Y0713623D01*
Y0713714D01*
Y0713804D01*
Y0713895D01*
X1005129D01*
Y0713985D01*
Y0714076D01*
Y0714166D01*
Y0714256D01*
Y0714347D01*
Y0714437D01*
X1005038D01*
Y0714528D01*
Y0714618D01*
Y0714709D01*
Y0714799D01*
Y0714889D01*
Y071498D01*
X1004948D01*
Y071507D01*
Y0715161D01*
Y0715251D01*
Y0715342D01*
Y0715432D01*
X1004858D01*
Y0715522D01*
Y0715613D01*
Y0715703D01*
Y0715794D01*
Y0715884D01*
X1004767D01*
Y0715974D01*
Y0716065D01*
Y0716155D01*
Y0716246D01*
Y0716336D01*
Y0716427D01*
X1004677D01*
Y0716517D01*
Y0716607D01*
Y0716698D01*
Y0716788D01*
Y0716879D01*
X1004586D01*
Y0716969D01*
Y071706D01*
Y071715D01*
Y071724D01*
Y0717331D01*
X1004496D01*
Y0717421D01*
Y0717512D01*
Y0717602D01*
Y0717693D01*
Y0717783D01*
Y0717873D01*
X1004405D01*
Y0717964D01*
Y0718054D01*
Y0718145D01*
Y0718235D01*
Y0718325D01*
X1004315D01*
Y0718416D01*
Y0718506D01*
Y0718597D01*
Y0718687D01*
Y0718778D01*
X1004224D01*
Y0718868D01*
Y0718958D01*
Y0719049D01*
Y0719139D01*
Y071923D01*
X1004134D01*
Y071932D01*
Y0719411D01*
Y0719501D01*
Y0719591D01*
Y0719682D01*
X1004044D01*
Y0719772D01*
Y0719863D01*
Y0719953D01*
Y0720044D01*
Y0720134D01*
Y0720224D01*
X1003953D01*
Y0720315D01*
Y0720405D01*
Y0720496D01*
Y0720586D01*
Y0720677D01*
X1003863D01*
Y0720767D01*
Y0720857D01*
Y0720948D01*
Y0721038D01*
Y0721129D01*
X1003772D01*
Y0721219D01*
Y0721309D01*
Y07214D01*
Y072149D01*
Y0721581D01*
X1003682D01*
Y0721671D01*
Y0721762D01*
Y0721852D01*
Y0721942D01*
Y0722033D01*
Y0722123D01*
X1003592D01*
Y0722214D01*
Y0722304D01*
Y0722395D01*
Y0722485D01*
Y0722575D01*
X1003501D01*
Y0722666D01*
Y0722756D01*
Y0722847D01*
Y0722937D01*
Y0723028D01*
Y0723118D01*
Y0723208D01*
Y0723299D01*
X1003411D01*
Y0723389D01*
Y072348D01*
Y072357D01*
Y0723661D01*
Y0723751D01*
Y0723841D01*
Y0723932D01*
Y0724022D01*
Y0724113D01*
Y0724203D01*
Y0724293D01*
Y0724384D01*
Y0724474D01*
Y0724565D01*
X1003501D01*
Y0724655D01*
Y0724746D01*
Y0724836D01*
Y0724926D01*
Y0725017D01*
Y0725107D01*
X1003592D01*
Y0725198D01*
Y0725288D01*
Y0725379D01*
Y0725469D01*
X1003682D01*
Y0725559D01*
Y072565D01*
Y072574D01*
X1003772D01*
Y0725831D01*
Y0725921D01*
X1003863D01*
Y0726012D01*
Y0726102D01*
X1003953D01*
Y0726192D01*
Y0726283D01*
X1004044D01*
Y0726373D01*
X1004134D01*
Y0726464D01*
Y0726554D01*
X1004224D01*
Y0726644D01*
X1004315D01*
Y0726735D01*
X1004405D01*
Y0726825D01*
X1004496D01*
Y0726916D01*
X1004586D01*
Y0727006D01*
X1004677D01*
Y0727097D01*
X1004767D01*
Y0727187D01*
X1004948D01*
Y0727277D01*
X1005129D01*
Y0727368D01*
X1005219D01*
Y0727458D01*
X100549D01*
Y0727549D01*
X1005671D01*
Y0727639D01*
X1006033D01*
Y072773D01*
X1006485D01*
Y072782D01*
X1008203D01*
Y072773D01*
X1008836D01*
Y0727639D01*
X1009288D01*
Y0727549D01*
X100974D01*
Y0727458D01*
X1010283D01*
Y0727368D01*
X1010735D01*
Y0727277D01*
X1011187D01*
Y0727187D01*
X1011639D01*
Y0727097D01*
X1012182D01*
Y0727006D01*
X1012634D01*
Y0726916D01*
X1013086D01*
Y0726825D01*
X1013538D01*
Y0726735D01*
X101399D01*
Y0726644D01*
X1014533D01*
Y0726554D01*
X1014985D01*
Y0726464D01*
X1015437D01*
Y0726373D01*
X101598D01*
Y0726283D01*
X1016432D01*
Y0726192D01*
X1016974D01*
Y0726102D01*
X1017517D01*
Y0726012D01*
X1017969D01*
Y0725921D01*
X1018511D01*
Y0725831D01*
X1019144D01*
Y072574D01*
X1019687D01*
Y072565D01*
X102041D01*
Y0725559D01*
X1021315D01*
Y0725469D01*
X1022219D01*
Y0725559D01*
X1022671D01*
Y072565D01*
X1022942D01*
Y072574D01*
X1023213D01*
Y0725831D01*
X1023394D01*
Y0725921D01*
X1023485D01*
Y0726012D01*
X1023666D01*
Y0726102D01*
X1023756D01*
Y0726192D01*
X1023937D01*
Y0726283D01*
X1024027D01*
Y0726373D01*
X1024118D01*
Y0726464D01*
X1024208D01*
Y0726554D01*
Y0726644D01*
X1024299D01*
Y0726735D01*
X1024389D01*
Y0726825D01*
X1024479D01*
Y0726916D01*
Y0727006D01*
X102457D01*
Y0727097D01*
Y0727187D01*
X102466D01*
Y0727277D01*
Y0727368D01*
Y0727458D01*
Y0727549D01*
Y0727639D01*
X1024751D01*
Y072773D01*
Y072782D01*
Y072791D01*
Y0728001D01*
X1024841D01*
Y0728091D01*
Y0728182D01*
Y0728272D01*
X1024932D01*
Y0728363D01*
Y0728453D01*
Y0728543D01*
X1025022D01*
Y0728634D01*
Y0728724D01*
X1025112D01*
Y0728815D01*
X1025203D01*
Y0728905D01*
Y0728996D01*
X1025293D01*
Y0729086D01*
X1025384D01*
Y0729176D01*
X1025474D01*
Y0729267D01*
X1025565D01*
Y0729357D01*
X1025745D01*
Y0729448D01*
X1025926D01*
Y0729538D01*
X102674D01*
Y0729448D01*
D02*
G37*
%LPC*%
G36*
X1263636Y0720683D02*
X1263545D01*
Y0720592D01*
Y0720502D01*
X1263455D01*
Y0720412D01*
Y0720321D01*
X1263365D01*
Y0720231D01*
X1263274D01*
Y072014D01*
Y072005D01*
X1263184D01*
Y0719959D01*
Y0719869D01*
X1263093D01*
Y0719779D01*
X1263003D01*
Y0719688D01*
Y0719598D01*
X1262912D01*
Y0719507D01*
Y0719417D01*
X1262822D01*
Y0719326D01*
X1262732D01*
Y0719236D01*
Y0719146D01*
X1262641D01*
Y0719055D01*
Y0718965D01*
X1262551D01*
Y0718874D01*
X126246D01*
Y0718784D01*
Y0718694D01*
X126237D01*
Y0718603D01*
X1262279D01*
Y0718513D01*
Y0718422D01*
X1262189D01*
Y0718332D01*
X1262099D01*
Y0718242D01*
Y0718151D01*
X1262008D01*
Y0718061D01*
X1261918D01*
Y071797D01*
Y071788D01*
X1261827D01*
Y0717789D01*
X1261737D01*
Y0717699D01*
Y0717608D01*
X1261646D01*
Y0717518D01*
X1261556D01*
Y0717428D01*
Y0717337D01*
X1261466D01*
Y0717247D01*
X1261375D01*
Y0717156D01*
Y0717066D01*
X1261285D01*
Y0716975D01*
X1261194D01*
Y0716885D01*
Y0716795D01*
X1261104D01*
Y0716704D01*
X1261014D01*
Y0716614D01*
X1260923D01*
Y0716523D01*
Y0716433D01*
X1260833D01*
Y0716342D01*
X1260742D01*
Y0716252D01*
Y0716162D01*
X1260652D01*
Y0716071D01*
X1260561D01*
Y0715981D01*
X1260471D01*
Y071589D01*
Y07158D01*
X1260381D01*
Y071571D01*
X126029D01*
Y0715619D01*
X12602D01*
Y0715529D01*
Y0715438D01*
X1260109D01*
Y0715348D01*
X1260019D01*
Y0715258D01*
X1259928D01*
Y0715167D01*
X1259838D01*
Y0715077D01*
Y0714986D01*
X1259748D01*
Y0714896D01*
X1259657D01*
Y0714805D01*
X1259567D01*
Y0714715D01*
X1259476D01*
Y0714625D01*
Y0714534D01*
X1259386D01*
Y0714444D01*
X1259295D01*
Y0714353D01*
X1259205D01*
Y0714263D01*
X1259115D01*
Y0714172D01*
X1259024D01*
Y0714082D01*
X1258934D01*
Y0713991D01*
X1258843D01*
Y0713901D01*
Y0713811D01*
X1258753D01*
Y071372D01*
X1258663D01*
Y071363D01*
X1258572D01*
Y0713539D01*
X1258482D01*
Y0713449D01*
X1258391D01*
Y0713359D01*
X1258301D01*
Y0713268D01*
X125821D01*
Y0713178D01*
X1258029D01*
Y0713087D01*
X1257939D01*
Y0712997D01*
X1257849D01*
Y0712906D01*
X1257758D01*
Y0712816D01*
X1257668D01*
Y0712726D01*
X1257577D01*
Y0712635D01*
X1257487D01*
Y0712545D01*
X1257306D01*
Y0712454D01*
X1257216D01*
Y0712364D01*
X1257125D01*
Y0712274D01*
X1257035D01*
Y0712183D01*
X1256944D01*
Y0712093D01*
X1256764D01*
Y0712002D01*
X1256673D01*
Y0711912D01*
X1256583D01*
Y0711821D01*
X1256492D01*
Y0711731D01*
X1256312D01*
Y0711641D01*
X1256221D01*
Y071155D01*
X1256131D01*
Y071146D01*
X125595D01*
Y0711369D01*
X1255859D01*
Y0711279D01*
X1255769D01*
Y0711188D01*
X1255588D01*
Y0711098D01*
X1255498D01*
Y0711007D01*
X1255317D01*
Y0710917D01*
X1255226D01*
Y0710827D01*
X1255136D01*
Y0710736D01*
X1254955D01*
Y0710646D01*
X1254865D01*
Y0710555D01*
X1254684D01*
Y0710465D01*
X1254593D01*
Y0710375D01*
X1254413D01*
Y0710284D01*
X1254322D01*
Y0710194D01*
X1254141D01*
Y0710103D01*
X1254051D01*
Y0710013D01*
X125387D01*
Y0709923D01*
X125378D01*
Y0709832D01*
X1253599D01*
Y0709742D01*
X1253508D01*
Y0709651D01*
X1253327D01*
Y0709561D01*
X1253237D01*
Y070947D01*
X1253056D01*
Y070938D01*
X1252875D01*
Y070929D01*
X1252785D01*
Y0709199D01*
X1252604D01*
Y0709109D01*
X1252514D01*
Y0709018D01*
X1252333D01*
Y0708928D01*
X1252152D01*
Y0708837D01*
X1252062D01*
Y0708747D01*
X1251881D01*
Y0708657D01*
X12517D01*
Y0708566D01*
X1251519D01*
Y0708476D01*
X1251429D01*
Y0708385D01*
X1251248D01*
Y0708295D01*
X1251609D01*
Y0708385D01*
X1252062D01*
Y0708476D01*
X1252423D01*
Y0708566D01*
X1252785D01*
Y0708657D01*
X1253056D01*
Y0708747D01*
X1253327D01*
Y0708837D01*
X1253689D01*
Y0708928D01*
X125387D01*
Y0709018D01*
X1254141D01*
Y0709109D01*
X1254413D01*
Y0709199D01*
X1254593D01*
Y070929D01*
X1254865D01*
Y070938D01*
X1255046D01*
Y070947D01*
X1255226D01*
Y0709561D01*
X1255498D01*
Y0709651D01*
X1255678D01*
Y0709742D01*
X1255859D01*
Y0709832D01*
X125604D01*
Y0709923D01*
X1256221D01*
Y0710013D01*
X1256312D01*
Y0710103D01*
X1256492D01*
Y0710194D01*
X1256673D01*
Y0710284D01*
X1256854D01*
Y0710375D01*
X1256944D01*
Y0710465D01*
X1257125D01*
Y0710555D01*
X1257306D01*
Y0710646D01*
X1257397D01*
Y0710736D01*
X1257577D01*
Y0710827D01*
X1257668D01*
Y0710917D01*
X1257849D01*
Y0711007D01*
X1257939D01*
Y0711098D01*
X1258029D01*
Y0711188D01*
X125821D01*
Y0711279D01*
X1258301D01*
Y0711369D01*
X1258391D01*
Y071146D01*
X1258482D01*
Y071155D01*
X1258663D01*
Y0711641D01*
X1258753D01*
Y0711731D01*
X1258843D01*
Y0711821D01*
X1258934D01*
Y0711912D01*
X1259024D01*
Y0712002D01*
X1259115D01*
Y0712093D01*
X1259205D01*
Y0712183D01*
X1259295D01*
Y0712274D01*
X1259386D01*
Y0712364D01*
X1259476D01*
Y0712454D01*
X1259567D01*
Y0712545D01*
X1259657D01*
Y0712635D01*
X1259748D01*
Y0712726D01*
X1259838D01*
Y0712816D01*
X1259928D01*
Y0712906D01*
X1260019D01*
Y0712997D01*
X1260109D01*
Y0713087D01*
X12602D01*
Y0713178D01*
X126029D01*
Y0713268D01*
X1260381D01*
Y0713359D01*
Y0713449D01*
X1260471D01*
Y0713539D01*
X1260561D01*
Y071363D01*
X1260652D01*
Y071372D01*
X1260742D01*
Y0713811D01*
Y0713901D01*
X1260833D01*
Y0713991D01*
X1260923D01*
Y0714082D01*
X1261014D01*
Y0714172D01*
Y0714263D01*
X1261104D01*
Y0714353D01*
X1261194D01*
Y0714444D01*
Y0714534D01*
X1261285D01*
Y0714625D01*
X1261375D01*
Y0714715D01*
Y0714805D01*
X1261466D01*
Y0714896D01*
X1261556D01*
Y0714986D01*
Y0715077D01*
X1261646D01*
Y0715167D01*
Y0715258D01*
X1261737D01*
Y0715348D01*
X1261827D01*
Y0715438D01*
Y0715529D01*
X1261918D01*
Y0715619D01*
Y071571D01*
X1262008D01*
Y07158D01*
Y071589D01*
X1262099D01*
Y0715981D01*
Y0716071D01*
X1262189D01*
Y0716162D01*
Y0716252D01*
X1262279D01*
Y0716342D01*
Y0716433D01*
X126237D01*
Y0716523D01*
Y0716614D01*
X126246D01*
Y0716704D01*
Y0716795D01*
Y0716885D01*
X1262551D01*
Y0716975D01*
Y0717066D01*
X1262641D01*
Y0717156D01*
Y0717247D01*
X1262732D01*
Y0717337D01*
Y0717428D01*
Y0717518D01*
X1262822D01*
Y0717608D01*
Y0717699D01*
X1262912D01*
Y0717789D01*
Y071788D01*
Y071797D01*
X1263003D01*
Y0718061D01*
Y0718151D01*
Y0718242D01*
X1263093D01*
Y0718332D01*
Y0718422D01*
Y0718513D01*
X1263184D01*
Y0718603D01*
Y0718694D01*
Y0718784D01*
X1263274D01*
Y0718874D01*
Y0718965D01*
Y0719055D01*
Y0719146D01*
X1263365D01*
Y0719236D01*
Y0719326D01*
Y0719417D01*
X1263455D01*
Y0719507D01*
Y0719598D01*
Y0719688D01*
Y0719779D01*
X1263545D01*
Y0719869D01*
Y0719959D01*
Y072005D01*
Y072014D01*
X1263636D01*
Y0720231D01*
Y0720321D01*
Y0720412D01*
Y0720502D01*
Y0720592D01*
Y0720683D01*
D02*
G37*
G36*
X1265354Y0714263D02*
X1265263D01*
Y0714172D01*
Y0714082D01*
X1265173D01*
Y0713991D01*
Y0713901D01*
X1265083D01*
Y0713811D01*
X1264992D01*
Y071372D01*
Y071363D01*
X1264902D01*
Y0713539D01*
X1264811D01*
Y0713449D01*
Y0713359D01*
X1264721D01*
Y0713268D01*
X1264631D01*
Y0713178D01*
Y0713087D01*
X126454D01*
Y0712997D01*
X126445D01*
Y0712906D01*
Y0712816D01*
X1264359D01*
Y0712726D01*
X1264269D01*
Y0712635D01*
Y0712545D01*
X1264178D01*
Y0712454D01*
X1264088D01*
Y0712364D01*
Y0712274D01*
X1263997D01*
Y0712183D01*
X1263907D01*
Y0712093D01*
Y0712002D01*
X1263817D01*
Y0711912D01*
X1263726D01*
Y0711821D01*
X1263636D01*
Y0711731D01*
Y0711641D01*
X1263545D01*
Y071155D01*
X1263455D01*
Y071146D01*
X1263365D01*
Y0711369D01*
Y0711279D01*
X1263274D01*
Y0711188D01*
X1263184D01*
Y0711098D01*
Y0711007D01*
X1263093D01*
Y0710917D01*
X1263003D01*
Y0710827D01*
X1262912D01*
Y0710736D01*
X1262822D01*
Y0710646D01*
Y0710555D01*
X1262732D01*
Y0710465D01*
X1262641D01*
Y0710375D01*
X1262551D01*
Y0710284D01*
X126246D01*
Y0710194D01*
X126237D01*
Y0710103D01*
X1262279D01*
Y0710013D01*
X1262189D01*
Y0709923D01*
X1262099D01*
Y0709832D01*
X1262008D01*
Y0709742D01*
X1261918D01*
Y0709651D01*
X1261827D01*
Y0709561D01*
X1261737D01*
Y070947D01*
X1261646D01*
Y070938D01*
X1261556D01*
Y070929D01*
X1261466D01*
Y0709199D01*
X1261285D01*
Y0709109D01*
X1261194D01*
Y0709018D01*
X1261104D01*
Y0708928D01*
X1261014D01*
Y0708837D01*
X1260833D01*
Y0708747D01*
X1260742D01*
Y0708657D01*
X1260652D01*
Y0708566D01*
X1260471D01*
Y0708476D01*
X1260381D01*
Y0708385D01*
X126029D01*
Y0708295D01*
X1260109D01*
Y0708204D01*
X1260019D01*
Y0708114D01*
X1259838D01*
Y0708024D01*
X1259748D01*
Y0707933D01*
X1259657D01*
Y0707843D01*
X1259476D01*
Y0707752D01*
X1259386D01*
Y0707662D01*
X1259205D01*
Y0707571D01*
X1259115D01*
Y0707481D01*
X1258934D01*
Y0707391D01*
X1258843D01*
Y07073D01*
X1258663D01*
Y070721D01*
X1258572D01*
Y0707119D01*
X1258391D01*
Y0707029D01*
X1258301D01*
Y0706939D01*
X125812D01*
Y0706848D01*
X1257939D01*
Y0706758D01*
X1257849D01*
Y0706667D01*
X1257668D01*
Y0706577D01*
X125821D01*
Y0706667D01*
X1258753D01*
Y0706758D01*
X1259115D01*
Y0706848D01*
X1259476D01*
Y0706939D01*
X1259748D01*
Y0707029D01*
X1260109D01*
Y0707119D01*
X126029D01*
Y070721D01*
X1260561D01*
Y07073D01*
X1260742D01*
Y0707391D01*
X1261014D01*
Y0707481D01*
X1261194D01*
Y0707571D01*
X1261375D01*
Y0707662D01*
X1261556D01*
Y0707752D01*
X1261646D01*
Y0707843D01*
X1261827D01*
Y0707933D01*
X1262008D01*
Y0708024D01*
X1262099D01*
Y0708114D01*
X1262279D01*
Y0708204D01*
X126237D01*
Y0708295D01*
X1262551D01*
Y0708385D01*
X1262641D01*
Y0708476D01*
X1262732D01*
Y0708566D01*
X1262822D01*
Y0708657D01*
X1262912D01*
Y0708747D01*
X1263003D01*
Y0708837D01*
X1263184D01*
Y0708928D01*
Y0709018D01*
X1263274D01*
Y0709109D01*
X1263365D01*
Y0709199D01*
X1263455D01*
Y070929D01*
X1263545D01*
Y070938D01*
X1263636D01*
Y070947D01*
Y0709561D01*
X1263726D01*
Y0709651D01*
X1263817D01*
Y0709742D01*
Y0709832D01*
X1263907D01*
Y0709923D01*
X1263997D01*
Y0710013D01*
Y0710103D01*
X1264088D01*
Y0710194D01*
X1264178D01*
Y0710284D01*
Y0710375D01*
X1264269D01*
Y0710465D01*
Y0710555D01*
X1264359D01*
Y0710646D01*
Y0710736D01*
X126445D01*
Y0710827D01*
Y0710917D01*
X126454D01*
Y0711007D01*
Y0711098D01*
X1264631D01*
Y0711188D01*
Y0711279D01*
Y0711369D01*
X1264721D01*
Y071146D01*
Y071155D01*
X1264811D01*
Y0711641D01*
Y0711731D01*
Y0711821D01*
X1264902D01*
Y0711912D01*
Y0712002D01*
Y0712093D01*
X1264992D01*
Y0712183D01*
Y0712274D01*
Y0712364D01*
X1265083D01*
Y0712454D01*
Y0712545D01*
Y0712635D01*
Y0712726D01*
X1265173D01*
Y0712816D01*
Y0712906D01*
Y0712997D01*
Y0713087D01*
X1265263D01*
Y0713178D01*
Y0713268D01*
Y0713359D01*
Y0713449D01*
Y0713539D01*
Y071363D01*
X1265354D01*
Y071372D01*
Y0713811D01*
Y0713901D01*
Y0713991D01*
Y0714082D01*
Y0714172D01*
Y0714263D01*
D02*
G37*
G36*
X1182036Y0717783D02*
X1181945D01*
Y0717693D01*
Y0717602D01*
X1181855D01*
Y0717512D01*
Y0717421D01*
X1181765D01*
Y0717331D01*
X1181674D01*
Y071724D01*
Y071715D01*
X1181584D01*
Y071706D01*
Y0716969D01*
X1181493D01*
Y0716879D01*
X1181403D01*
Y0716788D01*
Y0716698D01*
X1181312D01*
Y0716607D01*
Y0716517D01*
X1181222D01*
Y0716427D01*
X1181132D01*
Y0716336D01*
Y0716246D01*
X1181041D01*
Y0716155D01*
Y0716065D01*
X1180951D01*
Y0715974D01*
X118086D01*
Y0715884D01*
Y0715794D01*
X118077D01*
Y0715703D01*
X1180679D01*
Y0715613D01*
Y0715522D01*
X1180589D01*
Y0715432D01*
X1180499D01*
Y0715342D01*
Y0715251D01*
X1180408D01*
Y0715161D01*
X1180318D01*
Y071507D01*
Y071498D01*
X1180227D01*
Y0714889D01*
X1180137D01*
Y0714799D01*
Y0714709D01*
X1180046D01*
Y0714618D01*
X1179956D01*
Y0714528D01*
Y0714437D01*
X1179866D01*
Y0714347D01*
X1179775D01*
Y0714256D01*
Y0714166D01*
X1179685D01*
Y0714076D01*
X1179594D01*
Y0713985D01*
Y0713895D01*
X1179504D01*
Y0713804D01*
X1179414D01*
Y0713714D01*
X1179323D01*
Y0713623D01*
Y0713533D01*
X1179233D01*
Y0713443D01*
X1179142D01*
Y0713352D01*
Y0713262D01*
X1179052D01*
Y0713171D01*
X1178961D01*
Y0713081D01*
X1178871D01*
Y071299D01*
Y07129D01*
X1178781D01*
Y071281D01*
X117869D01*
Y0712719D01*
X11786D01*
Y0712629D01*
Y0712538D01*
X1178509D01*
Y0712448D01*
X1178419D01*
Y0712358D01*
X1178328D01*
Y0712267D01*
X1178238D01*
Y0712177D01*
Y0712086D01*
X1178148D01*
Y0711996D01*
X1178057D01*
Y0711905D01*
X1177967D01*
Y0711815D01*
X1177876D01*
Y0711725D01*
Y0711634D01*
X1177786D01*
Y0711544D01*
X1177695D01*
Y0711453D01*
X1177605D01*
Y0711363D01*
X1177515D01*
Y0711272D01*
X1177424D01*
Y0711182D01*
X1177334D01*
Y0711092D01*
X1177243D01*
Y0711001D01*
Y0710911D01*
X1177153D01*
Y071082D01*
X1177063D01*
Y071073D01*
X1176972D01*
Y0710639D01*
X1176882D01*
Y0710549D01*
X1176791D01*
Y0710459D01*
X1176701D01*
Y0710368D01*
X117661D01*
Y0710278D01*
X1176429D01*
Y0710187D01*
X1176339D01*
Y0710097D01*
X1176249D01*
Y0710006D01*
X1176158D01*
Y0709916D01*
X1176068D01*
Y0709826D01*
X1175977D01*
Y0709735D01*
X1175887D01*
Y0709645D01*
X1175706D01*
Y0709554D01*
X1175616D01*
Y0709464D01*
X1175525D01*
Y0709374D01*
X1175435D01*
Y0709283D01*
X1175344D01*
Y0709193D01*
X1175164D01*
Y0709102D01*
X1175073D01*
Y0709012D01*
X1174983D01*
Y0708921D01*
X1174892D01*
Y0708831D01*
X1174712D01*
Y0708741D01*
X1174621D01*
Y070865D01*
X1174531D01*
Y070856D01*
X117435D01*
Y0708469D01*
X1174259D01*
Y0708379D01*
X1174169D01*
Y0708288D01*
X1173988D01*
Y0708198D01*
X1173898D01*
Y0708108D01*
X1173717D01*
Y0708017D01*
X1173626D01*
Y0707927D01*
X1173536D01*
Y0707836D01*
X1173355D01*
Y0707746D01*
X1173265D01*
Y0707655D01*
X1173084D01*
Y0707565D01*
X1172993D01*
Y0707475D01*
X1172813D01*
Y0707384D01*
X1172722D01*
Y0707294D01*
X1172541D01*
Y0707203D01*
X1172451D01*
Y0707113D01*
X117227D01*
Y0707022D01*
X117218D01*
Y0706932D01*
X1171999D01*
Y0706842D01*
X1171908D01*
Y0706751D01*
X1171727D01*
Y0706661D01*
X1171637D01*
Y070657D01*
X1171456D01*
Y070648D01*
X1171275D01*
Y070639D01*
X1171185D01*
Y0706299D01*
X1171004D01*
Y0706209D01*
X1170914D01*
Y0706118D01*
X1170733D01*
Y0706028D01*
X1170552D01*
Y0705937D01*
X1170462D01*
Y0705847D01*
X1170281D01*
Y0705757D01*
X11701D01*
Y0705666D01*
X1169919D01*
Y0705576D01*
X1169829D01*
Y0705485D01*
X1169648D01*
Y0705395D01*
X1170009D01*
Y0705485D01*
X1170462D01*
Y0705576D01*
X1170823D01*
Y0705666D01*
X1171185D01*
Y0705757D01*
X1171456D01*
Y0705847D01*
X1171727D01*
Y0705937D01*
X1172089D01*
Y0706028D01*
X117227D01*
Y0706118D01*
X1172541D01*
Y0706209D01*
X1172813D01*
Y0706299D01*
X1172993D01*
Y070639D01*
X1173265D01*
Y070648D01*
X1173446D01*
Y070657D01*
X1173626D01*
Y0706661D01*
X1173898D01*
Y0706751D01*
X1174078D01*
Y0706842D01*
X1174259D01*
Y0706932D01*
X117444D01*
Y0707022D01*
X1174621D01*
Y0707113D01*
X1174712D01*
Y0707203D01*
X1174892D01*
Y0707294D01*
X1175073D01*
Y0707384D01*
X1175254D01*
Y0707475D01*
X1175344D01*
Y0707565D01*
X1175525D01*
Y0707655D01*
X1175706D01*
Y0707746D01*
X1175797D01*
Y0707836D01*
X1175977D01*
Y0707927D01*
X1176068D01*
Y0708017D01*
X1176249D01*
Y0708108D01*
X1176339D01*
Y0708198D01*
X1176429D01*
Y0708288D01*
X117661D01*
Y0708379D01*
X1176701D01*
Y0708469D01*
X1176791D01*
Y070856D01*
X1176882D01*
Y070865D01*
X1177063D01*
Y0708741D01*
X1177153D01*
Y0708831D01*
X1177243D01*
Y0708921D01*
X1177334D01*
Y0709012D01*
X1177424D01*
Y0709102D01*
X1177515D01*
Y0709193D01*
X1177605D01*
Y0709283D01*
X1177695D01*
Y0709374D01*
X1177786D01*
Y0709464D01*
X1177876D01*
Y0709554D01*
X1177967D01*
Y0709645D01*
X1178057D01*
Y0709735D01*
X1178148D01*
Y0709826D01*
X1178238D01*
Y0709916D01*
X1178328D01*
Y0710006D01*
X1178419D01*
Y0710097D01*
X1178509D01*
Y0710187D01*
X11786D01*
Y0710278D01*
X117869D01*
Y0710368D01*
X1178781D01*
Y0710459D01*
Y0710549D01*
X1178871D01*
Y0710639D01*
X1178961D01*
Y071073D01*
X1179052D01*
Y071082D01*
X1179142D01*
Y0710911D01*
Y0711001D01*
X1179233D01*
Y0711092D01*
X1179323D01*
Y0711182D01*
X1179414D01*
Y0711272D01*
Y0711363D01*
X1179504D01*
Y0711453D01*
X1179594D01*
Y0711544D01*
Y0711634D01*
X1179685D01*
Y0711725D01*
X1179775D01*
Y0711815D01*
Y0711905D01*
X1179866D01*
Y0711996D01*
X1179956D01*
Y0712086D01*
Y0712177D01*
X1180046D01*
Y0712267D01*
Y0712358D01*
X1180137D01*
Y0712448D01*
X1180227D01*
Y0712538D01*
Y0712629D01*
X1180318D01*
Y0712719D01*
Y071281D01*
X1180408D01*
Y07129D01*
Y071299D01*
X1180499D01*
Y0713081D01*
Y0713171D01*
X1180589D01*
Y0713262D01*
Y0713352D01*
X1180679D01*
Y0713443D01*
Y0713533D01*
X118077D01*
Y0713623D01*
Y0713714D01*
X118086D01*
Y0713804D01*
Y0713895D01*
Y0713985D01*
X1180951D01*
Y0714076D01*
Y0714166D01*
X1181041D01*
Y0714256D01*
Y0714347D01*
X1181132D01*
Y0714437D01*
Y0714528D01*
Y0714618D01*
X1181222D01*
Y0714709D01*
Y0714799D01*
X1181312D01*
Y0714889D01*
Y071498D01*
Y071507D01*
X1181403D01*
Y0715161D01*
Y0715251D01*
Y0715342D01*
X1181493D01*
Y0715432D01*
Y0715522D01*
Y0715613D01*
X1181584D01*
Y0715703D01*
Y0715794D01*
Y0715884D01*
X1181674D01*
Y0715974D01*
Y0716065D01*
Y0716155D01*
Y0716246D01*
X1181765D01*
Y0716336D01*
Y0716427D01*
Y0716517D01*
X1181855D01*
Y0716607D01*
Y0716698D01*
Y0716788D01*
Y0716879D01*
X1181945D01*
Y0716969D01*
Y071706D01*
Y071715D01*
Y071724D01*
X1182036D01*
Y0717331D01*
Y0717421D01*
Y0717512D01*
Y0717602D01*
Y0717693D01*
Y0717783D01*
D02*
G37*
G36*
X1183754Y0711363D02*
X1183663D01*
Y0711272D01*
Y0711182D01*
X1183573D01*
Y0711092D01*
Y0711001D01*
X1183483D01*
Y0710911D01*
X1183392D01*
Y071082D01*
Y071073D01*
X1183302D01*
Y0710639D01*
X1183211D01*
Y0710549D01*
Y0710459D01*
X1183121D01*
Y0710368D01*
X1183031D01*
Y0710278D01*
Y0710187D01*
X118294D01*
Y0710097D01*
X118285D01*
Y0710006D01*
Y0709916D01*
X1182759D01*
Y0709826D01*
X1182669D01*
Y0709735D01*
Y0709645D01*
X1182578D01*
Y0709554D01*
X1182488D01*
Y0709464D01*
Y0709374D01*
X1182397D01*
Y0709283D01*
X1182307D01*
Y0709193D01*
Y0709102D01*
X1182217D01*
Y0709012D01*
X1182126D01*
Y0708921D01*
X1182036D01*
Y0708831D01*
Y0708741D01*
X1181945D01*
Y070865D01*
X1181855D01*
Y070856D01*
X1181765D01*
Y0708469D01*
Y0708379D01*
X1181674D01*
Y0708288D01*
X1181584D01*
Y0708198D01*
Y0708108D01*
X1181493D01*
Y0708017D01*
X1181403D01*
Y0707927D01*
X1181312D01*
Y0707836D01*
X1181222D01*
Y0707746D01*
Y0707655D01*
X1181132D01*
Y0707565D01*
X1181041D01*
Y0707475D01*
X1180951D01*
Y0707384D01*
X118086D01*
Y0707294D01*
X118077D01*
Y0707203D01*
X1180679D01*
Y0707113D01*
X1180589D01*
Y0707022D01*
X1180499D01*
Y0706932D01*
X1180408D01*
Y0706842D01*
X1180318D01*
Y0706751D01*
X1180227D01*
Y0706661D01*
X1180137D01*
Y070657D01*
X1180046D01*
Y070648D01*
X1179956D01*
Y070639D01*
X1179866D01*
Y0706299D01*
X1179685D01*
Y0706209D01*
X1179594D01*
Y0706118D01*
X1179504D01*
Y0706028D01*
X1179414D01*
Y0705937D01*
X1179233D01*
Y0705847D01*
X1179142D01*
Y0705757D01*
X1179052D01*
Y0705666D01*
X1178871D01*
Y0705576D01*
X1178781D01*
Y0705485D01*
X117869D01*
Y0705395D01*
X1178509D01*
Y0705304D01*
X1178419D01*
Y0705214D01*
X1178238D01*
Y0705124D01*
X1178148D01*
Y0705033D01*
X1178057D01*
Y0704943D01*
X1177876D01*
Y0704852D01*
X1177786D01*
Y0704762D01*
X1177605D01*
Y0704671D01*
X1177515D01*
Y0704581D01*
X1177334D01*
Y0704491D01*
X1177243D01*
Y07044D01*
X1177063D01*
Y070431D01*
X1176972D01*
Y0704219D01*
X1176791D01*
Y0704129D01*
X1176701D01*
Y0704038D01*
X117652D01*
Y0703948D01*
X1176339D01*
Y0703858D01*
X1176249D01*
Y0703767D01*
X1176068D01*
Y0703677D01*
X117661D01*
Y0703767D01*
X1177153D01*
Y0703858D01*
X1177515D01*
Y0703948D01*
X1177876D01*
Y0704038D01*
X1178148D01*
Y0704129D01*
X1178509D01*
Y0704219D01*
X117869D01*
Y070431D01*
X1178961D01*
Y07044D01*
X1179142D01*
Y0704491D01*
X1179414D01*
Y0704581D01*
X1179594D01*
Y0704671D01*
X1179775D01*
Y0704762D01*
X1179956D01*
Y0704852D01*
X1180046D01*
Y0704943D01*
X1180227D01*
Y0705033D01*
X1180408D01*
Y0705124D01*
X1180499D01*
Y0705214D01*
X1180679D01*
Y0705304D01*
X118077D01*
Y0705395D01*
X1180951D01*
Y0705485D01*
X1181041D01*
Y0705576D01*
X1181132D01*
Y0705666D01*
X1181222D01*
Y0705757D01*
X1181312D01*
Y0705847D01*
X1181403D01*
Y0705937D01*
X1181584D01*
Y0706028D01*
Y0706118D01*
X1181674D01*
Y0706209D01*
X1181765D01*
Y0706299D01*
X1181855D01*
Y070639D01*
X1181945D01*
Y070648D01*
X1182036D01*
Y070657D01*
Y0706661D01*
X1182126D01*
Y0706751D01*
X1182217D01*
Y0706842D01*
Y0706932D01*
X1182307D01*
Y0707022D01*
X1182397D01*
Y0707113D01*
Y0707203D01*
X1182488D01*
Y0707294D01*
X1182578D01*
Y0707384D01*
Y0707475D01*
X1182669D01*
Y0707565D01*
Y0707655D01*
X1182759D01*
Y0707746D01*
Y0707836D01*
X118285D01*
Y0707927D01*
Y0708017D01*
X118294D01*
Y0708108D01*
Y0708198D01*
X1183031D01*
Y0708288D01*
Y0708379D01*
Y0708469D01*
X1183121D01*
Y070856D01*
Y070865D01*
X1183211D01*
Y0708741D01*
Y0708831D01*
Y0708921D01*
X1183302D01*
Y0709012D01*
Y0709102D01*
Y0709193D01*
X1183392D01*
Y0709283D01*
Y0709374D01*
Y0709464D01*
X1183483D01*
Y0709554D01*
Y0709645D01*
Y0709735D01*
Y0709826D01*
X1183573D01*
Y0709916D01*
Y0710006D01*
Y0710097D01*
Y0710187D01*
X1183663D01*
Y0710278D01*
Y0710368D01*
Y0710459D01*
Y0710549D01*
Y0710639D01*
Y071073D01*
X1183754D01*
Y071082D01*
Y0710911D01*
Y0711001D01*
Y0711092D01*
Y0711182D01*
Y0711272D01*
Y0711363D01*
D02*
G37*
G36*
X1103536Y0717783D02*
X1103445D01*
Y0717693D01*
Y0717602D01*
X1103355D01*
Y0717512D01*
Y0717421D01*
X1103265D01*
Y0717331D01*
X1103174D01*
Y071724D01*
Y071715D01*
X1103084D01*
Y071706D01*
Y0716969D01*
X1102993D01*
Y0716879D01*
X1102903D01*
Y0716788D01*
Y0716698D01*
X1102812D01*
Y0716607D01*
Y0716517D01*
X1102722D01*
Y0716427D01*
X1102632D01*
Y0716336D01*
Y0716246D01*
X1102541D01*
Y0716155D01*
Y0716065D01*
X1102451D01*
Y0715974D01*
X110236D01*
Y0715884D01*
Y0715794D01*
X110227D01*
Y0715703D01*
X1102179D01*
Y0715613D01*
Y0715522D01*
X1102089D01*
Y0715432D01*
X1101999D01*
Y0715342D01*
Y0715251D01*
X1101908D01*
Y0715161D01*
X1101818D01*
Y071507D01*
Y071498D01*
X1101727D01*
Y0714889D01*
X1101637D01*
Y0714799D01*
Y0714709D01*
X1101546D01*
Y0714618D01*
X1101456D01*
Y0714528D01*
Y0714437D01*
X1101366D01*
Y0714347D01*
X1101275D01*
Y0714256D01*
Y0714166D01*
X1101185D01*
Y0714076D01*
X1101094D01*
Y0713985D01*
Y0713895D01*
X1101004D01*
Y0713804D01*
X1100914D01*
Y0713714D01*
X1100823D01*
Y0713623D01*
Y0713533D01*
X1100733D01*
Y0713443D01*
X1100642D01*
Y0713352D01*
Y0713262D01*
X1100552D01*
Y0713171D01*
X1100461D01*
Y0713081D01*
X1100371D01*
Y071299D01*
Y07129D01*
X1100281D01*
Y071281D01*
X110019D01*
Y0712719D01*
X11001D01*
Y0712629D01*
Y0712538D01*
X1100009D01*
Y0712448D01*
X1099919D01*
Y0712358D01*
X1099828D01*
Y0712267D01*
X1099738D01*
Y0712177D01*
Y0712086D01*
X1099648D01*
Y0711996D01*
X1099557D01*
Y0711905D01*
X1099467D01*
Y0711815D01*
X1099376D01*
Y0711725D01*
Y0711634D01*
X1099286D01*
Y0711544D01*
X1099195D01*
Y0711453D01*
X1099105D01*
Y0711363D01*
X1099015D01*
Y0711272D01*
X1098924D01*
Y0711182D01*
X1098834D01*
Y0711092D01*
X1098743D01*
Y0711001D01*
Y0710911D01*
X1098653D01*
Y071082D01*
X1098563D01*
Y071073D01*
X1098472D01*
Y0710639D01*
X1098382D01*
Y0710549D01*
X1098291D01*
Y0710459D01*
X1098201D01*
Y0710368D01*
X109811D01*
Y0710278D01*
X1097929D01*
Y0710187D01*
X1097839D01*
Y0710097D01*
X1097749D01*
Y0710006D01*
X1097658D01*
Y0709916D01*
X1097568D01*
Y0709826D01*
X1097477D01*
Y0709735D01*
X1097387D01*
Y0709645D01*
X1097206D01*
Y0709554D01*
X1097116D01*
Y0709464D01*
X1097025D01*
Y0709374D01*
X1096935D01*
Y0709283D01*
X1096844D01*
Y0709193D01*
X1096664D01*
Y0709102D01*
X1096573D01*
Y0709012D01*
X1096483D01*
Y0708921D01*
X1096392D01*
Y0708831D01*
X1096212D01*
Y0708741D01*
X1096121D01*
Y070865D01*
X1096031D01*
Y070856D01*
X109585D01*
Y0708469D01*
X1095759D01*
Y0708379D01*
X1095669D01*
Y0708288D01*
X1095488D01*
Y0708198D01*
X1095398D01*
Y0708108D01*
X1095217D01*
Y0708017D01*
X1095126D01*
Y0707927D01*
X1095036D01*
Y0707836D01*
X1094855D01*
Y0707746D01*
X1094765D01*
Y0707655D01*
X1094584D01*
Y0707565D01*
X1094493D01*
Y0707475D01*
X1094313D01*
Y0707384D01*
X1094222D01*
Y0707294D01*
X1094041D01*
Y0707203D01*
X1093951D01*
Y0707113D01*
X109377D01*
Y0707022D01*
X109368D01*
Y0706932D01*
X1093499D01*
Y0706842D01*
X1093408D01*
Y0706751D01*
X1093227D01*
Y0706661D01*
X1093137D01*
Y070657D01*
X1092956D01*
Y070648D01*
X1092775D01*
Y070639D01*
X1092685D01*
Y0706299D01*
X1092504D01*
Y0706209D01*
X1092414D01*
Y0706118D01*
X1092233D01*
Y0706028D01*
X1092052D01*
Y0705937D01*
X1091962D01*
Y0705847D01*
X1091781D01*
Y0705757D01*
X10916D01*
Y0705666D01*
X1091419D01*
Y0705576D01*
X1091329D01*
Y0705485D01*
X1091148D01*
Y0705395D01*
X1091509D01*
Y0705485D01*
X1091962D01*
Y0705576D01*
X1092323D01*
Y0705666D01*
X1092685D01*
Y0705757D01*
X1092956D01*
Y0705847D01*
X1093227D01*
Y0705937D01*
X1093589D01*
Y0706028D01*
X109377D01*
Y0706118D01*
X1094041D01*
Y0706209D01*
X1094313D01*
Y0706299D01*
X1094493D01*
Y070639D01*
X1094765D01*
Y070648D01*
X1094946D01*
Y070657D01*
X1095126D01*
Y0706661D01*
X1095398D01*
Y0706751D01*
X1095578D01*
Y0706842D01*
X1095759D01*
Y0706932D01*
X109594D01*
Y0707022D01*
X1096121D01*
Y0707113D01*
X1096212D01*
Y0707203D01*
X1096392D01*
Y0707294D01*
X1096573D01*
Y0707384D01*
X1096754D01*
Y0707475D01*
X1096844D01*
Y0707565D01*
X1097025D01*
Y0707655D01*
X1097206D01*
Y0707746D01*
X1097297D01*
Y0707836D01*
X1097477D01*
Y0707927D01*
X1097568D01*
Y0708017D01*
X1097749D01*
Y0708108D01*
X1097839D01*
Y0708198D01*
X1097929D01*
Y0708288D01*
X109811D01*
Y0708379D01*
X1098201D01*
Y0708469D01*
X1098291D01*
Y070856D01*
X1098382D01*
Y070865D01*
X1098563D01*
Y0708741D01*
X1098653D01*
Y0708831D01*
X1098743D01*
Y0708921D01*
X1098834D01*
Y0709012D01*
X1098924D01*
Y0709102D01*
X1099015D01*
Y0709193D01*
X1099105D01*
Y0709283D01*
X1099195D01*
Y0709374D01*
X1099286D01*
Y0709464D01*
X1099376D01*
Y0709554D01*
X1099467D01*
Y0709645D01*
X1099557D01*
Y0709735D01*
X1099648D01*
Y0709826D01*
X1099738D01*
Y0709916D01*
X1099828D01*
Y0710006D01*
X1099919D01*
Y0710097D01*
X1100009D01*
Y0710187D01*
X11001D01*
Y0710278D01*
X110019D01*
Y0710368D01*
X1100281D01*
Y0710459D01*
Y0710549D01*
X1100371D01*
Y0710639D01*
X1100461D01*
Y071073D01*
X1100552D01*
Y071082D01*
X1100642D01*
Y0710911D01*
Y0711001D01*
X1100733D01*
Y0711092D01*
X1100823D01*
Y0711182D01*
X1100914D01*
Y0711272D01*
Y0711363D01*
X1101004D01*
Y0711453D01*
X1101094D01*
Y0711544D01*
Y0711634D01*
X1101185D01*
Y0711725D01*
X1101275D01*
Y0711815D01*
Y0711905D01*
X1101366D01*
Y0711996D01*
X1101456D01*
Y0712086D01*
Y0712177D01*
X1101546D01*
Y0712267D01*
Y0712358D01*
X1101637D01*
Y0712448D01*
X1101727D01*
Y0712538D01*
Y0712629D01*
X1101818D01*
Y0712719D01*
Y071281D01*
X1101908D01*
Y07129D01*
Y071299D01*
X1101999D01*
Y0713081D01*
Y0713171D01*
X1102089D01*
Y0713262D01*
Y0713352D01*
X1102179D01*
Y0713443D01*
Y0713533D01*
X110227D01*
Y0713623D01*
Y0713714D01*
X110236D01*
Y0713804D01*
Y0713895D01*
Y0713985D01*
X1102451D01*
Y0714076D01*
Y0714166D01*
X1102541D01*
Y0714256D01*
Y0714347D01*
X1102632D01*
Y0714437D01*
Y0714528D01*
Y0714618D01*
X1102722D01*
Y0714709D01*
Y0714799D01*
X1102812D01*
Y0714889D01*
Y071498D01*
Y071507D01*
X1102903D01*
Y0715161D01*
Y0715251D01*
Y0715342D01*
X1102993D01*
Y0715432D01*
Y0715522D01*
Y0715613D01*
X1103084D01*
Y0715703D01*
Y0715794D01*
Y0715884D01*
X1103174D01*
Y0715974D01*
Y0716065D01*
Y0716155D01*
Y0716246D01*
X1103265D01*
Y0716336D01*
Y0716427D01*
Y0716517D01*
X1103355D01*
Y0716607D01*
Y0716698D01*
Y0716788D01*
Y0716879D01*
X1103445D01*
Y0716969D01*
Y071706D01*
Y071715D01*
Y071724D01*
X1103536D01*
Y0717331D01*
Y0717421D01*
Y0717512D01*
Y0717602D01*
Y0717693D01*
Y0717783D01*
D02*
G37*
G36*
X1105254Y0711363D02*
X1105163D01*
Y0711272D01*
Y0711182D01*
X1105073D01*
Y0711092D01*
Y0711001D01*
X1104983D01*
Y0710911D01*
X1104892D01*
Y071082D01*
Y071073D01*
X1104802D01*
Y0710639D01*
X1104711D01*
Y0710549D01*
Y0710459D01*
X1104621D01*
Y0710368D01*
X1104531D01*
Y0710278D01*
Y0710187D01*
X110444D01*
Y0710097D01*
X110435D01*
Y0710006D01*
Y0709916D01*
X1104259D01*
Y0709826D01*
X1104169D01*
Y0709735D01*
Y0709645D01*
X1104078D01*
Y0709554D01*
X1103988D01*
Y0709464D01*
Y0709374D01*
X1103897D01*
Y0709283D01*
X1103807D01*
Y0709193D01*
Y0709102D01*
X1103717D01*
Y0709012D01*
X1103626D01*
Y0708921D01*
X1103536D01*
Y0708831D01*
Y0708741D01*
X1103445D01*
Y070865D01*
X1103355D01*
Y070856D01*
X1103265D01*
Y0708469D01*
Y0708379D01*
X1103174D01*
Y0708288D01*
X1103084D01*
Y0708198D01*
Y0708108D01*
X1102993D01*
Y0708017D01*
X1102903D01*
Y0707927D01*
X1102812D01*
Y0707836D01*
X1102722D01*
Y0707746D01*
Y0707655D01*
X1102632D01*
Y0707565D01*
X1102541D01*
Y0707475D01*
X1102451D01*
Y0707384D01*
X110236D01*
Y0707294D01*
X110227D01*
Y0707203D01*
X1102179D01*
Y0707113D01*
X1102089D01*
Y0707022D01*
X1101999D01*
Y0706932D01*
X1101908D01*
Y0706842D01*
X1101818D01*
Y0706751D01*
X1101727D01*
Y0706661D01*
X1101637D01*
Y070657D01*
X1101546D01*
Y070648D01*
X1101456D01*
Y070639D01*
X1101366D01*
Y0706299D01*
X1101185D01*
Y0706209D01*
X1101094D01*
Y0706118D01*
X1101004D01*
Y0706028D01*
X1100914D01*
Y0705937D01*
X1100733D01*
Y0705847D01*
X1100642D01*
Y0705757D01*
X1100552D01*
Y0705666D01*
X1100371D01*
Y0705576D01*
X1100281D01*
Y0705485D01*
X110019D01*
Y0705395D01*
X1100009D01*
Y0705304D01*
X1099919D01*
Y0705214D01*
X1099738D01*
Y0705124D01*
X1099648D01*
Y0705033D01*
X1099557D01*
Y0704943D01*
X1099376D01*
Y0704852D01*
X1099286D01*
Y0704762D01*
X1099105D01*
Y0704671D01*
X1099015D01*
Y0704581D01*
X1098834D01*
Y0704491D01*
X1098743D01*
Y07044D01*
X1098563D01*
Y070431D01*
X1098472D01*
Y0704219D01*
X1098291D01*
Y0704129D01*
X1098201D01*
Y0704038D01*
X109802D01*
Y0703948D01*
X1097839D01*
Y0703858D01*
X1097749D01*
Y0703767D01*
X1097568D01*
Y0703677D01*
X109811D01*
Y0703767D01*
X1098653D01*
Y0703858D01*
X1099015D01*
Y0703948D01*
X1099376D01*
Y0704038D01*
X1099648D01*
Y0704129D01*
X1100009D01*
Y0704219D01*
X110019D01*
Y070431D01*
X1100461D01*
Y07044D01*
X1100642D01*
Y0704491D01*
X1100914D01*
Y0704581D01*
X1101094D01*
Y0704671D01*
X1101275D01*
Y0704762D01*
X1101456D01*
Y0704852D01*
X1101546D01*
Y0704943D01*
X1101727D01*
Y0705033D01*
X1101908D01*
Y0705124D01*
X1101999D01*
Y0705214D01*
X1102179D01*
Y0705304D01*
X110227D01*
Y0705395D01*
X1102451D01*
Y0705485D01*
X1102541D01*
Y0705576D01*
X1102632D01*
Y0705666D01*
X1102722D01*
Y0705757D01*
X1102812D01*
Y0705847D01*
X1102903D01*
Y0705937D01*
X1103084D01*
Y0706028D01*
Y0706118D01*
X1103174D01*
Y0706209D01*
X1103265D01*
Y0706299D01*
X1103355D01*
Y070639D01*
X1103445D01*
Y070648D01*
X1103536D01*
Y070657D01*
Y0706661D01*
X1103626D01*
Y0706751D01*
X1103717D01*
Y0706842D01*
Y0706932D01*
X1103807D01*
Y0707022D01*
X1103897D01*
Y0707113D01*
Y0707203D01*
X1103988D01*
Y0707294D01*
X1104078D01*
Y0707384D01*
Y0707475D01*
X1104169D01*
Y0707565D01*
Y0707655D01*
X1104259D01*
Y0707746D01*
Y0707836D01*
X110435D01*
Y0707927D01*
Y0708017D01*
X110444D01*
Y0708108D01*
Y0708198D01*
X1104531D01*
Y0708288D01*
Y0708379D01*
Y0708469D01*
X1104621D01*
Y070856D01*
Y070865D01*
X1104711D01*
Y0708741D01*
Y0708831D01*
Y0708921D01*
X1104802D01*
Y0709012D01*
Y0709102D01*
Y0709193D01*
X1104892D01*
Y0709283D01*
Y0709374D01*
Y0709464D01*
X1104983D01*
Y0709554D01*
Y0709645D01*
Y0709735D01*
Y0709826D01*
X1105073D01*
Y0709916D01*
Y0710006D01*
Y0710097D01*
Y0710187D01*
X1105163D01*
Y0710278D01*
Y0710368D01*
Y0710459D01*
Y0710549D01*
Y0710639D01*
Y071073D01*
X1105254D01*
Y071082D01*
Y0710911D01*
Y0711001D01*
Y0711092D01*
Y0711182D01*
Y0711272D01*
Y0711363D01*
D02*
G37*
G36*
X1025836Y0717783D02*
X1025745D01*
Y0717693D01*
Y0717602D01*
X1025655D01*
Y0717512D01*
Y0717421D01*
X1025565D01*
Y0717331D01*
X1025474D01*
Y071724D01*
Y071715D01*
X1025384D01*
Y071706D01*
Y0716969D01*
X1025293D01*
Y0716879D01*
X1025203D01*
Y0716788D01*
Y0716698D01*
X1025112D01*
Y0716607D01*
Y0716517D01*
X1025022D01*
Y0716427D01*
X1024932D01*
Y0716336D01*
Y0716246D01*
X1024841D01*
Y0716155D01*
Y0716065D01*
X1024751D01*
Y0715974D01*
X102466D01*
Y0715884D01*
Y0715794D01*
X102457D01*
Y0715703D01*
X1024479D01*
Y0715613D01*
Y0715522D01*
X1024389D01*
Y0715432D01*
X1024299D01*
Y0715342D01*
Y0715251D01*
X1024208D01*
Y0715161D01*
X1024118D01*
Y071507D01*
Y071498D01*
X1024027D01*
Y0714889D01*
X1023937D01*
Y0714799D01*
Y0714709D01*
X1023847D01*
Y0714618D01*
X1023756D01*
Y0714528D01*
Y0714437D01*
X1023666D01*
Y0714347D01*
X1023575D01*
Y0714256D01*
Y0714166D01*
X1023485D01*
Y0714076D01*
X1023394D01*
Y0713985D01*
Y0713895D01*
X1023304D01*
Y0713804D01*
X1023213D01*
Y0713714D01*
X1023123D01*
Y0713623D01*
Y0713533D01*
X1023033D01*
Y0713443D01*
X1022942D01*
Y0713352D01*
Y0713262D01*
X1022852D01*
Y0713171D01*
X1022761D01*
Y0713081D01*
X1022671D01*
Y071299D01*
Y07129D01*
X1022581D01*
Y071281D01*
X102249D01*
Y0712719D01*
X10224D01*
Y0712629D01*
Y0712538D01*
X1022309D01*
Y0712448D01*
X1022219D01*
Y0712358D01*
X1022128D01*
Y0712267D01*
X1022038D01*
Y0712177D01*
Y0712086D01*
X1021948D01*
Y0711996D01*
X1021857D01*
Y0711905D01*
X1021767D01*
Y0711815D01*
X1021676D01*
Y0711725D01*
Y0711634D01*
X1021586D01*
Y0711544D01*
X1021496D01*
Y0711453D01*
X1021405D01*
Y0711363D01*
X1021315D01*
Y0711272D01*
X1021224D01*
Y0711182D01*
X1021134D01*
Y0711092D01*
X1021043D01*
Y0711001D01*
Y0710911D01*
X1020953D01*
Y071082D01*
X1020862D01*
Y071073D01*
X1020772D01*
Y0710639D01*
X1020682D01*
Y0710549D01*
X1020591D01*
Y0710459D01*
X1020501D01*
Y0710368D01*
X102041D01*
Y0710278D01*
X102023D01*
Y0710187D01*
X1020139D01*
Y0710097D01*
X1020049D01*
Y0710006D01*
X1019958D01*
Y0709916D01*
X1019868D01*
Y0709826D01*
X1019777D01*
Y0709735D01*
X1019687D01*
Y0709645D01*
X1019506D01*
Y0709554D01*
X1019416D01*
Y0709464D01*
X1019325D01*
Y0709374D01*
X1019235D01*
Y0709283D01*
X1019144D01*
Y0709193D01*
X1018964D01*
Y0709102D01*
X1018873D01*
Y0709012D01*
X1018783D01*
Y0708921D01*
X1018692D01*
Y0708831D01*
X1018511D01*
Y0708741D01*
X1018421D01*
Y070865D01*
X1018331D01*
Y070856D01*
X101815D01*
Y0708469D01*
X1018059D01*
Y0708379D01*
X1017969D01*
Y0708288D01*
X1017788D01*
Y0708198D01*
X1017698D01*
Y0708108D01*
X1017517D01*
Y0708017D01*
X1017426D01*
Y0707927D01*
X1017336D01*
Y0707836D01*
X1017155D01*
Y0707746D01*
X1017065D01*
Y0707655D01*
X1016884D01*
Y0707565D01*
X1016793D01*
Y0707475D01*
X1016613D01*
Y0707384D01*
X1016522D01*
Y0707294D01*
X1016341D01*
Y0707203D01*
X1016251D01*
Y0707113D01*
X101607D01*
Y0707022D01*
X101598D01*
Y0706932D01*
X1015799D01*
Y0706842D01*
X1015708D01*
Y0706751D01*
X1015528D01*
Y0706661D01*
X1015437D01*
Y070657D01*
X1015256D01*
Y070648D01*
X1015075D01*
Y070639D01*
X1014985D01*
Y0706299D01*
X1014804D01*
Y0706209D01*
X1014714D01*
Y0706118D01*
X1014533D01*
Y0706028D01*
X1014352D01*
Y0705937D01*
X1014262D01*
Y0705847D01*
X1014081D01*
Y0705757D01*
X10139D01*
Y0705666D01*
X1013719D01*
Y0705576D01*
X1013629D01*
Y0705485D01*
X1013448D01*
Y0705395D01*
X1013809D01*
Y0705485D01*
X1014262D01*
Y0705576D01*
X1014623D01*
Y0705666D01*
X1014985D01*
Y0705757D01*
X1015256D01*
Y0705847D01*
X1015528D01*
Y0705937D01*
X1015889D01*
Y0706028D01*
X101607D01*
Y0706118D01*
X1016341D01*
Y0706209D01*
X1016613D01*
Y0706299D01*
X1016793D01*
Y070639D01*
X1017065D01*
Y070648D01*
X1017245D01*
Y070657D01*
X1017426D01*
Y0706661D01*
X1017698D01*
Y0706751D01*
X1017879D01*
Y0706842D01*
X1018059D01*
Y0706932D01*
X101824D01*
Y0707022D01*
X1018421D01*
Y0707113D01*
X1018511D01*
Y0707203D01*
X1018692D01*
Y0707294D01*
X1018873D01*
Y0707384D01*
X1019054D01*
Y0707475D01*
X1019144D01*
Y0707565D01*
X1019325D01*
Y0707655D01*
X1019506D01*
Y0707746D01*
X1019597D01*
Y0707836D01*
X1019777D01*
Y0707927D01*
X1019868D01*
Y0708017D01*
X1020049D01*
Y0708108D01*
X1020139D01*
Y0708198D01*
X102023D01*
Y0708288D01*
X102041D01*
Y0708379D01*
X1020501D01*
Y0708469D01*
X1020591D01*
Y070856D01*
X1020682D01*
Y070865D01*
X1020862D01*
Y0708741D01*
X1020953D01*
Y0708831D01*
X1021043D01*
Y0708921D01*
X1021134D01*
Y0709012D01*
X1021224D01*
Y0709102D01*
X1021315D01*
Y0709193D01*
X1021405D01*
Y0709283D01*
X1021496D01*
Y0709374D01*
X1021586D01*
Y0709464D01*
X1021676D01*
Y0709554D01*
X1021767D01*
Y0709645D01*
X1021857D01*
Y0709735D01*
X1021948D01*
Y0709826D01*
X1022038D01*
Y0709916D01*
X1022128D01*
Y0710006D01*
X1022219D01*
Y0710097D01*
X1022309D01*
Y0710187D01*
X10224D01*
Y0710278D01*
X102249D01*
Y0710368D01*
X1022581D01*
Y0710459D01*
Y0710549D01*
X1022671D01*
Y0710639D01*
X1022761D01*
Y071073D01*
X1022852D01*
Y071082D01*
X1022942D01*
Y0710911D01*
Y0711001D01*
X1023033D01*
Y0711092D01*
X1023123D01*
Y0711182D01*
X1023213D01*
Y0711272D01*
Y0711363D01*
X1023304D01*
Y0711453D01*
X1023394D01*
Y0711544D01*
Y0711634D01*
X1023485D01*
Y0711725D01*
X1023575D01*
Y0711815D01*
Y0711905D01*
X1023666D01*
Y0711996D01*
X1023756D01*
Y0712086D01*
Y0712177D01*
X1023847D01*
Y0712267D01*
Y0712358D01*
X1023937D01*
Y0712448D01*
X1024027D01*
Y0712538D01*
Y0712629D01*
X1024118D01*
Y0712719D01*
Y071281D01*
X1024208D01*
Y07129D01*
Y071299D01*
X1024299D01*
Y0713081D01*
Y0713171D01*
X1024389D01*
Y0713262D01*
Y0713352D01*
X1024479D01*
Y0713443D01*
Y0713533D01*
X102457D01*
Y0713623D01*
Y0713714D01*
X102466D01*
Y0713804D01*
Y0713895D01*
Y0713985D01*
X1024751D01*
Y0714076D01*
Y0714166D01*
X1024841D01*
Y0714256D01*
Y0714347D01*
X1024932D01*
Y0714437D01*
Y0714528D01*
Y0714618D01*
X1025022D01*
Y0714709D01*
Y0714799D01*
X1025112D01*
Y0714889D01*
Y071498D01*
Y071507D01*
X1025203D01*
Y0715161D01*
Y0715251D01*
Y0715342D01*
X1025293D01*
Y0715432D01*
Y0715522D01*
Y0715613D01*
X1025384D01*
Y0715703D01*
Y0715794D01*
Y0715884D01*
X1025474D01*
Y0715974D01*
Y0716065D01*
Y0716155D01*
Y0716246D01*
X1025565D01*
Y0716336D01*
Y0716427D01*
Y0716517D01*
X1025655D01*
Y0716607D01*
Y0716698D01*
Y0716788D01*
Y0716879D01*
X1025745D01*
Y0716969D01*
Y071706D01*
Y071715D01*
Y071724D01*
X1025836D01*
Y0717331D01*
Y0717421D01*
Y0717512D01*
Y0717602D01*
Y0717693D01*
Y0717783D01*
D02*
G37*
G36*
X1027554Y0711363D02*
X1027464D01*
Y0711272D01*
Y0711182D01*
X1027373D01*
Y0711092D01*
Y0711001D01*
X1027283D01*
Y0710911D01*
X1027192D01*
Y071082D01*
Y071073D01*
X1027102D01*
Y0710639D01*
X1027011D01*
Y0710549D01*
Y0710459D01*
X1026921D01*
Y0710368D01*
X102683D01*
Y0710278D01*
Y0710187D01*
X102674D01*
Y0710097D01*
X102665D01*
Y0710006D01*
Y0709916D01*
X1026559D01*
Y0709826D01*
X1026469D01*
Y0709735D01*
Y0709645D01*
X1026378D01*
Y0709554D01*
X1026288D01*
Y0709464D01*
Y0709374D01*
X1026198D01*
Y0709283D01*
X1026107D01*
Y0709193D01*
Y0709102D01*
X1026017D01*
Y0709012D01*
X1025926D01*
Y0708921D01*
X1025836D01*
Y0708831D01*
Y0708741D01*
X1025745D01*
Y070865D01*
X1025655D01*
Y070856D01*
X1025565D01*
Y0708469D01*
Y0708379D01*
X1025474D01*
Y0708288D01*
X1025384D01*
Y0708198D01*
Y0708108D01*
X1025293D01*
Y0708017D01*
X1025203D01*
Y0707927D01*
X1025112D01*
Y0707836D01*
X1025022D01*
Y0707746D01*
Y0707655D01*
X1024932D01*
Y0707565D01*
X1024841D01*
Y0707475D01*
X1024751D01*
Y0707384D01*
X102466D01*
Y0707294D01*
X102457D01*
Y0707203D01*
X1024479D01*
Y0707113D01*
X1024389D01*
Y0707022D01*
X1024299D01*
Y0706932D01*
X1024208D01*
Y0706842D01*
X1024118D01*
Y0706751D01*
X1024027D01*
Y0706661D01*
X1023937D01*
Y070657D01*
X1023847D01*
Y070648D01*
X1023756D01*
Y070639D01*
X1023666D01*
Y0706299D01*
X1023485D01*
Y0706209D01*
X1023394D01*
Y0706118D01*
X1023304D01*
Y0706028D01*
X1023213D01*
Y0705937D01*
X1023033D01*
Y0705847D01*
X1022942D01*
Y0705757D01*
X1022852D01*
Y0705666D01*
X1022671D01*
Y0705576D01*
X1022581D01*
Y0705485D01*
X102249D01*
Y0705395D01*
X1022309D01*
Y0705304D01*
X1022219D01*
Y0705214D01*
X1022038D01*
Y0705124D01*
X1021948D01*
Y0705033D01*
X1021857D01*
Y0704943D01*
X1021676D01*
Y0704852D01*
X1021586D01*
Y0704762D01*
X1021405D01*
Y0704671D01*
X1021315D01*
Y0704581D01*
X1021134D01*
Y0704491D01*
X1021043D01*
Y07044D01*
X1020862D01*
Y070431D01*
X1020772D01*
Y0704219D01*
X1020591D01*
Y0704129D01*
X1020501D01*
Y0704038D01*
X102032D01*
Y0703948D01*
X1020139D01*
Y0703858D01*
X1020049D01*
Y0703767D01*
X1019868D01*
Y0703677D01*
X102041D01*
Y0703767D01*
X1020953D01*
Y0703858D01*
X1021315D01*
Y0703948D01*
X1021676D01*
Y0704038D01*
X1021948D01*
Y0704129D01*
X1022309D01*
Y0704219D01*
X102249D01*
Y070431D01*
X1022761D01*
Y07044D01*
X1022942D01*
Y0704491D01*
X1023213D01*
Y0704581D01*
X1023394D01*
Y0704671D01*
X1023575D01*
Y0704762D01*
X1023756D01*
Y0704852D01*
X1023847D01*
Y0704943D01*
X1024027D01*
Y0705033D01*
X1024208D01*
Y0705124D01*
X1024299D01*
Y0705214D01*
X1024479D01*
Y0705304D01*
X102457D01*
Y0705395D01*
X1024751D01*
Y0705485D01*
X1024841D01*
Y0705576D01*
X1024932D01*
Y0705666D01*
X1025022D01*
Y0705757D01*
X1025112D01*
Y0705847D01*
X1025203D01*
Y0705937D01*
X1025384D01*
Y0706028D01*
Y0706118D01*
X1025474D01*
Y0706209D01*
X1025565D01*
Y0706299D01*
X1025655D01*
Y070639D01*
X1025745D01*
Y070648D01*
X1025836D01*
Y070657D01*
Y0706661D01*
X1025926D01*
Y0706751D01*
X1026017D01*
Y0706842D01*
Y0706932D01*
X1026107D01*
Y0707022D01*
X1026198D01*
Y0707113D01*
Y0707203D01*
X1026288D01*
Y0707294D01*
X1026378D01*
Y0707384D01*
Y0707475D01*
X1026469D01*
Y0707565D01*
Y0707655D01*
X1026559D01*
Y0707746D01*
Y0707836D01*
X102665D01*
Y0707927D01*
Y0708017D01*
X102674D01*
Y0708108D01*
Y0708198D01*
X102683D01*
Y0708288D01*
Y0708379D01*
Y0708469D01*
X1026921D01*
Y070856D01*
Y070865D01*
X1027011D01*
Y0708741D01*
Y0708831D01*
Y0708921D01*
X1027102D01*
Y0709012D01*
Y0709102D01*
Y0709193D01*
X1027192D01*
Y0709283D01*
Y0709374D01*
Y0709464D01*
X1027283D01*
Y0709554D01*
Y0709645D01*
Y0709735D01*
Y0709826D01*
X1027373D01*
Y0709916D01*
Y0710006D01*
Y0710097D01*
Y0710187D01*
X1027464D01*
Y0710278D01*
Y0710368D01*
Y0710459D01*
Y0710549D01*
Y0710639D01*
Y071073D01*
X1027554D01*
Y071082D01*
Y0710911D01*
Y0711001D01*
Y0711092D01*
Y0711182D01*
Y0711272D01*
Y0711363D01*
D02*
G37*
%LPD*%
D10*
X1089981Y0973872D02*
G03*
X1097974Y0973857I0003984J-0006792D01*
G01*
D11*
X0993984Y07832D02*
G03*
X0993984Y07832I-0000492J0D01*
G01*
X1068284Y07827D02*
G03*
X1068284Y07827I-0000492J0D01*
G01*
X1147884Y07837D02*
G03*
X1147884Y07837I-0000492J0D01*
G01*
X1230084Y07841D02*
G03*
X1230084Y07841I-0000492J0D01*
G01*
D12*
X1202561Y08019D02*
G03*
X1202561Y08019I-0002062J0D01*
G01*
X1201D02*
G03*
X1201Y08019I-00005J0D01*
G01*
X1184Y07684D02*
G03*
X11875Y07649I00035J0D01*
G01*
X12015D02*
G03*
X1205Y07684I0J00035D01*
G01*
X1189Y08164D02*
G03*
X1184Y08114I0J-0005D01*
G01*
X1205D02*
G03*
X12Y08164I-0005J0D01*
G01*
X1123361Y08028D02*
G03*
X1123361Y08028I-0002062J0D01*
G01*
X11218D02*
G03*
X11218Y08028I-00005J0D01*
G01*
X11048Y07693D02*
G03*
X11083Y07658I00035J0D01*
G01*
X11223D02*
G03*
X11258Y07693I0J00035D01*
G01*
X11098Y08173D02*
G03*
X11048Y08123I0J-0005D01*
G01*
X11258D02*
G03*
X11208Y08173I-0005J0D01*
G01*
X1045362Y08025D02*
G03*
X1045362Y08025I-0002062J0D01*
G01*
X10438D02*
G03*
X10438Y08025I-00005J0D01*
G01*
X10268Y0769D02*
G03*
X10303Y07655I00035J0D01*
G01*
X10443D02*
G03*
X10478Y0769I0J00035D01*
G01*
X10318Y0817D02*
G03*
X10268Y0812I0J-0005D01*
G01*
X10478D02*
G03*
X10428Y0817I-0005J0D01*
G01*
X1280361Y08037D02*
G03*
X1280361Y08037I-0002062J0D01*
G01*
X12788D02*
G03*
X12788Y08037I-00005J0D01*
G01*
X12618Y07702D02*
G03*
X12653Y07667I00035J0D01*
G01*
X12793D02*
G03*
X12828Y07702I0J00035D01*
G01*
X12668Y08182D02*
G03*
X12618Y08132I0J-0005D01*
G01*
X12828D02*
G03*
X12778Y08182I-0005J0D01*
G01*
X09662Y08383D02*
Y09208D01*
X11017D01*
Y08383D02*
Y09208D01*
X09662Y08383D02*
X11017D01*
Y09208D01*
X10082Y09243D02*
X10482D01*
X10082Y09248D02*
Y097235D01*
X10482Y09243D02*
Y09725D01*
X10082Y09723D02*
X10482D01*
X10545Y0723D02*
Y0746D01*
X10615Y0723D02*
Y0746D01*
X09751Y07192D02*
Y07422D01*
X09821Y07192D02*
Y07422D01*
X11317Y07178D02*
Y07408D01*
X11387Y07178D02*
Y07408D01*
X12121Y0718D02*
Y0741D01*
X12191Y0718D02*
Y0741D01*
X11875Y07649D02*
X12015D01*
X1184Y07684D02*
Y08114D01*
X1189Y08164D02*
X12D01*
X1205Y07684D02*
Y08114D01*
X11083Y07658D02*
X11223D01*
X11048Y07693D02*
Y08123D01*
X11098Y08173D02*
X11208D01*
X11258Y07693D02*
Y08123D01*
X10303Y07655D02*
X10443D01*
X10268Y0769D02*
Y0812D01*
X10318Y0817D02*
X10428D01*
X10478Y0769D02*
Y0812D01*
X12653Y07667D02*
X12793D01*
X12618Y07702D02*
Y08132D01*
X12668Y08182D02*
X12778D01*
X12828Y07702D02*
Y08132D01*
X11136Y08815D02*
Y08945D01*
X11139D01*
X11018Y08944D02*
X11027D01*
X11018Y08811D02*
Y08944D01*
Y08811D02*
X11585D01*
Y08944D01*
X11027D02*
X11585D01*
X10167Y0854298D02*
Y08483D01*
Y0851299D01*
X1020699D01*
Y0854298D01*
Y08483D01*
X1022698D02*
X1024697D01*
X1023698D01*
Y0852299D01*
X1022698D01*
X1033694Y0854298D02*
Y08483D01*
X1037693D01*
X1039693D02*
X1041692D01*
X1040692D01*
Y0852299D01*
X1039693D01*
X1044691Y08483D02*
Y0852299D01*
X104769D01*
X104869Y0851299D01*
Y08483D01*
X1050689D02*
Y0854298D01*
Y0850299D02*
X1053688Y0852299D01*
X1050689Y0850299D02*
X1053688Y08483D01*
X10508Y09674D02*
X1052133D01*
X1051466D01*
Y0971399D01*
X10508Y0970732D01*
X1060866Y09672D02*
X10582D01*
X1060866Y0969866D01*
Y0970532D01*
X1060199Y0971199D01*
X1058867D01*
X10582Y0970532D01*
X10669D02*
X1067566Y0971199D01*
X1068899D01*
X1069566Y0970532D01*
Y0969866D01*
X1068899Y0969199D01*
X1068233D01*
X1068899D01*
X1069566Y0968533D01*
Y0967867D01*
X1068899Y09672D01*
X1067566D01*
X10669Y0967867D01*
X1076799Y09673D02*
Y0971299D01*
X10748Y0969299D01*
X1077466D01*
X0971Y06721D02*
X0964002D01*
X0966335Y0674433D01*
X0964002Y0676765D01*
X0971D01*
X0966335Y0679098D02*
X0969834D01*
X0971Y0680264D01*
Y0683763D01*
X0972166D01*
X0973333Y0682597D01*
Y068143D01*
X0971Y0683763D02*
X0966335D01*
X0965168Y0690761D02*
X0964002Y0689594D01*
Y0687262D01*
X0965168Y0686096D01*
X0966335D01*
X0967501Y0687262D01*
Y0689594D01*
X0968667Y0690761D01*
X0969834D01*
X0971Y0689594D01*
Y0687262D01*
X0969834Y0686096D01*
X0971Y0693093D02*
X0966335D01*
Y069426D01*
X0967501Y0695426D01*
X0971D01*
X0967501D01*
X0966335Y0696592D01*
X0967501Y0697758D01*
X0971D01*
X0966335Y0701257D02*
Y070359D01*
X0967501Y0704756D01*
X0971D01*
Y0701257D01*
X0969834Y0700091D01*
X0968667Y0701257D01*
Y0704756D01*
X0966335Y0707089D02*
X0971D01*
X0968667D01*
X0967501Y0708255D01*
X0966335Y0709421D01*
Y0710588D01*
X0965168Y0715253D02*
X0966335D01*
Y0714086D01*
Y0716419D01*
Y0715253D01*
X0969834D01*
X0971Y0716419D01*
X0964002Y0719918D02*
X0971D01*
X0967501D01*
Y0724583D01*
X0964002D01*
X0971D01*
Y0728082D02*
Y0730414D01*
X0969834Y0731581D01*
X0967501D01*
X0966335Y0730414D01*
Y0728082D01*
X0967501Y0726916D01*
X0969834D01*
X0971Y0728082D01*
Y0733913D02*
X0966335D01*
Y073508D01*
X0967501Y0736246D01*
X0971D01*
X0967501D01*
X0966335Y0737412D01*
X0967501Y0738579D01*
X0971D01*
Y074441D02*
Y0742077D01*
X0969834Y0740911D01*
X0967501D01*
X0966335Y0742077D01*
Y074441D01*
X0967501Y0745576D01*
X0968667D01*
Y0740911D01*
X0971Y0747909D02*
X0969834D01*
Y0749075D01*
X0971D01*
Y0747909D01*
X0965168Y0758405D02*
X0964002Y0757239D01*
Y0754907D01*
X0965168Y075374D01*
X0969834D01*
X0971Y0754907D01*
Y0757239D01*
X0969834Y0758405D01*
X0971Y0761904D02*
Y0764237D01*
X0969834Y0765403D01*
X0967501D01*
X0966335Y0764237D01*
Y0761904D01*
X0967501Y0760738D01*
X0969834D01*
X0971Y0761904D01*
Y0767736D02*
X0966335D01*
Y0768902D01*
X0967501Y0770068D01*
X0971D01*
X0967501D01*
X0966335Y0771235D01*
X0967501Y0772401D01*
X0971D01*
Y0774733D02*
X0969834D01*
Y07759D01*
X0971D01*
Y0774733D01*
X0964002Y0780565D02*
X0968667D01*
X0971Y0782898D01*
X0968667Y078523D01*
X0964002D01*
X0971Y0787563D02*
X0966335D01*
Y0791062D01*
X0967501Y0792228D01*
X0971D01*
X12303Y0721D02*
Y0726998D01*
X1233299D01*
X1234299Y0725998D01*
Y0723999D01*
X1233299Y0722999D01*
X12303D01*
X1232299D02*
X1234299Y0721D01*
X1236298Y0726998D02*
Y0721D01*
X1240297D01*
X1245295D02*
Y0726998D01*
X1242296Y0723999D01*
X1246295D01*
X11495Y07198D02*
Y0725798D01*
X1152499D01*
X1153499Y0724798D01*
Y0722799D01*
X1152499Y0721799D01*
X11495D01*
X1151499D02*
X1153499Y07198D01*
X1155498Y0725798D02*
Y07198D01*
X1159497D01*
X1161496Y0724798D02*
X1162496Y0725798D01*
X1164495D01*
X1165495Y0724798D01*
Y0723799D01*
X1164495Y0722799D01*
X1163496D01*
X1164495D01*
X1165495Y0721799D01*
Y07208D01*
X1164495Y07198D01*
X1162496D01*
X1161496Y07208D01*
X10711Y0718D02*
Y0723998D01*
X1074099D01*
X1075099Y0722998D01*
Y0720999D01*
X1074099Y0719999D01*
X10711D01*
X1073099D02*
X1075099Y0718D01*
X1077098Y0723998D02*
Y0718D01*
X1081097D01*
X1087095D02*
X1083096D01*
X1087095Y0721999D01*
Y0722998D01*
X1086095Y0723998D01*
X1084096D01*
X1083096Y0722998D01*
X09933Y07168D02*
Y0722798D01*
X0996299D01*
X0997299Y0721798D01*
Y0719799D01*
X0996299Y0718799D01*
X09933D01*
X0995299D02*
X0997299Y07168D01*
X0999298Y0722798D02*
Y07168D01*
X1003297D01*
X1005296D02*
X1007296D01*
X1006296D01*
Y0722798D01*
X1005296Y0721798D01*
D13*
X126454Y0694726D02*
G03*
X126454Y0694726I-0001781J0D01*
G01*
X124944Y0694826D02*
G03*
X124944Y0694826I-0001781J0D01*
G01*
X125837Y0717964D02*
G03*
X125837Y0717964I-0001781J0D01*
G01*
X125069Y0737484D02*
G03*
X126229Y0737384I000585J000575D01*
G01*
X1183541Y0694526D02*
G03*
X1183541Y0694526I-0001781J0D01*
G01*
X1168441Y0694626D02*
G03*
X1168441Y0694626I-0001781J0D01*
G01*
X117737Y0717764D02*
G03*
X117737Y0717764I-0001781J0D01*
G01*
X116969Y0737284D02*
G03*
X118129Y0737184I000585J000575D01*
G01*
X1104741Y0694626D02*
G03*
X1104741Y0694626I-0001781J0D01*
G01*
X1089641Y0694726D02*
G03*
X1089641Y0694726I-0001781J0D01*
G01*
X109857Y0717864D02*
G03*
X109857Y0717864I-0001781J0D01*
G01*
X109089Y0737384D02*
G03*
X110249Y0737284I000585J000575D01*
G01*
X1024841Y0694926D02*
G03*
X1024841Y0694926I-0001781J0D01*
G01*
X1009741Y0695026D02*
G03*
X1009741Y0695026I-0001781J0D01*
G01*
X101867Y0718164D02*
G03*
X101867Y0718164I-0001781J0D01*
G01*
X101099Y0737683D02*
G03*
X102259Y0737583I000585J000575D01*
G01*
X102424Y06413D02*
G03*
X102424Y06413I-000064J0D01*
G01*
X1019635Y0651732D02*
G03*
X1018978Y0652381I0003903J0004606D01*
G01*
X1039911Y0651982D02*
G03*
X1039262Y0652618I0003889J0004618D01*
G01*
X106444Y06414D02*
G03*
X106444Y06414I-000064J0D01*
G01*
X1044081Y06411D02*
G03*
X1044081Y06411I-000064J0D01*
G01*
X1059856Y0652029D02*
G03*
X1059303Y0652572I0003944J0004571D01*
G01*
X1086401Y0641262D02*
G03*
X1086401Y0641262I-000064J0D01*
G01*
X1081796Y0651694D02*
G03*
X1081139Y0652343I0003903J0004606D01*
G01*
X1102072Y0651944D02*
G03*
X1101423Y065258I0003889J0004618D01*
G01*
X1126601Y0641362D02*
G03*
X1126601Y0641362I-000064J0D01*
G01*
X1106242Y0641062D02*
G03*
X1106242Y0641062I-000064J0D01*
G01*
X1122017Y0651991D02*
G03*
X1121464Y0652533I0003944J0004571D01*
G01*
X1148002Y0641262D02*
G03*
X1148002Y0641262I-000064J0D01*
G01*
X1143397Y0651694D02*
G03*
X114274Y0652343I0003903J0004606D01*
G01*
X1163673Y0651944D02*
G03*
X1163024Y065258I0003889J0004618D01*
G01*
X1188202Y0641362D02*
G03*
X1188202Y0641362I-000064J0D01*
G01*
X1167842Y0641062D02*
G03*
X1167842Y0641062I-000064J0D01*
G01*
X1183618Y0651991D02*
G03*
X1183065Y0652533I0003944J0004571D01*
G01*
X1210302Y0641562D02*
G03*
X1210302Y0641562I-000064J0D01*
G01*
X1205697Y0651994D02*
G03*
X120504Y0652643I0003903J0004606D01*
G01*
X1225973Y0652244D02*
G03*
X1225324Y065288I0003889J0004618D01*
G01*
X1250502Y0641662D02*
G03*
X1250502Y0641662I-000064J0D01*
G01*
X1230142Y0641362D02*
G03*
X1230142Y0641362I-000064J0D01*
G01*
X1245918Y0652291D02*
G03*
X1245365Y0652834I0003944J0004571D01*
G01*
X10908Y09684D02*
X10974D01*
X1094D02*
X10969Y09655D01*
X10911D02*
X1094Y09684D01*
X1090016Y0973892D02*
X1097935D01*
X10876Y09684D02*
X10893Y09667D01*
X10879Y097D02*
X10896Y09683D01*
X11369Y0846475D02*
Y0855924D01*
X11134Y0846475D02*
X11369D01*
X11134D02*
Y0855924D01*
X11369D01*
X11096Y08513D02*
X11134D01*
X11369D02*
X1141D01*
X11369Y0834675D02*
Y0844124D01*
X11134Y0834675D02*
X11369D01*
X11134D02*
Y0844124D01*
X11369D01*
X11096Y08395D02*
X11134D01*
X11369D02*
X1141D01*
X125658Y0699546D02*
X126048Y0695646D01*
X124496Y0690346D02*
X124766Y0693046D01*
X123836Y0690346D02*
X124496D01*
X126336Y0692946D02*
X126596Y0690346D01*
X127356D01*
X125649Y0719983D02*
Y0740409D01*
X125659Y0699546D02*
Y0715983D01*
X123929Y0737583D02*
X125059D01*
X126239Y0737484D02*
X127379D01*
X1287478Y0673906D02*
Y0750246D01*
X1225418Y0673906D02*
Y0750246D01*
X1287478D01*
X1225418Y0673906D02*
X1287478D01*
X117558Y0699346D02*
X117948Y0695446D01*
X116396Y0690146D02*
X116666Y0692846D01*
X115736Y0690146D02*
X116396D01*
X118236Y0692746D02*
X118496Y0690146D01*
X119256D01*
X117549Y0719783D02*
Y0740208D01*
X117559Y0699346D02*
Y0715784D01*
X115829Y0737384D02*
X116959D01*
X118139Y0737284D02*
X119279D01*
X1206478Y0673705D02*
Y0750045D01*
X1144418Y0673705D02*
Y0750045D01*
X1206478D01*
X1144418Y0673705D02*
X1206478D01*
X109678Y0699446D02*
X110068Y0695546D01*
X108516Y0690246D02*
X108786Y0692946D01*
X107856Y0690246D02*
X108516D01*
X110356Y0692846D02*
X110616Y0690246D01*
X111376D01*
X109669Y0719883D02*
Y0740309D01*
X109679Y0699446D02*
Y0715883D01*
X107949Y0737484D02*
X109079D01*
X110259Y0737384D02*
X111399D01*
X1127678Y0673806D02*
Y0750145D01*
X1065618Y0673806D02*
Y0750145D01*
X1127678D01*
X1065618Y0673806D02*
X1127678D01*
X101688Y0699746D02*
X102078Y0695846D01*
X100526Y0690546D02*
X100796Y0693246D01*
X099866Y0690546D02*
X100526D01*
X102366Y0693146D02*
X102626Y0690546D01*
X103386D01*
X101679Y0720184D02*
Y0740609D01*
X101689Y0699746D02*
Y0716184D01*
X099959Y0737783D02*
X101089D01*
X102269Y0737683D02*
X103409D01*
X1047778Y0674106D02*
Y0750446D01*
X0985718Y0674106D02*
Y0750446D01*
X1047778D01*
X0985718Y0674106D02*
X1047778D01*
X10338Y06494D02*
Y06645D01*
X10193Y06521D02*
X10278Y06605D01*
X10138Y06666D02*
X10738D01*
X10395Y06523D02*
X104795Y066075D01*
X10538Y06496D02*
Y06647D01*
X10744Y06386D02*
Y06411D01*
X10738Y06366D02*
Y06516D01*
X10138Y06366D02*
X10738D01*
X10138D02*
Y06384D01*
X10148D01*
Y06415D01*
X10138D02*
X10148D01*
X10138D02*
Y06666D01*
X10738Y06516D02*
Y06666D01*
X10138Y06466D02*
X10738D01*
X10595Y06523D02*
X1068Y06608D01*
X1095961Y0649362D02*
Y0664462D01*
X1081461Y0652062D02*
X1089961Y0660462D01*
X1075961Y0666562D02*
X1135961D01*
X1101661Y0652262D02*
X1110111Y0660712D01*
X1115961Y0649562D02*
Y0664662D01*
X1136561Y0638562D02*
Y0641062D01*
X1135961Y0636562D02*
Y0651562D01*
X1075961Y0636562D02*
X1135961D01*
X1075961D02*
Y0638362D01*
X1076961D01*
Y0641462D01*
X1075961D02*
X1076961D01*
X1075961D02*
Y0666562D01*
X1135961Y0651562D02*
Y0666562D01*
X1075961Y0646562D02*
X1135961D01*
X1121661Y0652262D02*
X1130161Y0660762D01*
X1157562Y0649362D02*
Y0664462D01*
X1143062Y0652062D02*
X1151562Y0660462D01*
X1137562Y0666562D02*
X1197562D01*
X1163262Y0652262D02*
X1171712Y0660712D01*
X1177562Y0649562D02*
Y0664662D01*
X1198162Y0638562D02*
Y0641062D01*
X1197562Y0636562D02*
Y0651562D01*
X1137562Y0636562D02*
X1197562D01*
X1137562D02*
Y0638362D01*
X1138562D01*
Y0641462D01*
X1137562D02*
X1138562D01*
X1137562D02*
Y0666562D01*
X1197562Y0651562D02*
Y0666562D01*
X1137562Y0646562D02*
X1197562D01*
X1183262Y0652262D02*
X1191762Y0660762D01*
X1219862Y0649662D02*
Y0664762D01*
X1205362Y0652362D02*
X1213862Y0660762D01*
X1199862Y0666862D02*
X1259862D01*
X1225562Y0652562D02*
X1234012Y0661012D01*
X1239862Y0649862D02*
Y0664962D01*
X1260462Y0638862D02*
Y0641362D01*
X1259862Y0636862D02*
Y0651862D01*
X1199862Y0636862D02*
X1259862D01*
X1199862D02*
Y0638662D01*
X1200862D01*
Y0641762D01*
X1199862D02*
X1200862D01*
X1199862D02*
Y0666862D01*
X1259862Y0651862D02*
Y0666862D01*
X1199862Y0646862D02*
X1259862D01*
X1245562Y0652562D02*
X1254062Y0661062D01*
X1205899Y0837799D02*
X12054Y0838299D01*
X12044D01*
X12039Y0837799D01*
Y08358D01*
X12044Y08353D01*
X12054D01*
X1205899Y08358D01*
Y08368D01*
X12049D01*
X1206899Y08353D02*
Y0838299D01*
X1208898Y08353D01*
Y0838299D01*
X1209898D02*
Y08353D01*
X1211398D01*
X1211897Y08358D01*
Y0837799D01*
X1211398Y0838299D01*
X1209898D01*
X1216499D02*
X12145D01*
Y08368D01*
X12155Y0837299D01*
X1216D01*
X1216499Y08368D01*
Y08358D01*
X1216Y08353D01*
X1215D01*
X12145Y08358D01*
X1217499Y0838299D02*
Y08363D01*
X1218499Y08353D01*
X1219498Y08363D01*
Y0838299D01*
X1224599Y0837899D02*
X12241Y0838399D01*
X12231D01*
X12226Y0837899D01*
Y0837399D01*
X12231Y0836899D01*
X12241D01*
X1224599Y08364D01*
Y08359D01*
X12241Y08354D01*
X12231D01*
X12226Y08359D01*
X1225599Y0838399D02*
Y08354D01*
X1227099D01*
X1227598Y08359D01*
Y0837899D01*
X1227099Y0838399D01*
X1225599D01*
X1228598Y08354D02*
Y0837399D01*
X1229598Y0838399D01*
X1230597Y0837399D01*
Y08354D01*
Y0836899D01*
X1228598D01*
X1236299Y0837699D02*
X12358Y0838199D01*
X12348D01*
X12343Y0837699D01*
Y0837199D01*
X12348Y0836699D01*
X12358D01*
X1236299Y08362D01*
Y08357D01*
X12358Y08352D01*
X12348D01*
X12343Y08357D01*
X1239298Y0837699D02*
X1238799Y0838199D01*
X1237799D01*
X1237299Y0837699D01*
Y08357D01*
X1237799Y08352D01*
X1238799D01*
X1239298Y08357D01*
X1240298Y0838199D02*
Y08352D01*
X1242297D01*
X11664Y0939099D02*
X11674D01*
X11669D01*
Y09361D01*
X11664D01*
X11674D01*
X1168899D02*
Y0939099D01*
X1170899Y09361D01*
Y0939099D01*
X1171898Y09361D02*
X1172898D01*
X1172398D01*
Y0939099D01*
X1171898Y0938599D01*
X11508Y0939099D02*
X11518D01*
X11513D01*
Y09361D01*
X11508D01*
X11518D01*
X1153299D02*
Y0939099D01*
X1155299Y09361D01*
Y0939099D01*
X1158298Y09361D02*
X1156298D01*
X1158298Y0938099D01*
Y0938599D01*
X1157798Y0939099D01*
X1156798D01*
X1156298Y0938599D01*
X10897Y0939099D02*
Y09371D01*
X10907Y09361D01*
X1091699Y09371D01*
Y0939099D01*
X1094698Y0938599D02*
X1094199Y0939099D01*
X1093199D01*
X1092699Y0938599D01*
Y09366D01*
X1093199Y09361D01*
X1094199D01*
X1094698Y09366D01*
X1097697Y0938599D02*
X1097198Y0939099D01*
X1096198D01*
X1095698Y0938599D01*
Y09366D01*
X1096198Y09361D01*
X1097198D01*
X1097697Y09366D01*
X1108599Y0938599D02*
X1108099Y0939099D01*
X11071D01*
X11066Y0938599D01*
Y09366D01*
X11071Y09361D01*
X1108099D01*
X1108599Y09366D01*
Y0937599D01*
X11076D01*
X1109599Y09361D02*
Y0939099D01*
X1111598Y09361D01*
Y0939099D01*
X1112598D02*
Y09361D01*
X1114098D01*
X1114597Y09366D01*
Y0938599D01*
X1114098Y0939099D01*
X1112598D01*
X11224D02*
X11234D01*
X11229D01*
Y09361D01*
X11224D01*
X11234D01*
X1124899D02*
Y0939099D01*
X1126898Y09361D01*
Y0939099D01*
X1129398Y09361D02*
Y0939099D01*
X1127898Y0937599D01*
X1129898D01*
X11356Y0939099D02*
X11366D01*
X11361D01*
Y09361D01*
X11356D01*
X11366D01*
X1138099D02*
Y0939099D01*
X1140098Y09361D01*
Y0939099D01*
X1141098Y0938599D02*
X1141598Y0939099D01*
X1142598D01*
X1143098Y0938599D01*
Y0938099D01*
X1142598Y0937599D01*
X1142098D01*
X1142598D01*
X1143098Y09371D01*
Y09366D01*
X1142598Y09361D01*
X1141598D01*
X1141098Y09366D01*
X11893Y0937299D02*
X11898Y0937799D01*
X11908D01*
X1191299Y0937299D01*
Y0936799D01*
X11908Y09363D01*
X11903D01*
X11908D01*
X1191299Y09358D01*
Y09353D01*
X11908Y09348D01*
X11898D01*
X11893Y09353D01*
X1192299Y0937799D02*
Y09358D01*
X1193299Y09348D01*
X1194298Y09358D01*
Y0937799D01*
X1195298Y0937299D02*
X1195798Y0937799D01*
X1196798D01*
X1197297Y0937299D01*
Y0936799D01*
X1196798Y09363D01*
X1196298D01*
X1196798D01*
X1197297Y09358D01*
Y09353D01*
X1196798Y09348D01*
X1195798D01*
X1195298Y09353D01*
X1206999Y0937299D02*
X1206499Y0937799D01*
X12055D01*
X1205Y0937299D01*
Y09353D01*
X12055Y09348D01*
X1206499D01*
X1206999Y09353D01*
Y09363D01*
X1206D01*
X1207999Y09348D02*
Y0937799D01*
X1209998Y09348D01*
Y0937799D01*
X1210998D02*
Y09348D01*
X1212498D01*
X1212997Y09353D01*
Y0937299D01*
X1212498Y0937799D01*
X1210998D01*
X1223599Y0937299D02*
X12231Y0937799D01*
X12221D01*
X12216Y0937299D01*
Y0936799D01*
X12221Y09363D01*
X12231D01*
X1223599Y09358D01*
Y09353D01*
X12231Y09348D01*
X12221D01*
X12216Y09353D01*
X1226598Y0937299D02*
X1226099Y0937799D01*
X1225099D01*
X1224599Y0937299D01*
Y09353D01*
X1225099Y09348D01*
X1226099D01*
X1226598Y09353D01*
X1227598Y0937799D02*
Y09348D01*
X1229597D01*
X1238399Y0937299D02*
X1237899Y0937799D01*
X12369D01*
X12364Y0937299D01*
Y0936799D01*
X12369Y09363D01*
X1237899D01*
X1238399Y09358D01*
Y09353D01*
X1237899Y09348D01*
X12369D01*
X12364Y09353D01*
X1239399Y0937799D02*
Y09348D01*
X1240899D01*
X1241398Y09353D01*
Y0937299D01*
X1240899Y0937799D01*
X1239399D01*
X1242398Y09348D02*
Y0936799D01*
X1243398Y0937799D01*
X1244397Y0936799D01*
Y09348D01*
Y09363D01*
X1242398D01*
X1294801Y08283D02*
Y0830299D01*
Y08293D01*
X12978D01*
X1294801Y0831299D02*
X12978Y0833298D01*
X1294801D02*
X12978Y0831299D01*
X12976Y08188D02*
X1294601D01*
Y08203D01*
X1295101Y0820799D01*
X1296101D01*
X12966Y08203D01*
Y08188D01*
Y08198D02*
X12976Y0820799D01*
X1294601Y0821799D02*
X12976Y0823798D01*
X1294601D02*
X12976Y0821799D01*
X1295201Y0810499D02*
X1294701Y0809999D01*
Y0809D01*
X1295201Y08085D01*
X12972D01*
X12977Y0809D01*
Y0809999D01*
X12972Y0810499D01*
X12962D01*
Y08095D01*
X12977Y0811499D02*
X1294701D01*
X12977Y0813498D01*
X1294701D01*
Y0814498D02*
X12977D01*
Y0815998D01*
X12972Y0816497D01*
X1295201D01*
X1294701Y0815998D01*
Y0814498D01*
X1295201Y07979D02*
X1294701Y07984D01*
Y07994D01*
X1295201Y0799899D01*
X1295701D01*
X12962Y07994D01*
Y07989D01*
Y07994D01*
X12967Y0799899D01*
X12972D01*
X12977Y07994D01*
Y07984D01*
X12972Y07979D01*
X1294701Y0800899D02*
X12967D01*
X12977Y0801899D01*
X12967Y0802898D01*
X1294701D01*
X1295201Y0803898D02*
X1294701Y0804398D01*
Y0805398D01*
X1295201Y0805897D01*
X1295701D01*
X12962Y0805398D01*
Y0804898D01*
Y0805398D01*
X12967Y0805897D01*
X12972D01*
X12977Y0805398D01*
Y0804398D01*
X12972Y0803898D01*
X1171699Y0848199D02*
X11712Y0848699D01*
X11702D01*
X11697Y0848199D01*
Y08462D01*
X11702Y08457D01*
X11712D01*
X1171699Y08462D01*
X1174698Y08457D02*
X1172699D01*
X1174698Y0847699D01*
Y0848199D01*
X1174199Y0848699D01*
X1173199D01*
X1172699Y0848199D01*
X1173199Y0905599D02*
X11727Y0906099D01*
X11717D01*
X11712Y0905599D01*
Y09036D01*
X11717Y09031D01*
X11727D01*
X1173199Y09036D01*
X1174199Y09031D02*
X1175199D01*
X1174699D01*
Y0906099D01*
X1174199Y0905599D01*
D14*
X1258722Y0920281D02*
G03*
X1258722Y0920281I-0000591J0D01*
G01*
D15*
X11674Y0939833D02*
X11724D01*
X11699Y0942333D02*
X11724Y0939833D01*
X11674D02*
X11699Y0942333D01*
X11144Y0943033D02*
Y0973533D01*
Y0943033D02*
X11804D01*
Y0973533D01*
X11676Y0966D02*
X11726D01*
X11678Y09635D02*
X117Y09657D01*
X11702D02*
X11724Y09635D01*
X11678D02*
X11724D01*
X11654Y08937D02*
Y09015D01*
X11816D01*
Y08937D02*
Y09015D01*
X11654Y08937D02*
X11816D01*
X11645Y08363D02*
X11807D01*
Y08441D01*
X11645D02*
X11807D01*
X11645Y08363D02*
Y08441D01*
X1042667Y0996859D02*
X104749D01*
X1040698Y099489D02*
X1042667Y0996859D01*
X1015502Y099489D02*
X1040698D01*
X1013533Y0996859D02*
X1015502Y099489D01*
X1008809Y0996859D02*
X1013533D01*
X1008809Y0939674D02*
Y0950796D01*
X1008809Y0964182D02*
Y0996859D01*
X1008809Y0939674D02*
X104749D01*
Y0996859D01*
X10737Y09578D02*
X10783D01*
X10737D02*
X10759Y09556D01*
X10761D02*
X10783Y09578D01*
X10735Y09553D02*
X10785D01*
X11374Y0939833D02*
X11424D01*
X11399Y0942333D02*
X11424Y0939833D01*
X11374D02*
X11399Y0942333D01*
X10844Y0943033D02*
Y0973533D01*
Y0943033D02*
X11504D01*
Y0973533D01*
X1236601Y0939833D02*
X1241601D01*
X1239101Y0942333D02*
X1241601Y0939833D01*
X1236601D02*
X1239101Y0942333D01*
X1183601Y0943033D02*
Y0973533D01*
Y0943033D02*
X1249601D01*
Y0973533D01*
X11645Y07761D02*
Y07839D01*
X11807D01*
Y07761D02*
Y07839D01*
X11645Y07761D02*
X11807D01*
X1010645Y0763598D02*
X1028755D01*
X1010645Y0752574D02*
X1028755D01*
X1010645Y0761629D02*
Y0763598D01*
X1028755Y0761629D02*
Y0763598D01*
X1010645Y0752574D02*
Y0754543D01*
X1028755Y0752574D02*
Y0754543D01*
X1024818Y0761629D02*
X1028755D01*
X1024818Y0754543D02*
X1028755D01*
X1024818Y0761673D02*
Y0763598D01*
Y0752574D02*
Y0754543D01*
X10085Y07991D02*
X10247D01*
X10085Y07913D02*
Y07991D01*
Y07913D02*
X10247D01*
Y07991D01*
X09883Y0762D02*
X10045D01*
X09883Y07542D02*
Y0762D01*
Y07542D02*
X10045D01*
Y0762D01*
X10083Y07801D02*
X10245D01*
X10083Y07723D02*
Y07801D01*
Y07723D02*
X10245D01*
Y07801D01*
X1048851Y09553D02*
X1053851D01*
X1051451Y09556D02*
X1053651Y09578D01*
X1049051D02*
X1051251Y09556D01*
X1049051Y09578D02*
X1053651D01*
X1088245Y0764098D02*
X1106355D01*
X1088245Y0753074D02*
X1106355D01*
X1088245Y0762129D02*
Y0764098D01*
X1106355Y0762129D02*
Y0764098D01*
X1088245Y0753074D02*
Y0755043D01*
X1106355Y0753074D02*
Y0755043D01*
X1102418Y0762129D02*
X1106355D01*
X1102418Y0755043D02*
X1106355D01*
X1102418Y0762173D02*
Y0764098D01*
Y0753074D02*
Y0755043D01*
X10573Y09553D02*
X10623D01*
X10599Y09556D02*
X10621Y09578D01*
X10575D02*
X10597Y09556D01*
X10575Y09578D02*
X10621D01*
X10648Y07631D02*
X1081D01*
X10648Y07553D02*
Y07631D01*
Y07553D02*
X1081D01*
Y07631D01*
X10852Y07839D02*
X11014D01*
X10852Y07761D02*
Y07839D01*
Y07761D02*
X11014D01*
Y07839D01*
X10848Y07996D02*
X1101D01*
X10848Y07918D02*
Y07996D01*
Y07918D02*
X1101D01*
Y07996D01*
X1167845Y0764598D02*
X1185955D01*
X1167845Y0753574D02*
X1185955D01*
X1167845Y076263D02*
Y0764598D01*
X1185955Y076263D02*
Y0764598D01*
X1167845Y0753574D02*
Y0755543D01*
X1185955Y0753574D02*
Y0755543D01*
X1182018Y076263D02*
X1185955D01*
X1182018Y0755543D02*
X1185955D01*
X1182018Y0762673D02*
Y0764598D01*
Y0753574D02*
Y0755543D01*
X1246046Y0765198D02*
X1264156D01*
X1246046Y0754174D02*
X1264156D01*
X1246046Y076323D02*
Y0765198D01*
X1264156Y076323D02*
Y0765198D01*
X1246046Y0754174D02*
Y0756143D01*
X1264156Y0754174D02*
Y0756143D01*
X1260219Y076323D02*
X1264156D01*
X1260219Y0756143D02*
X1264156D01*
X1260219Y0763273D02*
Y0765198D01*
Y0754174D02*
Y0756143D01*
X1065901Y09553D02*
X1070901D01*
X1068501Y09556D02*
X1070701Y09578D01*
X1066101D02*
X1068301Y09556D01*
X1066101Y09578D02*
X1070701D01*
X11646Y07992D02*
X11808D01*
X11646Y07914D02*
Y07992D01*
Y07914D02*
X11808D01*
Y07992D01*
X11447Y07626D02*
X11609D01*
X11447Y07548D02*
Y07626D01*
Y07548D02*
X11609D01*
Y07626D01*
X12427Y0792D02*
X12589D01*
Y07998D01*
X12427D02*
X12589D01*
X12427Y0792D02*
Y07998D01*
X12236Y07632D02*
X12398D01*
X12236Y07554D02*
Y07632D01*
Y07554D02*
X12398D01*
Y07632D01*
X12428Y07846D02*
X1259D01*
X12428Y07768D02*
Y07846D01*
Y07768D02*
X1259D01*
Y07846D01*
D16*
X11731Y096D02*
X11736D01*
Y0969D01*
X11731D02*
X11736D01*
X11666Y096D02*
X11671D01*
X11666D02*
Y0969D01*
X11671D01*
X1079Y09523D02*
X10795D01*
Y09613D01*
X1079D02*
X10795D01*
X10725Y09523D02*
X1073D01*
X10725D02*
Y09613D01*
X1073D01*
X1047851D02*
X1048351D01*
X1047851Y09523D02*
Y09613D01*
Y09523D02*
X1048351D01*
X1054351Y09613D02*
X1054851D01*
Y09523D02*
Y09613D01*
X1054351Y09523D02*
X1054851D01*
X10563Y09613D02*
X10568D01*
X10563Y09523D02*
Y09613D01*
Y09523D02*
X10568D01*
X10628Y09613D02*
X10633D01*
Y09523D02*
Y09613D01*
X10628Y09523D02*
X10633D01*
X1064901Y09613D02*
X1065401D01*
X1064901Y09523D02*
Y09613D01*
Y09523D02*
X1065401D01*
X1071401Y09613D02*
X1071901D01*
Y09523D02*
Y09613D01*
X1071401Y09523D02*
X1071901D01*
D17*
X12528Y08236D02*
Y08336D01*
X12028Y08236D02*
X12528D01*
X12028Y08336D02*
X12528D01*
X12028Y08236D02*
Y08336D01*
X1172125Y0909976D02*
X1175275D01*
X1172125Y0919424D02*
X1175275D01*
X13032Y08446D02*
X13132D01*
X13032D02*
Y09246D01*
X13132D01*
Y08446D02*
Y09246D01*
X11156Y09094D02*
Y09194D01*
X1104616Y09094D02*
Y09194D01*
X1146585D01*
X1104616Y09094D02*
X1146585D01*
Y09194D01*
X11068Y09571D02*
Y09671D01*
X11568D01*
X11068Y09571D02*
X11568D01*
Y09671D01*
X11158Y09204D02*
Y09304D01*
X1104816Y09204D02*
Y09304D01*
X1146785D01*
X1104816Y09204D02*
X1146785D01*
Y09304D01*
X1236985Y09634D02*
Y09734D01*
X1195016Y09634D02*
X1236985D01*
X1195016Y09734D02*
X1236985D01*
X1195016Y09634D02*
Y09734D01*
X1206Y09634D02*
Y09734D01*
X1151585Y09672D02*
Y09772D01*
X1109616Y09672D02*
X1151585D01*
X1109616Y09772D02*
X1151585D01*
X1109616Y09672D02*
Y09772D01*
X11206Y09672D02*
Y09772D01*
X11552Y08974D02*
Y09074D01*
X11052Y08974D02*
X11552D01*
X11052Y09074D02*
X11552D01*
X11052Y08974D02*
Y09074D01*
X13034Y08065D02*
X13134D01*
X13034Y0795516D02*
X13134D01*
X13034D02*
Y0837485D01*
X13134Y0795516D02*
Y0837485D01*
X13034D02*
X13134D01*
D18*
X11752Y09101D02*
Y09191D01*
X10613Y0693D02*
Y0716D01*
X10543Y0716D02*
X10543Y0693D01*
X1279728Y0688545D02*
X1280158Y0688115D01*
X1198728Y0688345D02*
X1199158Y0687915D01*
X1119928Y0688445D02*
X1120358Y0688015D01*
X1040028Y0688745D02*
X1040458Y0688315D01*
X11312Y06805D02*
Y07035D01*
X11382Y06805D02*
Y07035D01*
X12126Y068D02*
Y0703D01*
X12196Y068D02*
Y0703D01*
X09748Y06816D02*
Y07046D01*
X09818Y06816D02*
Y07046D01*
X09558Y06344D02*
Y06571D01*
X12628Y09697D02*
X12673D01*
X12527D02*
X12572D01*
X12575Y09536D02*
X12625D01*
Y09636D01*
X12575D02*
X12625D01*
X12575Y09536D02*
Y09636D01*
X12527Y09475D02*
Y09697D01*
X12673Y09475D02*
Y09697D01*
X12628Y09475D02*
X12673D01*
X12527D02*
X12572D01*
X1257704Y0918445D02*
X1287053D01*
X1192803D02*
X119537D01*
X1257703Y0854794D02*
X1287053D01*
X1192803D02*
X1195371D01*
X1287053D02*
Y0918445D01*
X1192803Y0909973D02*
Y0918445D01*
Y0854794D02*
Y0863267D01*
X13076Y06743D02*
Y0675966D01*
Y0675133D01*
X1304268D01*
Y06743D01*
X13076Y0678465D02*
X1302602D01*
X13076Y0681798D01*
X1302602D01*
X1304268Y0683464D02*
X1306767D01*
X13076Y0684297D01*
Y0686796D01*
X1304268D01*
X1303435Y0689295D02*
X1304268D01*
Y0688462D01*
Y0690128D01*
Y0689295D01*
X1306767D01*
X13076Y0690128D01*
Y0692627D02*
X1306767D01*
Y0693461D01*
X13076D01*
Y0692627D01*
X1302602Y0696793D02*
X1305934D01*
X13076Y0698459D01*
X1305934Y0700125D01*
X1302602D01*
X13076Y0701791D02*
X1304268D01*
Y070429D01*
X1305101Y0705123D01*
X13076D01*
Y071512D02*
X1304268Y0711788D01*
X13076Y0721785D02*
Y0723451D01*
Y0722618D01*
X1304268D01*
Y0721785D01*
X13076Y072595D02*
X1302602D01*
X13076Y0729282D01*
X1302602D01*
X1304268Y0730948D02*
X1306767D01*
X13076Y0731781D01*
Y0734281D01*
X1304268D01*
X1303435Y073678D02*
X1304268D01*
Y0735947D01*
Y0737613D01*
Y073678D01*
X1306767D01*
X13076Y0737613D01*
Y074511D02*
X1302602D01*
Y074761D01*
X1303435Y0748443D01*
X1305101D01*
X1305934Y074761D01*
Y074511D01*
X13076Y0750109D02*
Y0751775D01*
Y0750942D01*
X1302602D01*
Y0750109D01*
X1304268Y0755107D02*
Y0756773D01*
X1305101Y0757606D01*
X13076D01*
Y0755107D01*
X1306767Y0754274D01*
X1305934Y0755107D01*
Y0757606D01*
X1303435Y0760106D02*
X1304268D01*
Y0759272D01*
Y0760939D01*
Y0760106D01*
X1306767D01*
X13076Y0760939D01*
Y0764271D02*
X1303435D01*
X1305101D01*
Y0763438D01*
Y0765104D01*
Y0764271D01*
X1303435D01*
X1302602Y0765104D01*
X13076Y0768436D02*
Y0770102D01*
X1306767Y0770935D01*
X1305101D01*
X1304268Y0770102D01*
Y0768436D01*
X1305101Y0767603D01*
X1306767D01*
X13076Y0768436D01*
X1304268Y0772602D02*
X13076D01*
X1305934D01*
X1305101Y0773435D01*
X1304268Y0774268D01*
Y0775101D01*
X13076Y07776D02*
X1304268D01*
Y0778433D01*
X1305101Y0779266D01*
X13076D01*
X1305101D01*
X1304268Y0780099D01*
X1305101Y0780932D01*
X13076D01*
X12486Y09307D02*
Y0935698D01*
X1251099D01*
X1251932Y0934865D01*
Y0933199D01*
X1251099Y0932366D01*
X12486D01*
X1250266D02*
X1251932Y09307D01*
X1256931Y0935698D02*
X1253598D01*
Y09307D01*
X1256931D01*
X1253598Y0933199D02*
X1255264D01*
X1261929Y0934865D02*
X1261096Y0935698D01*
X125943D01*
X1258597Y0934865D01*
Y0934032D01*
X125943Y0933199D01*
X1261096D01*
X1261929Y0932366D01*
Y0931533D01*
X1261096Y09307D01*
X125943D01*
X1258597Y0931533D01*
X1266927Y0935698D02*
X1263595D01*
Y09307D01*
X1266927D01*
X1263595Y0933199D02*
X1265261D01*
X1268594Y0935698D02*
X1271926D01*
X127026D01*
Y09307D01*
X1273592D02*
X1275258D01*
X1274425D01*
Y0935698D01*
X1273592Y0934865D01*
D19*
X1150701Y0860595D02*
X1150701Y0878095D01*
X1140701D02*
X1150701D01*
X1140701D02*
X1140701Y0858095D01*
X1148201Y0858095D01*
X1150701Y0860595D01*
X1114998D02*
X1114998Y0878095D01*
X1104998D02*
X1114998D01*
X1104998D02*
X1104998Y0858095D01*
X1112498Y0858095D01*
X1114998Y0860595D01*
X1126899D02*
X1126899Y0878095D01*
X1116899D02*
X1126899D01*
X1116899D02*
X1116899Y0858095D01*
X1124399Y0858095D01*
X1126899Y0860595D01*
X11363Y0858095D02*
X11388Y0860595D01*
X11288Y0858095D02*
X11363Y0858095D01*
X11288Y0878095D02*
X11288Y0858095D01*
X11288Y0878095D02*
X11388D01*
X11388Y0860595D02*
X11388Y0878095D01*
X1312885Y0858501D02*
X1313385Y0858001D01*
X1314384D01*
X1314884Y0858501D01*
Y08605D01*
X1314384Y0861D01*
X1313385D01*
X1312885Y08605D01*
Y0859501D01*
X1313885D01*
X1314884Y0847495D02*
X1316884D01*
Y0848994D01*
X1315884Y0848494D01*
X1315384D01*
X1314884Y0848994D01*
Y0849994D01*
X1315384Y0850494D01*
X1316384D01*
X1316884Y0849994D01*
X1313885Y0847495D02*
Y0849494D01*
X1312885Y0850494D01*
X1311885Y0849494D01*
Y0847495D01*
X1316884Y0868015D02*
X1314884D01*
X1315884D01*
Y0871014D01*
X1313885Y0868015D02*
X1311885Y0871014D01*
Y0868015D02*
X1313885Y0871014D01*
X1316884Y08815D02*
Y0878501D01*
X1315384D01*
X1314884Y0879001D01*
Y088D01*
X1315384Y08805D01*
X1316884D01*
X1315884D02*
X1314884Y08815D01*
X1313885Y0878501D02*
X1311885Y08815D01*
Y0878501D02*
X1313885Y08815D01*
X1314884Y0887515D02*
X1316884D01*
Y0890514D01*
X1314884D01*
X1316884Y0889015D02*
X1315884D01*
X1313885Y0890514D02*
Y0887515D01*
X1311885Y0890514D01*
Y0887515D01*
X1316551Y0898021D02*
X1315551D01*
X1316051D01*
Y090102D01*
X1316551D01*
X1315551D01*
X1314051Y0898521D02*
X1313552Y0898021D01*
X1312552D01*
X1312052Y0898521D01*
Y0900521D01*
X1312552Y090102D01*
X1313552D01*
X1314051Y0900521D01*
Y0898521D01*
X1312885Y0908515D02*
X1313385Y0908015D01*
X1314384D01*
X1314884Y0908515D01*
Y0910514D01*
X1314384Y0911014D01*
X1313385D01*
X1312885Y0910514D01*
Y0909515D01*
X1313885D01*
X1314884Y0919021D02*
X1314384Y0918521D01*
X1313385D01*
X1312885Y0919021D01*
Y0919521D01*
X1313385Y0920021D01*
X1313885D01*
X1313385D01*
X1312885Y0920521D01*
Y0921021D01*
X1313385Y092152D01*
X1314384D01*
X1314884Y0921021D01*
X11272Y0885899D02*
X11282D01*
X11277D01*
Y08829D01*
X11272D01*
X11282D01*
X1129699D02*
Y0885899D01*
X1131699Y08829D01*
Y0885899D01*
X1134198Y08829D02*
Y0885899D01*
X1132698Y08844D01*
X1134698D01*
X1143299Y0891999D02*
X1142799Y0892499D01*
X11418D01*
X11413Y0891999D01*
Y0891499D01*
X11418Y0891D01*
X1142799D01*
X1143299Y08905D01*
Y089D01*
X1142799Y08895D01*
X11418D01*
X11413Y089D01*
X1146298Y0891999D02*
X1145799Y0892499D01*
X1144799D01*
X1144299Y0891999D01*
Y089D01*
X1144799Y08895D01*
X1145799D01*
X1146298Y089D01*
X1147298Y0892499D02*
Y08895D01*
X1149297D01*
X1131699Y0891999D02*
X1131199Y0892499D01*
X11302D01*
X11297Y0891999D01*
Y0891499D01*
X11302Y0891D01*
X1131199D01*
X1131699Y08905D01*
Y089D01*
X1131199Y08895D01*
X11302D01*
X11297Y089D01*
X1132699Y0892499D02*
Y08895D01*
X1134199D01*
X1134698Y089D01*
Y0891999D01*
X1134199Y0892499D01*
X1132699D01*
X1135698Y08895D02*
Y0891499D01*
X1136698Y0892499D01*
X1137697Y0891499D01*
Y08895D01*
Y0891D01*
X1135698D01*
X11182Y0892499D02*
Y08905D01*
X11192Y08895D01*
X1120199Y08905D01*
Y0892499D01*
X1123198Y0891999D02*
X1122699Y0892499D01*
X1121699D01*
X1121199Y0891999D01*
Y089D01*
X1121699Y08895D01*
X1122699D01*
X1123198Y089D01*
X1126197Y0891999D02*
X1125698Y0892499D01*
X1124698D01*
X1124198Y0891999D01*
Y089D01*
X1124698Y08895D01*
X1125698D01*
X1126197Y089D01*
X11171Y0885999D02*
X11181D01*
X11176D01*
Y0883D01*
X11171D01*
X11181D01*
X1119599D02*
Y0885999D01*
X1121599Y0883D01*
Y0885999D01*
X1122598Y0885499D02*
X1123098Y0885999D01*
X1124098D01*
X1124598Y0885499D01*
Y0884999D01*
X1124098Y0884499D01*
X1123598D01*
X1124098D01*
X1124598Y0884D01*
Y08835D01*
X1124098Y0883D01*
X1123098D01*
X1122598Y08835D01*
X1147Y0885699D02*
X1148D01*
X11475D01*
Y08827D01*
X1147D01*
X1148D01*
X1149499D02*
Y0885699D01*
X1151499Y08827D01*
Y0885699D01*
X1154498Y08827D02*
X1152498D01*
X1154498Y0884699D01*
Y0885199D01*
X1153998Y0885699D01*
X1152998D01*
X1152498Y0885199D01*
X1137Y0885799D02*
X1138D01*
X11375D01*
Y08828D01*
X1137D01*
X1138D01*
X1139499D02*
Y0885799D01*
X1141498Y08828D01*
Y0885799D01*
X1142498Y08828D02*
X1143498D01*
X1142998D01*
Y0885799D01*
X1142498Y0885299D01*
X1105999Y0888299D02*
X1105499Y0888799D01*
X11045D01*
X1104Y0888299D01*
Y08863D01*
X11045Y08858D01*
X1105499D01*
X1105999Y08863D01*
Y08873D01*
X1105D01*
X1106999Y08858D02*
Y0888799D01*
X1108998Y08858D01*
Y0888799D01*
X1109998D02*
Y08858D01*
X1111498D01*
X1111997Y08863D01*
Y0888299D01*
X1111498Y0888799D01*
X1109998D01*
X1171033Y0925933D02*
X1170367Y0926599D01*
X1169034D01*
X1168368Y0925933D01*
Y0923267D01*
X1169034Y0922601D01*
X1170367D01*
X1171033Y0923267D01*
X1172367Y0925933D02*
X1173033Y0926599D01*
X1174366D01*
X1175032Y0925933D01*
Y0925266D01*
X1174366Y09246D01*
X1173699D01*
X1174366D01*
X1175032Y0923934D01*
Y0923267D01*
X1174366Y0922601D01*
X1173033D01*
X1172367Y0923267D01*
X1133799Y0830099D02*
X11333Y0830599D01*
X11323D01*
X11318Y0830099D01*
Y08281D01*
X11323Y08276D01*
X11333D01*
X1133799Y08281D01*
Y0829099D01*
X11328D01*
X1136798Y08276D02*
X1134799D01*
X1136798Y0829599D01*
Y0830099D01*
X1136299Y0830599D01*
X1135299D01*
X1134799Y0830099D01*
X1108999Y0829999D02*
X11085Y0830499D01*
X11075D01*
X1107Y0829999D01*
Y0829499D01*
X11075Y0829D01*
X11085D01*
X1108999Y08285D01*
Y0828D01*
X11085Y08275D01*
X11075D01*
X1107Y0828D01*
X1109999Y0830499D02*
Y08275D01*
X1111499D01*
X1111998Y0828D01*
Y0829999D01*
X1111499Y0830499D01*
X1109999D01*
X1112998Y08275D02*
Y0829499D01*
X1113998Y0830499D01*
X1114997Y0829499D01*
Y08275D01*
Y0829D01*
X1112998D01*
X1115997Y08275D02*
X1116997D01*
X1116497D01*
Y0830499D01*
X1115997Y0829999D01*
X1121299D02*
X11208Y0830499D01*
X11198D01*
X11193Y0829999D01*
Y0829499D01*
X11198Y0829D01*
X11208D01*
X1121299Y08285D01*
Y0828D01*
X11208Y08275D01*
X11198D01*
X11193Y0828D01*
X1124298Y0829999D02*
X1123799Y0830499D01*
X1122799D01*
X1122299Y0829999D01*
Y0828D01*
X1122799Y08275D01*
X1123799D01*
X1124298Y0828D01*
X1125298Y0830499D02*
Y08275D01*
X1127297D01*
X1128297D02*
X1129297D01*
X1128797D01*
Y0830499D01*
X1128297Y0829999D01*
X1145199Y0830099D02*
X1144699Y0830599D01*
X11437D01*
X11432Y0830099D01*
Y08281D01*
X11437Y08276D01*
X1144699D01*
X1145199Y08281D01*
Y0829099D01*
X11442D01*
X1146199Y08276D02*
X1147199D01*
X1146699D01*
Y0830599D01*
X1146199Y0830099D01*
D20*
X11599Y08604D02*
Y08744D01*
Y08604D02*
X11849D01*
Y08744D01*
X11599D02*
X11849D01*
D21*
X1026787Y0762614D02*
D03*
Y0753559D02*
D03*
X1104387Y0763114D02*
D03*
Y0754059D02*
D03*
X1183987Y0763614D02*
D03*
Y0754559D02*
D03*
X1262188Y0764214D02*
D03*
Y0755159D02*
D03*
D22*
X126Y0958599D02*
D03*
M02*
