G04*
G04 #@! TF.GenerationSoftware,Altium Limited,Altium Designer,20.2.6 (244)*
G04*
G04 Layer_Physical_Order=1*
G04 Layer_Color=255*
%FSTAX25Y25*%
%MOIN*%
G70*
G04*
G04 #@! TF.SameCoordinates,D37F4820-9CCB-4A9C-A827-6EB3CEA44CBB*
G04*
G04*
G04 #@! TF.FilePolarity,Positive*
G04*
G01*
G75*
%ADD18C,0.01500*%
%ADD23R,0.04724X0.03543*%
%ADD24R,0.05000X0.05500*%
%ADD25R,0.06000X0.10236*%
G04:AMPARAMS|DCode=26|XSize=66.93mil|YSize=86.61mil|CornerRadius=16.73mil|HoleSize=0mil|Usage=FLASHONLY|Rotation=180.000|XOffset=0mil|YOffset=0mil|HoleType=Round|Shape=RoundedRectangle|*
%AMROUNDEDRECTD26*
21,1,0.06693,0.05315,0,0,180.0*
21,1,0.03347,0.08661,0,0,180.0*
1,1,0.03346,-0.01673,0.02657*
1,1,0.03346,0.01673,0.02657*
1,1,0.03346,0.01673,-0.02657*
1,1,0.03346,-0.01673,-0.02657*
%
%ADD26ROUNDEDRECTD26*%
%ADD27R,0.03347X0.04724*%
%ADD28R,0.04724X0.04724*%
G04:AMPARAMS|DCode=29|XSize=86.61mil|YSize=59.06mil|CornerRadius=7.38mil|HoleSize=0mil|Usage=FLASHONLY|Rotation=0.000|XOffset=0mil|YOffset=0mil|HoleType=Round|Shape=RoundedRectangle|*
%AMROUNDEDRECTD29*
21,1,0.08661,0.04429,0,0,0.0*
21,1,0.07185,0.05906,0,0,0.0*
1,1,0.01476,0.03593,-0.02215*
1,1,0.01476,-0.03593,-0.02215*
1,1,0.01476,-0.03593,0.02215*
1,1,0.01476,0.03593,0.02215*
%
%ADD29ROUNDEDRECTD29*%
%ADD30R,0.07874X0.05906*%
%ADD31R,0.05906X0.03937*%
%ADD32R,0.03937X0.08858*%
%ADD33R,0.11811X0.10000*%
%ADD34R,0.02756X0.10000*%
%ADD71C,0.03000*%
%ADD72C,0.07000*%
%ADD73C,0.05000*%
%ADD74R,0.07900X0.06100*%
%ADD75C,0.10000*%
%ADD76O,0.10000X0.06500*%
%ADD77R,0.10000X0.06500*%
%ADD78C,0.05906*%
%ADD79R,0.05906X0.05906*%
%ADD80C,0.09000*%
%ADD81R,0.09000X0.09000*%
%ADD82R,0.07874X0.09843*%
%ADD83C,0.12000*%
%ADD84R,0.07087X0.07087*%
%ADD85C,0.11000*%
%ADD86C,0.09843*%
%ADD87C,0.08500*%
%ADD88R,0.05906X0.05906*%
%ADD89C,0.05984*%
%ADD90R,0.05984X0.05984*%
%ADD91C,0.07000*%
G04:AMPARAMS|DCode=92|XSize=137.8mil|YSize=78.74mil|CornerRadius=19.68mil|HoleSize=0mil|Usage=FLASHONLY|Rotation=0.000|XOffset=0mil|YOffset=0mil|HoleType=Round|Shape=RoundedRectangle|*
%AMROUNDEDRECTD92*
21,1,0.13780,0.03937,0,0,0.0*
21,1,0.09843,0.07874,0,0,0.0*
1,1,0.03937,0.04921,-0.01968*
1,1,0.03937,-0.04921,-0.01968*
1,1,0.03937,-0.04921,0.01968*
1,1,0.03937,0.04921,0.01968*
%
%ADD92ROUNDEDRECTD92*%
%ADD93R,0.13780X0.09843*%
%ADD94R,0.09843X0.13780*%
G04:AMPARAMS|DCode=95|XSize=100mil|YSize=100mil|CornerRadius=25mil|HoleSize=0mil|Usage=FLASHONLY|Rotation=90.000|XOffset=0mil|YOffset=0mil|HoleType=Round|Shape=RoundedRectangle|*
%AMROUNDEDRECTD95*
21,1,0.10000,0.05000,0,0,90.0*
21,1,0.05000,0.10000,0,0,90.0*
1,1,0.05000,0.02500,0.02500*
1,1,0.05000,0.02500,-0.02500*
1,1,0.05000,-0.02500,-0.02500*
1,1,0.05000,-0.02500,0.02500*
%
%ADD95ROUNDEDRECTD95*%
G04:AMPARAMS|DCode=96|XSize=100mil|YSize=100mil|CornerRadius=12.5mil|HoleSize=0mil|Usage=FLASHONLY|Rotation=90.000|XOffset=0mil|YOffset=0mil|HoleType=Round|Shape=RoundedRectangle|*
%AMROUNDEDRECTD96*
21,1,0.10000,0.07500,0,0,90.0*
21,1,0.07500,0.10000,0,0,90.0*
1,1,0.02500,0.03750,0.03750*
1,1,0.02500,0.03750,-0.03750*
1,1,0.02500,-0.03750,-0.03750*
1,1,0.02500,-0.03750,0.03750*
%
%ADD96ROUNDEDRECTD96*%
%ADD97R,0.05984X0.05984*%
%ADD98C,0.03000*%
%ADD99C,0.02756*%
G36*
X1137034Y0980072D02*
X1137034D01*
X1137709Y0979891D01*
X1138294Y0979734D01*
X1138295Y0979734D01*
X1139022Y0979433D01*
X1139022Y0979433D01*
X1139721Y0979029D01*
X1139587Y0978529D01*
X1131613D01*
X1131478Y0979029D01*
X1132178Y0979433D01*
X1132178Y0979433D01*
X1132178Y0979433D01*
X1132905Y0979734D01*
X1132906D01*
X1132906Y0979734D01*
X1133783Y097997D01*
X1134166Y0980072D01*
X1134947Y0980175D01*
X1136253D01*
X1137034Y0980072D01*
D02*
G37*
G36*
X1163731Y0974971D02*
X1163117Y0974848D01*
X1162538Y0974462D01*
X1157319Y0969242D01*
X1148993D01*
X1148746Y0969742D01*
X1149087Y0970187D01*
X1149489Y0971158D01*
X1149627Y09722D01*
X1149489Y0973242D01*
X1149087Y0974213D01*
X1148506Y0974971D01*
X1148638Y0975471D01*
X1163682D01*
X1163731Y0974971D01*
D02*
G37*
G36*
X1142618Y0975259D02*
X1142694Y0974971D01*
X1142113Y0974213D01*
X1141711Y0973242D01*
X1141573Y09722D01*
X1141711Y0971158D01*
X1142113Y0970187D01*
X1142454Y0969742D01*
X1142207Y0969242D01*
X1141081D01*
X1140056Y0970267D01*
X1139991Y0970358D01*
X113991Y0970497D01*
X1139837Y0970658D01*
X1139771Y0970843D01*
X1139714Y0971054D01*
X1139672Y0971276D01*
X1139616Y0971859D01*
X1139613Y0972095D01*
X1139627Y09722D01*
X1139489Y0973242D01*
X1139087Y0974213D01*
X1138506Y0974971D01*
X1138638Y0975471D01*
X1142483D01*
X1142618Y0975259D01*
D02*
G37*
G36*
X1220368Y0972392D02*
X1220094Y0972381D01*
X1219871Y097235D01*
X1219699Y0972297D01*
X1219578Y0972222D01*
X1219509Y0972127D01*
X121949Y097201D01*
X1219497Y097198D01*
X1219587Y0971933D01*
X1219852Y0971813D01*
X1220142Y0971702D01*
X1220792Y0971505D01*
X1221152Y097142D01*
X1221536Y0971344D01*
X1218068Y0968995D01*
X1218125Y0969332D01*
X1218157Y0969654D01*
X1218163Y0969959D01*
X1218143Y0970249D01*
X1218098Y0970522D01*
X1218027Y097078D01*
X1217931Y0971021D01*
X1217809Y0971247D01*
X1217662Y0971457D01*
X1217605Y097152D01*
X1217591Y0971533D01*
X1217366Y0971713D01*
X1217132Y0971872D01*
X1216889Y097201D01*
X1216637Y0972127D01*
X1216377Y0972222D01*
X1216108Y0972297D01*
X121583Y097235D01*
X1215543Y0972381D01*
X1215247Y0972392D01*
X1217058Y0973892D01*
X1220368Y0972392D01*
D02*
G37*
G36*
X1122694Y0974971D02*
X1122113Y0974213D01*
X1121711Y0973242D01*
X1121573Y09722D01*
X1121711Y0971158D01*
X1121893Y0970717D01*
X1120061Y0968884D01*
X10856D01*
Y0975471D01*
X1122562D01*
X1122694Y0974971D01*
D02*
G37*
G36*
X1138597Y0971804D02*
X1138661Y0971131D01*
X113872Y0970825D01*
X1138797Y0970539D01*
X1138891Y0970274D01*
X1139003Y0970028D01*
X1139134Y0969803D01*
X1139282Y0969598D01*
X1139448Y0969413D01*
X1138387Y0968352D01*
X1138202Y0968518D01*
X1137997Y0968666D01*
X1137772Y0968797D01*
X1137526Y0968909D01*
X1137261Y0969003D01*
X1136975Y096908D01*
X1136669Y0969139D01*
X1136343Y096918D01*
X1135996Y0969203D01*
X113563Y0969208D01*
X1138592Y097217D01*
X1138597Y0971804D01*
D02*
G37*
G36*
X1132694Y0974971D02*
X1132113Y0974213D01*
X1131711Y0973242D01*
X1131573Y09722D01*
X1131711Y0971158D01*
X1132113Y0970187D01*
X1132753Y0969353D01*
X1133587Y0968713D01*
X1134558Y0968311D01*
X11356Y0968173D01*
X1135705Y0968187D01*
X1135955Y0968184D01*
X1136245Y0968165D01*
X1136509Y0968131D01*
X1136746Y0968086D01*
X1136957Y0968029D01*
X1137142Y0967963D01*
X1137303Y096789D01*
X1137442Y0967809D01*
X1137533Y0967744D01*
X113908Y0966196D01*
X1139081Y0966196D01*
X1139478Y0965931D01*
X1139548Y0965407D01*
X113953Y096534D01*
X1138981Y0964919D01*
X1138347Y0964093D01*
X1137949Y0963132D01*
X1137813Y09621D01*
X1137949Y0961068D01*
X1138347Y0960107D01*
X1138838Y0959467D01*
X1138834Y0959312D01*
X1138741Y0958934D01*
X1138696Y0958869D01*
X1137998Y0958402D01*
X1137445Y0957575D01*
X1137251Y09566D01*
X1137445Y0955625D01*
X113749Y0955557D01*
X1137298Y0954945D01*
X113655Y0954546D01*
X1135637Y0953796D01*
X1134887Y0952883D01*
X113433Y095184D01*
X1133987Y0950709D01*
X1133871Y0949533D01*
X1133987Y0948357D01*
X113433Y0947226D01*
X1134887Y0946183D01*
X1135637Y094527D01*
X113655Y094452D01*
X1136703Y0944438D01*
X1136719Y0944423D01*
X1137162Y0944133D01*
X1137528Y0943859D01*
X113784Y0943589D01*
X1138099Y0943325D01*
X1138307Y0943069D01*
X1138468Y0942822D01*
X1138586Y0942585D01*
X1138606Y0942529D01*
X1137294Y0941217D01*
X1137268Y0941196D01*
X113721Y0941155D01*
X1137201Y0941149D01*
X11372Y0941149D01*
X1136225Y0940955D01*
X1135398Y0940402D01*
X1135123Y0939991D01*
X1135111Y0939989D01*
X1135079Y0939984D01*
X11301D01*
X1129417Y0939849D01*
X1128838Y0939462D01*
X112428Y0934904D01*
X1123894Y0934325D01*
X1123758Y0933642D01*
Y0928793D01*
X1123258Y0928546D01*
X1122813Y0928887D01*
X1121842Y0929289D01*
X11208Y0929427D01*
X1119758Y0929289D01*
X1118787Y0928887D01*
X1117953Y0928247D01*
X1117313Y0927413D01*
X1116911Y0926442D01*
X1116773Y09254D01*
X1116911Y0924358D01*
X1117313Y0923387D01*
X1117953Y0922553D01*
X1118787Y0921913D01*
X1119758Y0921511D01*
X11208Y0921373D01*
X1121842Y0921511D01*
X1122813Y0921913D01*
X1123316Y0922298D01*
X1123816Y0922052D01*
Y0917533D01*
X1123316Y0917348D01*
X1122613Y0917887D01*
X1121642Y0918289D01*
X11206Y0918427D01*
X1119558Y0918289D01*
X1118587Y0917887D01*
X1117753Y0917247D01*
X1117113Y0916413D01*
X1116711Y0915442D01*
X1116573Y09144D01*
X1116711Y0913358D01*
X1117113Y0912387D01*
X1117753Y0911553D01*
X1118587Y0910913D01*
X1119558Y0910511D01*
X1120113Y0910437D01*
X1120293Y090991D01*
X1118938Y0908555D01*
X1118552Y0907976D01*
X1118416Y0907294D01*
Y0906853D01*
X1118399Y0906745D01*
X1118358Y0906592D01*
X1118298Y090643D01*
X1118216Y0906256D01*
X111811Y0906071D01*
X1117978Y0905875D01*
X111782Y0905671D01*
X1117633Y0905457D01*
X1117463Y0905282D01*
X1117381Y0905219D01*
X1116747Y0904393D01*
X1116349Y0903432D01*
X1116213Y09024D01*
X1116349Y0901368D01*
X1116747Y0900407D01*
X1117381Y0899581D01*
X1118207Y0898947D01*
X1119168Y0898549D01*
X11202Y0898413D01*
X1121232Y0898549D01*
X1122193Y0898947D01*
X1122916Y0899502D01*
X1123416Y0899344D01*
Y0892939D01*
X1115138Y0884662D01*
X1114752Y0884083D01*
X1114616Y08834D01*
Y0869139D01*
X1113122Y0867646D01*
X1113001Y0867564D01*
X1112854Y0867491D01*
X1112686Y0867432D01*
X1112491Y0867388D01*
X1112265Y0867361D01*
X1112008Y0867356D01*
X1111718Y0867375D01*
X1111396Y0867419D01*
X1111237Y0867452D01*
X1111173Y0867479D01*
X1109998Y0867634D01*
X1108823Y0867479D01*
X1107729Y0867025D01*
X1106789Y0866304D01*
X1106067Y0865364D01*
X1105614Y0864269D01*
X1105459Y0863095D01*
X1105614Y086192D01*
X1106067Y0860825D01*
X1106789Y0859885D01*
X1107729Y0859164D01*
X1108823Y085871D01*
X1109998Y0858556D01*
X1111173Y085871D01*
X1112267Y0859164D01*
X1113207Y0859885D01*
X1113929Y0860825D01*
X1114382Y086192D01*
X1114407Y0862107D01*
X1114409Y0862112D01*
X1114636Y0863044D01*
X1114746Y0863419D01*
X1114987Y0864102D01*
X1115101Y0864362D01*
X1115216Y0864588D01*
X1115325Y0864771D01*
X1115406Y0864882D01*
X1117662Y0867138D01*
X1117662Y0867138D01*
X1118048Y0867717D01*
X1118184Y08684D01*
X1118184Y08684D01*
Y0882661D01*
X1126462Y0890938D01*
X1126849Y0891517D01*
X1126984Y08922D01*
X1126984Y08922D01*
Y0899344D01*
D01*
D01*
X1127484Y0899502D01*
D01*
X1128085Y0899041D01*
X1128207Y0898947D01*
X1129168Y0898549D01*
X11302Y0898413D01*
X1131232Y0898549D01*
X1132193Y0898947D01*
X1132916Y0899502D01*
X1133416Y0899344D01*
Y0889539D01*
X1125887Y0882011D01*
X11255Y0881432D01*
X1125365Y0880749D01*
Y0867288D01*
X1125342Y0867266D01*
X1125226Y0867188D01*
X1125097Y0867126D01*
X1124958Y0867082D01*
X1124799Y0867055D01*
X1124615Y0867047D01*
X1124402Y0867062D01*
X1124158Y0867106D01*
X1123884Y0867181D01*
X1123547Y0867303D01*
X1123529Y0867305D01*
D01*
X1123472Y0867314D01*
X1123074Y0867479D01*
X1121939Y0867628D01*
D01*
X1121899Y0867634D01*
X1120724Y0867479D01*
X111963Y0867025D01*
X111869Y0866304D01*
X1117968Y0865364D01*
X1117515Y0864269D01*
X111736Y0863095D01*
X1117515Y086192D01*
X1117968Y0860825D01*
X111869Y0859885D01*
X111923Y0859471D01*
X1119301Y0859416D01*
X111963Y0859164D01*
X1120724Y085871D01*
X1121899Y0858556D01*
X1123074Y085871D01*
X1124168Y0859164D01*
X1125109Y0859885D01*
X112583Y0860825D01*
X1126066Y0861396D01*
X1126118Y0861476D01*
X112668Y0862867D01*
X1127001Y0863556D01*
X1127286Y0864079D01*
X1127397Y0864251D01*
X1127461Y0864338D01*
X1128411Y0865287D01*
X1128798Y0865866D01*
X1128933Y0866549D01*
Y088001D01*
X1136462Y0887538D01*
X1136462Y0887538D01*
X1136849Y0888117D01*
X1136984Y08888D01*
X1136984Y08888D01*
Y0899344D01*
D01*
D01*
X113739Y0899491D01*
X1137484Y0899496D01*
X1137633Y0899343D01*
X1137819Y0899129D01*
X1137978Y0898925D01*
X113811Y0898729D01*
X1138216Y0898544D01*
X1138298Y089837D01*
X1138358Y0898207D01*
X1138399Y0898055D01*
X1138416Y0897947D01*
Y0870234D01*
X1136321Y0868139D01*
X1136198Y0868054D01*
X1136028Y0867962D01*
X1135824Y0867876D01*
X1135583Y0867798D01*
X1135307Y0867732D01*
X1135008Y0867681D01*
X1134249Y0867619D01*
X1133939Y0867615D01*
X11338Y0867634D01*
X1132913Y0867517D01*
D01*
X1132625Y0867479D01*
D01*
X1131531Y0867025D01*
X1130591Y0866304D01*
X1129869Y0865364D01*
X1129416Y0864269D01*
X1129261Y0863095D01*
X1129416Y086192D01*
X1129869Y0860825D01*
X1130591Y0859885D01*
X1131531Y0859164D01*
X1132625Y085871D01*
X11338Y0858556D01*
X1134975Y085871D01*
X1136069Y0859164D01*
X113701Y0859885D01*
X1137731Y0860825D01*
X1138184Y086192D01*
X1138339Y0863095D01*
X1138323Y0863216D01*
X1138347Y0863953D01*
X1138384Y0864289D01*
X1138437Y0864602D01*
X1138503Y0864878D01*
X1138581Y0865118D01*
X1138667Y0865322D01*
X1138759Y0865493D01*
X1138845Y0865616D01*
X1141462Y0868233D01*
X1141848Y0868812D01*
X1141984Y0869495D01*
X1141984Y0869495D01*
Y0897947D01*
X1142001Y0898055D01*
X1142042Y0898207D01*
X1142102Y089837D01*
X1142184Y0898544D01*
X114229Y0898729D01*
X1142422Y0898925D01*
X114258Y0899129D01*
X1142767Y0899343D01*
X1142937Y0899518D01*
X1143019Y0899581D01*
X1143653Y0900407D01*
X1144051Y0901368D01*
X1144187Y09024D01*
X1144051Y0903432D01*
X114375Y0904159D01*
X1143739Y0904202D01*
X1143677Y0904336D01*
X1143653Y0904393D01*
X1143645Y0904404D01*
X1143634Y0904426D01*
X1143578Y0904587D01*
X1143547Y0904722D01*
X1143535Y0904833D01*
X1143539Y0904927D01*
X1143555Y090501D01*
X1143583Y0905093D01*
X1143629Y0905182D01*
X1143684Y0905261D01*
X1149162Y0910738D01*
X1149202Y0910798D01*
X1149262Y0910838D01*
X1149648Y0911417D01*
X1149784Y09121D01*
Y0945178D01*
X1150272Y094529D01*
X1150591Y0944634D01*
X1151077Y0943522D01*
X1151392Y0942678D01*
X1151477Y0942393D01*
X1151516Y0942212D01*
Y0911039D01*
X1149538Y0909062D01*
X1149152Y0908483D01*
X1149016Y09078D01*
Y0906949D01*
X1148998Y0906846D01*
X114896Y0906718D01*
X1148905Y0906591D01*
X1148831Y0906461D01*
X1148733Y0906326D01*
X1148609Y0906186D01*
X1148455Y0906041D01*
X114827Y0905893D01*
X1148221Y0905859D01*
X1148207Y0905853D01*
X1148155Y0905813D01*
X1148026Y0905724D01*
X1147988Y0905685D01*
X1147381Y0905219D01*
X1146747Y0904393D01*
X1146349Y0903432D01*
X1146213Y09024D01*
X1146349Y0901368D01*
X1146747Y0900407D01*
X1147381Y0899581D01*
X1148207Y0898947D01*
X1149168Y0898549D01*
X11502Y0898413D01*
X1151232Y0898549D01*
X1152193Y0898947D01*
X1153019Y0899581D01*
X1153653Y0900407D01*
X1154051Y0901368D01*
X1154187Y09024D01*
X1154051Y0903432D01*
X1153653Y0904393D01*
X1153522Y0904564D01*
X1153508Y0904599D01*
X1153308Y0904907D01*
X1153146Y0905179D01*
X1152868Y0905712D01*
X1152773Y0905933D01*
X1152695Y0906146D01*
X1152637Y090634D01*
X1152598Y0906514D01*
X1152584Y0906615D01*
Y0907061D01*
X1154562Y0909038D01*
X1154562Y0909038D01*
X1154949Y0909617D01*
X1155084Y09103D01*
Y0941755D01*
X1155091Y0941834D01*
X1155144Y0942057D01*
X1155237Y0942284D01*
X1155377Y0942521D01*
X1155573Y094277D01*
X1155829Y094303D01*
X1156151Y0943298D01*
X1156539Y094357D01*
X1156995Y0943842D01*
X1157541Y0944124D01*
X1157607Y0944177D01*
X115825Y094452D01*
X1159163Y094527D01*
X1159913Y0946183D01*
X116047Y0947226D01*
X1160813Y0948357D01*
X1160929Y0949533D01*
X1160813Y0950709D01*
X116047Y095184D01*
X1159913Y0952883D01*
X1159163Y0953796D01*
X115825Y0954546D01*
X1157207Y0955103D01*
X1156076Y0955446D01*
X1155662Y0955487D01*
X1155601Y095551D01*
X115559Y095551D01*
X115558Y0955514D01*
X1155077Y0955587D01*
X1154683Y095568D01*
X1154364Y0955793D01*
X1154117Y0955919D01*
X1153934Y0956049D01*
X1153803Y0956181D01*
X1153708Y0956322D01*
X1153638Y0956485D01*
X115359Y095669D01*
X1153584Y0956774D01*
Y0957647D01*
X1153601Y0957755D01*
X1153642Y0957907D01*
X1153702Y095807D01*
X1153784Y0958244D01*
X115389Y0958429D01*
X1154022Y0958625D01*
X115418Y0958829D01*
X1154367Y0959043D01*
X1154537Y0959218D01*
X1154619Y0959281D01*
X1155253Y0960107D01*
X1155651Y0961068D01*
X1155787Y09621D01*
X1155651Y0963132D01*
X1155253Y0964093D01*
X1154619Y0964919D01*
X1154288Y0965174D01*
X1154457Y0965674D01*
X1158058D01*
X1158741Y0965809D01*
X1159319Y0966196D01*
X1164539Y0971416D01*
X1180709D01*
X1181Y0971358D01*
X1207607D01*
X1207854Y0970858D01*
X1207513Y0970413D01*
X1207111Y0969442D01*
X1206973Y09684D01*
X1207111Y0967358D01*
X1207513Y0966387D01*
X1208153Y0965553D01*
X1208987Y0964913D01*
X1209958Y0964511D01*
X1211Y0964373D01*
X1212042Y0964511D01*
X1213013Y0964913D01*
X1213847Y0965553D01*
X1214487Y0966387D01*
X1214889Y0967358D01*
X1215027Y09684D01*
X1214889Y0969442D01*
X1214487Y0970413D01*
X1214146Y0970858D01*
X1214393Y0971358D01*
X1215523D01*
X1215678Y0971341D01*
X1215876Y0971303D01*
X1216065Y0971251D01*
X1216247Y0971184D01*
X1216422Y0971103D01*
X1216593Y0971006D01*
X121676Y0970892D01*
X1216879Y0970797D01*
X121694Y097071D01*
X1217006Y0970589D01*
X1217059Y0970455D01*
X1217101Y0970304D01*
X1217129Y0970131D01*
X1217142Y0969935D01*
X1217138Y0969714D01*
X1217114Y0969468D01*
X1217062Y0969166D01*
X1217064Y0969092D01*
X1216973Y09684D01*
X1217111Y0967358D01*
X1217513Y0966387D01*
X1218153Y0965553D01*
X1218987Y0964913D01*
X1219958Y0964511D01*
X1221Y0964373D01*
X1222042Y0964511D01*
X1223013Y0964913D01*
X1223847Y0965553D01*
X1224487Y0966387D01*
X1224889Y0967358D01*
X1225027Y09684D01*
X1224889Y0969442D01*
X1224487Y0970413D01*
X1224146Y0970858D01*
X1224393Y0971358D01*
X1227607D01*
X1227854Y0970858D01*
X1227513Y0970413D01*
X1227111Y0969442D01*
X1226973Y09684D01*
X1226987Y0968295D01*
X1226984Y0968045D01*
X1226964Y0967755D01*
X1226931Y0967491D01*
X1226886Y0967254D01*
X1226829Y0967043D01*
X1226763Y0966858D01*
X122669Y0966697D01*
X1226609Y0966558D01*
X1226544Y0966467D01*
X1222738Y0962662D01*
X1222351Y0962083D01*
X1222216Y09614D01*
Y0957316D01*
X1222212Y0957271D01*
X1222159Y0957036D01*
X122206Y0956753D01*
X1221908Y0956427D01*
X12217Y095606D01*
X1221435Y0955658D01*
X1221119Y0955232D01*
X1220288Y0954259D01*
X1219888Y0953838D01*
X1219838Y0953796D01*
X1219088Y0952883D01*
X1218531Y095184D01*
X1218188Y0950709D01*
X1218072Y0949533D01*
X1218188Y0948357D01*
X1218531Y0947226D01*
X1219088Y0946183D01*
X1219838Y094527D01*
X1219912Y0945209D01*
X1220378Y0944737D01*
X1221215Y0943789D01*
X1221533Y0943373D01*
X1221799Y094298D01*
X1222008Y094262D01*
X122216Y0942298D01*
X122226Y0942017D01*
X1222313Y0941782D01*
X1222317Y0941734D01*
Y0933017D01*
X1222313Y0932985D01*
X1222302Y0932915D01*
X1222299Y0932903D01*
X1222298Y0932902D01*
X1221745Y0932075D01*
X1221551Y09311D01*
X1221745Y0930125D01*
X1222298Y0929298D01*
X1222298Y0929297D01*
X1222301Y0929286D01*
X122231Y0929228D01*
X1222316Y0929162D01*
Y09249D01*
Y0924012D01*
X1222451Y0923329D01*
X1222838Y092275D01*
X1223058Y092253D01*
X1222867Y0922069D01*
X1219631D01*
Y0921271D01*
X1219131Y0921154D01*
X1219092Y0921235D01*
X1219075Y092126D01*
X1219075Y092126D01*
X1218909Y0921508D01*
X1218804Y0921818D01*
X1218659Y0922112D01*
X1218659Y0922112D01*
X1218659Y0922112D01*
X1218595Y0922434D01*
X121849Y0922744D01*
X1218432Y0923036D01*
X121841Y0923363D01*
X1218346Y0923685D01*
X1218357Y0923849D01*
X1218336Y0924012D01*
Y09249D01*
X1212784D01*
Y09331D01*
X1212648Y0933783D01*
X1212262Y0934362D01*
X1212262Y0934362D01*
X1204135Y0942488D01*
Y0952627D01*
X1204135Y0952627D01*
X1204Y095331D01*
X1203613Y0953889D01*
X1203613Y0953889D01*
X1195262Y096224D01*
X1194683Y0962626D01*
X1194Y0962762D01*
X1173462D01*
Y0962772D01*
X1166738D01*
Y0957228D01*
X1173462D01*
Y0959194D01*
X1193261D01*
X1197217Y0955238D01*
X1196916Y0954832D01*
X1196408Y0955103D01*
X1195277Y0955446D01*
X1194101Y0955562D01*
X1192925Y0955446D01*
X1191794Y0955103D01*
X1190751Y0954546D01*
X1189838Y0953796D01*
X1189088Y0952883D01*
X1188531Y095184D01*
X1188188Y0950709D01*
X1188072Y0949533D01*
X1188188Y0948357D01*
X1188531Y0947226D01*
X1189088Y0946183D01*
X1189838Y094527D01*
X1189907Y0945213D01*
X1190224Y0944883D01*
X1190522Y0944533D01*
X1190779Y0944185D01*
X1190998Y0943839D01*
X1191179Y0943494D01*
X1191326Y0943151D01*
X1191438Y0942808D01*
X1191517Y0942464D01*
X1191552Y0942208D01*
Y0927092D01*
X11915Y0927049D01*
X1190849Y092692D01*
X119D01*
X118961Y0926842D01*
X1189279Y0926621D01*
X1189058Y092629D01*
X118898Y09259D01*
Y0925399D01*
X118375D01*
X1182775Y0925205D01*
X1181948Y0924652D01*
X1178713Y0921417D01*
X1178312Y0920818D01*
X1175015D01*
Y0908582D01*
X1175451D01*
Y090135D01*
X11745D01*
Y089385D01*
X1175451D01*
Y0890603D01*
X1175351Y08901D01*
X1175451Y0889597D01*
Y08854D01*
X1165495D01*
Y08734D01*
X1167861D01*
Y08554D01*
X1168016Y0854225D01*
X1168469Y0853131D01*
X1169191Y0852191D01*
X1170022Y0851552D01*
Y0851322D01*
X1169988Y085115D01*
Y0850672D01*
X1170022Y08505D01*
Y08494D01*
X1170526D01*
X1171089Y0849024D01*
X1171772Y0848888D01*
X1172455Y0849024D01*
X1173018Y08494D01*
X1174778D01*
Y0851552D01*
X1175609Y0852191D01*
X1176331Y0853131D01*
X1176784Y0854225D01*
X1176939Y08554D01*
Y08734D01*
X1179305D01*
Y0881795D01*
X1179802Y0882292D01*
X1180355Y0883119D01*
X1180549Y0884095D01*
Y089385D01*
X11815D01*
Y090135D01*
X1180549D01*
Y0908582D01*
X1183D01*
X11835Y0908546D01*
X11835Y0904471D01*
X1183398Y0904402D01*
X1182845Y0903575D01*
X1182651Y09026D01*
X1182845Y0901625D01*
X1183398Y0900798D01*
X11835Y0900729D01*
Y0899138D01*
X1182998Y0898802D01*
X1182445Y0897975D01*
X1182251Y0897D01*
X1182445Y0896025D01*
X1182998Y0895198D01*
X1182998Y0895197D01*
X1183001Y0895186D01*
X118301Y0895128D01*
X1183016Y0895062D01*
Y08917D01*
X1183152Y0891017D01*
X11835Y0890496D01*
X11835Y08614D01*
X1179077D01*
Y085626D01*
X1178906Y08554D01*
Y0845911D01*
X1176945Y084395D01*
X11736D01*
Y0839196D01*
X1173551Y083895D01*
Y0836756D01*
X1170644Y0833849D01*
X1141824D01*
X1141725Y0834349D01*
X1142848Y0834814D01*
X1143944Y0835656D01*
X1144786Y0836752D01*
X1145315Y0838029D01*
X1145495Y08394D01*
X1145315Y0840771D01*
X1144786Y0842048D01*
X1143944Y0843144D01*
X1142848Y0843986D01*
X1142749Y0844027D01*
Y0846573D01*
X1142848Y0846614D01*
X1143944Y0847456D01*
X1144786Y0848552D01*
X1145315Y0849829D01*
X1145495Y08512D01*
X1145315Y0852571D01*
X1144786Y0853848D01*
X1143944Y0854944D01*
X1142848Y0855786D01*
X114157Y0856315D01*
X11402Y0856495D01*
X113883Y0856315D01*
X1137552Y0855786D01*
X1136456Y0854944D01*
X1135614Y0853848D01*
X1135085Y0852571D01*
X1134905Y08512D01*
X1135085Y0849829D01*
X1135614Y0848552D01*
X1136456Y0847456D01*
X1137552Y0846614D01*
X1137651Y0846573D01*
Y0844027D01*
X1137552Y0843986D01*
X1136456Y0843144D01*
X1135614Y0842048D01*
X1135085Y0840771D01*
X1134905Y08394D01*
X1135085Y0838029D01*
X1135614Y0836752D01*
X1136456Y0835656D01*
X1137552Y0834814D01*
X1138675Y0834349D01*
X1138576Y0833849D01*
X1111824D01*
X1111725Y0834349D01*
X1112848Y0834814D01*
X1113944Y0835656D01*
X1114786Y0836752D01*
X1115315Y0838029D01*
X1115495Y08394D01*
X1115315Y0840771D01*
X1114786Y0842048D01*
X1113944Y0843144D01*
X1112848Y0843986D01*
X111157Y0844515D01*
X11102Y0844695D01*
X1108829Y0844515D01*
X1107552Y0843986D01*
X1106456Y0843144D01*
X1105614Y0842048D01*
X1105085Y0840771D01*
X1104905Y08394D01*
X1105085Y0838029D01*
X1105614Y0836752D01*
X1106456Y0835656D01*
X1107552Y0834814D01*
X1108675Y0834349D01*
X1108576Y0833849D01*
X1102556D01*
X1093249Y0843156D01*
Y0844403D01*
X1093474Y0844496D01*
X1094623Y0845377D01*
X1095504Y0846526D01*
X1096058Y0847864D01*
X1096247Y08493D01*
X1096058Y0850736D01*
X1095504Y0852074D01*
X1094623Y0853223D01*
X1093474Y0854104D01*
X1092136Y0854658D01*
X10907Y0854848D01*
X1089264Y0854658D01*
X1087926Y0854104D01*
X1086777Y0853223D01*
X10861Y085234D01*
X10856Y085251D01*
X10856Y0934616D01*
X10952D01*
X1095883Y0934752D01*
X1096462Y0935138D01*
X1104062Y0942738D01*
X1104062Y0942738D01*
X1104449Y0943317D01*
X1104584Y0944D01*
Y09565D01*
X1104449Y0957183D01*
X1104062Y0957762D01*
X1100962Y0960862D01*
X1100383Y0961248D01*
X11Y0961325D01*
Y0965316D01*
X1118744D01*
X1118902Y0964816D01*
X1118347Y0964093D01*
X1117949Y0963132D01*
X1117813Y09621D01*
X1117949Y0961068D01*
X1118347Y0960107D01*
X1118981Y0959281D01*
X1119807Y0958647D01*
X1120768Y0958249D01*
X11218Y0958113D01*
X1122832Y0958249D01*
X1123793Y0958647D01*
X1124619Y0959281D01*
X1125253Y0960107D01*
X1125651Y0961068D01*
X1125787Y09621D01*
X1125651Y0963132D01*
X1125253Y0964093D01*
X1124619Y0964919D01*
X1123793Y0965553D01*
X1122832Y0965951D01*
X1122811Y0965954D01*
X1122651Y0966427D01*
X1124541Y0968318D01*
X1124558Y0968311D01*
X11256Y0968173D01*
X1126642Y0968311D01*
X1127613Y0968713D01*
X1128447Y0969353D01*
X1129087Y0970187D01*
X1129489Y0971158D01*
X1129627Y09722D01*
X1129489Y0973242D01*
X1129087Y0974213D01*
X1128506Y0974971D01*
X1128638Y0975471D01*
X1132562D01*
X1132694Y0974971D01*
D02*
G37*
G36*
X123097Y0965408D02*
X1230604Y0965403D01*
X1229931Y0965339D01*
X1229625Y096528D01*
X1229339Y0965203D01*
X1229074Y0965109D01*
X1228828Y0964997D01*
X1228603Y0964866D01*
X1228398Y0964718D01*
X1228213Y0964552D01*
X1227152Y0965613D01*
X1227318Y0965798D01*
X1227466Y0966003D01*
X1227596Y0966228D01*
X1227709Y0966474D01*
X1227803Y0966739D01*
X122788Y0967025D01*
X1227939Y0967331D01*
X122798Y0967657D01*
X1228003Y0968004D01*
X1228008Y096837D01*
X123097Y0965408D01*
D02*
G37*
G36*
X1238666Y0968411D02*
Y0955577D01*
X1235351D01*
X1234473Y0955402D01*
X1233729Y0954905D01*
X1233232Y0954161D01*
X1233057Y0953283D01*
Y0945783D01*
X1233232Y0944905D01*
X1233729Y0944161D01*
X1234473Y0943664D01*
X1235351Y0943489D01*
X1237801D01*
X1237808Y0943451D01*
X1237816Y0943359D01*
Y0930817D01*
X1237812Y0930784D01*
X1237801Y0930714D01*
X1237798Y0930703D01*
X1237798Y0930702D01*
X1237245Y0929875D01*
X1237051Y09289D01*
X1237245Y0927925D01*
X1237798Y0927098D01*
X1237798Y0927097D01*
X1237801Y0927086D01*
X123781Y0927028D01*
X1237816Y0926962D01*
Y09249D01*
Y0924396D01*
X1237476Y0924202D01*
X1237328Y0924177D01*
X1236802Y0924702D01*
X1235975Y0925255D01*
X1235Y0925449D01*
X1234336Y0925317D01*
X1234025Y0925255D01*
X1233493Y09249D01*
X1231256D01*
X1231454Y0924675D01*
X1231619Y0924427D01*
X1231764Y0924133D01*
X123178Y0924109D01*
X123178Y0924109D01*
X1231946Y092386D01*
X1232051Y092355D01*
X1232197Y0923256D01*
X123226Y0922935D01*
X1232366Y0922624D01*
X1232377Y0922569D01*
X1232044Y0922069D01*
X1228384D01*
X1228017Y0922618D01*
X1225884Y0924751D01*
Y09249D01*
Y0929183D01*
X1225888Y0929216D01*
X1225899Y0929286D01*
X1225902Y0929297D01*
X1225902Y0929298D01*
X1226455Y0930125D01*
X1226649Y09311D01*
X1226455Y0932075D01*
X1225903Y0932902D01*
X12259Y0932913D01*
X1225891Y0932971D01*
X1225885Y0933037D01*
Y0941734D01*
X1225889Y0941782D01*
X1225942Y0942017D01*
X1226042Y0942298D01*
X1226194Y094262D01*
X1226403Y094298D01*
X1226669Y0943373D01*
X1226987Y0943789D01*
X1227682Y0944576D01*
X1227824Y0944737D01*
X122829Y0945209D01*
X1228364Y094527D01*
X1229114Y0946183D01*
X1229671Y0947226D01*
X1230014Y0948357D01*
X123013Y0949533D01*
X1230014Y0950709D01*
X1229671Y095184D01*
X1229114Y0952883D01*
X1228364Y0953796D01*
X1228248Y0953891D01*
X1228239Y0953904D01*
X1227733Y0954397D01*
X1226889Y0955321D01*
X1226571Y0955726D01*
X1226303Y0956111D01*
X1226094Y0956465D01*
X1225942Y0956782D01*
X1225842Y095706D01*
X1225788Y0957295D01*
X1225784Y0957346D01*
Y0960661D01*
X1229067Y0963944D01*
X1229158Y0964009D01*
X1229297Y096409D01*
X1229458Y0964163D01*
X1229643Y0964229D01*
X1229854Y0964286D01*
X1230076Y0964328D01*
X1230659Y0964384D01*
X1230895Y0964387D01*
X1231Y0964373D01*
X1232042Y0964511D01*
X1233013Y0964913D01*
X1233068Y0964954D01*
D01*
X1233847Y0965553D01*
X1234487Y0966387D01*
X1234889Y0967358D01*
X1235027Y09684D01*
X1234889Y0969442D01*
X1234487Y0970413D01*
X1234146Y0970858D01*
X1234393Y0971358D01*
X1235719D01*
X1238666Y0968411D01*
D02*
G37*
G36*
X1149312Y0965174D02*
X1148981Y0964919D01*
X1148347Y0964093D01*
X1147949Y0963132D01*
X1147813Y09621D01*
X1147817Y0962069D01*
X1147488Y0961693D01*
X1146131D01*
X1145787Y09621D01*
X1145651Y0963132D01*
X1145253Y0964093D01*
X1144619Y0964919D01*
X1144287Y0965174D01*
X1144457Y0965674D01*
X1149143D01*
X1149312Y0965174D01*
D02*
G37*
G36*
X1144758Y0961711D02*
X1144781Y0961372D01*
X1144821Y0961052D01*
X114488Y0960751D01*
X1144956Y096047D01*
X114505Y0960209D01*
X1145161Y0959967D01*
X1145291Y0959744D01*
X1145438Y0959542D01*
X1145603Y0959358D01*
X1144542Y0958298D01*
X1144358Y0958462D01*
X1144156Y0958609D01*
X1143933Y0958739D01*
X1143691Y095885D01*
X114343Y0958944D01*
X1143149Y095902D01*
X1142848Y0959079D01*
X1142528Y0959119D01*
X1142189Y0959142D01*
X1141829Y0959147D01*
X1144753Y096207D01*
X1144758Y0961711D01*
D02*
G37*
G36*
X1153617Y0959734D02*
X1153393Y0959478D01*
X1153195Y0959223D01*
X1153024Y0958969D01*
X1152879Y0958716D01*
X1152761Y0958465D01*
X1152668Y0958215D01*
X1152603Y0957966D01*
X1152563Y0957719D01*
X115255Y0957472D01*
X115105D01*
X1151037Y0957719D01*
X1150997Y0957966D01*
X1150931Y0958215D01*
X1150839Y0958465D01*
X1150721Y0958716D01*
X1150576Y0958969D01*
X1150405Y0959223D01*
X1150207Y0959478D01*
X1149983Y0959734D01*
X1149733Y0959991D01*
X1153867D01*
X1153617Y0959734D01*
D02*
G37*
G36*
X1088Y095785D02*
X1096328D01*
X10965Y0957816D01*
X1098961D01*
X1101016Y0955761D01*
Y0953757D01*
X1100516Y0953657D01*
X1100457Y0953798D01*
X1099896Y0954529D01*
X1099165Y095509D01*
X1098314Y0955443D01*
X10974Y0955563D01*
X10924D01*
X1091486Y0955443D01*
X1090635Y095509D01*
X1089904Y0954529D01*
X1089343Y0953798D01*
X108899Y0952947D01*
X1088912Y0952356D01*
X10856D01*
X10856Y0964832D01*
X1086084Y0965316D01*
X1088D01*
Y095785D01*
D02*
G37*
G36*
X1224778Y0957141D02*
X1224861Y0956773D01*
X1225Y0956388D01*
X1225194Y0955983D01*
X1225445Y0955561D01*
X122575Y095512D01*
X1226111Y0954661D01*
X1227Y0953688D01*
X1227528Y0953174D01*
X122053Y0953032D01*
X1221047Y0953576D01*
X1221917Y0954597D01*
X1222271Y0955074D01*
X122257Y0955527D01*
X1222815Y0955959D01*
X1223005Y0956368D01*
X1223141Y0956755D01*
X1223223Y0957119D01*
X122325Y095746D01*
X122475Y0957491D01*
X1224778Y0957141D01*
D02*
G37*
G36*
X1152579Y0956538D02*
X1152665Y0956166D01*
X1152809Y0955831D01*
X1153011Y0955532D01*
X1153271Y0955269D01*
X1153588Y0955044D01*
X1153962Y0954854D01*
X1154395Y0954701D01*
X1154885Y0954585D01*
X1155432Y0954505D01*
X1150027Y0950653D01*
X115105Y0955723D01*
X115255Y0956946D01*
X1152579Y0956538D01*
D02*
G37*
G36*
X1075771Y094995D02*
X1075654Y0950035D01*
X1075517Y0950077D01*
X1075358D01*
X1075177Y0950035D01*
X1074976Y094995D01*
X1074753Y0949823D01*
X1074509Y0949653D01*
X1074244Y0949441D01*
X107365Y0948889D01*
X1072589Y094995D01*
X1072886Y0950257D01*
X1073353Y0950809D01*
X1073522Y0951053D01*
X107365Y0951276D01*
X1073735Y0951477D01*
X1073777Y0951657D01*
Y0951817D01*
X1073735Y0951954D01*
X107365Y0952071D01*
X1075771Y094995D01*
D02*
G37*
G36*
X1068172D02*
X1068056Y0950035D01*
X1067918Y0950077D01*
X1067758D01*
X1067578Y0950035D01*
X1067377Y094995D01*
X1067154Y0949823D01*
X106691Y0949653D01*
X1066645Y0949441D01*
X1066051Y0948889D01*
X106499Y094995D01*
X1065287Y0950257D01*
X1065754Y0950809D01*
X1065924Y0951053D01*
X1066051Y0951276D01*
X1066136Y0951477D01*
X1066178Y0951657D01*
Y0951817D01*
X1066136Y0951954D01*
X1066051Y0952071D01*
X1068172Y094995D01*
D02*
G37*
G36*
X1059571D02*
X1059454Y0950035D01*
X1059317Y0950077D01*
X1059157D01*
X1058977Y0950035D01*
X1058776Y094995D01*
X1058553Y0949823D01*
X1058309Y0949653D01*
X1058044Y0949441D01*
X105745Y0948889D01*
X1056389Y094995D01*
X1056686Y0950257D01*
X1057153Y0950809D01*
X1057323Y0951053D01*
X105745Y0951276D01*
X1057535Y0951477D01*
X1057577Y0951657D01*
Y0951817D01*
X1057535Y0951954D01*
X105745Y0952071D01*
X1059571Y094995D01*
D02*
G37*
G36*
X1052658Y0949947D02*
X105253Y0949901D01*
X1052417Y0949826D01*
X105232Y094972D01*
X1052238Y0949584D01*
X105217Y0949417D01*
X1052118Y0949221D01*
X105208Y0948994D01*
X1052057Y0948737D01*
X105205Y094845D01*
X105055D01*
X1050543Y0948737D01*
X105052Y0948994D01*
X1050482Y0949221D01*
X105043Y0949417D01*
X1050362Y0949584D01*
X105028Y094972D01*
X1050183Y0949826D01*
X105007Y0949901D01*
X1049942Y0949947D01*
X10498Y0949962D01*
X10528D01*
X1052658Y0949947D01*
D02*
G37*
G36*
X1240958Y0944531D02*
X124083Y0944486D01*
X1240718Y094441D01*
X124062Y0944304D01*
X1240537Y0944168D01*
X124047Y0944002D01*
X1240417Y0943806D01*
X124038Y0943579D01*
X1240357Y0943322D01*
X124035Y0943034D01*
X123885D01*
X1238842Y0943322D01*
X123882Y0943579D01*
X1238783Y0943806D01*
X123873Y0944002D01*
X1238663Y0944168D01*
X123858Y0944304D01*
X1238482Y094441D01*
X123837Y0944486D01*
X1238243Y0944531D01*
X12381Y0944546D01*
X12411D01*
X1240958Y0944531D01*
D02*
G37*
G36*
X1143041Y0945578D02*
X1142333Y094471D01*
X1142046Y0944287D01*
X1141803Y0943871D01*
X1141604Y0943462D01*
X1141449Y0943061D01*
X1141338Y0942667D01*
X1141272Y094228D01*
X114125Y09419D01*
X113975D01*
X1139725Y0942267D01*
X1139651Y0942628D01*
X1139528Y0942982D01*
X1139355Y094333D01*
X1139132Y094367D01*
X113886Y0944005D01*
X1138539Y0944333D01*
X1138168Y0944654D01*
X1137748Y0944968D01*
X1137278Y0945276D01*
X1143461Y0946023D01*
X1143041Y0945578D01*
D02*
G37*
G36*
X1197221Y0945568D02*
X1196881Y0945167D01*
X1196581Y0944761D01*
X1196321Y0944349D01*
X1196101Y0943932D01*
X1195921Y094351D01*
X1195781Y0943081D01*
X1195681Y0942648D01*
X1195621Y0942208D01*
X1195601Y0941763D01*
X1192601D01*
X1192581Y0942208D01*
X1192521Y0942648D01*
X1192421Y0943081D01*
X1192281Y094351D01*
X1192101Y0943932D01*
X1191881Y0944349D01*
X1191621Y0944761D01*
X1191321Y0945167D01*
X1190981Y0945568D01*
X1190601Y0945962D01*
X1197601D01*
X1197221Y0945568D01*
D02*
G37*
G36*
X1157073Y094503D02*
X1156499Y0944733D01*
X1155985Y0944426D01*
X1155531Y0944109D01*
X1155138Y0943782D01*
X1154806Y0943444D01*
X1154534Y0943097D01*
X1154322Y0942739D01*
X1154171Y0942372D01*
X115408Y0941994D01*
X115405Y0941606D01*
X115255Y094212D01*
X1152529Y094235D01*
X1152466Y0942644D01*
X115236Y0943002D01*
X1152023Y0943905D01*
X1151517Y0945062D01*
X1150441Y094727D01*
X1157073Y094503D01*
D02*
G37*
G36*
X1227079Y0945433D02*
X1226198Y0944437D01*
X1225841Y0943969D01*
X1225539Y0943521D01*
X1225291Y0943094D01*
X1225099Y0942688D01*
X1224961Y0942301D01*
X1224879Y0941935D01*
X1224851Y094159D01*
X1223351D01*
X1223324Y0941935D01*
X1223241Y0942301D01*
X1223104Y0942688D01*
X1222911Y0943094D01*
X1222663Y0943521D01*
X1222361Y0943969D01*
X1222003Y0944437D01*
X1221124Y0945433D01*
X1220601Y0945962D01*
X1227601D01*
X1227079Y0945433D01*
D02*
G37*
G36*
X1139285Y0939625D02*
X1139173Y0939508D01*
X1138985Y0939286D01*
X1138909Y093918D01*
X1138844Y0939077D01*
X1138792Y0938978D01*
X1138751Y0938882D01*
X1138722Y093879D01*
X1138705Y0938701D01*
X11387Y0938615D01*
X1137215Y09401D01*
X1137301Y0940105D01*
X113739Y0940122D01*
X1137482Y0940151D01*
X1137578Y0940192D01*
X1137677Y0940244D01*
X113778Y0940309D01*
X1137886Y0940385D01*
X1137996Y0940473D01*
X1138225Y0940685D01*
X1139285Y0939625D01*
D02*
G37*
G36*
X108887Y0947033D02*
X108899Y0946119D01*
X1089343Y0945268D01*
X1089904Y0944537D01*
X1090635Y0943976D01*
X1091486Y0943623D01*
X10924Y0943503D01*
X10974D01*
X1098314Y0943623D01*
X1099165Y0943976D01*
X1099896Y0944537D01*
X1100457Y0945268D01*
X1100516Y0945409D01*
X1101016Y094531D01*
Y0944739D01*
X1094461Y0938184D01*
X10856D01*
Y0948787D01*
X108887D01*
Y0947033D01*
D02*
G37*
G36*
X1136448Y0937302D02*
X1136391Y093733D01*
X1136322Y0937356D01*
X1136241Y0937378D01*
X1136148Y0937397D01*
X1135925Y0937426D01*
X1135655Y0937444D01*
X1135337Y093745D01*
X1134841Y093895D01*
X1135003Y0938954D01*
X1135151Y0938965D01*
X1135287Y0938984D01*
X1135411Y093901D01*
X1135522Y0939044D01*
X113562Y0939085D01*
X1135706Y0939134D01*
X1135779Y0939191D01*
X113584Y0939255D01*
X1135888Y0939326D01*
X1136448Y0937302D01*
D02*
G37*
G36*
X1146216Y0947961D02*
Y0931263D01*
Y0912839D01*
X1140638Y0907262D01*
X1140565Y0907189D01*
X1140327Y0907001D01*
X1140178Y0906898D01*
X1138834Y0906149D01*
X1138513Y0905996D01*
X1138459Y0906029D01*
X1138354Y0906438D01*
X1138392Y0906669D01*
X1141862Y0910138D01*
X1141862Y0910138D01*
X1142249Y0910717D01*
X1142258Y0910766D01*
X1142613Y0910913D01*
X1143447Y0911553D01*
X1144087Y0912387D01*
X1144489Y0913358D01*
X1144627Y09144D01*
X1144489Y0915442D01*
X1144087Y0916413D01*
X1143669Y0916958D01*
X1143653Y0916978D01*
X1143622Y0917037D01*
X1143185Y0917573D01*
X1143032Y0917793D01*
X1142897Y0918011D01*
X1142789Y0918216D01*
X1142704Y0918407D01*
X1142643Y0918584D01*
X1142601Y0918746D01*
X1142584Y0918856D01*
Y0920882D01*
D01*
X1142602Y0920993D01*
X1142644Y0921148D01*
X1142705Y0921314D01*
X114279Y0921491D01*
X1142899Y092168D01*
X1143026Y0921868D01*
X1143399Y0922319D01*
X1143563Y0922488D01*
X1143647Y0922553D01*
X1144287Y0923387D01*
X1144689Y0924358D01*
X1144827Y09254D01*
X1144689Y0926442D01*
X1144287Y0927413D01*
X1143647Y0928247D01*
X1142813Y0928887D01*
X1141842Y0929289D01*
X11408Y0929427D01*
X1139758Y0929289D01*
X1139408Y0929144D01*
D01*
X1138787Y0928887D01*
X1137953Y0928247D01*
X1137313Y0927413D01*
X1136911Y0926442D01*
X1136773Y09254D01*
X1136911Y0924358D01*
X1137313Y0923387D01*
X1137953Y0922553D01*
X1138037Y0922488D01*
X1138211Y0922309D01*
X1138403Y092209D01*
X1138566Y092188D01*
X1138701Y092168D01*
X113881Y0921491D01*
X1138895Y0921314D01*
X1138957Y0921148D01*
X1138998Y0920993D01*
X1139016Y0920882D01*
Y0918964D01*
X1138997Y0918854D01*
X1138956Y0918707D01*
X1138896Y0918552D01*
X1138812Y0918389D01*
X1138704Y0918216D01*
X1138569Y0918034D01*
X1138406Y0917845D01*
X1138212Y0917648D01*
X1137989Y0917446D01*
D01*
X1137969Y0917428D01*
X1137943Y0917393D01*
X1137753Y0917247D01*
X1137113Y0916413D01*
X1136711Y0915442D01*
X1136573Y09144D01*
X1136711Y0913358D01*
X1137113Y0912387D01*
X1137753Y0911553D01*
Y0911553D01*
X1137782Y0911106D01*
X1137666Y0910989D01*
X1137254Y0910577D01*
X1133938Y0907262D01*
X1133552Y0906683D01*
X1133416Y0906D01*
Y0905456D01*
X1132916Y0905299D01*
X1132193Y0905853D01*
X113206Y0905908D01*
X1131232Y0906251D01*
X11302Y0906387D01*
X1129168Y0906251D01*
X1128207Y0905853D01*
X1127484Y0905299D01*
X1126984Y0905456D01*
Y0906461D01*
X1130062Y0909539D01*
X1130306Y0909725D01*
X1130457Y0909824D01*
X1131881Y0910577D01*
X1132228Y0910734D01*
X1132232Y0910736D01*
X1132236Y0910737D01*
X1132298Y0910782D01*
X1132613Y0910913D01*
X1133447Y0911553D01*
X1134087Y0912387D01*
X1134489Y0913358D01*
X1134627Y09144D01*
X1134489Y0915442D01*
X1134087Y0916413D01*
X1133654Y0916978D01*
X1133622Y0917037D01*
X1133185Y0917573D01*
X1133032Y0917793D01*
X1132897Y0918011D01*
X1132789Y0918216D01*
X1132704Y0918407D01*
X1132643Y0918584D01*
X1132601Y0918746D01*
X1132584Y0918856D01*
Y0920882D01*
D01*
X1132602Y0920993D01*
X1132644Y0921148D01*
X1132705Y0921314D01*
X113279Y0921491D01*
X1132899Y092168D01*
X1133026Y0921868D01*
X1133399Y0922319D01*
X1133563Y0922488D01*
X1133647Y0922553D01*
X1134287Y0923387D01*
X1134689Y0924358D01*
X1134827Y09254D01*
X1134689Y0926442D01*
X1134287Y0927413D01*
X1133647Y0928247D01*
X1132813Y0928887D01*
X1131842Y0929289D01*
X11308Y0929427D01*
X1129758Y0929289D01*
X1128787Y0928887D01*
X1127953Y0928247D01*
X11278Y0928048D01*
X1127326Y0928209D01*
Y0932603D01*
Y0932903D01*
X1130839Y0936416D01*
X1135756D01*
X1135825Y0936411D01*
X1135977Y0936391D01*
X1136003Y0936386D01*
X1136012Y0936383D01*
X1136025Y0936379D01*
X1136225Y0936245D01*
X11372Y0936051D01*
X1138175Y0936245D01*
X1139002Y0936798D01*
X1139555Y0937625D01*
X1139749Y09386D01*
X1139749Y0938601D01*
X1139755Y093861D01*
X1139789Y0938658D01*
X1139832Y0938709D01*
X1141762Y0940638D01*
X1141762Y0940638D01*
X1142148Y0941217D01*
X1142284Y09419D01*
Y0942122D01*
X1142287Y0942163D01*
X1142334Y0942442D01*
X1142418Y0942739D01*
X114254Y0943055D01*
X1142702Y094339D01*
X1142909Y0943742D01*
X1143152Y09441D01*
X1143808Y0944905D01*
X1144114Y0945229D01*
X1144163Y094527D01*
X1144913Y0946183D01*
X114547Y0947226D01*
X1145716Y0948036D01*
X1146216Y0947961D01*
D02*
G37*
G36*
X1271Y0934784D02*
X1264049D01*
Y0940868D01*
X1264937D01*
Y0948773D01*
X1255063D01*
Y0940868D01*
X1258951D01*
Y09349D01*
X1258725Y0934855D01*
X1257898Y0934302D01*
X1257345Y0933475D01*
X1257151Y09325D01*
X1257345Y0931525D01*
X1257898Y0930698D01*
X1258725Y0930145D01*
X12597Y0929951D01*
X1260675Y0930145D01*
X1260874Y0930278D01*
X1261613Y0930424D01*
X1261651Y0930432D01*
X1262037Y0930673D01*
X1262037Y0930673D01*
X1262744Y0931216D01*
X1269848D01*
X1270126Y09308D01*
X1269862Y0930163D01*
X1268768Y0928525D01*
X1267375Y0927133D01*
X1265737Y0926038D01*
X1263917Y0925284D01*
X1261985Y09249D01*
X1257231D01*
X1252292Y0929839D01*
Y0935263D01*
X1252305Y0935393D01*
X1252315Y0935448D01*
X1252326Y0935495D01*
X1252331Y0935514D01*
X1252335Y093552D01*
X1252345Y0935545D01*
X1252351Y0935556D01*
X1252353Y0935564D01*
X1252367Y0935597D01*
X1252647Y0936017D01*
X1252841Y0936992D01*
X1252647Y0937967D01*
X1252094Y0938794D01*
X1251268Y0939347D01*
X1250292Y0939541D01*
X1249317Y0939347D01*
X124849Y0938794D01*
X1247937Y0937967D01*
X1247743Y0936992D01*
X1247937Y0936017D01*
X124849Y093519D01*
X1248705Y0935046D01*
X1248708Y0935033D01*
X1248716Y0934992D01*
X1248724Y0934916D01*
Y09291D01*
X124886Y0928417D01*
X1249246Y0927838D01*
X1251723Y0925362D01*
X1251531Y09249D01*
X1249723D01*
X1246684Y0927939D01*
Y0930983D01*
X1246688Y0931016D01*
X1246699Y0931086D01*
X1246702Y0931097D01*
X1246702Y0931098D01*
X1247255Y0931925D01*
X1247449Y09329D01*
X1247255Y0933875D01*
X1246702Y0934702D01*
X1245875Y0935255D01*
X1244978Y0935433D01*
X12449Y0935449D01*
X1243925Y0935255D01*
X1243098Y0934702D01*
X1242545Y0933875D01*
X1242351Y09329D01*
X1242545Y0931925D01*
X1243098Y0931098D01*
X1243098Y0931097D01*
X1243101Y0931086D01*
X124311Y0931028D01*
X1243116Y0930962D01*
Y09272D01*
X1243252Y0926517D01*
X1243638Y0925938D01*
X1247046Y092253D01*
X1246855Y0922069D01*
X1243796D01*
X1243715Y0922476D01*
X1243328Y0923055D01*
X1241483Y09249D01*
X1241384Y0924999D01*
Y0926983D01*
X1241388Y0927016D01*
X1241399Y0927086D01*
X1241402Y0927097D01*
X1241402Y0927098D01*
X1241955Y0927925D01*
X1242149Y09289D01*
X1241955Y0929875D01*
X1241402Y0930702D01*
X1241402Y0930703D01*
X1241399Y0930714D01*
X124139Y0930772D01*
X1241384Y0930838D01*
Y0943359D01*
X1241392Y0943451D01*
X1241399Y0943489D01*
X1242851D01*
X1243729Y0943664D01*
X1244473Y0944161D01*
X124497Y0944905D01*
X1245145Y0945783D01*
Y0953283D01*
X124497Y0954161D01*
X1244473Y0954905D01*
X1243729Y0955402D01*
X1242851Y0955577D01*
X1242234D01*
Y096915D01*
X1242099Y0969833D01*
X1241712Y0970412D01*
X1241712Y0970412D01*
X123772Y0974404D01*
X1237141Y0974791D01*
X1236458Y0974926D01*
X1181567D01*
X1181519Y0974971D01*
X1181714Y0975471D01*
X1271D01*
Y0934784D01*
D02*
G37*
G36*
X1251442Y0936018D02*
X1251404Y0935942D01*
X1251369Y0935855D01*
X125134Y0935758D01*
X1251315Y0935649D01*
X1251294Y093553D01*
X1251267Y0935259D01*
X125126Y0935107D01*
X1251258Y0934944D01*
X1249758Y093469D01*
X1249754Y0934851D01*
X1249726Y0935139D01*
X1249702Y0935265D01*
X124967Y093538D01*
X1249632Y0935483D01*
X1249586Y0935575D01*
X1249533Y0935655D01*
X1249474Y0935724D01*
X1249407Y0935781D01*
X1251485Y0936083D01*
X1251442Y0936018D01*
D02*
G37*
G36*
X1224851Y0933298D02*
X1224854Y0933137D01*
X1224878Y0932847D01*
X1224899Y0932718D01*
X1224926Y09326D01*
X1224959Y0932492D01*
X1224998Y0932396D01*
X1225043Y093231D01*
X1225094Y0932235D01*
X1225151Y093217D01*
X1223051Y0932172D01*
X1223108Y0932236D01*
X1223159Y0932311D01*
X1223204Y0932397D01*
X1223243Y0932493D01*
X1223276Y0932601D01*
X1223303Y0932719D01*
X1223324Y0932848D01*
X1223339Y0932988D01*
X1223351Y09333D01*
X1224851Y0933298D01*
D02*
G37*
G36*
X1245893Y0931765D02*
X1245842Y093169D01*
X1245797Y0931604D01*
X1245758Y0931507D01*
X1245725Y09314D01*
X1245698Y0931282D01*
X1245677Y0931153D01*
X1245662Y0931013D01*
X124565Y0930701D01*
X124415D01*
X1244147Y0930862D01*
X1244123Y0931153D01*
X1244102Y0931282D01*
X1244075Y09314D01*
X1244042Y0931507D01*
X1244003Y0931604D01*
X1243958Y093169D01*
X1243907Y0931765D01*
X124385Y0931829D01*
X124595D01*
X1245893Y0931765D01*
D02*
G37*
G36*
X1240353Y0930938D02*
X1240377Y0930647D01*
X1240398Y0930518D01*
X1240425Y09304D01*
X1240458Y0930293D01*
X1240497Y0930196D01*
X1240542Y093011D01*
X1240593Y0930035D01*
X124065Y0929971D01*
X123855D01*
X1238607Y0930035D01*
X1238658Y093011D01*
X1238703Y0930196D01*
X1238742Y0930293D01*
X1238775Y09304D01*
X1238802Y0930518D01*
X1238823Y0930647D01*
X1238838Y0930787D01*
X123885Y0931099D01*
X124035D01*
X1240353Y0930938D01*
D02*
G37*
G36*
X1225093Y0929965D02*
X1225042Y092989D01*
X1224997Y0929804D01*
X1224958Y0929707D01*
X1224925Y09296D01*
X1224898Y0929482D01*
X1224877Y0929353D01*
X1224862Y0929213D01*
X122485Y0928901D01*
X122335D01*
X1223347Y0929062D01*
X1223323Y0929353D01*
X1223302Y0929482D01*
X1223275Y09296D01*
X1223242Y0929707D01*
X1223203Y0929804D01*
X1223158Y092989D01*
X1223107Y0929965D01*
X122305Y0930029D01*
X122515D01*
X1225093Y0929965D01*
D02*
G37*
G36*
X1240593Y0927765D02*
X1240542Y092769D01*
X1240497Y0927604D01*
X1240458Y0927507D01*
X1240425Y09274D01*
X1240398Y0927282D01*
X1240377Y0927153D01*
X1240362Y0927013D01*
X124035Y0926701D01*
X123885D01*
X1238847Y0926862D01*
X1238823Y0927153D01*
X1238802Y0927282D01*
X1238775Y09274D01*
X1238742Y0927507D01*
X1238703Y0927604D01*
X1238658Y092769D01*
X1238607Y0927765D01*
X123855Y0927829D01*
X124065D01*
X1240593Y0927765D01*
D02*
G37*
G36*
X1200567Y0948866D02*
Y0941749D01*
X1200702Y0941066D01*
X1201089Y0940487D01*
X1209216Y0932361D01*
Y09249D01*
X119892D01*
Y09259D01*
X1198842Y092629D01*
X1198621Y0926621D01*
X119829Y0926842D01*
X11979Y092692D01*
X119665D01*
Y0942208D01*
X1196685Y0942464D01*
X1196764Y0942808D01*
X1196876Y0943151D01*
X1197023Y0943494D01*
X1197204Y0943839D01*
X1197423Y0944185D01*
X119768Y0944533D01*
X1197978Y0944883D01*
X1198295Y0945213D01*
X1198364Y094527D01*
X1199114Y0946183D01*
X1199671Y0947226D01*
X1200014Y0948357D01*
X1200067Y094889D01*
X1200567Y0948866D01*
D02*
G37*
G36*
X1142639Y0923D02*
X1142209Y092248D01*
X1142034Y0922222D01*
X1141886Y0921966D01*
X1141765Y0921711D01*
X1141671Y0921458D01*
X1141604Y0921206D01*
X1141563Y0920956D01*
X114155Y0920708D01*
X114005D01*
X1140037Y0920956D01*
X1139996Y0921206D01*
X1139929Y0921458D01*
X1139835Y0921711D01*
X1139714Y0921966D01*
X1139566Y0922222D01*
X1139391Y092248D01*
X113919Y0922739D01*
X1138961Y0923D01*
X1138706Y0923263D01*
X1142894D01*
X1142639Y0923D01*
D02*
G37*
G36*
X1132639D02*
X1132209Y092248D01*
X1132034Y0922222D01*
X1131886Y0921966D01*
X1131765Y0921711D01*
X1131671Y0921458D01*
X1131604Y0921206D01*
X1131563Y0920956D01*
X113155Y0920708D01*
X113005D01*
X1130037Y0920956D01*
X1129996Y0921206D01*
X1129929Y0921458D01*
X1129835Y0921711D01*
X1129714Y0921966D01*
X1129566Y0922222D01*
X1129391Y092248D01*
X1129189Y0922739D01*
X1128961Y0923D01*
X1128706Y0923263D01*
X1132895D01*
X1132639Y0923D01*
D02*
G37*
G36*
X123726Y0922775D02*
X1238046Y0922096D01*
X1238416Y092182D01*
X1238769Y0921587D01*
X1239108Y0921396D01*
X123943Y0921247D01*
X1239737Y0921141D01*
X1240029Y0921078D01*
X1240304Y0921056D01*
X1236403Y0917822D01*
X1236535Y0917985D01*
X123659Y0918194D01*
X1236568Y0918449D01*
X123647Y091875D01*
X1236295Y0919095D01*
X1236043Y0919487D01*
X1235715Y0919924D01*
X123531Y0920407D01*
X123427Y0921509D01*
X1236843Y0923178D01*
X123726Y0922775D01*
D02*
G37*
G36*
X1127953Y0922553D02*
X1128037Y0922488D01*
X1128211Y0922309D01*
X1128403Y092209D01*
X1128566Y092188D01*
X1128701Y092168D01*
X112881Y0921491D01*
X1128895Y0921314D01*
X1128957Y0921148D01*
X1128998Y0920993D01*
X1129016Y0920882D01*
Y0918964D01*
X1128997Y0918854D01*
X1128956Y0918707D01*
X1128895Y0918552D01*
X1128812Y0918389D01*
X1128704Y0918216D01*
X1128569Y0918034D01*
X1128405Y0917845D01*
X1128212Y0917648D01*
X1127969Y0917428D01*
X1127943Y0917393D01*
X1127884Y0917348D01*
X1127384Y0917533D01*
Y0922472D01*
X1127884Y0922642D01*
X1127953Y0922553D01*
D02*
G37*
G36*
X114155Y0919033D02*
X1141563Y091879D01*
X1141601Y0918542D01*
X1141665Y091829D01*
X1141755Y0918033D01*
X1141871Y0917771D01*
X1142012Y0917505D01*
X1142179Y0917233D01*
X1142371Y0916958D01*
X1142833Y0916392D01*
X1138653Y0916672D01*
X1138918Y0916912D01*
X1139156Y0917154D01*
X1139365Y0917397D01*
X1139547Y0917641D01*
X1139701Y0917887D01*
X1139826Y0918134D01*
X1139924Y0918382D01*
X1139994Y0918632D01*
X1140036Y0918884D01*
X114005Y0919136D01*
X114155Y0919033D01*
D02*
G37*
G36*
X113155D02*
X1131563Y091879D01*
X1131601Y0918542D01*
X1131665Y091829D01*
X1131755Y0918033D01*
X1131871Y0917771D01*
X1132012Y0917505D01*
X1132178Y0917233D01*
X1132371Y0916958D01*
X1132833Y0916392D01*
X1128653Y0916672D01*
X1128918Y0916912D01*
X1129156Y0917154D01*
X1129366Y0917397D01*
X1129547Y0917641D01*
X1129701Y0917887D01*
X1129827Y0918134D01*
X1129924Y0918382D01*
X1129994Y0918632D01*
X1130036Y0918884D01*
X113005Y0919136D01*
X113155Y0919033D01*
D02*
G37*
G36*
X102352Y0893763D02*
X1014037Y088428D01*
X09826D01*
Y09113D01*
X09826Y0911655D01*
X0982738Y091235D01*
X098301Y0913005D01*
X0983404Y0913595D01*
X0983905Y0914096D01*
X0984495Y091449D01*
X098515Y0914762D01*
X0985845Y09149D01*
X09862Y09149D01*
X102352Y09149D01*
Y0893763D01*
D02*
G37*
G36*
X1224557Y0912222D02*
X122446Y0912207D01*
X1224374Y0912162D01*
X1224298Y0912087D01*
X1224232Y0911982D01*
X1224177Y0911847D01*
X1224131Y0911682D01*
X1224096Y0911487D01*
X122407Y0911262D01*
X1224055Y0911007D01*
X122405Y0910722D01*
X122255D01*
X1222542Y0911009D01*
X122252Y0911265D01*
X1222482Y0911492D01*
X122243Y0911688D01*
X1222363Y0911855D01*
X122228Y0911991D01*
X1222182Y0912097D01*
X122207Y0912173D01*
X1221943Y0912218D01*
X12218Y0912234D01*
X1224557Y0912222D01*
D02*
G37*
G36*
X1216158Y0912219D02*
X121603Y0912174D01*
X1215917Y0912098D01*
X121582Y0911992D01*
X1215738Y0911856D01*
X121567Y091169D01*
X1215617Y0911493D01*
X121558Y0911267D01*
X1215557Y091101D01*
X121555Y0910722D01*
X121405D01*
X1214042Y091101D01*
X121402Y0911267D01*
X1213982Y0911493D01*
X121393Y091169D01*
X1213863Y0911856D01*
X121378Y0911992D01*
X1213682Y0912098D01*
X121357Y0912174D01*
X1213443Y0912219D01*
X12133Y0912234D01*
X12163D01*
X1216158Y0912219D01*
D02*
G37*
G36*
X1208158D02*
X120803Y0912174D01*
X1207917Y0912098D01*
X120782Y0911992D01*
X1207738Y0911856D01*
X120767Y091169D01*
X1207617Y0911493D01*
X120758Y0911267D01*
X1207557Y091101D01*
X120755Y0910722D01*
X120605D01*
X1206042Y091101D01*
X120602Y0911267D01*
X1205982Y0911493D01*
X120593Y091169D01*
X1205863Y0911856D01*
X120578Y0911992D01*
X1205682Y0912098D01*
X120557Y0912174D01*
X1205443Y0912219D01*
X12053Y0912234D01*
X12083D01*
X1208158Y0912219D01*
D02*
G37*
G36*
X1131809Y0911663D02*
X1131433Y0911493D01*
X1129937Y0910703D01*
X1129715Y0910557D01*
X1129347Y0910276D01*
X1129202Y0910141D01*
X1127617Y0910678D01*
X1127797Y0910879D01*
X1127943Y0911089D01*
X1128056Y0911308D01*
X1128135Y0911537D01*
X112818Y0911775D01*
X1128192Y0912021D01*
X1128171Y0912277D01*
X1128116Y0912543D01*
X1128027Y0912817D01*
X1127905Y09131D01*
X1131809Y0911663D01*
D02*
G37*
G36*
X1221508Y0911137D02*
X1221516Y0911046D01*
Y0909525D01*
X1221201Y0909339D01*
X1221148Y0909359D01*
X1220991Y0909508D01*
Y091121D01*
X1221496D01*
X1221508Y0911137D01*
D02*
G37*
G36*
X124668Y0910748D02*
X124496Y0909029D01*
X1244717Y0908664D01*
X1244438Y090872D01*
X1242477D01*
X1242286Y0909181D01*
X1243328Y0910224D01*
X1243328Y0910224D01*
X1243715Y0910802D01*
X1243796Y091121D01*
X1246489D01*
X124668Y0910748D01*
D02*
G37*
G36*
X1215553Y0907638D02*
X1215577Y0907347D01*
X1215598Y0907218D01*
X1215625Y09071D01*
X1215658Y0906993D01*
X1215697Y0906896D01*
X1215742Y090681D01*
X1215793Y0906735D01*
X121585Y0906671D01*
X121375D01*
X1213807Y0906735D01*
X1213858Y090681D01*
X1213903Y0906896D01*
X1213942Y0906993D01*
X1213975Y09071D01*
X1214002Y0907218D01*
X1214023Y0907347D01*
X1214038Y0907487D01*
X121405Y0907799D01*
X121555D01*
X1215553Y0907638D01*
D02*
G37*
G36*
X1224053Y0907438D02*
X1224077Y0907147D01*
X1224098Y0907018D01*
X1224125Y09069D01*
X1224158Y0906793D01*
X1224197Y0906696D01*
X1224242Y090661D01*
X1224293Y0906535D01*
X122435Y0906471D01*
X122225D01*
X1222307Y0906535D01*
X1222358Y090661D01*
X1222403Y0906696D01*
X1222442Y0906793D01*
X1222475Y09069D01*
X1222502Y0907018D01*
X1222523Y0907147D01*
X1222538Y0907287D01*
X122255Y0907599D01*
X122405D01*
X1224053Y0907438D01*
D02*
G37*
G36*
X1123435Y0907298D02*
X1123416Y09072D01*
Y0905456D01*
X112301Y0905309D01*
X1122916Y0905304D01*
X1122767Y0905457D01*
X1122581Y0905671D01*
X1122422Y0905875D01*
X112229Y0906071D01*
X1122184Y0906256D01*
X1122102Y090643D01*
X1122042Y0906592D01*
X1122038Y0906608D01*
X1122974Y0907545D01*
X1123435Y0907298D01*
D02*
G37*
G36*
X1120963Y0906781D02*
X1121003Y0906534D01*
X1121068Y0906285D01*
X1121161Y0906035D01*
X1121279Y0905784D01*
X1121424Y0905531D01*
X1121595Y0905278D01*
X1121793Y0905023D01*
X1122017Y0904766D01*
X1122267Y0904509D01*
X1118133D01*
X1118383Y0904766D01*
X1118607Y0905023D01*
X1118805Y0905278D01*
X1118976Y0905531D01*
X1119121Y0905784D01*
X1119239Y0906035D01*
X1119331Y0906285D01*
X1119397Y0906534D01*
X1119437Y0906781D01*
X111945Y0907028D01*
X112095D01*
X1120963Y0906781D01*
D02*
G37*
G36*
X115155Y0906798D02*
X1151561Y0906571D01*
X1151594Y0906333D01*
X1151649Y0906084D01*
X1151726Y0905825D01*
X1151826Y0905555D01*
X1151947Y0905274D01*
X1152256Y0904681D01*
X1152443Y0904368D01*
X1152652Y0904045D01*
X1148605Y0904885D01*
X1148879Y0905074D01*
X1149125Y0905271D01*
X1149342Y0905476D01*
X114953Y0905688D01*
X1149689Y0905908D01*
X1149819Y0906135D01*
X114992Y090637D01*
X1149992Y0906613D01*
X1150035Y0906863D01*
X115005Y0907121D01*
X115155Y0906798D01*
D02*
G37*
G36*
X1143078Y0906118D02*
X11429Y0905918D01*
X1142754Y090571D01*
X1142644Y0905495D01*
X1142566Y0905272D01*
X1142523Y0905041D01*
X1142514Y0904802D01*
X1142539Y0904556D01*
X1142597Y0904302D01*
X114269Y090404D01*
X1142816Y090377D01*
X1138952Y0905076D01*
X1139302Y0905243D01*
X1140716Y0906031D01*
X1140932Y0906179D01*
X1141296Y0906466D01*
X1141445Y0906606D01*
X1143078Y0906118D01*
D02*
G37*
G36*
X1221255Y0907625D02*
X1221498Y0907202D01*
X1220945Y0906375D01*
X1220751Y09054D01*
X1220945Y0904425D01*
X1221498Y0903598D01*
X1222325Y0903045D01*
X12233Y0902851D01*
X1224275Y0903045D01*
X122453Y0903215D01*
X1224971Y090298D01*
Y0870158D01*
X1224471Y086989D01*
X1224075Y0870155D01*
X12231Y0870349D01*
X1222125Y0870155D01*
X1221298Y0869602D01*
X1220745Y0868775D01*
X1220551Y08678D01*
X1220745Y0866825D01*
X1221298Y0865998D01*
X1221314Y0865987D01*
X1221317Y0865973D01*
X1221327Y0865917D01*
X1221332Y0865849D01*
Y08631D01*
X121651D01*
Y0894574D01*
X121651Y0894574D01*
X1216374Y0895257D01*
X1215988Y0895836D01*
X1215988Y0895836D01*
X1212784Y0899039D01*
Y0903339D01*
X1213284Y0903606D01*
X1213825Y0903245D01*
X12148Y0903051D01*
X1215775Y0903245D01*
X1216602Y0903798D01*
X1217155Y0904625D01*
X1217349Y09056D01*
X1217155Y0906575D01*
X1216738Y09072D01*
X1216977Y0907677D01*
X1217021Y09077D01*
X1221199D01*
X1221255Y0907625D01*
D02*
G37*
G36*
X1186335Y0903593D02*
X118641Y0903542D01*
X1186496Y0903497D01*
X1186593Y0903458D01*
X11867Y0903425D01*
X1186818Y0903398D01*
X1186947Y0903377D01*
X1187087Y0903362D01*
X1187399Y090335D01*
Y090185D01*
X1187238Y0901847D01*
X1186947Y0901823D01*
X1186818Y0901802D01*
X11867Y0901775D01*
X1186593Y0901742D01*
X1186496Y0901703D01*
X118641Y0901658D01*
X1186335Y0901607D01*
X1186271Y090155D01*
Y090365D01*
X1186335Y0903593D01*
D02*
G37*
G36*
X120755Y0900036D02*
X1207553Y0899874D01*
X1207574Y0899583D01*
X1207593Y0899453D01*
X1207617Y0899334D01*
X1207647Y0899226D01*
X1207682Y0899128D01*
X1207722Y0899041D01*
X1207768Y0898965D01*
X1207819Y0898899D01*
X1205724Y0899039D01*
X1205786Y08991D01*
X1205841Y0899173D01*
X120589Y0899257D01*
X1205933Y0899351D01*
X1205968Y0899457D01*
X1205998Y0899574D01*
X1206021Y0899702D01*
X1206037Y0899841D01*
X120605Y0900152D01*
X120755Y0900036D01*
D02*
G37*
G36*
X1142017Y0900034D02*
X1141793Y0899778D01*
X1141595Y0899522D01*
X1141424Y0899269D01*
X1141279Y0899016D01*
X1141161Y0898765D01*
X1141068Y0898515D01*
X1141003Y0898266D01*
X1140963Y0898019D01*
X114095Y0897772D01*
X113945D01*
X1139437Y0898019D01*
X1139397Y0898266D01*
X1139332Y0898515D01*
X1139239Y0898765D01*
X1139121Y0899016D01*
X1138976Y0899269D01*
X1138805Y0899522D01*
X1138607Y0899778D01*
X1138383Y0900034D01*
X1138133Y0900291D01*
X1142267D01*
X1142017Y0900034D01*
D02*
G37*
G36*
X123538Y0912297D02*
Y091121D01*
X1238615D01*
X1238806Y0910748D01*
X1237086Y0909029D01*
X12367Y090845D01*
X1236564Y0907767D01*
Y089528D01*
X1236064Y0895231D01*
X1236055Y0895275D01*
X1235502Y0896102D01*
X1235484Y0896115D01*
Y09036D01*
X1235349Y0904283D01*
X1234962Y0904862D01*
X1234962Y0904862D01*
X1232584Y090724D01*
Y0907767D01*
X1232605Y090793D01*
X1232594Y0908094D01*
X1232658Y0908415D01*
X123268Y0908742D01*
X1232738Y0909035D01*
X1232843Y0909345D01*
X1232907Y0909667D01*
X1232907Y0909667D01*
X1232907Y0909667D01*
X1233052Y090996D01*
X1233157Y0910271D01*
X1233323Y0910519D01*
X1233323Y0910519D01*
X123334Y0910543D01*
X1233484Y0910837D01*
X1233484Y0910837D01*
X123365Y0911085D01*
X1233866Y0911332D01*
X1234048Y0911604D01*
X1234172Y0911713D01*
X1234272Y0911843D01*
X1234918Y0912489D01*
X123538Y0912297D01*
D02*
G37*
G36*
X1185793Y0895865D02*
X1185742Y089579D01*
X1185697Y0895704D01*
X1185658Y0895607D01*
X1185625Y08955D01*
X1185598Y0895382D01*
X1185577Y0895253D01*
X1185562Y0895113D01*
X118555Y0894801D01*
X118405D01*
X1184047Y0894962D01*
X1184023Y0895253D01*
X1184002Y0895382D01*
X1183975Y08955D01*
X1183942Y0895607D01*
X1183903Y0895704D01*
X1183858Y089579D01*
X1183807Y0895865D01*
X118375Y0895929D01*
X118585D01*
X1185793Y0895865D01*
D02*
G37*
G36*
X1190144Y08892D02*
X1190129Y0889342D01*
X1190083Y088947D01*
X1190008Y0889583D01*
X1189902Y088968D01*
X1189766Y0889762D01*
X1189599Y088983D01*
X1189403Y0889882D01*
X1189176Y088992D01*
X1188919Y0889942D01*
X1188632Y088995D01*
Y089145D01*
X1188919Y0891457D01*
X1189176Y089148D01*
X1189403Y0891518D01*
X1189599Y089157D01*
X1189766Y0891638D01*
X1189902Y089172D01*
X1190008Y0891817D01*
X1190083Y089193D01*
X1190129Y0892058D01*
X1190144Y08922D01*
Y08892D01*
D02*
G37*
G36*
X1196016Y088404D02*
X1196062Y0883913D01*
X1196137Y08838D01*
X1196243Y0883703D01*
X1196379Y088362D01*
X1196546Y0883553D01*
X1196742Y08835D01*
X1196969Y0883463D01*
X1197226Y088344D01*
X1197513Y0883433D01*
Y0881933D01*
X1197226Y0881925D01*
X1196969Y0881903D01*
X1196742Y0881865D01*
X1196546Y0881813D01*
X1196379Y0881745D01*
X1196243Y0881663D01*
X1196137Y0881565D01*
X1196062Y0881453D01*
X1196016Y0881325D01*
X1196001Y0881183D01*
Y0884183D01*
X1196016Y088404D01*
D02*
G37*
G36*
X1049516Y08382D02*
X09868Y08382D01*
X09868Y08382D01*
X0986367Y08382D01*
X0985517Y0838369D01*
X0984716Y0838701D01*
X0983995Y0839182D01*
X0983382Y0839795D01*
X0982901Y0840516D01*
X0982569Y0841317D01*
X09824Y0842167D01*
Y08426D01*
X09824Y087432D01*
X10161D01*
X10161Y087432D01*
X1016263Y0874342D01*
X1016488D01*
X1016586Y0874362D01*
X1016687D01*
X1017224Y0874468D01*
X1017389Y087449D01*
X101744Y0874511D01*
X1017448Y0874513D01*
X101754Y0874551D01*
X1017639Y0874571D01*
X1018356Y0874868D01*
X1018439Y0874924D01*
X1018532Y0874962D01*
X1018538Y0874966D01*
X101859Y0874988D01*
X1018721Y0875089D01*
X1019177Y0875393D01*
X1019248Y0875464D01*
X1019332Y087552D01*
X101949Y0875679D01*
X1019621Y0875779D01*
X1032021Y0888179D01*
X1032021Y0888179D01*
X1032121Y088831D01*
X103228Y0888468D01*
X1032336Y0888552D01*
X1032407Y0888623D01*
X1032712Y0889079D01*
X1032812Y088921D01*
X1032834Y0889262D01*
X1032838Y0889268D01*
X1032876Y0889361D01*
X1032932Y0889444D01*
X1033229Y0890161D01*
X1033249Y0890259D01*
X1033287Y0890352D01*
X1033289Y089036D01*
X103331Y0890411D01*
X1033332Y0890576D01*
X1033438Y0891113D01*
Y0891214D01*
X1033458Y0891312D01*
Y0891537D01*
X103348Y08917D01*
X103348Y08917D01*
Y09149D01*
X1049516D01*
Y08382D01*
D02*
G37*
G36*
X1114789Y0865728D02*
X1114629Y0865548D01*
X1114473Y0865332D01*
X1114323Y0865082D01*
X1114178Y0864797D01*
X1114038Y0864477D01*
X1113775Y0863732D01*
X1113651Y0863307D01*
X1113419Y0862353D01*
X1110808Y08665D01*
X1111222Y0866414D01*
X1111615Y086636D01*
X1111986Y0866336D01*
X1112335Y0866343D01*
X1112663Y0866381D01*
X1112969Y086645D01*
X1113253Y086655D01*
X1113515Y0866681D01*
X1113756Y0866844D01*
X1113976Y0867036D01*
X1114789Y0865728D01*
D02*
G37*
G36*
X1126833Y0865173D02*
X1126699Y0865022D01*
X1126557Y086483D01*
X1126409Y0864599D01*
X1126091Y0864016D01*
X1125745Y0863273D01*
X1125173Y0861858D01*
X1123201Y0866343D01*
X1123576Y0866208D01*
X1123934Y0866111D01*
X1124275Y086605D01*
X11246Y0866026D01*
X1124908Y0866039D01*
X1125199Y0866089D01*
X1125474Y0866176D01*
X1125732Y08663D01*
X1125974Y0866461D01*
X1126199Y086666D01*
X1126833Y0865173D01*
D02*
G37*
G36*
X1224106Y0866676D02*
X1224055Y0866601D01*
X1224011Y0866514D01*
X1223973Y0866418D01*
X122394Y086631D01*
X1223914Y0866192D01*
X1223893Y0866063D01*
X1223878Y0865923D01*
X1223866Y0865611D01*
X1222367Y0865592D01*
X1222363Y0865753D01*
X1222339Y0866043D01*
X1222318Y0866172D01*
X122229Y086629D01*
X1222257Y0866397D01*
X1222217Y0866493D01*
X1222172Y0866579D01*
X122212Y0866653D01*
X1222062Y0866717D01*
X1224162Y086674D01*
X1224106Y0866676D01*
D02*
G37*
G36*
X1256868Y0904075D02*
X1257962Y0902437D01*
X1258716Y0900617D01*
X12591Y0898685D01*
Y08977D01*
Y08683D01*
Y0867788D01*
X12589Y0866783D01*
X1258508Y0865837D01*
X1257939Y0864985D01*
X1257215Y0864261D01*
X125638Y0863703D01*
X1256178Y0863743D01*
X125588Y0863942D01*
Y0904408D01*
X1256342Y09046D01*
X1256868Y0904075D01*
D02*
G37*
G36*
X1138233Y0866467D02*
X1138051Y0866261D01*
X1137889Y0866027D01*
X1137747Y0865765D01*
X1137624Y0865474D01*
X1137521Y0865154D01*
X1137438Y0864806D01*
X1137374Y086443D01*
X1137329Y0864025D01*
X11373Y086313D01*
X1133835Y0866595D01*
X1134297Y08666D01*
X1135135Y0866669D01*
X1135511Y0866732D01*
X1135859Y0866816D01*
X1136179Y0866919D01*
X113647Y0867042D01*
X1136732Y0867184D01*
X1136966Y0867346D01*
X1137172Y0867527D01*
X1138233Y0866467D01*
D02*
G37*
G36*
X1252017Y0907316D02*
X1252312Y0907193D01*
Y08631D01*
X1248006D01*
Y0907028D01*
X1248679Y09077D01*
X1250085D01*
X1252017Y0907316D01*
D02*
G37*
G36*
X1244438Y08631D02*
X1240132D01*
Y0907028D01*
X1240805Y09077D01*
X1244438D01*
Y08631D01*
D02*
G37*
G36*
X1229212Y0905564D02*
X1231916Y0902861D01*
Y0896115D01*
X1231898Y0896102D01*
X1231345Y0895275D01*
X1231151Y08943D01*
X1231345Y0893325D01*
X1231898Y0892498D01*
X1232725Y0891945D01*
X12337Y0891751D01*
X1234675Y0891945D01*
X1235502Y0892498D01*
X1236055Y0893325D01*
X1236064Y0893369D01*
X1236564Y089332D01*
Y08631D01*
X1229141D01*
X122854Y0863701D01*
Y0905671D01*
X122904Y0905822D01*
X1229212Y0905564D01*
D02*
G37*
G36*
X1205016Y0899886D02*
X1205011Y0899851D01*
X1205Y0899788D01*
X1204995Y0899768D01*
X1204898Y0899702D01*
X1204345Y0898875D01*
X1204151Y08979D01*
X1204345Y0896925D01*
X1204898Y0896098D01*
X1205725Y0895545D01*
X12067Y0895351D01*
X1207675Y0895545D01*
X1208502Y0896098D01*
X1209055Y0896925D01*
X1209091Y0897107D01*
X1209622Y0897212D01*
X1209738Y0897038D01*
X1212942Y0893835D01*
Y08631D01*
X1203096D01*
X1202304Y0863258D01*
X1201558Y0863567D01*
X1200886Y0864015D01*
X1200315Y0864586D01*
X1199867Y0865258D01*
X1199558Y0866004D01*
X11994Y0866796D01*
Y0880981D01*
X1199666Y0881034D01*
X1200244Y0881421D01*
X1202362Y0883538D01*
X1202362Y0883538D01*
X1202748Y0884117D01*
X1202884Y08848D01*
X1202884Y08848D01*
Y09004D01*
X1202884Y09004D01*
X1202748Y0901083D01*
X1202362Y0901662D01*
X1202362Y0901662D01*
X1200175Y0903848D01*
X1199597Y0904235D01*
X1199746Y090469D01*
X1199946Y0905174D01*
X1200472Y090596D01*
X120114Y0906628D01*
X1201926Y0907154D01*
X12028Y0907516D01*
X1203727Y09077D01*
X1205016D01*
Y0899886D01*
D02*
G37*
G36*
X1239106Y086223D02*
X1239128Y0861973D01*
X1239165Y0861746D01*
X1239218Y0861549D01*
X1239285Y0861383D01*
X1239368Y0861247D01*
X1239466Y0861141D01*
X1239578Y0861066D01*
X1239705Y086102D01*
X1239848Y0861005D01*
X1236848D01*
X1236991Y086102D01*
X1237118Y0861066D01*
X123723Y0861141D01*
X1237328Y0861247D01*
X1237411Y0861383D01*
X1237478Y0861549D01*
X1237531Y0861746D01*
X1237568Y0861973D01*
X1237591Y086223D01*
X1237598Y0862517D01*
X1239098D01*
X1239106Y086223D01*
D02*
G37*
G36*
X1223874Y0862232D02*
X1223894Y0861977D01*
X1223929Y0861752D01*
X1223977Y0861557D01*
X1224039Y0861392D01*
X1224115Y0861257D01*
X1224205Y0861152D01*
X1224308Y0861077D01*
X1224425Y0861032D01*
X1224557Y0861017D01*
X1221616Y0861005D01*
X1221759Y0861021D01*
X1221887Y0861067D01*
X1221999Y0861143D01*
X1222097Y0861248D01*
X1222179Y0861385D01*
X1222247Y0861551D01*
X1222299Y0861747D01*
X1222336Y0861974D01*
X1222359Y086223D01*
X1222367Y0862517D01*
X1223866D01*
X1223874Y0862232D01*
D02*
G37*
G36*
X1229001Y0861788D02*
X1229543Y086133D01*
X1229785Y0861161D01*
X1230007Y0861034D01*
X1230209Y0860947D01*
X1230392Y08609D01*
X1230555Y0860895D01*
X1230698Y086093D01*
X1230822Y0861005D01*
X1228529Y0859079D01*
X1228621Y0859186D01*
X1228669Y0859317D01*
X1228672Y0859471D01*
X1228631Y0859648D01*
X1228546Y0859848D01*
X1228417Y0860072D01*
X1228243Y0860319D01*
X1228025Y086059D01*
X1227457Y08612D01*
X1228701Y0862078D01*
X1229001Y0861788D01*
D02*
G37*
G36*
X1243254Y0862029D02*
Y0851171D01*
X1244787D01*
X1245061Y0850671D01*
X1244646Y0849671D01*
X1243852Y0848635D01*
X1242816Y0847841D01*
X1242227Y0847597D01*
X1240132Y0849691D01*
Y0851171D01*
X1241317D01*
Y0862029D01*
X1241795Y086208D01*
X1242775D01*
X1243254Y0862029D01*
D02*
G37*
G36*
X1227005Y086019D02*
X1227254Y0859921D01*
X1227428Y0859706D01*
X1227505Y0859596D01*
Y0851171D01*
X122869D01*
Y0847598D01*
X122819Y0847213D01*
X1227211Y0847342D01*
X1226006Y0847841D01*
X122497Y0848635D01*
X1224176Y0849671D01*
X1223761Y0850671D01*
X1224035Y0851171D01*
X1225568D01*
Y0860898D01*
X122557Y0860901D01*
X1225568Y0860913D01*
Y0860919D01*
X1225752Y086106D01*
X1226064Y086113D01*
X1227005Y086019D01*
D02*
G37*
G36*
X123538Y0862029D02*
Y0851171D01*
X1236564D01*
Y0848952D01*
X12367Y0848269D01*
X1237086Y084769D01*
X1237144Y0847633D01*
X1236952Y0847171D01*
X123638D01*
X1235085Y0847342D01*
X123388Y0847841D01*
X1232844Y0848635D01*
X1232258Y0849399D01*
Y0851171D01*
X1233442D01*
Y0862029D01*
X1233921Y086208D01*
X1234901D01*
X123538Y0862029D01*
D02*
G37*
G36*
X1053616Y08382D02*
X1053084D01*
Y09149D01*
X1053616D01*
X1053616Y08382D01*
D02*
G37*
G36*
X1058616D02*
X1057184D01*
X1057184Y09149D01*
X1058616D01*
Y08382D01*
D02*
G37*
G36*
X1063016D02*
X1062184D01*
Y09149D01*
X1063016Y09149D01*
Y08382D01*
D02*
G37*
G36*
X1079383Y0914731D02*
X1080184Y0914399D01*
X1080905Y0913918D01*
X1081518Y0913305D01*
X1081999Y0912584D01*
X1082331Y0911783D01*
X10825Y0910933D01*
Y09105D01*
Y08448D01*
Y084415D01*
X1082246Y0842875D01*
X1081749Y0841674D01*
X1081026Y0840593D01*
X1080107Y0839673D01*
X1079026Y0838951D01*
X1077825Y0838454D01*
X107655Y08382D01*
X10759D01*
X1071623D01*
X1070403Y0839421D01*
Y09149D01*
X10781D01*
X1078533D01*
X1079383Y0914731D01*
D02*
G37*
G36*
X1086777Y0845377D02*
X1087926Y0844496D01*
X1088151Y0844403D01*
Y08421D01*
X1088345Y0841125D01*
X1088898Y0840298D01*
X1095133Y0834062D01*
X1094942Y08336D01*
X1091279D01*
X1090062Y0833842D01*
X1088916Y0834317D01*
X1087884Y0835007D01*
X1087006Y0835884D01*
X1086317Y0836916D01*
X1085842Y0838062D01*
X10856Y0839279D01*
X10856Y08399D01*
Y084609D01*
X10861Y084626D01*
X1086777Y0845377D01*
D02*
G37*
G36*
X1282531Y0825378D02*
X1283877Y0825077D01*
X1285173Y0824602D01*
X1286395Y0823963D01*
X1287524Y082317D01*
X1288539Y0822235D01*
X1289424Y0821177D01*
X1290163Y0820012D01*
X1290744Y081876D01*
X129095Y0818102D01*
X129095Y0769D01*
X129095Y0769D01*
X129095Y0768094D01*
X1290596Y0766316D01*
X1289903Y0764642D01*
X1288896Y0763135D01*
X1287615Y0761854D01*
X1286108Y0760847D01*
X1284433Y0760153D01*
X1282656Y07598D01*
X1277942D01*
X1277757Y07603D01*
X1278366Y076082D01*
X1279644Y0762316D01*
X1280672Y0763994D01*
X1281425Y0765811D01*
X1281503Y0766137D01*
X128151Y0766151D01*
X1281864Y0767427D01*
X1281865Y0767447D01*
X1281873Y0767465D01*
X128209Y0768381D01*
X1282091Y0768411D01*
X1282102Y0768439D01*
X1282159Y0768762D01*
X1282158Y0768802D01*
X1282169Y0768841D01*
X1282192Y0769074D01*
X1282183Y0769165D01*
X1282193Y0769255D01*
X1282181Y0769398D01*
X1282148Y0769516D01*
X1282133Y0769636D01*
X1282119Y0769661D01*
X128217Y0770043D01*
Y0775357D01*
X1282078Y0776055D01*
X1281808Y0776706D01*
X128138Y0777264D01*
X1280821Y0777693D01*
X1280171Y0777962D01*
X1279473Y0778054D01*
X1276127D01*
X1275429Y0777962D01*
X1274779Y0777693D01*
X127422Y0777264D01*
X1273792Y0776706D01*
X1273522Y0776055D01*
X1273431Y0775357D01*
Y0770043D01*
X1273522Y0769345D01*
X1273792Y0768694D01*
X127422Y0768136D01*
X1274779Y0767707D01*
X1275429Y0767438D01*
X1276127Y0767346D01*
X1276184Y0766846D01*
X1276181Y0766822D01*
X1276087Y0766367D01*
X1276001Y0766044D01*
X1275724Y0765527D01*
X1274793Y0764393D01*
X1273659Y0763462D01*
X1272365Y076277D01*
X1270961Y0762344D01*
X1269856Y0762235D01*
X1268667D01*
X1268599Y0762579D01*
X1268214Y0763154D01*
X1267639Y0763538D01*
X1266961Y0763673D01*
X1259776D01*
X1259098Y0763538D01*
X1258523Y0763154D01*
X1258139Y0762579D01*
X1258004Y0761901D01*
Y07598D01*
X1252198D01*
Y0761901D01*
X1252063Y0762579D01*
X1251679Y0763154D01*
X1251104Y0763538D01*
X1250426Y0763673D01*
X1243241D01*
X1242563Y0763538D01*
X1241988Y0763154D01*
X1241603Y0762579D01*
X1241536Y0762238D01*
X1241502Y0762195D01*
X1241449Y0762176D01*
X1240949Y0762532D01*
Y07658D01*
X1240755Y0766776D01*
X1240202Y0767602D01*
X1239901Y0767804D01*
X1235649Y0772056D01*
Y0774674D01*
X1235655Y0774817D01*
X1235773D01*
Y0775782D01*
X1235781Y0775818D01*
X123578Y0775823D01*
X1235781Y0775829D01*
X1235773Y0775867D01*
Y0781541D01*
X1230427D01*
Y0775867D01*
X1230419Y0775829D01*
X1230425Y0775801D01*
X1230421Y0775774D01*
X1230427Y077566D01*
Y0774817D01*
X1230472D01*
X1230551Y0773348D01*
Y0771D01*
X1230745Y0770024D01*
X1231298Y0769198D01*
X1235851Y0764644D01*
Y076435D01*
X1235828Y0764087D01*
X1235767Y0763725D01*
X1235692Y0763445D01*
X1235612Y076325D01*
X1235543Y0763137D01*
X1235499Y076309D01*
X123548Y0763077D01*
X1235459Y0763069D01*
X1235293Y0763052D01*
X1235287Y076305D01*
X12327D01*
Y07598D01*
X12307D01*
Y076305D01*
X1225117D01*
X1224603Y076352D01*
X1221084Y0767039D01*
Y0806664D01*
X1220949Y0807347D01*
X1220562Y0807926D01*
X1211334Y0817154D01*
X1211525Y0817616D01*
X12181D01*
X1218783Y0817752D01*
X1219362Y0818138D01*
X1223764Y0822541D01*
X1223764Y0822541D01*
X1224151Y082312D01*
X1224287Y0823803D01*
Y0825D01*
X1225516D01*
Y0823D01*
X1225651Y0822317D01*
X1226038Y0821738D01*
X1229238Y0818538D01*
X1229238Y0818538D01*
X1229817Y0818151D01*
X12305Y0818016D01*
X12414D01*
X1242083Y0818151D01*
X1242662Y0818538D01*
X1243962Y0819838D01*
X1243962Y0819838D01*
X1244349Y0820417D01*
X1244484Y08211D01*
X1244484Y08211D01*
Y0824647D01*
X1251753D01*
Y0825D01*
X1263166D01*
X1263401Y0824559D01*
X1263145Y0824175D01*
X1262951Y08232D01*
X1263145Y0822225D01*
X1263698Y0821398D01*
X1264351Y0820744D01*
Y081693D01*
X1263779Y0816693D01*
X126322Y0816264D01*
X1262792Y0815706D01*
X1262522Y0815055D01*
X126243Y0814357D01*
Y0809042D01*
X1262522Y0808345D01*
X1262792Y0807694D01*
X126322Y0807136D01*
X1263779Y0806707D01*
X1264429Y0806438D01*
X1265127Y0806346D01*
X1268473D01*
X1269171Y0806438D01*
X1269821Y0806707D01*
X127038Y0807136D01*
X1270808Y0807694D01*
X1271078Y0808345D01*
X1271169Y0809042D01*
Y0814357D01*
X1271078Y0815055D01*
X1270808Y0815706D01*
X127038Y0816264D01*
X1269821Y0816693D01*
X1269449Y0816847D01*
Y08218D01*
X1269255Y0822775D01*
X1268702Y0823602D01*
X1267767Y0824538D01*
X1267958Y0825D01*
X1277761D01*
X1277761Y0825D01*
X1277761Y0825D01*
X1278419Y0825206D01*
X1279778Y0825443D01*
X1281157Y0825501D01*
X1282531Y0825378D01*
D02*
G37*
G36*
X1240916Y0821839D02*
X1240661Y0821584D01*
X1231239D01*
X1229084Y0823739D01*
Y0824854D01*
X1229438Y0825D01*
X1236162D01*
X1236768Y0824749D01*
X12378Y0824613D01*
X1238832Y0824749D01*
X1239438Y0825D01*
X1240916D01*
Y0821839D01*
D02*
G37*
G36*
X1220677Y08245D02*
X1217361Y0821184D01*
X1210839D01*
X1207485Y0824538D01*
X1207677Y0825D01*
X1216162D01*
X1216768Y0824749D01*
X12178Y0824613D01*
X1218832Y0824749D01*
X1219438Y0825D01*
X1220617D01*
X1220677Y08245D01*
D02*
G37*
G36*
X1032215Y0817212D02*
X103226Y0816662D01*
X1032335Y0816182D01*
X103244Y0815772D01*
X1032575Y0815433D01*
X1032739Y0815164D01*
X1032934Y0814965D01*
X1033159Y0814837D01*
X1033414Y0814779D01*
X1033698Y0814791D01*
X1028676Y0813995D01*
X1028775Y0814154D01*
X1028864Y0814356D01*
X1028943Y0814601D01*
X1029011Y081489D01*
X1029069Y0815223D01*
X1029153Y0816019D01*
X1029195Y081699D01*
X10292Y081754D01*
X10322Y0817833D01*
X1032215Y0817212D01*
D02*
G37*
G36*
X1104946Y0816093D02*
X1105303Y0815788D01*
X1105647Y0815532D01*
X1105978Y0815323D01*
X1106296Y0815162D01*
X1106601Y0815049D01*
X1106894Y0814984D01*
X1107173Y0814967D01*
X110744Y0814997D01*
X1107693Y0815076D01*
X1106463Y0808206D01*
X1106499Y0808571D01*
X110648Y0808948D01*
X1106406Y0809339D01*
X1106276Y0809744D01*
X110609Y0810161D01*
X1105849Y0810592D01*
X1105552Y0811036D01*
X11052Y0811494D01*
X1104793Y0811965D01*
X110433Y0812449D01*
X1104576Y0816445D01*
X1104946Y0816093D01*
D02*
G37*
G36*
X1053616Y07711D02*
X1053751Y0770417D01*
X1054138Y0769838D01*
X1063715Y0760262D01*
X1063523Y07598D01*
X1042659Y07598D01*
X1042449Y0760254D01*
X1042844Y0760716D01*
X1043872Y0762394D01*
X1044462Y0763818D01*
X1044473Y0763834D01*
X1044477Y0763856D01*
X1044625Y0764212D01*
X1044739Y0764686D01*
X1044753Y0764727D01*
X1044889Y0765059D01*
X1045041Y076537D01*
X1045208Y0765661D01*
X104539Y0765933D01*
X1045587Y0766187D01*
X1045801Y0766423D01*
X1046031Y0766644D01*
X1046307Y0766872D01*
X1046325Y0766893D01*
X1046348Y0766907D01*
X1046356Y0766918D01*
X104638Y0766936D01*
X1046808Y0767494D01*
X1047078Y0768145D01*
X1047169Y0768843D01*
Y0774157D01*
X1047078Y0774855D01*
X1046808Y0775506D01*
X104638Y0776064D01*
X1045821Y0776493D01*
X1045171Y0776762D01*
X1044473Y0776854D01*
X1041127D01*
X1040429Y0776762D01*
X1039779Y0776493D01*
X103922Y0776064D01*
X1038792Y0775506D01*
X1038522Y0774855D01*
X1038431Y0774157D01*
Y0768843D01*
X1038522Y0768145D01*
X1038792Y0767494D01*
X103922Y0766936D01*
X1039617Y0766631D01*
X1039624Y0766554D01*
X1039613Y0766204D01*
X103946Y0765163D01*
X1039369Y076476D01*
X1038924Y0763927D01*
X1037993Y0762793D01*
X1036859Y0761862D01*
X1035565Y076117D01*
X1034161Y0760744D01*
X1033579Y0760687D01*
X1033449Y0760795D01*
X1033257Y0760984D01*
X1033085Y0761183D01*
X1032907Y0761426D01*
X1032886Y0761445D01*
X1032813Y0761554D01*
X1032646Y0761665D01*
X1032614Y0761695D01*
X1032588Y0761705D01*
X1032238Y0761938D01*
X103156Y0762073D01*
X1024375D01*
X1023697Y0761938D01*
X1023122Y0761554D01*
X1022738Y0760979D01*
X1022603Y0760301D01*
Y07598D01*
X1016797D01*
Y0760301D01*
X1016662Y0760979D01*
X1016278Y0761554D01*
X1015703Y0761938D01*
X1015025Y0762073D01*
X100784D01*
X1007162Y0761938D01*
X1006827Y0761715D01*
X1006808Y0761708D01*
X1006777Y0761681D01*
X1006587Y0761554D01*
X1006524Y076146D01*
X1006508Y0761446D01*
X1006369Y0761265D01*
X1006252Y0761149D01*
X100611Y0761041D01*
X1005938Y076094D01*
X100573Y0760848D01*
X1005484Y0760767D01*
X1005197Y0760699D01*
X1005136Y076069D01*
X100504Y0760703D01*
X1004745Y0760769D01*
X1004536Y0760841D01*
X1004417Y0760901D01*
X1004407Y0760909D01*
X10044Y0760962D01*
Y076185D01*
X1004149D01*
Y0765497D01*
X1004249Y0766D01*
X1004055Y0766975D01*
X1003502Y0767802D01*
X0999549Y0771756D01*
Y0773774D01*
X0999555Y0773916D01*
X0999673D01*
Y0774882D01*
X0999681Y0774918D01*
X099968Y0774923D01*
X0999681Y0774929D01*
X0999673Y0774967D01*
Y0780641D01*
X0994327D01*
Y0774967D01*
X0994319Y0774929D01*
X0994325Y0774901D01*
X0994321Y0774874D01*
X0994327Y077476D01*
Y0773916D01*
X0994372D01*
X0994451Y0772448D01*
Y07707D01*
X0994645Y0769725D01*
X0995198Y0768898D01*
X0999051Y0765044D01*
Y076185D01*
X09974D01*
Y07598D01*
X09954D01*
Y076185D01*
X0990036D01*
X0989582Y0762241D01*
X0989084Y0762739D01*
Y0824061D01*
X0990023Y0825D01*
X1028151D01*
Y0816453D01*
X1028135Y0816095D01*
X1028059Y0815364D01*
X1028012Y0815095D01*
X102796Y0814874D01*
X102791Y0814718D01*
X1027872Y0814633D01*
X1027813Y0814538D01*
X1027809Y0814528D01*
X1027792Y0814506D01*
X1027522Y0813855D01*
X1027431Y0813157D01*
Y0807843D01*
X1027522Y0807145D01*
X1027792Y0806494D01*
X102822Y0805936D01*
X1028779Y0805507D01*
X1029429Y0805238D01*
X1030127Y0805146D01*
X1033473D01*
X1034171Y0805238D01*
X1034821Y0805507D01*
X103538Y0805936D01*
X1035808Y0806494D01*
X1036078Y0807145D01*
X103617Y0807843D01*
Y0813157D01*
X1036078Y0813855D01*
X1035808Y0814506D01*
X103538Y0815064D01*
X1034821Y0815493D01*
X1034171Y0815762D01*
X1033516Y0815848D01*
X103349Y0815891D01*
X1033411Y0816088D01*
X1033335Y0816388D01*
X1033273Y0816782D01*
X1033249Y0817078D01*
Y0825D01*
X1053616D01*
Y07711D01*
D02*
G37*
G36*
X1085912Y0792962D02*
X1085882Y0793197D01*
X1085792Y0793408D01*
X1085642Y0793593D01*
X1085432Y0793754D01*
X1085162Y079389D01*
X1084832Y0794002D01*
X1084442Y0794089D01*
X1083992Y079415D01*
X1083482Y0794188D01*
X1082912Y07942D01*
Y07972D01*
X1083482Y0797212D01*
X1084442Y0797311D01*
X1084832Y0797398D01*
X1085162Y0797509D01*
X1085432Y0797646D01*
X1085642Y0797807D01*
X1085792Y0797992D01*
X1085882Y0798203D01*
X1085912Y0798438D01*
Y0792962D01*
D02*
G37*
G36*
X1152531Y0775407D02*
X1152503Y0775343D01*
X1152479Y0775237D01*
X1152458Y0775088D01*
X1152426Y0774662D01*
X11524Y07733D01*
X11494D01*
X1149398Y0773704D01*
X1149297Y0775343D01*
X1149269Y0775407D01*
X1149239Y0775428D01*
X1152561D01*
X1152531Y0775407D01*
D02*
G37*
G36*
X1234731Y0775799D02*
X1234703Y0775708D01*
X1234679Y0775559D01*
X1234658Y0775349D01*
X1234614Y0774359D01*
X12346Y0772828D01*
X12316D01*
X1231439Y0775829D01*
X1234761D01*
X1234731Y0775799D01*
D02*
G37*
G36*
X0998631Y0774898D02*
X0998603Y0774809D01*
X0998579Y0774658D01*
X0998558Y0774448D01*
X0998514Y0773458D01*
X09985Y0771929D01*
X09955D01*
X0995339Y0774929D01*
X0998661D01*
X0998631Y0774898D01*
D02*
G37*
G36*
X1072931Y0774401D02*
X1072903Y0774319D01*
X1072879Y0774183D01*
X1072858Y0773992D01*
X1072814Y0773092D01*
X10728Y07717D01*
X10698D01*
X1069798Y0772218D01*
X1069669Y0774401D01*
X1069639Y0774429D01*
X1072961D01*
X1072931Y0774401D01*
D02*
G37*
G36*
X1281165Y0769315D02*
X1281177Y0769172D01*
X1281155Y0768939D01*
X1281098Y0768615D01*
X1280881Y0767699D01*
X1280527Y0766423D01*
X1276923Y0765546D01*
X1277079Y0766133D01*
X1277187Y0766653D01*
X1277246Y0767105D01*
X1277256Y076749D01*
X1277218Y0767807D01*
X1277132Y0768056D01*
X1276997Y0768238D01*
X1276813Y0768353D01*
X1276581Y07684D01*
X1276301Y0768379D01*
X1280924Y0769205D01*
X1281039Y0769332D01*
X1281119Y0769368D01*
X1281165Y0769315D01*
D02*
G37*
G36*
X1123658Y0767958D02*
X11233Y0767667D01*
X1122968Y0767366D01*
X1122663Y0767053D01*
X1122384Y0766729D01*
X1122132Y0766394D01*
X1121907Y0766048D01*
X1121708Y0765691D01*
X1121535Y0765322D01*
X1121389Y0764943D01*
X112127Y0764553D01*
X1118032Y0764647D01*
X1118143Y0765109D01*
X1118221Y076555D01*
X1118267Y076597D01*
X111828Y0766368D01*
X111826Y0766744D01*
X1118209Y0767099D01*
X1118124Y0767433D01*
X1118007Y0767745D01*
X1117858Y0768036D01*
X1117676Y0768305D01*
X1123658Y0767958D01*
D02*
G37*
G36*
X1045658Y0767658D02*
X1045353Y0767406D01*
X1045069Y0767134D01*
X1044806Y0766843D01*
X1044563Y0766531D01*
X1044341Y0766199D01*
X1044139Y0765848D01*
X1043958Y0765476D01*
X1043797Y0765085D01*
X1043658Y0764673D01*
X1043538Y0764242D01*
X1040312Y0764303D01*
X1040464Y0764976D01*
X104063Y0766114D01*
X1040644Y0766579D01*
X1040613Y0766974D01*
X1040536Y0767299D01*
X1040413Y0767554D01*
X1040244Y076774D01*
X1040029Y0767857D01*
X1039769Y0767903D01*
X1045658Y0767658D01*
D02*
G37*
G36*
X1202656Y0766887D02*
X1202453Y0766681D01*
X1202247Y076644D01*
X120204Y0766164D01*
X1201618Y076551D01*
X1201405Y076513D01*
X1200751Y0763783D01*
X1197283Y0763933D01*
X1197528Y0764523D01*
X1197849Y0765517D01*
X1197925Y076592D01*
X1197945Y0766261D01*
X1197908Y076654D01*
X1197814Y0766757D01*
X1197663Y0766911D01*
X1197457Y0767003D01*
X1197194Y0767033D01*
X1202858Y0767058D01*
X1202656Y0766887D01*
D02*
G37*
G36*
X1239888Y0764468D02*
X1239791Y0763508D01*
X1239706Y0763118D01*
X1239597Y0762788D01*
X1239464Y0762518D01*
X1239306Y0762308D01*
X1239124Y0762158D01*
X1238918Y0762068D01*
X1238688Y0762038D01*
X12354D01*
X1235685Y0762068D01*
X123594Y0762158D01*
X1236165Y0762308D01*
X123636Y0762518D01*
X1236525Y0762788D01*
X123666Y0763118D01*
X1236765Y0763508D01*
X123684Y0763958D01*
X1236885Y0764468D01*
X12369Y0765038D01*
X12399D01*
X1239888Y0764468D01*
D02*
G37*
G36*
X1079009Y0764368D02*
X107908Y0763408D01*
X1079142Y0763018D01*
X1079222Y0762688D01*
X107932Y0762418D01*
X1079435Y0762208D01*
X1079568Y0762058D01*
X1079719Y0761968D01*
X1079888Y0761938D01*
X1074912D01*
X1075119Y0761968D01*
X1075304Y0762058D01*
X1075467Y0762208D01*
X1075608Y0762418D01*
X1075728Y0762688D01*
X1075826Y0763018D01*
X1075902Y0763408D01*
X1075957Y0763858D01*
X1075989Y0764368D01*
X1076Y0764938D01*
X1079D01*
X1079009Y0764368D01*
D02*
G37*
G36*
X115881Y0763868D02*
X1158889Y0762908D01*
X1158958Y0762518D01*
X1159047Y0762188D01*
X1159156Y0761918D01*
X1159284Y0761708D01*
X1159432Y0761558D01*
X11596Y0761468D01*
X1159788Y0761438D01*
X1154812D01*
X1155Y0761468D01*
X1155168Y0761558D01*
X1155316Y0761708D01*
X1155444Y0761918D01*
X1155553Y0762188D01*
X1155642Y0762518D01*
X1155711Y0762908D01*
X115576Y0763358D01*
X11558Y0764438D01*
X11588D01*
X115881Y0763868D01*
D02*
G37*
G36*
X0985231Y0825273D02*
X098553Y0824872D01*
X0985516Y08248D01*
Y0762D01*
X0985651Y0761317D01*
X0986038Y0760738D01*
X0986515Y0760262D01*
X0986376Y0759927D01*
X0986261Y0759808D01*
X098488Y075999D01*
X0983474Y0760366D01*
X098213Y0760923D01*
X098087Y0761651D01*
X0979716Y0762537D01*
X0978687Y0763565D01*
X0977801Y076472D01*
X0977073Y076598D01*
X0976517Y0767324D01*
X097614Y076873D01*
X097595Y0770173D01*
Y07709D01*
X097595Y081929D01*
X097595Y081929D01*
Y081929D01*
X0976184Y0820088D01*
X0976955Y0821562D01*
X0977999Y0822856D01*
X0979276Y0823922D01*
X0980737Y0824717D01*
X0982325Y0825212D01*
X0983978Y0825387D01*
X0985231Y0825273D01*
D02*
G37*
G36*
X1069538Y0823238D02*
X1070117Y0822851D01*
X10708Y0822716D01*
X1072435D01*
X1072673Y0822216D01*
X1072245Y0821575D01*
X1072051Y08206D01*
X1072061Y082055D01*
X1072051Y08205D01*
Y0803D01*
X1072245Y0802024D01*
X1072798Y0801198D01*
X1080098Y0793898D01*
X1080925Y0793345D01*
X10819Y0793151D01*
X1083679D01*
X1083885Y0793136D01*
X1084262Y0793084D01*
X1084558Y0793018D01*
X1084767Y0792948D01*
X1084888Y0792887D01*
X1084894Y0792882D01*
X10849Y0792838D01*
Y079195D01*
X1085874D01*
X1085912Y0791942D01*
X108595Y079195D01*
X10919D01*
Y079945D01*
X108595D01*
X1085912Y0799458D01*
X1085874Y079945D01*
X10849D01*
Y0798562D01*
X1084894Y0798518D01*
X1084888Y0798513D01*
X1084767Y0798452D01*
X1084558Y0798382D01*
X1084279Y079832D01*
X1083594Y0798249D01*
X1082956D01*
X1077149Y0804056D01*
Y08205D01*
X1077139Y082055D01*
X1077149Y08206D01*
X1077129Y0820698D01*
X1077556Y0821116D01*
X1099679D01*
X1099961Y0820706D01*
X1099943Y0820616D01*
X1099751Y081965D01*
Y08166D01*
X1099945Y0815625D01*
X1100498Y0814798D01*
X1104178Y0811117D01*
X110441Y0810849D01*
X1104723Y0810442D01*
X1104979Y081006D01*
X1105177Y0809704D01*
X1105322Y0809379D01*
X1105416Y0809087D01*
X1105431Y0809011D01*
Y0808142D01*
X1105522Y0807445D01*
X1105792Y0806794D01*
X110622Y0806236D01*
X1106779Y0805807D01*
X1107429Y0805538D01*
X1108127Y0805446D01*
X1111473D01*
X1112171Y0805538D01*
X1112821Y0805807D01*
X111338Y0806236D01*
X1113808Y0806794D01*
X1114078Y0807445D01*
X111417Y0808142D01*
Y0813457D01*
X1114078Y0814155D01*
X1113808Y0814806D01*
X111338Y0815364D01*
X1112821Y0815793D01*
X1112171Y0816062D01*
X1111473Y0816154D01*
X1108127D01*
X110751Y0816073D01*
X1107475Y0816072D01*
X1107462Y0816066D01*
X1107429Y0816062D01*
X1107403Y0816051D01*
X1107392Y081605D01*
X1107229Y0816D01*
X1107146Y081599D01*
X1107037Y0815997D01*
X110689Y0816029D01*
X1106704Y0816098D01*
X1106481Y0816211D01*
X1106224Y0816373D01*
X1105939Y0816586D01*
X1105802Y0816702D01*
X1104849Y0817656D01*
Y081965D01*
X1104657Y0820616D01*
X1104639Y0820706D01*
X1104921Y0821116D01*
X1129661D01*
X1134416Y0816361D01*
Y08115D01*
X1134516Y0810997D01*
Y07654D01*
X1134651Y0764717D01*
X1135038Y0764138D01*
X113534Y0763937D01*
X1139015Y0760262D01*
X1138823Y07598D01*
X1120032D01*
X1119822Y0760254D01*
X1120644Y0761216D01*
X1121672Y0762894D01*
X1122168Y076409D01*
X11222Y0764136D01*
X1122214Y0764198D01*
X1122244Y0764254D01*
X1122269Y0764336D01*
X1122425Y0764712D01*
X1122478Y0764931D01*
X1122616Y0765226D01*
X112278Y0765521D01*
X1122968Y0765808D01*
X1123179Y0766089D01*
X1123415Y0766363D01*
X1123677Y0766632D01*
X1123965Y0766893D01*
X11243Y0767166D01*
X1124315Y0767184D01*
X1124336Y0767196D01*
X1124347Y0767211D01*
X112438Y0767236D01*
X1124808Y0767794D01*
X1125078Y0768445D01*
X1125169Y0769142D01*
Y0774458D01*
X1125078Y0775155D01*
X1124808Y0775806D01*
X112438Y0776364D01*
X1123821Y0776793D01*
X1123171Y0777062D01*
X1122473Y0777154D01*
X1119127D01*
X1118429Y0777062D01*
X1117779Y0776793D01*
X111722Y0776364D01*
X1116792Y0775806D01*
X1116522Y0775155D01*
X111643Y0774458D01*
Y0769142D01*
X1116522Y0768445D01*
X111671Y0767993D01*
X1116713Y076797D01*
X1116734Y0767933D01*
X1116792Y0767794D01*
X1116822Y0767755D01*
X1116831Y0767734D01*
X1116979Y0767515D01*
X1117073Y0767332D01*
X111715Y0767128D01*
X1117207Y07669D01*
X1117245Y0766644D01*
X1117259Y0766358D01*
X1117249Y0766042D01*
X1117211Y0765695D01*
X1117144Y0765317D01*
X1117099Y0765127D01*
X1116724Y0764427D01*
X1115793Y0763293D01*
X1114659Y0762362D01*
X1113365Y076167D01*
X1111961Y0761244D01*
X1110866Y0761136D01*
X1110798Y0761479D01*
X1110413Y0762054D01*
X1109838Y0762438D01*
X110916Y0762573D01*
X1101975D01*
X1101297Y0762438D01*
X1100722Y0762054D01*
X1100338Y0761479D01*
X1100203Y0760801D01*
Y07598D01*
X1094397D01*
Y0760801D01*
X1094262Y0761479D01*
X1093878Y0762054D01*
X1093303Y0762438D01*
X1092625Y0762573D01*
X108544D01*
X108503Y0762491D01*
X1085002Y0762493D01*
X1084961Y0762478D01*
X1084846Y0762455D01*
X108484Y0762454D01*
X1084839Y0762454D01*
X1084762Y0762438D01*
X1084654Y0762366D01*
X1084628Y0762357D01*
X1084418Y076223D01*
X1084223Y0762132D01*
X1084002Y0762043D01*
X1083768Y0761966D01*
X1083162Y0761829D01*
X1082857Y0761785D01*
X1082389Y0761749D01*
X1082121D01*
X1081915Y0761764D01*
X1081538Y0761816D01*
X1081242Y0761881D01*
X1081033Y0761952D01*
X1080912Y0762013D01*
X1080906Y0762018D01*
X10809Y0762062D01*
Y076295D01*
X1080212D01*
X10802Y0762982D01*
X1080143Y0763218D01*
X1080094Y0763526D01*
X1080049Y0764128D01*
Y07655D01*
X1079855Y0766475D01*
X1079302Y0767302D01*
X1073849Y0772756D01*
Y0773375D01*
X1073851Y0773417D01*
X1073973D01*
Y0774347D01*
X1073979Y077437D01*
X1073975Y0774399D01*
X1073981Y0774429D01*
X1073973Y0774467D01*
Y0780141D01*
X1068627D01*
Y0774467D01*
X1068619Y0774429D01*
X1068625Y0774399D01*
X1068621Y077437D01*
X1068627Y0774347D01*
Y0773417D01*
X1068706D01*
X1068751Y0772658D01*
Y07717D01*
X1068945Y0770724D01*
X1069498Y0769898D01*
X1074951Y0764444D01*
Y0764111D01*
X1074941Y0763952D01*
X1074894Y0763567D01*
X1074835Y0763261D01*
X1074769Y0763041D01*
X1074729Y076295D01*
X10739D01*
Y0761976D01*
X1073892Y0761938D01*
X10739Y07619D01*
Y07598D01*
X10719D01*
Y076295D01*
X1066113D01*
X1065824Y0763199D01*
X1057184Y0771839D01*
Y0825D01*
X1067777D01*
X1069538Y0823238D01*
D02*
G37*
G36*
X1217516Y0805925D02*
Y07663D01*
X1217651Y0765617D01*
X1218038Y0765038D01*
X1222777Y07603D01*
X1222569Y07598D01*
X119958Y07598D01*
X1199407Y0760269D01*
X1199466Y076032D01*
X1200744Y0761816D01*
X1201772Y0763494D01*
X1201933Y0763883D01*
X1202309Y0764657D01*
X1202492Y0764983D01*
X1202877Y0765581D01*
X1203043Y0765801D01*
X1203204Y076599D01*
X1203351Y0766138D01*
X1203518Y0766281D01*
X1203534Y0766301D01*
X120358Y0766336D01*
X1204008Y0766894D01*
X1204278Y0767545D01*
X120437Y0768243D01*
Y0773558D01*
X1204278Y0774255D01*
X1204008Y0774906D01*
X120358Y0775464D01*
X1203021Y0775893D01*
X1202371Y0776162D01*
X1201673Y0776254D01*
X1198327D01*
X1197629Y0776162D01*
X1196979Y0775893D01*
X119642Y0775464D01*
X1195992Y0774906D01*
X1195722Y0774255D01*
X119563Y0773558D01*
Y0768243D01*
X1195722Y0767545D01*
X1195992Y0766894D01*
X119642Y0766336D01*
X1196897Y076597D01*
X1196859Y0765769D01*
X1196571Y0764877D01*
X1196437Y0764555D01*
X1195893Y0763893D01*
X1194759Y0762962D01*
X1193465Y076227D01*
X119206Y0761844D01*
X1190892Y0761729D01*
X1190734Y0761823D01*
X1190538Y0761964D01*
X1190374Y0762106D01*
X1190241Y0762249D01*
X1190098Y0762438D01*
X119008Y0762454D01*
X1190013Y0762554D01*
X1189833Y0762674D01*
X1189801Y0762703D01*
X1189779Y0762711D01*
X1189438Y0762938D01*
X118876Y0763073D01*
X1181575D01*
X1180897Y0762938D01*
X1180322Y0762554D01*
X1179938Y0761979D01*
X1179803Y0761301D01*
Y07598D01*
X1173997D01*
Y0761301D01*
X1173862Y0761979D01*
X1173478Y0762554D01*
X1172903Y0762938D01*
X1172225Y0763073D01*
X116504D01*
X1164361Y0762938D01*
X1163787Y0762554D01*
X1163402Y0761979D01*
X1163268Y0761301D01*
Y0760346D01*
X1163174Y0760288D01*
X116298Y076021D01*
X116269Y0760134D01*
X1162309Y0760073D01*
X1162063Y0760052D01*
X1161833Y0760072D01*
X116147Y0760133D01*
X1161188Y0760208D01*
X1160991Y0760288D01*
X1160877Y0760358D01*
X1160829Y0760403D01*
X1160815Y0760422D01*
X1160808Y0760444D01*
X11608Y0760514D01*
Y07614D01*
X1160808Y0761438D01*
X11608Y0761476D01*
Y076245D01*
X1160041D01*
X1160016Y0762512D01*
X1159954Y076274D01*
X1159901Y0763039D01*
X1159849Y0763673D01*
Y07669D01*
X1159655Y0767875D01*
X1159102Y0768702D01*
X1153796Y0774009D01*
X1153573Y0774416D01*
Y077539D01*
X1153581Y0775428D01*
X1153573Y0775467D01*
Y0781141D01*
X1148227D01*
Y0775467D01*
X1148219Y0775428D01*
X1148227Y077539D01*
Y0774416D01*
X1148333D01*
X1148351Y0774121D01*
Y07733D01*
X1148545Y0772325D01*
X1149098Y0771498D01*
X1154751Y0765844D01*
Y0763654D01*
X1154743Y0763432D01*
X1154701Y0763053D01*
X1154646Y076274D01*
X1154584Y0762512D01*
X1154559Y076245D01*
X11538D01*
Y0761476D01*
X1153792Y0761438D01*
X11538Y07614D01*
Y07598D01*
X11518D01*
Y076245D01*
X11448D01*
Y0760504D01*
X1144729Y0760492D01*
X1144637Y0760484D01*
X1143839D01*
X1138084Y0766239D01*
Y08115D01*
X1137984Y0812003D01*
Y08171D01*
X1137984Y08171D01*
X1137848Y0817783D01*
X1137462Y0818362D01*
X113267Y0823154D01*
X1132861Y0823616D01*
X1199825D01*
X1217516Y0805925D01*
D02*
G37*
G36*
X1164756Y0756188D02*
X1164772Y0756152D01*
X1164708Y075612D01*
X1164563Y0756092D01*
X1164338Y0756068D01*
X1163647Y075603D01*
X1162788Y0756019D01*
Y0756D01*
X1159788Y0755962D01*
X1159657Y0755932D01*
X115954Y0755842D01*
X1159437Y0755692D01*
X1159348Y0755482D01*
X1159272Y0755212D01*
X115921Y0754882D01*
X1159162Y0754492D01*
X1159107Y0753532D01*
X11591Y0752962D01*
X11561D01*
X1156087Y0753532D01*
X1156048Y0754042D01*
X1155984Y0754492D01*
X1155894Y0754882D01*
X1155778Y0755212D01*
X1155636Y0755482D01*
X1155469Y0755692D01*
X1155276Y0755842D01*
X1155057Y0755932D01*
X1154812Y0755962D01*
X1159788D01*
X1159776Y07605D01*
X1159807Y0760215D01*
X1159898Y075996D01*
X1160049Y0759735D01*
X116026Y075954D01*
X1160531Y0759375D01*
X1160862Y075924D01*
X1161254Y0759135D01*
X1161705Y075906D01*
X1162061Y0759029D01*
X1162433Y075906D01*
X1162901Y0759135D01*
X1163301Y075924D01*
X1163636Y0759375D01*
X1163904Y075954D01*
X1164105Y0759735D01*
X116424Y075996D01*
X1164309Y0760215D01*
X1164311Y07605D01*
X1164756Y0756188D01*
D02*
G37*
G36*
X1224712Y0762038D02*
X1224724Y0758767D01*
X1224713Y0758977D01*
X122468Y0759188D01*
X1224626Y07594D01*
X1224551Y0759611D01*
X1224454Y0759823D01*
X1224336Y0760036D01*
X1224197Y0760248D01*
X1224036Y0760461D01*
X1223854Y0760674D01*
X1223651Y0760888D01*
Y0763009D01*
X1224712Y0762038D01*
D02*
G37*
G36*
X1065001Y0762563D02*
X1065502Y0762131D01*
X1065603Y0762061D01*
X1065695Y0762007D01*
X1065777Y0761969D01*
X1065849Y0761946D01*
X1065912Y0761938D01*
X1065924Y0758467D01*
X1065913Y0758677D01*
X106588Y0758888D01*
X1065826Y07591D01*
X1065751Y0759311D01*
X1065654Y0759523D01*
X1065536Y0759735D01*
X1065397Y0759948D01*
X1065236Y0760161D01*
X1065055Y0760374D01*
X1064851Y0760588D01*
Y0762709D01*
X1065001Y0762563D01*
D02*
G37*
G36*
X1267708Y0761428D02*
X1267762Y0761377D01*
X1267853Y0761332D01*
X1267979Y0761294D01*
X1268142Y0761261D01*
X1268341Y0761234D01*
X1268848Y0761198D01*
X12695Y0761186D01*
Y0758186D01*
X1269156Y0758183D01*
X1268142Y0758112D01*
X1267979Y0758079D01*
X1267853Y075804D01*
X1267762Y0757995D01*
X1267708Y0757944D01*
X126769Y0757888D01*
Y0761484D01*
X1267708Y0761428D01*
D02*
G37*
G36*
X0988813Y0761558D02*
X0989423Y0761032D01*
X0989681Y0760847D01*
X0989909Y0760714D01*
X0990106Y0760633D01*
X0990271Y0760603D01*
X0990406Y0760626D01*
X099051Y07607D01*
X0990583Y0760826D01*
X0989424Y0757767D01*
X0989465Y0757925D01*
X0989473Y0758095D01*
X0989449Y0758277D01*
X0989391Y0758471D01*
X09893Y0758677D01*
X0989176Y0758895D01*
X0989019Y0759126D01*
X098883Y0759368D01*
X0988607Y0759622D01*
X0988351Y0759888D01*
X0988462Y0761899D01*
X0988813Y0761558D01*
D02*
G37*
G36*
X1145824Y07572D02*
X1145809Y0757342D01*
X1145763Y075747D01*
X1145688Y0757583D01*
X1145582Y075768D01*
X1145446Y0757762D01*
X114528Y075783D01*
X1145083Y0757882D01*
X1144856Y075792D01*
X1144599Y0757942D01*
X1144312Y075795D01*
Y075945D01*
X1144599Y0759457D01*
X1144856Y075948D01*
X1145083Y0759517D01*
X114528Y075957D01*
X1145446Y0759637D01*
X1145582Y075972D01*
X1145688Y0759818D01*
X1145763Y075993D01*
X1145809Y0760057D01*
X1145824Y07602D01*
Y07572D01*
D02*
G37*
G36*
X118946Y076159D02*
X1189667Y076137D01*
X1189905Y0761164D01*
X1190174Y076097D01*
X1190474Y0760791D01*
X1190805Y0760625D01*
X1191167Y0760472D01*
X1191559Y0760333D01*
X1192437Y0760096D01*
X1192386Y0756893D01*
X1191926Y0756983D01*
X1191499Y0757042D01*
X1191106Y0757068D01*
X1190746Y0757061D01*
X1190419Y0757023D01*
X1190126Y0756953D01*
X1189865Y075685D01*
X1189638Y0756715D01*
X1189444Y0756547D01*
X1189284Y0756348D01*
Y0761824D01*
X118946Y076159D01*
D02*
G37*
G36*
X1242957Y0756788D02*
X1242758Y0756904D01*
X1242526Y0757008D01*
X1242263Y07571D01*
X1241967Y0757179D01*
X1241638Y0757247D01*
X1240886Y0757345D01*
X1240461Y0757375D01*
X1239515Y07574D01*
X12395Y07604D01*
X1240096Y0760415D01*
X1240626Y076046D01*
X1241091Y0760535D01*
X124149Y076064D01*
X1241824Y0760775D01*
X1242093Y0760939D01*
X1242296Y0761134D01*
X1242433Y0761359D01*
X1242505Y0761614D01*
X1242512Y0761898D01*
X1242957Y0756788D01*
D02*
G37*
G36*
X1079918Y0761703D02*
X1080008Y0761492D01*
X1080158Y0761307D01*
X1080368Y0761146D01*
X1080638Y076101D01*
X1080968Y0760898D01*
X1081358Y0760811D01*
X1081808Y0760749D01*
X108226Y0760717D01*
X1082969Y0760771D01*
X1083348Y0760826D01*
X1084039Y0760983D01*
X1084352Y0761085D01*
X1084642Y0761202D01*
X108491Y0761336D01*
X1085156Y0761485D01*
X1084745Y0756202D01*
X1084736Y0756487D01*
X1084661Y0756742D01*
X108452Y0756966D01*
X1084314Y0757161D01*
X1084042Y0757326D01*
X1083705Y075746D01*
X1083302Y0757565D01*
X1082833Y075764D01*
X1082299Y0757685D01*
X1082294Y0757685D01*
X1081358Y0757589D01*
X1080968Y0757502D01*
X1080638Y075739D01*
X1080368Y0757254D01*
X1080158Y0757093D01*
X1080008Y0756908D01*
X1079918Y0756697D01*
X1079888Y0756462D01*
X1079719Y0756432D01*
X1079568Y0756342D01*
X1079435Y0756192D01*
X107932Y0755982D01*
X1079222Y0755712D01*
X1079142Y0755382D01*
X107908Y0754992D01*
X1079035Y0754542D01*
X1079Y0753462D01*
X1076D01*
X1075989Y0754032D01*
X1075902Y0754992D01*
X1075826Y0755382D01*
X1075728Y0755712D01*
X1075608Y0755982D01*
X1075467Y0756192D01*
X1075304Y0756342D01*
X1075119Y0756432D01*
X1074912Y0756462D01*
X1079888D01*
Y0761938D01*
X1079918Y0761703D01*
D02*
G37*
G36*
X1032286Y0760547D02*
X1032513Y0760286D01*
X1032764Y0760039D01*
X1033039Y0759809D01*
X1033338Y0759594D01*
X1033662Y0759395D01*
X1034009Y0759211D01*
X1034381Y0759043D01*
X1034777Y075889D01*
X1035197Y0758753D01*
X1035112Y0755469D01*
X1034725Y0755572D01*
X1034352Y0755646D01*
X1033992Y0755691D01*
X1033645Y0755706D01*
X1033311Y0755693D01*
X1032991Y075565D01*
X1032684Y0755578D01*
X1032391Y0755477D01*
X1032111Y0755347D01*
X1031844Y0755188D01*
X1032084Y0760824D01*
X1032286Y0760547D01*
D02*
G37*
G36*
X1003418Y07606D02*
X1003508Y0760387D01*
X1003658Y07602D01*
X1003868Y0760037D01*
X1004138Y0759899D01*
X1004468Y0759787D01*
X1004858Y0759699D01*
X1005144Y0759659D01*
X1005392Y0759698D01*
X1005761Y0759784D01*
X1006098Y0759896D01*
X1006404Y0760032D01*
X1006679Y0760193D01*
X1006923Y0760379D01*
X1007135Y0760589D01*
X1007316Y0760824D01*
Y0755348D01*
X1007135Y0755583D01*
X1006923Y0755794D01*
X1006679Y0755979D01*
X1006404Y0756141D01*
X1006098Y0756277D01*
X1005761Y0756388D01*
X1005392Y0756475D01*
X1005175Y0756508D01*
X1004858Y0756476D01*
X1004468Y075639D01*
X1004138Y075628D01*
X1003868Y0756145D01*
X1003658Y0755986D01*
X1003508Y0755803D01*
X1003418Y0755595D01*
X1003388Y0755362D01*
Y0760838D01*
X1003418Y07606D01*
D02*
G37*
G36*
X1238688Y0756562D02*
X1238918Y0756532D01*
X1239124Y0756442D01*
X1239306Y0756292D01*
X1239464Y0756082D01*
X1239597Y0755812D01*
X1239706Y0755482D01*
X1239791Y0755092D01*
X1239851Y0754642D01*
X1239888Y0754132D01*
X12399Y0753562D01*
X12369D01*
X1236885Y0754133D01*
X123684Y0754645D01*
X1236765Y0755096D01*
X123666Y0755487D01*
X1236525Y0755818D01*
X123636Y0756089D01*
X1236165Y0756301D01*
X123594Y0756452D01*
X1235685Y0756543D01*
X12354Y0756574D01*
X1238688Y0756562D01*
D02*
G37*
G36*
X1281627Y0744944D02*
X1281708Y0744443D01*
X1281843Y0743939D01*
X1282032Y0743432D01*
X1282275Y0742921D01*
X1282572Y0742407D01*
X1282923Y0741889D01*
X1283328Y0741368D01*
X1283787Y0740844D01*
X12843Y0740316D01*
X12759D01*
X1276413Y0740844D01*
X1277277Y0741889D01*
X1277628Y0742407D01*
X1277925Y0742921D01*
X1278168Y0743432D01*
X1278357Y0743939D01*
X1278492Y0744443D01*
X1278573Y0744944D01*
X12786Y0745441D01*
X12816D01*
X1281627Y0744944D01*
D02*
G37*
G36*
X10424Y0745488D02*
X1042425Y0745005D01*
X1042502Y074451D01*
X1042629Y0744004D01*
X1042807Y0743487D01*
X1043036Y0742959D01*
X1043315Y0742419D01*
X1043646Y0741869D01*
X1044027Y0741308D01*
X1044942Y0740152D01*
X1036572Y0740851D01*
X1037109Y0741322D01*
X103759Y0741797D01*
X1038014Y0742276D01*
X1038382Y074276D01*
X1038693Y0743247D01*
X1038947Y0743739D01*
X1039145Y0744235D01*
X1039287Y0744735D01*
X1039372Y0745239D01*
X10394Y0745748D01*
X10424Y0745488D01*
D02*
G37*
G36*
X1200328Y0744806D02*
X1200411Y0744303D01*
X120055Y0743801D01*
X1200745Y07433D01*
X1200995Y0742801D01*
X1201301Y0742303D01*
X1201662Y0741805D01*
X1202079Y0741309D01*
X1202552Y0740815D01*
X120308Y0740321D01*
X1194691Y0739901D01*
X1195187Y0740462D01*
X1196022Y0741561D01*
X1196361Y0742098D01*
X1196648Y0742628D01*
X1196883Y0743149D01*
X1197065Y0743663D01*
X1197196Y0744168D01*
X1197274Y0744666D01*
X11973Y0745155D01*
X12003Y074531D01*
X1200328Y0744806D01*
D02*
G37*
G36*
X11223Y0745188D02*
X1122325Y0744705D01*
X1122402Y074421D01*
X1122529Y0743704D01*
X1122707Y0743187D01*
X1122936Y0742659D01*
X1123215Y074212D01*
X1123546Y0741569D01*
X1123927Y0741008D01*
X1124842Y0739852D01*
X1116472Y0740552D01*
X1117009Y0741022D01*
X111749Y0741497D01*
X1117914Y0741976D01*
X1118282Y074246D01*
X1118593Y0742947D01*
X1118847Y0743439D01*
X1119045Y0743935D01*
X1119187Y0744435D01*
X1119272Y0744939D01*
X11193Y0745448D01*
X11223Y0745188D01*
D02*
G37*
G36*
X1238745Y0740696D02*
X1238725Y0740607D01*
X1238711Y0740442D01*
X1238704Y07402D01*
X1238744Y0738465D01*
X1238847Y0736358D01*
X1232649Y0742028D01*
X1233316Y0742058D01*
X1235334Y0742287D01*
X1235676Y0742373D01*
X1235953Y0742469D01*
X1236164Y0742576D01*
X1236311Y0742695D01*
X1236392Y0742824D01*
X1238745Y0740696D01*
D02*
G37*
G36*
X1157858Y0740519D02*
X1157824Y0740408D01*
X1157798Y0740224D01*
X1157778Y0739966D01*
X1157765Y073875D01*
X115785Y0736097D01*
X1151711Y074183D01*
X1152385Y0741854D01*
X1154018Y0742004D01*
X1154433Y0742081D01*
X1154783Y0742171D01*
X1155068Y0742275D01*
X1155288Y0742391D01*
X1155443Y0742521D01*
X1155533Y0742665D01*
X1157858Y0740519D01*
D02*
G37*
%LPC*%
G36*
X11318Y0966087D02*
X1130768Y0965951D01*
X1130669Y096591D01*
X1129807Y0965553D01*
X1128981Y0964919D01*
X1128347Y0964093D01*
X1127949Y0963132D01*
X1127897Y0962734D01*
X1127866Y096265D01*
X1127814Y0962308D01*
X112768Y0961696D01*
X1127608Y0961453D01*
X1127527Y0961225D01*
X1127441Y0961025D01*
X1127352Y0960852D01*
X1127261Y0960706D01*
X1127197Y0960621D01*
X1123638Y0957062D01*
X1123252Y0956483D01*
X1123116Y09558D01*
Y0955532D01*
X112311Y0955477D01*
X112309Y0955365D01*
X1123068Y0955288D01*
X1123058Y0955262D01*
X1123042Y0955256D01*
X1123038Y0955253D01*
X1123032Y0955252D01*
X112299Y0955224D01*
X1122593Y0955103D01*
X112155Y0954546D01*
X1120637Y0953796D01*
X1119887Y0952883D01*
X111933Y095184D01*
X1118987Y0950709D01*
X1118871Y0949533D01*
X1118987Y0948357D01*
X111933Y0947226D01*
X1119887Y0946183D01*
X1120637Y094527D01*
X112155Y094452D01*
X1122593Y0943963D01*
X1123724Y094362D01*
X11249Y0943504D01*
X1126076Y094362D01*
X1127207Y0943963D01*
X112825Y094452D01*
X1129163Y094527D01*
X1129913Y0946183D01*
X113047Y0947226D01*
X1130813Y0948357D01*
X1130929Y0949533D01*
X1130813Y0950709D01*
X113047Y095184D01*
X1129913Y0952883D01*
X1129163Y0953796D01*
X112825Y0954546D01*
X1127355Y0955024D01*
X1127192Y0955569D01*
X1129555Y0957932D01*
X1129642Y0957994D01*
X1129765Y0958061D01*
X1129903Y0958119D01*
X113006Y0958165D01*
X1130238Y0958199D01*
X1130439Y0958219D01*
X1130665Y0958223D01*
X1130916Y0958208D01*
X1131221Y0958171D01*
X1131313Y0958177D01*
X11318Y0958113D01*
X1132832Y0958249D01*
X1133793Y0958647D01*
X1134619Y0959281D01*
X1135253Y0960107D01*
X1135651Y0961068D01*
X1135787Y09621D01*
X1135651Y0963132D01*
X1135253Y0964093D01*
X1135149Y0964229D01*
X1134619Y0964919D01*
X1133793Y0965553D01*
X1132832Y0965951D01*
X11318Y0966087D01*
D02*
G37*
G36*
X11699Y0955562D02*
X1168724Y0955446D01*
X1167593Y0955103D01*
X116655Y0954546D01*
X1165637Y0953796D01*
X1164887Y0952883D01*
X116433Y095184D01*
X1163987Y0950709D01*
X1163871Y0949533D01*
X1163987Y0948357D01*
X116433Y0947226D01*
X1164887Y0946183D01*
X1165637Y094527D01*
X116655Y094452D01*
X1167593Y0943963D01*
X1168724Y094362D01*
X11699Y0943504D01*
X1171076Y094362D01*
X1172207Y0943963D01*
X117325Y094452D01*
X1174163Y094527D01*
X1174913Y0946183D01*
X117547Y0947226D01*
X1175813Y0948357D01*
X1175929Y0949533D01*
X1175813Y0950709D01*
X117547Y095184D01*
X1174913Y0952883D01*
X1174163Y0953796D01*
X117325Y0954546D01*
X1172207Y0955103D01*
X1171076Y0955446D01*
X11699Y0955562D01*
D02*
G37*
G36*
X1145701Y0867634D02*
X1144526Y0867479D01*
X1143432Y0867025D01*
X1142492Y0866304D01*
X114177Y0865364D01*
X1141317Y0864269D01*
X1141162Y0863095D01*
X1141317Y086192D01*
X114177Y0860825D01*
X1142492Y0859885D01*
X1143432Y0859164D01*
X1144526Y085871D01*
X1145701Y0858556D01*
X1146876Y085871D01*
X114797Y0859164D01*
X1148911Y0859885D01*
X1149632Y0860825D01*
X1150085Y086192D01*
X115024Y0863095D01*
X1150085Y0864269D01*
X1149632Y0865364D01*
X1148911Y0866304D01*
X114797Y0867025D01*
X1146876Y0867479D01*
X1145701Y0867634D01*
D02*
G37*
G36*
X11102Y0856495D02*
X1108829Y0856315D01*
X1107552Y0855786D01*
X1106809Y0855215D01*
D01*
X1106456Y0854944D01*
X1105614Y0853848D01*
X1105085Y0852571D01*
X1104905Y08512D01*
X1105085Y0849829D01*
X1105614Y0848552D01*
X1106456Y0847456D01*
X1107552Y0846614D01*
X1108829Y0846085D01*
X11102Y0845905D01*
X111157Y0846085D01*
X1112848Y0846614D01*
X1113944Y0847456D01*
X1114786Y0848552D01*
X1115315Y0849829D01*
X1115495Y08512D01*
X1115315Y0852571D01*
X1114786Y0853848D01*
X1113944Y0854944D01*
X1112848Y0855786D01*
X111157Y0856315D01*
X11102Y0856495D01*
D02*
G37*
%LPD*%
G36*
X1131347Y0959182D02*
X1131008Y0959224D01*
X1130686Y0959243D01*
X113038Y0959238D01*
X1130091Y0959209D01*
X1129819Y0959157D01*
X1129562Y0959081D01*
X1129323Y0958982D01*
X1129099Y0958859D01*
X1128893Y0958712D01*
X1128702Y0958542D01*
X1127801Y0959762D01*
X1127958Y0959936D01*
X1128104Y0960131D01*
X1128239Y0960349D01*
X1128363Y096059D01*
X1128476Y0960852D01*
X1128578Y0961136D01*
X1128668Y0961443D01*
X1128816Y0962122D01*
X1128874Y0962495D01*
X1131347Y0959182D01*
D02*
G37*
G36*
X1125657Y0955557D02*
X1125679Y0955336D01*
X1125716Y0955134D01*
X1125766Y0954954D01*
X1125832Y0954795D01*
X1125912Y0954656D01*
X1126007Y0954538D01*
X1126116Y0954441D01*
X112624Y0954365D01*
X1126378Y095431D01*
X1123422D01*
X112356Y0954365D01*
X1123684Y0954441D01*
X1123793Y0954538D01*
X1123888Y0954656D01*
X1123968Y0954795D01*
X1124034Y0954954D01*
X1124084Y0955134D01*
X1124121Y0955336D01*
X1124143Y0955557D01*
X112415Y09558D01*
X112565D01*
X1125657Y0955557D01*
D02*
G37*
%LPC*%
G36*
X1279473Y0817054D02*
X1276127D01*
X1275429Y0816962D01*
X1274779Y0816693D01*
X127422Y0816264D01*
X1273792Y0815706D01*
X1273522Y0815055D01*
X1273431Y0814357D01*
Y0809042D01*
X1273522Y0808345D01*
X1273792Y0807694D01*
X127422Y0807136D01*
X1274779Y0806707D01*
X1275413Y0806445D01*
X1275483Y0806252D01*
X1275563Y0805917D01*
X1275626Y0805487D01*
X1275651Y0805168D01*
Y0801156D01*
X1272944Y0798449D01*
X1260021D01*
X1259815Y0798464D01*
X1259438Y0798516D01*
X1259142Y0798582D01*
X1258933Y0798652D01*
X1258812Y0798713D01*
X1258806Y0798718D01*
X12588Y0798762D01*
Y079965D01*
X1257826D01*
X1257788Y0799658D01*
X125775Y079965D01*
X12518D01*
Y079215D01*
X125775D01*
X1257788Y0792142D01*
X1257826Y079215D01*
X12588D01*
Y0793038D01*
X1258806Y0793082D01*
X1258812Y0793087D01*
X1258933Y0793148D01*
X1259142Y0793219D01*
X1259421Y079328D01*
X1260106Y0793351D01*
X1273397D01*
X12739Y0793251D01*
X1274875Y0793445D01*
X1275702Y0793998D01*
X1280002Y0798298D01*
X1280555Y0799124D01*
X1280749Y08001D01*
Y0804987D01*
X1280762Y0805138D01*
X1280814Y0805487D01*
X1280886Y0805821D01*
X1280977Y0806143D01*
X1281088Y0806452D01*
X1281219Y0806749D01*
X128137Y0807037D01*
X1281541Y0807315D01*
X1281754Y0807612D01*
X1281766Y080764D01*
X1281808Y0807694D01*
X1281884Y0807877D01*
X1281899Y0807904D01*
X12819Y0807915D01*
X1282078Y0808345D01*
X128217Y0809042D01*
Y0814357D01*
X1282078Y0815055D01*
X1281808Y0815706D01*
X128138Y0816264D01*
X1280821Y0816693D01*
X1280171Y0816962D01*
X1279473Y0817054D01*
D02*
G37*
G36*
X12438Y0813749D02*
X1242825Y0813555D01*
X1241998Y0813002D01*
X1241445Y0812175D01*
X1241251Y08112D01*
X1241445Y0810225D01*
X1241998Y0809398D01*
X1243751Y0807644D01*
Y079965D01*
X12428D01*
Y079215D01*
X12498D01*
Y079965D01*
X1248849D01*
Y08087D01*
X1248655Y0809676D01*
X1248102Y0810502D01*
X1245602Y0813002D01*
X1244775Y0813555D01*
X12438Y0813749D01*
D02*
G37*
G36*
X1239513Y0791384D02*
X1234167D01*
Y0785971D01*
X1234142Y0785923D01*
X123414Y0785898D01*
X1234129Y0785875D01*
X1234123Y0785701D01*
X1234108Y0785526D01*
X1234116Y0785503D01*
X1234114Y0785478D01*
X123413Y0785382D01*
X123416Y0785301D01*
X1234167Y0785249D01*
Y0784659D01*
X1234456D01*
X1234898Y0783998D01*
X1239998Y0778898D01*
X1240825Y0778345D01*
X12418Y0778151D01*
X1242567D01*
X1242756Y0778133D01*
X12429Y0778111D01*
Y077695D01*
X12499D01*
Y078445D01*
X12429D01*
Y0783912D01*
X12424Y0783705D01*
X1240791Y0785314D01*
X1240246Y0785899D01*
X1239851Y0786389D01*
X1239548Y078682D01*
X1239513Y078688D01*
Y0791384D01*
D02*
G37*
G36*
X1257888Y0784458D02*
X125785Y078445D01*
X12519D01*
Y077695D01*
X125785D01*
X1257888Y0776942D01*
X1257926Y077695D01*
X12589D01*
Y0777838D01*
X1258906Y0777882D01*
X1258912Y0777887D01*
X1259033Y0777948D01*
X1259242Y0778019D01*
X1259521Y077808D01*
X1260206Y0778151D01*
X1262629D01*
X1262821Y077791D01*
X1263094Y0777509D01*
X1263229Y0777271D01*
X126322Y0777264D01*
X1262792Y0776706D01*
X1262522Y0776055D01*
X126243Y0775357D01*
Y0770043D01*
X1262522Y0769345D01*
X1262792Y0768694D01*
X126322Y0768136D01*
X1263779Y0767707D01*
X1264429Y0767438D01*
X1265127Y0767346D01*
X1268473D01*
X1269171Y0767438D01*
X1269821Y0767707D01*
X127038Y0768136D01*
X1270808Y0768694D01*
X1271078Y0769345D01*
X1271169Y0770043D01*
Y0775357D01*
X1271078Y0776055D01*
X1270808Y0776706D01*
X127038Y0777264D01*
X1269821Y0777693D01*
X1269287Y0777914D01*
X1269155Y0778576D01*
X1268602Y0779402D01*
X1265502Y0782502D01*
X1264675Y0783055D01*
X12637Y0783249D01*
X1260122D01*
X1259915Y0783264D01*
X1259538Y0783316D01*
X1259242Y0783382D01*
X1259033Y0783452D01*
X1258912Y0783513D01*
X1258906Y0783518D01*
X12589Y0783562D01*
Y078445D01*
X1257926D01*
X1257888Y0784458D01*
D02*
G37*
%LPD*%
G36*
X1280692Y080788D02*
X1280484Y0807542D01*
X12803Y0807192D01*
X1280141Y080683D01*
X1280006Y0806455D01*
X1279896Y0806068D01*
X127981Y0805669D01*
X1279749Y0805257D01*
X1279712Y0804833D01*
X12797Y0804397D01*
X12767Y0804367D01*
X1276685Y080502D01*
X127664Y08056D01*
X1276566Y080611D01*
X1276461Y0806548D01*
X1276327Y0806914D01*
X1276163Y0807208D01*
X1275969Y0807431D01*
X1275745Y0807582D01*
X1275491Y0807661D01*
X1275207Y0807669D01*
X1280924Y0808205D01*
X1280692Y080788D01*
D02*
G37*
G36*
X1257818Y0798403D02*
X1257908Y0798192D01*
X1258058Y0798007D01*
X1258268Y0797846D01*
X1258538Y079771D01*
X1258868Y0797598D01*
X1259258Y0797511D01*
X1259708Y0797449D01*
X1260218Y0797412D01*
X1260788Y07974D01*
Y07944D01*
X1260218Y0794388D01*
X1259258Y0794289D01*
X1258868Y0794202D01*
X1258538Y0794091D01*
X1258268Y0793954D01*
X1258058Y0793793D01*
X1257908Y0793608D01*
X1257818Y0793397D01*
X1257788Y0793162D01*
Y0798638D01*
X1257818Y0798403D01*
D02*
G37*
G36*
X1238297Y0788033D02*
X1238195Y0787777D01*
X1238183Y0787472D01*
X1238261Y078712D01*
X1238429Y078672D01*
X1238687Y0786271D01*
X1239036Y0785775D01*
X1239475Y0785231D01*
X1240623Y0783999D01*
X123789Y0782489D01*
X123729Y0783094D01*
X1235137Y0785544D01*
X1235121Y0785639D01*
X1235179Y0785671D01*
X1238489Y0788241D01*
X1238297Y0788033D01*
D02*
G37*
G36*
X1243924Y0778588D02*
X1243903Y0778704D01*
X1243839Y0778808D01*
X1243733Y07789D01*
X1243584Y077898D01*
X1243393Y0779047D01*
X1243159Y0779102D01*
X1242883Y0779145D01*
X1242565Y0779176D01*
X12418Y07792D01*
Y07822D01*
X1242204Y0782206D01*
X1242883Y0782255D01*
X1243159Y0782298D01*
X1243393Y0782353D01*
X1243584Y078242D01*
X1243733Y07825D01*
X1243839Y0782592D01*
X1243903Y0782696D01*
X1243924Y0782812D01*
Y0778588D01*
D02*
G37*
G36*
X1257918Y0783203D02*
X1258008Y0782992D01*
X1258158Y0782807D01*
X1258368Y0782646D01*
X1258638Y078251D01*
X1258968Y0782398D01*
X1259358Y0782311D01*
X1259808Y0782249D01*
X1260318Y0782212D01*
X1260888Y07822D01*
Y07792D01*
X1260318Y0779188D01*
X1259358Y0779089D01*
X1258968Y0779002D01*
X1258638Y0778891D01*
X1258368Y0778754D01*
X1258158Y0778593D01*
X1258008Y0778408D01*
X1257918Y0778197D01*
X1257888Y0777962D01*
Y0783438D01*
X1257918Y0783203D01*
D02*
G37*
G36*
X1267561Y0778961D02*
X12665Y07779D01*
X1265Y0774279D01*
X1264979Y077487D01*
X1264915Y0775444D01*
X1264809Y0776D01*
X1264661Y0776538D01*
X126447Y0777059D01*
X1264236Y0777562D01*
X126396Y0778048D01*
X1263642Y0778516D01*
X1263282Y0778967D01*
X1262879Y07794D01*
X1267561Y0778961D01*
D02*
G37*
%LPC*%
G36*
X1044473Y0815854D02*
X1041127D01*
X1040429Y0815762D01*
X1039779Y0815493D01*
X103922Y0815064D01*
X1038792Y0814506D01*
X1038522Y0813855D01*
X1038431Y0813157D01*
Y0807843D01*
X1038522Y0807145D01*
X1038708Y0806697D01*
X103871Y0806676D01*
X1038731Y080664D01*
X1038792Y0806494D01*
X1038837Y0806435D01*
X1038851Y0806405D01*
X1039105Y0806056D01*
X1039316Y0805729D01*
X1039499Y0805405D01*
X1039656Y0805083D01*
X1039787Y0804763D01*
X1039894Y0804445D01*
X1039975Y0804127D01*
X1040034Y080381D01*
X1040051Y0803648D01*
Y0803056D01*
X1034744Y0797749D01*
X1025821D01*
X1025615Y0797764D01*
X1025238Y0797816D01*
X1024942Y0797882D01*
X1024733Y0797952D01*
X1024612Y0798013D01*
X1024606Y0798018D01*
X10246Y0798062D01*
Y079895D01*
X1023626D01*
X1023588Y0798958D01*
X102355Y079895D01*
X10176D01*
Y079145D01*
X102355D01*
X1023588Y0791442D01*
X1023626Y079145D01*
X10246D01*
Y0792338D01*
X1024606Y0792382D01*
X1024612Y0792387D01*
X1024733Y0792448D01*
X1024942Y0792519D01*
X1025221Y079258D01*
X1025906Y0792651D01*
X10358D01*
X1036775Y0792845D01*
X1037602Y0793398D01*
X1044402Y0800198D01*
X1044955Y0801025D01*
X1045149Y0802D01*
Y0803997D01*
X1045174Y0804332D01*
X1045238Y0804784D01*
X104532Y0805141D01*
X1045385Y0805327D01*
X1045821Y0805507D01*
X104638Y0805936D01*
X1046808Y0806494D01*
X1047078Y0807145D01*
X1047169Y0807843D01*
Y0813157D01*
X1047078Y0813855D01*
X1046808Y0814506D01*
X104638Y0815064D01*
X1045821Y0815493D01*
X1045171Y0815762D01*
X1044473Y0815854D01*
D02*
G37*
G36*
X10104Y0822149D02*
X1009425Y0821955D01*
X1008598Y0821402D01*
X1006398Y0819202D01*
X1005845Y0818375D01*
X1005651Y08174D01*
Y0799D01*
X1005845Y0798025D01*
X1006398Y0797198D01*
X1007721Y0795874D01*
X100822Y0795311D01*
X1008426Y0795051D01*
X1008572Y0794846D01*
X10086Y0794799D01*
Y079145D01*
X10156D01*
Y079895D01*
X1012042D01*
X1010749Y0800064D01*
Y0816344D01*
X1011801Y0817396D01*
X1012102Y0817598D01*
X1012655Y0818425D01*
X1012669Y0818496D01*
X1012755Y0818624D01*
X1012949Y08196D01*
X1012755Y0820575D01*
X1012202Y0821402D01*
X1011375Y0821955D01*
X10104Y0822149D01*
D02*
G37*
G36*
X1002345Y0790489D02*
X1002321Y0790484D01*
X0998067D01*
Y0784851D01*
X0998061Y0784828D01*
X0998067Y0784785D01*
Y0783759D01*
X0998999D01*
X0999022Y0783753D01*
X0999347Y0783735D01*
X0999627Y0783689D01*
X099992Y0783609D01*
X1000227Y0783493D01*
X1000551Y0783338D01*
X1000889Y0783143D01*
X1001229Y0782913D01*
X1001859Y0782398D01*
X1002451Y0781806D01*
Y07782D01*
X1002645Y0777224D01*
X1003198Y0776398D01*
X1005498Y0774098D01*
X1006325Y0773545D01*
X10073Y0773351D01*
X1008067D01*
X1008256Y0773333D01*
X10084Y0773311D01*
Y077245D01*
X10154D01*
Y077995D01*
X10084D01*
Y0779112D01*
X10079Y0778905D01*
X1007549Y0779256D01*
Y0782862D01*
X1007355Y0783837D01*
X1006802Y0784664D01*
X1004723Y0786743D01*
X1004549Y0786944D01*
X1004268Y0787309D01*
X100403Y0787661D01*
X1003834Y0788D01*
X1003679Y0788323D01*
X1003563Y0788631D01*
X1003484Y0788924D01*
X1003438Y0789203D01*
X1003419Y0789528D01*
X1003413Y0789552D01*
Y0790484D01*
X1002387D01*
X1002345Y0790489D01*
D02*
G37*
G36*
X1023388Y0779958D02*
X102335Y077995D01*
X10174D01*
Y077245D01*
X102335D01*
X1023388Y0772442D01*
X1023426Y077245D01*
X10244D01*
Y0773338D01*
X1024406Y0773382D01*
X1024412Y0773387D01*
X1024533Y0773448D01*
X1024742Y0773519D01*
X1025021Y077358D01*
X1025706Y0773651D01*
X1026744D01*
X1027431Y0772965D01*
Y0768843D01*
X1027522Y0768145D01*
X1027792Y0767494D01*
X102822Y0766936D01*
X1028779Y0766507D01*
X1029429Y0766238D01*
X1030127Y0766146D01*
X1033473D01*
X1034171Y0766238D01*
X1034821Y0766507D01*
X103538Y0766936D01*
X1035808Y0767494D01*
X1036078Y0768145D01*
X103617Y0768843D01*
Y0774157D01*
X1036078Y0774855D01*
X1035808Y0775506D01*
X103538Y0776064D01*
X1034821Y0776493D01*
X1034171Y0776762D01*
X1033473Y0776854D01*
X1030751D01*
X1029602Y0778002D01*
X1028775Y0778555D01*
X10278Y0778749D01*
X1025622D01*
X1025415Y0778764D01*
X1025038Y0778816D01*
X1024742Y0778882D01*
X1024533Y0778952D01*
X1024412Y0779013D01*
X1024406Y0779018D01*
X10244Y0779062D01*
Y077995D01*
X1023426D01*
X1023388Y0779958D01*
D02*
G37*
%LPD*%
G36*
X1045593Y0806623D02*
X1045309Y0806606D01*
X1045055Y0806515D01*
X1044831Y0806352D01*
X1044637Y0806116D01*
X1044473Y0805807D01*
X1044339Y0805425D01*
X1044234Y080497D01*
X104416Y0804442D01*
X1044115Y0803841D01*
X10441Y0803167D01*
X10411Y080317D01*
X1041086Y0803565D01*
X1041043Y0803957D01*
X1040972Y0804346D01*
X1040872Y0804733D01*
X1040744Y0805118D01*
X1040587Y08055D01*
X1040402Y080588D01*
X1040189Y0806257D01*
X1039946Y0806632D01*
X1039676Y0807005D01*
X1045593Y0806623D01*
D02*
G37*
G36*
X1023618Y0797703D02*
X1023708Y0797492D01*
X1023858Y0797307D01*
X1024068Y0797146D01*
X1024338Y079701D01*
X1024668Y0796898D01*
X1025058Y0796811D01*
X1025508Y0796749D01*
X1026018Y0796712D01*
X1026588Y07967D01*
Y07937D01*
X1026018Y0793688D01*
X1025058Y0793589D01*
X1024668Y0793502D01*
X1024338Y0793391D01*
X1024068Y0793254D01*
X1023858Y0793093D01*
X1023708Y0792908D01*
X1023618Y0792697D01*
X1023588Y0792462D01*
Y0797938D01*
X1023618Y0797703D01*
D02*
G37*
G36*
X1009744Y0799584D02*
X1011489Y0798081D01*
X1011705Y0797955D01*
X1011876Y0797887D01*
X1012003Y0797877D01*
X1012086Y0797926D01*
X1009624Y0794764D01*
X1009657Y0794862D01*
X1009635Y0795001D01*
X1009559Y0795181D01*
X1009428Y0795402D01*
X1009242Y0795664D01*
X1009001Y0795967D01*
X1008355Y0796696D01*
X1007491Y0797588D01*
X1009262Y0800059D01*
X1009744Y0799584D01*
D02*
G37*
G36*
X1002423Y0789091D02*
X1002486Y0788706D01*
X1002592Y0788317D01*
X1002741Y0787922D01*
X1002932Y0787524D01*
X1003165Y078712D01*
X1003441Y0786712D01*
X1003759Y0786299D01*
X100412Y0785882D01*
X1004523Y078546D01*
X100309Y078265D01*
X1002668Y0783053D01*
X1001838Y0783732D01*
X100143Y0784007D01*
X1001027Y0784241D01*
X1000628Y0784432D01*
X1000234Y078458D01*
X0999844Y0784686D01*
X0999459Y078475D01*
X0999079Y0784771D01*
X1002401Y0789471D01*
X1002423Y0789091D01*
D02*
G37*
G36*
X1009424Y0773788D02*
X1009403Y0773904D01*
X1009339Y0774008D01*
X1009233Y07741D01*
X1009084Y077418D01*
X1008893Y0774247D01*
X1008659Y0774302D01*
X1008383Y0774345D01*
X1008065Y0774375D01*
X10073Y07744D01*
Y07774D01*
X1007704Y0777406D01*
X1008383Y0777455D01*
X1008659Y0777498D01*
X1008893Y0777553D01*
X1009084Y077762D01*
X1009233Y07777D01*
X1009339Y0777792D01*
X1009403Y0777896D01*
X1009424Y0778012D01*
Y0773788D01*
D02*
G37*
G36*
X1023418Y0778703D02*
X1023508Y0778492D01*
X1023658Y0778307D01*
X1023868Y0778146D01*
X1024138Y077801D01*
X1024468Y0777898D01*
X1024858Y0777811D01*
X1025308Y0777749D01*
X1025818Y0777712D01*
X1026388Y07777D01*
Y07747D01*
X1025818Y0774688D01*
X1024858Y0774589D01*
X1024468Y0774502D01*
X1024138Y0774391D01*
X1023868Y0774254D01*
X1023658Y0774093D01*
X1023508Y0773908D01*
X1023418Y0773697D01*
X1023388Y0773462D01*
Y0778938D01*
X1023418Y0778703D01*
D02*
G37*
%LPC*%
G36*
X1122473Y0816154D02*
X1119127D01*
X1118429Y0816062D01*
X1117779Y0815793D01*
X111722Y0815364D01*
X1116792Y0814806D01*
X1116522Y0814155D01*
X111643Y0813457D01*
Y0808142D01*
X1116522Y0807445D01*
X1116697Y0807024D01*
X1116697Y0807018D01*
X1116706Y0807001D01*
X1116792Y0806794D01*
X1116832Y0806742D01*
X1116844Y0806715D01*
X1117035Y0806446D01*
X1117186Y0806193D01*
X1117321Y0805924D01*
X1117439Y0805638D01*
X1117541Y0805333D01*
X1117625Y0805009D01*
X1117689Y0804679D01*
X1117751Y0804088D01*
Y0801156D01*
X1114844Y0798249D01*
X1102122D01*
X1101915Y0798264D01*
X1101538Y0798316D01*
X1101242Y0798382D01*
X1101033Y0798452D01*
X1100912Y0798513D01*
X1100906Y0798518D01*
X11009Y0798562D01*
Y079945D01*
X1099926D01*
X1099888Y0799458D01*
X109985Y079945D01*
X10939D01*
Y079195D01*
X109985D01*
X1099888Y0791942D01*
X1099926Y079195D01*
X11009D01*
Y0792838D01*
X1100906Y0792882D01*
X1100912Y0792887D01*
X1101033Y0792948D01*
X1101242Y0793018D01*
X1101521Y079308D01*
X1102206Y0793151D01*
X11159D01*
X1116875Y0793345D01*
X1117702Y0793898D01*
X1122102Y0798298D01*
X1122655Y0799124D01*
X1122849Y08001D01*
Y0804254D01*
X1122873Y0804567D01*
X1122936Y0804986D01*
X1123015Y0805311D01*
X1123097Y0805528D01*
X1123171Y0805538D01*
X1123821Y0805807D01*
X112438Y0806236D01*
X1124808Y0806794D01*
X1125078Y0807445D01*
X1125169Y0808142D01*
Y0813457D01*
X1125078Y0814155D01*
X1124808Y0814806D01*
X112438Y0815364D01*
X1123821Y0815793D01*
X1123171Y0816062D01*
X1122473Y0816154D01*
D02*
G37*
G36*
X1077713Y0789984D02*
X1072367D01*
Y0784366D01*
X1072362Y078435D01*
X1072367Y0784312D01*
Y0783259D01*
X1073284D01*
X10733Y0783255D01*
X1073503Y0783239D01*
X1073664Y0783203D01*
X1073865Y0783134D01*
X1074103Y0783024D01*
X1074373Y0782871D01*
X1074672Y0782673D01*
X1074988Y0782437D01*
X1075509Y0781986D01*
X1079298Y0778198D01*
X1080125Y0777645D01*
X10811Y0777451D01*
X1084079D01*
X1084285Y0777436D01*
X1084662Y0777384D01*
X1084958Y0777318D01*
X1085167Y0777248D01*
X1085288Y0777187D01*
X1085294Y0777182D01*
X10853Y0777138D01*
Y077625D01*
X1086274D01*
X1086312Y0776242D01*
X108635Y077625D01*
X10923D01*
Y078375D01*
X108635D01*
X1086312Y0783758D01*
X1086274Y078375D01*
X10853D01*
Y0782862D01*
X1085294Y0782818D01*
X1085288Y0782813D01*
X1085167Y0782752D01*
X1084958Y0782682D01*
X1084679Y078262D01*
X1083994Y0782549D01*
X1082156D01*
X1078838Y0785867D01*
X1078545Y0786198D01*
X1078172Y0786666D01*
X1077884Y0787082D01*
X1077713Y0787381D01*
Y0789984D01*
D02*
G37*
G36*
X1100288Y0783758D02*
X110025Y078375D01*
X10943D01*
Y077625D01*
X110025D01*
X1100288Y0776242D01*
X1100326Y077625D01*
X11013D01*
Y0777138D01*
X1101306Y0777182D01*
X1101312Y0777187D01*
X1101433Y0777248D01*
X1101642Y0777318D01*
X1101921Y077738D01*
X1102606Y0777451D01*
X1103244D01*
X1104675Y077602D01*
X1104984Y0775673D01*
X1105362Y07752D01*
X1105501Y0774997D01*
X1105431Y0774458D01*
Y0769142D01*
X1105522Y0768445D01*
X1105792Y0767794D01*
X110622Y0767236D01*
X1106779Y0766807D01*
X1107429Y0766538D01*
X1108127Y0766446D01*
X1111473D01*
X1112171Y0766538D01*
X1112821Y0766807D01*
X111338Y0767236D01*
X1113808Y0767794D01*
X1114078Y0768445D01*
X111417Y0769142D01*
Y0774458D01*
X1114078Y0775155D01*
X1113808Y0775806D01*
X111338Y0776364D01*
X1112821Y0776793D01*
X1112302Y0777008D01*
X1112266Y077703D01*
X1112235Y0777035D01*
X1112171Y0777062D01*
X1112111Y077707D01*
X1112086Y077708D01*
X1111769Y0777136D01*
X1111489Y0777212D01*
X1111199Y0777317D01*
X1110897Y0777453D01*
X1110585Y0777621D01*
X1110264Y0777822D01*
X1109943Y0778051D01*
X1109402Y0778503D01*
X1106102Y0781802D01*
X1105275Y0782355D01*
X11043Y0782549D01*
X1102522D01*
X1102315Y0782564D01*
X1101938Y0782616D01*
X1101642Y0782682D01*
X1101433Y0782752D01*
X1101312Y0782813D01*
X1101306Y0782818D01*
X11013Y0782862D01*
Y078375D01*
X1100326D01*
X1100288Y0783758D01*
D02*
G37*
%LPD*%
G36*
X1123295Y0806698D02*
X1123011Y0806695D01*
X1122757Y080662D01*
X1122533Y0806475D01*
X1122338Y0806258D01*
X1122174Y0805971D01*
X1122039Y0805612D01*
X1121935Y0805183D01*
X112186Y0804682D01*
X1121815Y080411D01*
X11218Y0803467D01*
X11188Y080351D01*
X1118789Y0803967D01*
X1118699Y080483D01*
X111862Y0805235D01*
X1118519Y0805623D01*
X1118395Y0805994D01*
X1118249Y0806348D01*
X1118081Y0806684D01*
X1117889Y0807003D01*
X1117676Y0807305D01*
X1123295Y0806698D01*
D02*
G37*
G36*
X1099918Y0798203D02*
X1100008Y0797992D01*
X1100158Y0797807D01*
X1100368Y0797646D01*
X1100638Y0797509D01*
X1100968Y0797398D01*
X1101358Y0797311D01*
X1101808Y079725D01*
X1102318Y0797212D01*
X1102888Y07972D01*
Y07942D01*
X1102318Y0794188D01*
X1101358Y0794089D01*
X1100968Y0794002D01*
X1100638Y079389D01*
X1100368Y0793754D01*
X1100158Y0793593D01*
X1100008Y0793408D01*
X1099918Y0793197D01*
X1099888Y0792962D01*
Y0798438D01*
X1099918Y0798203D01*
D02*
G37*
G36*
X1076547Y0788383D02*
X1076484Y0788087D01*
X10765Y0787755D01*
X1076594Y0787386D01*
X1076768Y078698D01*
X1077021Y0786538D01*
X1077353Y0786058D01*
X1077764Y0785542D01*
X1078254Y0784989D01*
X1078823Y0784399D01*
X1076829Y078215D01*
X1076413Y0782553D01*
X1075627Y0783232D01*
X1075259Y0783507D01*
X1074906Y0783741D01*
X1074569Y0783932D01*
X1074247Y078408D01*
X1073942Y0784186D01*
X1073653Y078425D01*
X1073379Y0784271D01*
X1076689Y0788641D01*
X1076547Y0788383D01*
D02*
G37*
G36*
X1086312Y0777262D02*
X1086282Y0777497D01*
X1086192Y0777708D01*
X1086042Y0777893D01*
X1085832Y0778054D01*
X1085562Y0778191D01*
X1085232Y0778302D01*
X1084842Y0778389D01*
X1084392Y077845D01*
X1083882Y0778488D01*
X1083312Y07785D01*
Y07815D01*
X1083882Y0781512D01*
X1084842Y0781611D01*
X1085232Y0781698D01*
X1085562Y078181D01*
X1085832Y0781946D01*
X1086042Y0782107D01*
X1086192Y0782292D01*
X1086282Y0782503D01*
X1086312Y0782738D01*
Y0777262D01*
D02*
G37*
G36*
X1100318Y0782503D02*
X1100408Y0782292D01*
X1100558Y0782107D01*
X1100768Y0781946D01*
X1101038Y078181D01*
X1101368Y0781698D01*
X1101758Y0781611D01*
X1102208Y078155D01*
X1102718Y0781512D01*
X1103288Y07815D01*
Y07785D01*
X1102718Y0778488D01*
X1101758Y0778389D01*
X1101368Y0778302D01*
X1101038Y0778191D01*
X1100768Y0778054D01*
X1100558Y0777893D01*
X1100408Y0777708D01*
X1100318Y0777497D01*
X1100288Y0777262D01*
Y0782738D01*
X1100318Y0782503D01*
D02*
G37*
G36*
X1108554Y0777883D02*
X1109319Y0777243D01*
X1109697Y0776974D01*
X1110073Y0776739D01*
X1110445Y0776538D01*
X1110815Y0776371D01*
X1111182Y0776239D01*
X1111546Y077614D01*
X1111907Y0776076D01*
X1106463Y0773606D01*
X1106706Y0773764D01*
X1106855Y0773974D01*
X1106909Y0774236D01*
X1106869Y0774551D01*
X1106734Y0774917D01*
X1106505Y0775336D01*
X1106182Y0775807D01*
X1105764Y0776331D01*
X1105251Y0776906D01*
X1104645Y0777534D01*
X1108167Y0778254D01*
X1108554Y0777883D01*
D02*
G37*
%LPC*%
G36*
X11793Y0818349D02*
X1178325Y0818155D01*
X1177498Y0817602D01*
X1176945Y0816776D01*
X1176751Y08158D01*
Y08129D01*
X1176945Y0811924D01*
X1177498Y0811098D01*
X1180598Y0807998D01*
X1181425Y0807445D01*
X11824Y0807251D01*
X1183358D01*
X1183629Y0807228D01*
X1184003Y0807167D01*
X1184295Y080709D01*
X1184499Y0807009D01*
X118462Y0806937D01*
X1184672Y0806891D01*
X1184678Y0806881D01*
X1184722Y0806545D01*
X1184992Y0805894D01*
X118542Y0805336D01*
X1185979Y0804907D01*
X1186629Y0804638D01*
X1187327Y0804546D01*
X1190673D01*
X1191371Y0804638D01*
X1192021Y0804907D01*
X119258Y0805336D01*
X1193008Y0805894D01*
X1193278Y0806545D01*
X1193369Y0807242D01*
Y0812558D01*
X1193278Y0813255D01*
X1193008Y0813906D01*
X119258Y0814464D01*
X1192021Y0814893D01*
X1191371Y0815162D01*
X1190673Y0815254D01*
X1187327D01*
X1186629Y0815162D01*
X1185979Y0814893D01*
X118542Y0814464D01*
X1184992Y0813906D01*
X1184722Y0813255D01*
X1184651Y0812711D01*
X1184646Y0812704D01*
X1184598Y081266D01*
X1184481Y081259D01*
X118428Y0812509D01*
X1183993Y0812433D01*
X1183623Y0812372D01*
X1183448Y0812357D01*
X1181849Y0813956D01*
Y08158D01*
X1181655Y0816776D01*
X1181102Y0817602D01*
X1180275Y0818155D01*
X11793Y0818349D01*
D02*
G37*
G36*
X1201673Y0815254D02*
X1198327D01*
X1197629Y0815162D01*
X1196979Y0814893D01*
X119642Y0814464D01*
X1195992Y0813906D01*
X1195722Y0813255D01*
X119563Y0812558D01*
Y0807242D01*
X1195722Y0806545D01*
X1195992Y0805894D01*
X119642Y0805336D01*
X1196465Y0805302D01*
X119648Y0805282D01*
X1196716Y0805081D01*
X1196889Y0804898D01*
X1197043Y0804698D01*
X1197177Y0804477D01*
X1197294Y0804231D01*
X1197393Y0803959D01*
X1197472Y0803658D01*
X1197531Y0803326D01*
X1197551Y0803126D01*
Y0801656D01*
X1193744Y0797849D01*
X1181921D01*
X1181715Y0797864D01*
X1181338Y0797916D01*
X1181042Y0797982D01*
X1180833Y0798052D01*
X1180712Y0798113D01*
X1180706Y0798118D01*
X11807Y0798162D01*
Y079905D01*
X1179726D01*
X1179688Y0799058D01*
X117965Y079905D01*
X11737D01*
Y079155D01*
X117965D01*
X1179688Y0791542D01*
X1179726Y079155D01*
X11807D01*
Y0792438D01*
X1180706Y0792482D01*
X1180712Y0792487D01*
X1180833Y0792548D01*
X1181042Y0792619D01*
X1181321Y079268D01*
X1182006Y0792751D01*
X11948D01*
X1195775Y0792945D01*
X1196602Y0793498D01*
X1201902Y0798798D01*
X1202455Y0799624D01*
X1202649Y08006D01*
Y0803219D01*
X1202664Y0803399D01*
X1202717Y0803757D01*
X1202787Y0804075D01*
X1202874Y0804355D01*
X1202975Y0804597D01*
X1203086Y0804803D01*
X1203207Y0804976D01*
X1203338Y0805123D01*
X1203529Y080529D01*
X1203542Y0805307D01*
X120358Y0805336D01*
X1204008Y0805894D01*
X1204278Y0806545D01*
X120437Y0807242D01*
Y0812558D01*
X1204278Y0813255D01*
X1204008Y0813906D01*
X120358Y0814464D01*
X1203021Y0814893D01*
X1202371Y0815162D01*
X1201673Y0815254D01*
D02*
G37*
G36*
X11634Y0822949D02*
X11508D01*
X1149825Y0822755D01*
X1148998Y0822202D01*
X1148445Y0821375D01*
X1148251Y08204D01*
X1148445Y0819425D01*
X1148998Y0818598D01*
X1149825Y0818045D01*
X11508Y0817851D01*
X1162344D01*
X1166051Y0814144D01*
Y079905D01*
X11647D01*
Y079155D01*
X11717D01*
Y079905D01*
X1171149D01*
Y08152D01*
X1170955Y0816175D01*
X1170402Y0817002D01*
X1165202Y0822202D01*
X1164375Y0822755D01*
X11634Y0822949D01*
D02*
G37*
G36*
X1157313Y0790983D02*
X1151967D01*
Y0784259D01*
X1152211D01*
X1152285Y0783884D01*
X1152838Y0783057D01*
X1156998Y0778898D01*
X1157825Y0778345D01*
X11588Y0778151D01*
X1163302D01*
X1163567Y0778128D01*
X116393Y0778067D01*
X1164212Y0777992D01*
X1164409Y0777912D01*
X1164523Y0777842D01*
X1164571Y0777797D01*
X1164585Y0777778D01*
X1164592Y0777756D01*
X11646Y0777686D01*
Y077625D01*
X11716D01*
Y078375D01*
X1165648D01*
X116561Y0783758D01*
X1165572Y078375D01*
X1165522D01*
X1165503Y0783752D01*
X1165497Y078375D01*
X11646D01*
Y0783337D01*
X1163455Y0783249D01*
X1159856D01*
X1157313Y0785791D01*
Y0790983D01*
D02*
G37*
G36*
X1179588Y0783758D02*
X117955Y078375D01*
X11736D01*
Y077625D01*
X117955D01*
X1179588Y0776242D01*
X1179626Y077625D01*
X11806D01*
Y0777138D01*
X1180606Y0777182D01*
X1180612Y0777187D01*
X1180733Y0777248D01*
X1180942Y0777318D01*
X1181221Y077738D01*
X1181906Y0777451D01*
X1184644D01*
X1185778Y0776317D01*
X1185705Y0775683D01*
X118542Y0775464D01*
X1184992Y0774906D01*
X1184722Y0774255D01*
X118463Y0773558D01*
Y0768243D01*
X1184722Y0767545D01*
X1184992Y0766894D01*
X118542Y0766336D01*
X1185979Y0765907D01*
X1186629Y0765638D01*
X1187327Y0765546D01*
X1190673D01*
X1191371Y0765638D01*
X1192021Y0765907D01*
X119258Y0766336D01*
X1193008Y0766894D01*
X1193278Y0767545D01*
X1193369Y0768243D01*
Y0773558D01*
X1193278Y0774255D01*
X1193008Y0774906D01*
X119258Y0775464D01*
X1192021Y0775893D01*
X1191549Y0776088D01*
Y07767D01*
X1191355Y0777675D01*
X1190802Y0778502D01*
X1187502Y0781802D01*
X1186675Y0782355D01*
X11857Y0782549D01*
X1181822D01*
X1181615Y0782564D01*
X1181238Y0782616D01*
X1180942Y0782682D01*
X1180733Y0782752D01*
X1180612Y0782813D01*
X1180606Y0782818D01*
X11806Y0782862D01*
Y078375D01*
X1179626D01*
X1179588Y0783758D01*
D02*
G37*
%LPD*%
G36*
X1185723Y0806805D02*
X1185691Y0807089D01*
X1185598Y0807343D01*
X1185444Y0807567D01*
X1185228Y0807762D01*
X1184952Y0807926D01*
X1184614Y0808061D01*
X1184215Y0808165D01*
X1183755Y080824D01*
X1183234Y0808285D01*
X1182651Y08083D01*
Y08113D01*
X1183231Y0811315D01*
X1183749Y081136D01*
X1184206Y0811435D01*
X1184603Y081154D01*
X1184938Y0811675D01*
X1185211Y0811839D01*
X1185424Y0812034D01*
X1185575Y0812259D01*
X1185666Y0812514D01*
X1185695Y0812798D01*
X1185723Y0806805D01*
D02*
G37*
G36*
X1202619Y0805849D02*
X1202405Y0805609D01*
X1202216Y0805338D01*
X1202053Y0805036D01*
X1201915Y0804702D01*
X1201801Y0804338D01*
X1201713Y0803942D01*
X120165Y0803515D01*
X1201613Y0803057D01*
X12016Y0802567D01*
X11986D01*
X1198585Y0803029D01*
X1198542Y0803466D01*
X1198469Y0803877D01*
X1198367Y0804264D01*
X1198236Y0804626D01*
X1198075Y0804962D01*
X1197886Y0805274D01*
X1197667Y080556D01*
X1197419Y0805821D01*
X1197142Y0806058D01*
X1202858D01*
X1202619Y0805849D01*
D02*
G37*
G36*
X1179718Y0797803D02*
X1179808Y0797592D01*
X1179958Y0797407D01*
X1180168Y0797246D01*
X1180438Y079711D01*
X1180768Y0796998D01*
X1181158Y0796911D01*
X1181608Y0796849D01*
X1182118Y0796812D01*
X1182688Y07968D01*
Y07938D01*
X1182118Y0793788D01*
X1181158Y0793689D01*
X1180768Y0793602D01*
X1180438Y0793491D01*
X1180168Y0793354D01*
X1179958Y0793193D01*
X1179808Y0793008D01*
X1179718Y0792797D01*
X1179688Y0792562D01*
Y0798038D01*
X1179718Y0797803D01*
D02*
G37*
G36*
X1165624Y07777D02*
X1165593Y0777985D01*
X1165502Y077824D01*
X1165351Y0778465D01*
X116514Y077866D01*
X1164869Y0778825D01*
X1164538Y077896D01*
X1164147Y0779065D01*
X1163695Y077914D01*
X1163184Y0779185D01*
X1162612Y07792D01*
Y07822D01*
X1163182Y0782205D01*
X1164862Y0782335D01*
X1165132Y0782394D01*
X1165342Y0782464D01*
X1165492Y0782544D01*
X1165582Y0782636D01*
X1165612Y0782738D01*
X1165624Y07777D01*
D02*
G37*
G36*
X1179618Y0782503D02*
X1179708Y0782292D01*
X1179858Y0782107D01*
X1180068Y0781946D01*
X1180338Y078181D01*
X1180668Y0781698D01*
X1181058Y0781611D01*
X1181508Y078155D01*
X1182018Y0781512D01*
X1182588Y07815D01*
Y07785D01*
X1182018Y0778488D01*
X1181058Y0778389D01*
X1180668Y0778302D01*
X1180338Y0778191D01*
X1180068Y0778054D01*
X1179858Y0777893D01*
X1179708Y0777708D01*
X1179618Y0777497D01*
X1179588Y0777262D01*
Y0782738D01*
X1179618Y0782503D01*
D02*
G37*
D18*
X11208Y09671D02*
X11248Y09711D01*
X10849Y09671D02*
X11208D01*
X10822Y09644D02*
X10849Y09671D01*
X10822Y09593D02*
Y09644D01*
X10821Y09524D02*
Y09593D01*
X10766Y09612D02*
X10802D01*
X10821Y09593D01*
Y09524D02*
X1083929Y0950571D01*
X1093862D01*
X10949Y0949533D01*
X11709Y09597D02*
Y0960166D01*
X1171712Y0960978D01*
X1194D01*
X1202351Y0952627D01*
Y0941749D02*
X1211Y09331D01*
X1202351Y0941749D02*
Y0952627D01*
X1211Y08983D02*
Y09331D01*
Y08983D02*
X1214726Y0894574D01*
Y08566D02*
Y0894574D01*
X12154Y08495D02*
Y08559D01*
Y08495D02*
X12224Y08425D01*
Y0830651D02*
Y08425D01*
X12181Y08194D02*
X1222503Y0823803D01*
Y0830548D01*
X12224Y0830651D02*
X1222503Y0830548D01*
X12101Y08194D02*
X12181D01*
X12016Y08279D02*
X12101Y08194D01*
X1078364Y08254D02*
X1200564D01*
X12193Y07663D02*
Y0806664D01*
X1200564Y08254D02*
X12193Y0806664D01*
X10794Y08279D02*
X12016D01*
X1068618Y0838682D02*
X10794Y08279D01*
X10708Y08245D02*
X1075729D01*
X11304Y08229D02*
X11362Y08171D01*
X1077329Y08229D02*
X11304D01*
X1075729Y08245D02*
X1077329Y08229D01*
X1076764Y0827D02*
X1078364Y08254D01*
X10742Y0827D02*
X1076764D01*
X10604Y08349D02*
X10708Y08245D01*
X10648Y08364D02*
X10742Y0827D01*
X1068618Y0838682D02*
Y0926918D01*
X10648Y08364D02*
Y09411D01*
X10604Y08349D02*
Y0944299D01*
X1068618Y0926918D02*
X10781Y09364D01*
X10952D01*
X11028Y0944D01*
Y09565D01*
X10997Y09596D02*
X11028Y09565D01*
X1094Y09621D02*
X10965Y09596D01*
X10997D01*
X1068401Y09613D02*
X1076D01*
X10598D02*
X1068401D01*
X1172222Y08516D02*
X11727D01*
X1254694Y08336D02*
X12963D01*
X1247211Y0841084D02*
X1254694Y08336D01*
X12963D02*
X13084Y08215D01*
X1258065Y08363D02*
X12984D01*
Y08371D02*
Y0841165D01*
X1304Y08315D02*
X13084D01*
X12984Y08371D02*
X1304Y08315D01*
X1254096Y0840269D02*
X1258065Y08363D01*
X12337Y08943D02*
Y09036D01*
X1230474Y0906826D02*
X12337Y09036D01*
X1230474Y0906826D02*
Y0916639D01*
X12273Y0823D02*
Y0827D01*
Y0823D02*
X12305Y08198D01*
X12414D01*
X12427Y08211D01*
Y08446D01*
X1238348Y0848952D02*
X12427Y08446D01*
X1238348Y0848952D02*
Y08566D01*
X1230474Y0842526D02*
X12383Y08347D01*
Y08295D02*
Y08347D01*
X1224Y09493D02*
Y09614D01*
X1223116Y0915739D02*
X12233Y0915556D01*
Y09054D02*
Y0915556D01*
X1230474Y0842526D02*
Y08566D01*
X1247211Y0841084D02*
Y0856989D01*
X12466Y08576D02*
X1247211Y0856989D01*
X13082Y08796D02*
X13096D01*
X13099Y08799D01*
X13153Y08284D02*
Y08745D01*
X13084Y08215D02*
X13153Y08284D01*
X13099Y0879092D02*
Y08799D01*
Y0879092D02*
X1310235Y0878757D01*
X1311043D01*
X13153Y08745D01*
X13014Y0844165D02*
Y0867D01*
X12984Y0841165D02*
X13014Y0844165D01*
X13077Y08701D02*
X13082Y08696D01*
X1307121Y0869521D02*
X13077Y08701D01*
X1303921Y0869521D02*
X1307121D01*
X13014Y0867D02*
X1303921Y0869521D01*
X1254096Y0840269D02*
Y08566D01*
X1246222Y08576D02*
Y0907767D01*
X1254096Y08576D02*
Y0907767D01*
X12006Y08451D02*
X1205973D01*
X11949D02*
X12006D01*
X11984Y08473D02*
Y08556D01*
Y08473D02*
X12006Y08451D01*
X1206852Y0845979D02*
Y08566D01*
X1205973Y08451D02*
X1206852Y0845979D01*
X12269Y07976D02*
X12294Y07951D01*
Y0788D02*
Y07951D01*
X11472Y07876D02*
Y07967D01*
X10676Y07866D02*
Y07953D01*
X09933Y07871D02*
Y07972D01*
X1171772Y085115D02*
X1172222Y08516D01*
X1171772Y0850672D02*
Y085115D01*
X10513Y08329D02*
Y09525D01*
X1236458Y0973142D02*
X124045Y096915D01*
Y095095D02*
Y096915D01*
X12403Y09508D02*
X124045Y095095D01*
X11398Y09566D02*
X113985Y095655D01*
Y0949583D02*
Y095655D01*
Y0949583D02*
X11399Y0949533D01*
X1246222Y08566D02*
Y08576D01*
X12601Y0933D02*
X1260313Y0932787D01*
X1260675D02*
X1261048D01*
X1260313D02*
X1260675D01*
X1261048D02*
X1261261Y0933D01*
X12973D01*
X13008Y09295D01*
Y09016D02*
Y09295D01*
Y09016D02*
X13028Y08996D01*
X13082D01*
X09914Y0829D02*
X10474D01*
X09889Y08265D02*
X09914Y0829D01*
X12193Y07663D02*
X12258Y07598D01*
X11363Y07654D02*
Y08115D01*
X11364Y07654D02*
X11431Y07587D01*
X11483D01*
X09873Y0762D02*
X09916Y07577D01*
X09873Y0762D02*
Y08248D01*
X098895Y082645D01*
X1224101Y0931399D02*
X12242Y09313D01*
X1224101Y0931399D02*
Y0949533D01*
X1224Y09614D02*
X1231Y09684D01*
X1217058Y0973142D02*
X1236458D01*
X1229438Y0860279D02*
X1230474D01*
X11408Y09143D02*
Y09254D01*
X11406Y09141D02*
X11408Y09143D01*
X11372Y09386D02*
X11405Y09419D01*
X1250508Y09291D02*
Y0936992D01*
X11405Y09419D02*
Y09496D01*
X12544Y08566D02*
Y08576D01*
X1223116Y08561D02*
Y0867616D01*
X11518Y09527D02*
X11551Y09494D01*
X11533Y09464D02*
X1155667Y0948767D01*
X11858Y08907D02*
X11935D01*
X1226756Y0862962D02*
X1229438Y0860279D01*
X1226756Y0862962D02*
Y0921356D01*
X12241Y0924012D02*
X1226756Y0921356D01*
X12241Y0924012D02*
Y09311D01*
X1238348Y0948448D02*
X12396Y09497D01*
X1238348Y0948448D02*
X12396D01*
X11848Y08917D02*
X11858Y08907D01*
X11848Y08917D02*
Y0897D01*
X11249Y09558D02*
X1131Y09619D01*
X11249Y0949533D02*
Y09558D01*
X11518Y09527D02*
Y09621D01*
X1148Y09121D02*
Y09559D01*
X11418Y09621D02*
X1148Y09559D01*
X1158058Y0967458D02*
X11638Y09732D01*
X1140342Y0967458D02*
X1158058D01*
X11638Y09732D02*
X1181D01*
X11533Y09103D02*
Y09464D01*
X11301Y09382D02*
X11371D01*
X1125542Y0933642D02*
X11301Y09382D01*
X1125542Y0922794D02*
Y0933642D01*
X12396Y09289D02*
Y0948448D01*
Y092426D02*
Y09289D01*
Y092426D02*
X1242066Y0921793D01*
Y0911485D02*
Y0921793D01*
X12449Y09272D02*
Y09329D01*
X12068Y0898D02*
Y0915171D01*
X12148Y09056D02*
Y0915297D01*
X12067Y08979D02*
X12068Y0898D01*
X1254096Y0907767D02*
X1257815Y0911485D01*
Y0921793D01*
X1250508Y09291D02*
X1257815Y0921793D01*
X1250292Y0936992D02*
X1250508D01*
X12449Y09272D02*
X1249941Y0922159D01*
Y0911485D02*
Y0922159D01*
X1246222Y0907767D02*
X1249941Y0911485D01*
X1238348Y0907767D02*
X1242066Y0911485D01*
X1238348Y08566D02*
Y0907767D01*
X12011Y08848D02*
Y09004D01*
X11164Y08834D02*
X11252Y08922D01*
X11164Y08684D02*
Y08834D01*
X11252Y08922D02*
Y09072D01*
X1111095Y0863095D02*
X11164Y08684D01*
X11402Y0869495D02*
Y09024D01*
X11338Y0863095D02*
X11402Y0869495D01*
X11352Y08888D02*
Y0906D01*
X1127149Y0880749D02*
X11352Y08888D01*
X1230474Y08566D02*
Y0860279D01*
X1127149Y0866549D02*
Y0880749D01*
X11854Y09026D02*
X1189381D01*
X1189395Y0902586D01*
X1198914D01*
X12011Y09004D01*
X11252Y09072D02*
X11306Y09126D01*
X11362Y08115D02*
Y08171D01*
X1198983Y0882683D02*
X12011Y08848D01*
X1193072Y0882683D02*
X1198983D01*
X11402Y09024D02*
Y09043D01*
X11352Y0906D02*
X11406Y09114D01*
X11508Y09078D02*
X11533Y09103D01*
X11508Y09031D02*
Y09078D01*
X11405Y0914D02*
X11406Y09141D01*
Y09144D01*
Y09114D02*
Y09141D01*
X11306Y09126D02*
Y09144D01*
X1125542Y0922794D02*
X11256Y0922736D01*
Y0912694D02*
Y0922736D01*
X11202Y0907294D02*
X11256Y0912694D01*
X11202Y09024D02*
Y0907294D01*
X11402Y09043D02*
X11479Y0912D01*
X11308Y09146D02*
Y09254D01*
X11356Y09722D02*
X1140342Y0967458D01*
X1123695Y0863095D02*
X1127149Y0866549D01*
X1121899Y0863095D02*
X1123695D01*
X1109998D02*
X1111095D01*
X1181Y0973142D02*
X1217058D01*
X12205Y09697D01*
X10648Y09411D02*
X1076Y09523D01*
X10604Y0944299D02*
X1068401Y09523D01*
X10474Y0829D02*
X10513Y08329D01*
X10554Y09479D02*
X10598Y09523D01*
X10554Y09479D02*
X10554Y07711D01*
X10694Y07571D01*
X1051326Y0952275D02*
X1051351Y0952249D01*
X12148Y0915297D02*
X1215242Y0915739D01*
X10594Y09529D02*
X1059752Y0952548D01*
X1051351Y09613D02*
X10596D01*
X12068Y0915171D02*
X1207368Y0915739D01*
D23*
X11701Y0969D02*
D03*
Y096D02*
D03*
D24*
X1169Y08976D02*
D03*
X1178D02*
D03*
X12554Y07807D02*
D03*
X12553Y07959D02*
D03*
X11771Y078D02*
D03*
X11772Y07953D02*
D03*
X11681Y08402D02*
D03*
X11771D02*
D03*
X11681Y078D02*
D03*
X10121Y07952D02*
D03*
X10211D02*
D03*
X09919Y07581D02*
D03*
X10009D02*
D03*
X10119Y07762D02*
D03*
X10209D02*
D03*
X10684Y07592D02*
D03*
X10774D02*
D03*
X10888Y078D02*
D03*
X10978D02*
D03*
X10884Y07957D02*
D03*
X10974D02*
D03*
X11682Y07953D02*
D03*
X11483Y07587D02*
D03*
X11573D02*
D03*
X12463Y07959D02*
D03*
X12272Y07593D02*
D03*
X12362D02*
D03*
X12464Y07807D02*
D03*
D25*
X1179015Y09147D02*
D03*
X1168385D02*
D03*
D26*
X12668Y07727D02*
D03*
X12778Y08117D02*
D03*
X1189Y07709D02*
D03*
X12Y08099D02*
D03*
X1189D02*
D03*
X12Y07709D02*
D03*
X11208Y08108D02*
D03*
X11098D02*
D03*
X11208Y07718D02*
D03*
X11098D02*
D03*
X10428Y08105D02*
D03*
X10318D02*
D03*
X10428Y07715D02*
D03*
X10318D02*
D03*
X12668Y08117D02*
D03*
X12778Y07727D02*
D03*
D27*
X0997Y0777279D02*
D03*
X09933Y07871D02*
D03*
X100074Y0787121D02*
D03*
X107504Y0786621D02*
D03*
X10676Y07866D02*
D03*
X10713Y0776779D02*
D03*
X115464Y0787621D02*
D03*
X11472Y07876D02*
D03*
X11509Y0777779D02*
D03*
X123684Y0788021D02*
D03*
X12294Y0788D02*
D03*
X12331Y0778179D02*
D03*
D28*
X1076Y09613D02*
D03*
Y09523D02*
D03*
X1051351D02*
D03*
Y09613D02*
D03*
X10598Y09523D02*
D03*
Y09613D02*
D03*
X1068401Y09523D02*
D03*
Y09613D02*
D03*
D29*
X1027968Y0758086D02*
D03*
X1011432D02*
D03*
X1105568Y0758586D02*
D03*
X1089032D02*
D03*
X1185168Y0759086D02*
D03*
X1168632D02*
D03*
X1263369Y0759686D02*
D03*
X1246833D02*
D03*
D30*
X126Y0972379D02*
D03*
Y094482D02*
D03*
D31*
X1193072Y0866935D02*
D03*
Y0874809D02*
D03*
Y0882683D02*
D03*
Y0890557D02*
D03*
Y0898431D02*
D03*
Y0906305D02*
D03*
D32*
X1198978Y0916639D02*
D03*
X1206852D02*
D03*
X1214726D02*
D03*
X12226D02*
D03*
X1230474D02*
D03*
X1238348D02*
D03*
X1246222D02*
D03*
X1254096D02*
D03*
X1238348Y08566D02*
D03*
X1230474D02*
D03*
X12226D02*
D03*
X1214726D02*
D03*
X1206852D02*
D03*
X1198978D02*
D03*
X1246222D02*
D03*
X1254096D02*
D03*
D33*
X11724Y08794D02*
D03*
D34*
X1181455Y08554D02*
D03*
X1163345D02*
D03*
X11724D02*
D03*
D71*
X12695Y0759686D02*
G03*
X12795Y0769686I0J001D01*
G01*
X12801Y0749686D02*
G03*
X12701Y0759686I-001J0D01*
G01*
X1260675Y0932787D02*
G03*
X12615Y09343I-0000975J0001513D01*
G01*
X10327Y0758086D02*
G03*
X10427Y0768086I0J001D01*
G01*
X1239137Y07589D02*
G03*
X12384Y0758517I0J-00009D01*
G01*
X1235471Y0738647D02*
G03*
X12384Y0745718I-0007071J0007071D01*
G01*
X10016Y0765779D02*
G03*
X1001587Y0766113I-00043J0D01*
G01*
X103751Y075559D02*
G03*
X10309Y0758086I-000661J-0007504D01*
G01*
X10409Y0748086D02*
G03*
X1038404Y0754696I-001J0D01*
G01*
X11208Y0748186D02*
G03*
X1118304Y0754796I-001J0D01*
G01*
X111741Y075569D02*
G03*
X11108Y0758186I-000661J-0007504D01*
G01*
X11105Y0758586D02*
G03*
X11205Y0768586I0J001D01*
G01*
X119541Y075669D02*
G03*
X11888Y0759186I-000661J-0007504D01*
G01*
X11906D02*
G03*
X12006Y0769186I0J001D01*
G01*
X11988Y0749186D02*
G03*
X1196304Y0755796I-001J0D01*
G01*
X1154671Y0738647D02*
G03*
X11576Y0745718I-0007071J0007071D01*
G01*
X0998871Y0741947D02*
G03*
X10018Y0749018I-0007071J0007071D01*
G01*
X0993156Y0736232D02*
G03*
X0994428Y0736328I0J0008444D01*
G01*
X1151056Y0737331D02*
G03*
X1152328Y0737428I0J0008444D01*
G01*
X1196304Y0755796D02*
G03*
X119541Y075669I-0007504J-000661D01*
G01*
X1118304Y0754796D02*
G03*
X111741Y075569I-0007504J-000661D01*
G01*
X1038404Y0754696D02*
G03*
X103751Y075559I-0007504J-000661D01*
G01*
X11781Y084145D02*
Y08415D01*
X10907Y08421D02*
X11015Y08313D01*
X11771Y08402D02*
X12126D01*
X117775Y08411D02*
X11781Y084145D01*
X11717Y08313D02*
X11761Y08357D01*
X11015Y08313D02*
X11717D01*
X11777Y08411D02*
X117775D01*
X11023Y08166D02*
Y081965D01*
X11761Y08357D02*
Y083895D01*
X117675Y08396D01*
X10746Y0803D02*
Y08205D01*
X10082Y08174D02*
X10104Y08196D01*
X1178Y0884095D02*
Y08976D01*
X12438Y08112D02*
X12463Y08087D01*
Y07959D02*
Y08087D01*
X11686Y07952D02*
Y08152D01*
X12669Y08136D02*
Y08218D01*
X12655Y08232D02*
X12669Y08218D01*
X12176Y08298D02*
Y08352D01*
X12126Y08402D02*
X12176Y08352D01*
X11744Y0878306D02*
Y08794D01*
X1179015Y09147D02*
X11807Y0916385D01*
Y09168D01*
X11555Y08782D02*
Y08904D01*
X11627Y08976D01*
X1169D01*
X1168385Y0898085D02*
Y09147D01*
X11682Y08979D02*
X1168385Y0898085D01*
X118375Y092285D02*
X11915D01*
X1178Y09141D02*
X11807Y09168D01*
X11792Y09183D02*
X1180497D01*
X1180515Y0918318D01*
Y0919615D01*
X118375Y092285D01*
X1178Y08976D02*
Y09141D01*
X11915Y092285D02*
Y09232D01*
Y09245D01*
X1198978Y0916256D02*
Y0916639D01*
Y0916256D02*
X1199494Y0915739D01*
X11915Y09232D02*
X11954D01*
X1155494Y0873106D02*
Y0877094D01*
Y0873106D02*
X1163345Y0865255D01*
Y08554D02*
Y0865255D01*
X11402Y08401D02*
Y08512D01*
Y08401D02*
X11403Y084D01*
X11793Y08129D02*
Y08158D01*
X1181455Y0844855D02*
Y08554D01*
X11781Y08415D02*
X1181455Y0844855D01*
X10907Y08421D02*
Y08493D01*
X11724Y08794D02*
X11744D01*
Y0880494D01*
X1178Y0884095D01*
X12554Y07807D02*
X12637D01*
X12665Y07736D02*
Y07779D01*
X12637Y07807D02*
X12665Y07779D01*
X12668Y07776D01*
X12739Y07958D02*
X12782Y08001D01*
Y0813D01*
X12553Y07959D02*
X12735D01*
X11771Y078D02*
X11857D01*
X1189Y07767D01*
Y07703D02*
Y07709D01*
Y07767D01*
X11772Y07953D02*
X11948D01*
X12001Y08006D01*
Y08088D01*
X1199494Y0915739D02*
Y0919606D01*
X11959Y09232D02*
X1199494Y0919606D01*
X1194101Y0924999D02*
Y0949533D01*
X12695Y0759686D02*
X12701D01*
X12801Y0736031D02*
Y0749686D01*
Y07354D02*
Y0736031D01*
X12615Y09343D02*
Y0945D01*
X10016Y0758086D02*
Y0765779D01*
X099384Y0736916D02*
X0998871Y0741947D01*
X0993744Y0735644D02*
X0994428Y0736328D01*
X12367Y07858D02*
X12418Y07807D01*
X12464D01*
X0997Y07707D02*
X1001587Y0766113D01*
X10746Y0803D02*
X10819Y07957D01*
X10884D01*
X10082Y0799D02*
Y08174D01*
Y0799D02*
X1012Y07952D01*
X10775Y07592D02*
Y07655D01*
Y07407D02*
Y07592D01*
X10879D01*
X10774D02*
X10775D01*
X10879D02*
X10885Y07586D01*
X10735Y07367D02*
X10775Y07407D01*
X10713Y07717D02*
X10775Y07655D01*
X10713Y07717D02*
Y0776779D01*
X11588Y07807D02*
X11679D01*
X115464Y078486D02*
X11588Y07807D01*
X115464Y078486D02*
Y0787621D01*
X10307Y08119D02*
X10321Y08105D01*
X10307Y08119D02*
Y08257D01*
X11824Y08098D02*
X11864D01*
X11793Y08129D02*
X11824Y08098D01*
X11023Y08166D02*
X11076Y08113D01*
X123684Y078616D02*
Y0788021D01*
X11634Y08204D02*
X11686Y08152D01*
X11508Y08204D02*
X11634D01*
X11203Y08001D02*
Y08102D01*
X11159Y07957D02*
X11203Y08001D01*
X10974Y07957D02*
X11159D01*
X10753Y07858D02*
X10811Y078D01*
X10888D01*
X11043D02*
X11102Y07741D01*
X10978Y078D02*
X11043D01*
X10278Y07762D02*
X10323Y07717D01*
X10209Y07762D02*
X10278D01*
X10426Y0802D02*
Y08083D01*
X10358Y07952D02*
X10426Y0802D01*
X10211Y07952D02*
X10358D01*
X10073Y07759D02*
X10123D01*
X1005Y07782D02*
X10073Y07759D01*
X1005Y07782D02*
Y0782862D01*
X100074Y0787121D02*
X1005Y0782862D01*
X1239137Y07589D02*
X1247D01*
X12384Y0758517D02*
Y07658D01*
Y0745718D02*
Y0758517D01*
X1232856Y0736031D02*
X1235471Y0738647D01*
X12331Y0771D02*
X12383Y07658D01*
X12331Y0771D02*
Y0778179D01*
X11577Y07575D02*
X1167646D01*
X11576Y0745718D02*
Y07585D01*
X11573Y07569D02*
X11574Y07568D01*
X11573Y07569D02*
Y07669D01*
X11509Y07733D02*
X11573Y07669D01*
X11509Y07733D02*
Y0777779D01*
X10016Y07564D02*
Y0758086D01*
X1001587Y0766113D02*
X10017Y0766D01*
X0997Y07707D02*
Y0777279D01*
X1027968Y0758086D02*
X10309D01*
X10327D01*
X10412Y07334D02*
Y07365D01*
X10409D02*
Y0748086D01*
X11211Y07335D02*
Y07366D01*
X11208D02*
Y0748186D01*
X1105568Y0758586D02*
X11105D01*
X1107868Y0758186D02*
X11108D01*
X11126D01*
X11888Y0759186D02*
X11906D01*
X11988Y07376D02*
Y0749186D01*
X11991Y07345D02*
Y07376D01*
X1185868Y0759186D02*
X11888D01*
X12006Y0769186D02*
Y07713D01*
X1263369Y0759686D02*
X12695D01*
X12795Y0769686D02*
Y07722D01*
X1151856Y0735831D02*
X1154671Y0738647D01*
X10018Y0749018D02*
Y07575D01*
X09925Y07344D02*
X0993744Y0735644D01*
X0993156Y0736232D02*
X099384Y0736916D01*
X1235Y09229D02*
X12383Y09196D01*
X1167646Y07575D02*
X1169332Y0759186D01*
X11504Y07355D02*
X11511Y07362D01*
X11205Y0768586D02*
Y07705D01*
X1199Y07344D02*
X11991Y07345D01*
X1121Y07334D02*
X11211Y07335D01*
X10427Y0768086D02*
Y07702D01*
X12383Y0916687D02*
Y09196D01*
Y0916687D02*
X1238348Y0916639D01*
X10411Y07333D02*
X10412Y07334D01*
X1003086Y0758086D02*
X1011432D01*
D72*
X1223215Y0677815D02*
X12326Y06872D01*
X122185Y0676543D02*
X1223122Y0677815D01*
X1223215D01*
X1216143Y0676543D02*
X122185D01*
X12161Y06765D02*
X1216143Y0676543D01*
X12109Y0658982D02*
Y06713D01*
X12161Y06765D01*
X1210365Y0658448D02*
X12109Y0658982D01*
X1210365Y0657535D02*
X12109Y0657D01*
X1210365Y0657535D02*
Y0658448D01*
X12819Y0693335D02*
Y07066D01*
X12701Y07184D02*
X12819Y07066D01*
X12815Y0688047D02*
Y06882D01*
X1275476Y0682023D02*
X12815Y0688047D01*
X1275476Y0681468D02*
Y0682023D01*
X1275296Y0681287D02*
X1275476Y0681468D01*
X1275296Y0681202D02*
Y0681287D01*
X1265817Y0671724D02*
X1275296Y0681202D01*
X12282Y07184D02*
X12701D01*
X12156Y0731D02*
X12282Y07184D01*
X1265024Y0671724D02*
X1265817D01*
X12156Y0731D02*
Y07445D01*
X1250162Y0656862D02*
X1265024Y0671724D01*
X1249862Y0656862D02*
X1250162D01*
X1151643Y0686843D02*
X11524Y06876D01*
X11511Y0686843D02*
X1151643D01*
X11511Y0661182D02*
Y0686843D01*
X1148065Y0658148D02*
X11511Y0661182D01*
X1144543Y0686843D02*
X11511D01*
X11347Y0677D02*
X1144543Y0686843D01*
X1148065Y0654835D02*
Y0658148D01*
Y0654835D02*
X11481Y06548D01*
X11878Y07179D02*
X12003Y07054D01*
Y0692535D02*
Y07054D01*
X11352Y07304D02*
X11477Y07179D01*
X11878D01*
X11352Y07304D02*
Y07443D01*
X11875Y06762D02*
X11991Y06878D01*
X11875Y06593D02*
Y06762D01*
X10748Y06895D02*
X10851Y06792D01*
Y06577D02*
Y06792D01*
X10578Y06895D02*
X10748D01*
X1121776Y0661829D02*
Y0669617D01*
X1125Y06566D02*
X1125196Y0656796D01*
X1121776Y0661829D02*
X1125196Y065841D01*
Y0656796D02*
Y065841D01*
X11203Y0671094D02*
X1121776Y0669617D01*
X11203Y0671094D02*
Y06879D01*
X09924Y06665D02*
Y06882D01*
X10021Y06568D02*
X10232D01*
X09924Y06665D02*
X10021Y06568D01*
X09913Y0688453D02*
Y06885D01*
X099009Y0687243D02*
X09913Y0688453D01*
X0987443Y0687243D02*
X099009D01*
X09783Y06781D02*
X0987443Y0687243D01*
X1056977Y0673817D02*
X1059723Y0671071D01*
X1059728Y0670568D02*
X1060076Y067022D01*
X1059723Y0671071D02*
X1059728Y0670568D01*
X1048617Y0682176D02*
Y0682177D01*
X1045871Y0684923D02*
X1048617Y0682177D01*
X1056976Y0673817D02*
X1056977D01*
X1048617Y0682176D02*
X1056976Y0673817D01*
X1060076Y0661406D02*
X1063035Y0658448D01*
Y0657935D02*
Y0658448D01*
X1060076Y0661406D02*
Y067022D01*
X10621Y0657D02*
X1063035Y0657935D01*
X1035Y07137D02*
X10398Y07089D01*
X09967Y07137D02*
X1035D01*
X10398Y06907D02*
Y07089D01*
X09786Y07318D02*
Y07457D01*
Y07318D02*
X09967Y07137D01*
X104502Y0685276D02*
X1045376Y0684923D01*
X1043324Y0685276D02*
X104502D01*
X1045376Y0684923D02*
X1045871D01*
X10404Y06882D02*
X1043324Y0685276D01*
X11724Y08554D02*
Y08786D01*
D73*
X11199Y06884D02*
Y07046D01*
X11196Y06881D02*
X11199Y06884D01*
X10558Y07366D02*
X10757Y07167D01*
X11078D01*
X10558Y07366D02*
Y07495D01*
X11078Y07167D02*
X11199Y07046D01*
D74*
X119395Y092285D02*
D03*
D75*
X11399Y0949533D02*
D03*
X11249D02*
D03*
X11699D02*
D03*
X11549D02*
D03*
X11099D02*
D03*
X11399D02*
D03*
X11249D02*
D03*
X1224101D02*
D03*
X1209101D02*
D03*
X1194101D02*
D03*
D76*
X1094Y09721D02*
D03*
D77*
Y09621D02*
D03*
D78*
X12078Y08286D02*
D03*
X12178D02*
D03*
X12278D02*
D03*
X12378D02*
D03*
X13082Y09096D02*
D03*
Y08996D02*
D03*
Y08896D02*
D03*
Y08796D02*
D03*
Y08696D02*
D03*
Y08596D02*
D03*
Y08496D02*
D03*
X11518Y09621D02*
D03*
X11418D02*
D03*
X11318D02*
D03*
X11218D02*
D03*
X11202Y09024D02*
D03*
X11302D02*
D03*
X11402D02*
D03*
X11502D02*
D03*
D79*
X12478Y08286D02*
D03*
X11118Y09621D02*
D03*
X11102Y09024D02*
D03*
D80*
X10907Y09103D02*
D03*
Y08493D02*
D03*
X09747Y08698D02*
D03*
D81*
Y08898D02*
D03*
D82*
X10182Y09323D02*
D03*
X10382D02*
D03*
D83*
X12321Y0688D02*
D03*
X12801D02*
D03*
X1256478Y0743905D02*
D03*
X11511Y06878D02*
D03*
X11991D02*
D03*
X1175478Y0743706D02*
D03*
X10723Y06879D02*
D03*
X11203D02*
D03*
X1096678Y0743806D02*
D03*
X09924Y06882D02*
D03*
X10404D02*
D03*
X1016778Y0744105D02*
D03*
X1232856Y0736031D02*
D03*
X12801D02*
D03*
X1151856Y0735831D02*
D03*
X11991D02*
D03*
X1073056Y0735931D02*
D03*
X11203D02*
D03*
X0993156Y0736232D02*
D03*
X10404D02*
D03*
D84*
X12161Y06765D02*
D03*
X12156Y07445D02*
D03*
Y07145D02*
D03*
X12161Y07065D02*
D03*
X11347Y0677D02*
D03*
X11352Y07443D02*
D03*
Y07143D02*
D03*
X11347Y0707D02*
D03*
X10578Y06895D02*
D03*
X1058Y07495D02*
D03*
X09783Y06781D02*
D03*
X09786Y07457D02*
D03*
Y07157D02*
D03*
X09783Y07081D02*
D03*
D85*
X12096Y06566D02*
D03*
X1249862Y0656862D02*
D03*
X1229862D02*
D03*
X11473Y06563D02*
D03*
X1187562Y0656562D02*
D03*
X1167562D02*
D03*
X1085699Y06563D02*
D03*
X1125961Y0656562D02*
D03*
X1105961D02*
D03*
X1023538Y0656338D02*
D03*
X10638Y06566D02*
D03*
X10438D02*
D03*
D86*
X1058Y07195D02*
D03*
X10578Y07195D02*
D03*
D87*
X11402Y08512D02*
D03*
X11102D02*
D03*
X11402Y08394D02*
D03*
X11102D02*
D03*
D88*
X13082Y09196D02*
D03*
D89*
X11406Y09144D02*
D03*
X11306D02*
D03*
X11206D02*
D03*
X11408Y09254D02*
D03*
X11308D02*
D03*
X11208D02*
D03*
X1211Y09684D02*
D03*
X1221D02*
D03*
X1231D02*
D03*
X11256Y09722D02*
D03*
X11356D02*
D03*
X11456D02*
D03*
X13084Y08315D02*
D03*
Y08215D02*
D03*
Y08115D02*
D03*
D90*
X11106Y09144D02*
D03*
X11108Y09254D02*
D03*
X1201Y09684D02*
D03*
X11156Y09722D02*
D03*
D91*
X1145701Y0873095D02*
D03*
X1145701Y0863095D02*
D03*
X1109998Y0873095D02*
D03*
X1109998Y0863095D02*
D03*
X1121899Y0873095D02*
D03*
X1121899Y0863095D02*
D03*
X11338D02*
D03*
X11338Y0873095D02*
D03*
D92*
X10281Y0945678D02*
D03*
D93*
Y09693D02*
D03*
D94*
X1009596Y0957489D02*
D03*
D95*
X10949Y0949533D02*
D03*
D96*
X1239101D02*
D03*
D97*
X13084Y08015D02*
D03*
D98*
X11023Y081965D02*
D03*
X10746Y08206D02*
D03*
X11779Y08901D02*
D03*
X12438Y08112D02*
D03*
X12655Y08232D02*
D03*
X12337Y08943D02*
D03*
X12233Y09054D02*
D03*
X11949Y08451D02*
D03*
X12269Y07976D02*
D03*
X11472Y07967D02*
D03*
X10676Y07953D02*
D03*
X09933Y07972D02*
D03*
X11917Y09211D02*
D03*
X1155494Y0877094D02*
D03*
X11793Y08158D02*
D03*
X10103Y08194D02*
D03*
X11398Y09566D02*
D03*
X10307Y08257D02*
D03*
X11372Y09386D02*
D03*
X11508Y08204D02*
D03*
X1235Y09229D02*
D03*
X12241Y09311D02*
D03*
X11963Y09244D02*
D03*
X11915Y09245D02*
D03*
X11852Y09026D02*
D03*
X11848Y0897D02*
D03*
X12396Y09289D02*
D03*
X12449Y09329D02*
D03*
X12597Y09325D02*
D03*
X1250292Y0936992D02*
D03*
X12067Y08979D02*
D03*
X12231Y08678D02*
D03*
X12148Y09056D02*
D03*
X1265Y09547D02*
D03*
D99*
X1122047Y0838582D02*
D03*
X1071746Y0874016D02*
D03*
X127559Y0791338D02*
D03*
X1281496Y0779527D02*
D03*
X1263779Y0791338D02*
D03*
X1251968Y0956693D02*
D03*
Y081496D02*
D03*
Y0767716D02*
D03*
X1246063Y0968504D02*
D03*
X1234252Y0803149D02*
D03*
X1228346Y0767716D02*
D03*
X121063Y0803149D02*
D03*
X1204724Y0791338D02*
D03*
X121063Y0779527D02*
D03*
X1192913Y0791338D02*
D03*
X1198818Y0779527D02*
D03*
X1181102Y0956693D02*
D03*
X1187008Y0944882D02*
D03*
Y0803149D02*
D03*
X1181102Y0767716D02*
D03*
X1175196Y0803149D02*
D03*
X1169291Y0767716D02*
D03*
X1163385Y0944882D02*
D03*
Y092126D02*
D03*
Y0897637D02*
D03*
X115748Y0885826D02*
D03*
X1163385Y0874016D02*
D03*
X115748Y0838582D02*
D03*
Y081496D02*
D03*
X1163385Y0803149D02*
D03*
X1145669Y0885826D02*
D03*
X1151575Y0874016D02*
D03*
Y0803149D02*
D03*
X1145669Y0767716D02*
D03*
X1133858Y0909449D02*
D03*
X1139763Y0803149D02*
D03*
Y0779527D02*
D03*
X1127952Y0850393D02*
D03*
Y0803149D02*
D03*
X1122047Y0791338D02*
D03*
X1127952Y0779527D02*
D03*
X1116141Y0944882D02*
D03*
X1110236Y0933071D02*
D03*
X1116141Y092126D02*
D03*
Y0897637D02*
D03*
X1110236Y0885826D02*
D03*
X1116141Y0803149D02*
D03*
X1110236Y0791338D02*
D03*
X1116141Y0779527D02*
D03*
X1098425Y0933071D02*
D03*
X110433Y092126D02*
D03*
X1098425Y0909449D02*
D03*
X110433Y0897637D02*
D03*
X1098425Y0885826D02*
D03*
Y0862204D02*
D03*
X110433Y0803149D02*
D03*
X1098425Y0767716D02*
D03*
X1092519Y092126D02*
D03*
Y0897637D02*
D03*
Y0874016D02*
D03*
Y0803149D02*
D03*
X1086614Y0767716D02*
D03*
X1080708Y0897637D02*
D03*
X1074803Y0862204D02*
D03*
X1080708Y0803149D02*
D03*
X1068897D02*
D03*
X1062992Y0791338D02*
D03*
X1051181D02*
D03*
Y0767716D02*
D03*
X1045275Y0897637D02*
D03*
Y0874016D02*
D03*
X103937Y0862204D02*
D03*
Y0791338D02*
D03*
X1045275Y0779527D02*
D03*
X1027559Y0862204D02*
D03*
X1033464Y0803149D02*
D03*
Y0779527D02*
D03*
X1015748Y0862204D02*
D03*
X1021653Y0803149D02*
D03*
X1015748Y0767716D02*
D03*
X1003937Y0909449D02*
D03*
Y0862204D02*
D03*
Y081496D02*
D03*
X0992126Y0909449D02*
D03*
X0998031Y0897637D02*
D03*
X0992126Y0862204D02*
D03*
Y081496D02*
D03*
X0998031Y0803149D02*
D03*
X0992126Y0767716D02*
D03*
X098622Y0897637D02*
D03*
X0980315Y081496D02*
D03*
Y0791338D02*
D03*
Y0767716D02*
D03*
M02*
